<?xml version="1.0" encoding="UTF-8"?>
<!DOCTYPE svg PUBLIC "-//W3C//DTD SVG 1.1//EN" "http://www.w3.org/Graphics/SVG/1.1/DTD/svg11.dtd">
<!-- Creator: CorelDRAW 2019 (64 Bit) -->
<svg xmlns="http://www.w3.org/2000/svg" xml:space="preserve" width="12.7mm" height="12.7mm" version="1.1" style="shape-rendering:geometricPrecision; text-rendering:geometricPrecision; image-rendering:optimizeQuality; fill-rule:evenodd; clip-rule:evenodd"
viewBox="0 0 6.91 6.91"
 xmlns:xlink="http://www.w3.org/1999/xlink">
 <defs>
  <style type="text/css">
   <![CDATA[
    .fil0 {fill:#489B6C;fill-rule:nonzero}
    .fil1 {fill:white;fill-rule:nonzero}
   ]]>
  </style>
 </defs>
 <g id="Camada_x0020_1">
  <metadata id="CorelCorpID_0Corel-Layer"/>
  <g id="_1980623281952">
   <path class="fil0" d="M6.91 3.45c0,-1.91 -1.55,-3.45 -3.45,-3.45 -1.91,0 -3.45,1.55 -3.45,3.45 0,1.72 1.26,3.15 2.91,3.41l0 -2.41 -0.88 0 0 -1 0.88 0 0 -0.76c0,-0.87 0.52,-1.34 1.3,-1.34 0.38,0 0.77,0.07 0.77,0.07l0 0.85 -0.44 0c-0.43,0 -0.56,0.27 -0.56,0.54l0 0.65 0.96 0 -0.15 1 -0.8 0 0 2.41c1.65,-0.26 2.91,-1.69 2.91,-3.41z"/>
   <path class="fil1" d="M4.8 4.45l0.15 -1 -0.96 0 0 -0.65c0,-0.27 0.13,-0.54 0.56,-0.54l0.44 0 0 -0.85c0,0 -0.4,-0.07 -0.77,-0.07 -0.79,0 -1.3,0.48 -1.3,1.34l0 0.76 -0.88 0 0 1 0.88 0 0 2.41c0.18,0.03 0.36,0.04 0.54,0.04 0.18,0 0.36,-0.01 0.54,-0.04l0 -2.41 0.8 0z"/>
  </g>
 </g>
</svg>
