<?xml version="1.0" encoding="UTF-8"?>
<!DOCTYPE svg PUBLIC "-//W3C//DTD SVG 1.1//EN" "http://www.w3.org/Graphics/SVG/1.1/DTD/svg11.dtd">
<!-- Creator: CorelDRAW 2019 (64 Bit) -->
<svg xmlns="http://www.w3.org/2000/svg" xml:space="preserve" width="931.263mm" height="601.345mm" version="1.1" style="shape-rendering:geometricPrecision; text-rendering:geometricPrecision; image-rendering:optimizeQuality; fill-rule:evenodd; clip-rule:evenodd"
viewBox="0 0 91479.54 59071.16"
 xmlns:xlink="http://www.w3.org/1999/xlink">
 <defs>
  <style type="text/css">
   <![CDATA[
    .fil0 {fill:#FEFEFE;fill-rule:nonzero}
    .fil18 {fill:#BDBFC1;fill-rule:nonzero}
    .fil17 {fill:#F7A190;fill-rule:nonzero}
    .fil16 {fill:#E78975;fill-rule:nonzero}
    .fil5 {fill:#CFD4EB;fill-rule:nonzero}
    .fil14 {fill:#D5863B;fill-rule:nonzero}
    .fil2 {fill:#C8C5E2;fill-rule:nonzero}
    .fil11 {fill:#AEB7DD;fill-rule:nonzero}
    .fil13 {fill:#ABABD5;fill-rule:nonzero}
    .fil6 {fill:#9D9FBA;fill-rule:nonzero}
    .fil12 {fill:#8A8DB2;fill-rule:nonzero}
    .fil9 {fill:#2C2B42;fill-rule:nonzero}
    .fil7 {fill:#3E4095;fill-rule:nonzero}
    .fil4 {fill:#393668;fill-rule:nonzero}
    .fil15 {fill:#3A3866;fill-rule:nonzero}
    .fil10 {fill:#428961;fill-rule:nonzero}
    .fil8 {fill:#489B6C;fill-rule:nonzero}
    .fil3 {fill:#70CC98;fill-rule:nonzero}
    .fil1 {fill:#ADFFD1;fill-rule:nonzero}
   ]]>
  </style>
 </defs>
 <g id="Camada_x0020_1">
  <metadata id="CorelCorpID_0Corel-Layer"/>
  <g id="_2103014496240">
   <polygon class="fil0" points="-0,59071.16 91479.54,59071.16 91479.54,0 -0,0 "/>
   <path class="fil1" d="M78482.49 24579.76c-14185.69,-685.93 -7723.03,-15487.96 -7793.49,-15873.36 -70.47,-385.22 3574.64,-14001.66 -47479.51,1186.02 0,0 -5514.57,1387.7 -12056.12,-925.1 -6541.62,-2312.85 -10650.17,10330.55 0,35925.16 0,0 1630.22,2698.51 -4074.73,1696.33 -5704.7,-1002.17 -4152.69,6065.48 3782.43,8313.48 3547.58,1486.31 17300.1,2595.25 33724.68,2595.25 19116.73,0 34613.92,-1501.56 34613.92,-3353.47 0,-78.32 53.01,-39.85 78.58,-1.73 26.19,38.12 25.57,75.88 -78.58,1.73 979.71,-779.7 2635.45,-3297.3 5588.96,-8634.38 4394.09,-7940.98 7878.31,-20243.94 -6306.14,-20929.93z"/>
   <path class="fil2" d="M79242.69 54107.68c-14.34,12.13 -29.31,24.95 -43.03,36.39 143.43,101.53 90.42,-6.24 43.03,-36.39z"/>
   <path class="fil3" d="M80788.05 52234.67c-31966.54,-7948.22 -64637.48,-3014.19 -75836.53,-866.73 1180.57,1398.99 3161.6,2755.69 5909.55,3534.36 3547.58,1486.31 17300.1,2595.25 33724.68,2595.25 19116.73,0 34613.92,-1501.56 34613.92,-3353.47 0,-48.86 20.58,-50.6 43.03,-36.39 395.38,-328.15 897.41,-929.76 1545.35,-1873.01z"/>
   <polygon class="fil4" points="25567.86,50900.85 25057.05,50962.52 23134.34,35089.23 23645.03,35027.55 "/>
   <polygon class="fil4" points="15512.09,50900.85 16022.85,50962.52 17945.56,35089.23 17434.68,35027.55 "/>
   <polygon class="fil5" points="12688.8,36823.35 28547.01,36823.35 28547.01,14405.07 12688.8,14405.07 "/>
   <polygon class="fil0" points="13074.71,36277.86 28161.04,36277.86 28161.04,14950.74 13074.71,14950.74 "/>
   <path class="fil6" d="M25193.63 23025.55l-732.08 0c-775.42,0 -1403.85,628.31 -1403.85,1403.79 0,467.29 228.56,881.32 579.72,1136.44l-105.33 838.28 929.46 -570.93 732.08 0c775.29,0 1403.85,-628.67 1403.85,-1403.79 0,-775.48 -628.56,-1403.79 -1403.85,-1403.79z"/>
   <path class="fil2" d="M21783.68 25941.58l607.92 0c643.83,0 1165.93,521.91 1165.93,1165.81 0,387.97 -189.76,731.89 -481.63,943.5l87.49 696.03 -771.8 -473.71 -607.92 0c-643.77,0 -1165.69,-522.29 -1165.69,-1165.81 0,-643.9 521.91,-1165.81 1165.69,-1165.81z"/>
   <polygon class="fil7" points="12688.8,15331.78 28547.01,15331.78 28547.01,14405.08 12688.8,14405.08 "/>
   <polygon class="fil5" points="14295.45,24954.25 19060.86,24954.25 19060.86,24637.79 14295.45,24637.79 "/>
   <polygon class="fil5" points="14295.45,25499.37 18851.44,25499.37 18851.44,25182.87 14295.45,25182.87 "/>
   <polygon class="fil5" points="14295.45,26044.6 18315.06,26044.6 18315.06,25728.11 14295.45,25728.11 "/>
   <polygon class="fil5" points="14295.45,26589.66 18315.06,26589.66 18315.06,26273.07 14295.45,26273.07 "/>
   <polygon class="fil5" points="14295.45,27135.08 17683.08,27135.08 17683.08,26818.42 14295.45,26818.42 "/>
   <polygon class="fil5" points="14969.72,17283.67 26080.43,17283.67 26080.43,16738.63 14969.72,16738.63 "/>
   <polygon class="fil5" points="22705.1,19622.97 26181.68,19622.97 26181.68,19464.45 22705.1,19464.45 "/>
   <polygon class="fil5" points="22705.1,20014.11 26181.68,20014.11 26181.68,19855.52 22705.1,19855.52 "/>
   <polygon class="fil5" points="22705.1,20405.19 26181.68,20405.19 26181.68,20246.89 22705.1,20246.89 "/>
   <polygon class="fil5" points="22705.1,20796.46 26181.68,20796.46 26181.68,20637.87 22705.1,20637.87 "/>
   <path class="fil2" d="M19721.9 21359.53c-285.06,1110.69 -1416.51,1780.09 -2527,1495.15 -1110.81,-285 -1780.21,-1416.44 -1495.16,-2527.26 284.87,-1110.68 1416.39,-1779.9 2527.07,-1495.03 1110.75,284.94 1780.09,1416.51 1495.09,2527.14z"/>
   <path class="fil7" d="M17722.18 20746.38l-2018.13 -433.8c-1.31,4.99 -3.06,9.98 -4.3,14.84 -153.54,598.25 -29.93,1202.17 289.99,1677l1721.03 -1160.75 11.41 -97.29z"/>
   <path class="fil8" d="M17952.05 18781.64c-1016.77,-120.18 -1990.88,526.9 -2252.31,1545.78 -27.44,106.95 -45.89,214.1 -56.06,320.61l2067.08 195.64 241.29 -2062.03z"/>
   <polygon class="fil4" points="17082.33,40606.84 24045.27,40606.84 24045.27,40091.18 17082.33,40091.18 "/>
   <polygon class="fil9" points="24954.41,51180.1 25676.45,51180.1 25676.45,50780.57 24954.41,50780.57 "/>
   <polygon class="fil9" points="15373.71,51180.1 16096,51180.1 16096,50780.57 15373.71,50780.57 "/>
   <polygon class="fil8" points="16076.67,34094.47 17097.79,34094.47 17097.79,30916.79 16076.67,30916.79 "/>
   <polygon class="fil10" points="17675.15,34094.47 18696.17,34094.47 18696.17,32042.63 17675.15,32042.63 "/>
   <polygon class="fil2" points="19313.74,34094.47 20334.95,34094.47 20334.95,30495.89 19313.74,30495.89 "/>
   <polygon class="fil2" points="21582.88,35461.41 27119.46,35461.41 27119.46,31245.65 21582.88,31245.65 "/>
   <path class="fil11" d="M28547.01 36823.35l-15858.2 0c716.3,-135.51 1394.93,-319.17 2038.7,-545.49l13433.54 0 0 -20946.08 385.96 0 0 21491.57zm-15472.3 -21418.55l-385.9 -29.93 0 -43.09 385.9 0 0 73.03z"/>
   <path class="fil5" d="M28161.04 36277.86l-13433.54 0c1488.79,-523.59 2790.18,-1275.94 3925.44,-2183.39l43.21 0 0 -34.68c211.73,-170.56 417.34,-346.3 617.58,-527.22l0 561.9 1021.26 0 0 -1576.91c1075.32,-1172.73 1961.69,-2490.27 2692.46,-3854.09l135.94 83.45 -34.55 -274.83c436.3,-833.17 815.71,-1682.49 1144.92,-2523.58l187.78 -115.37 732.08 0c775.29,0 1403.85,-628.67 1403.85,-1403.79 0,-757.9 -600.37,-1375.22 -1351.4,-1402.85 219.02,-783.91 397.87,-1534.38 543.61,-2230.04l392.01 0 0 -158.6 -359.21 0c16.09,-78.39 31.75,-155.84 46.91,-232.67l312.31 0 0 -158.34 -281.32 0c15.22,-78.58 29.93,-155.84 44.27,-232.74l237.04 0 0 -158.59 -207.86 0c14.35,-78.7 28.13,-155.79 41.53,-232.55l166.33 0 0 -158.53 -138.88 0c311.32,-1823.68 371.43,-3025.04 371.43,-3025.04l-13339.55 -1034.61 0 -73.03 15086.34 0 0 20946.08zm-6578.16 -5032.18l0 4215.73 5536.57 0 0 -4215.73 -5536.57 0z"/>
   <path class="fil12" d="M24273.77 25948.5c390.09,-996.99 709.94,-1982.89 972.31,-2922.01 751.03,27.62 1351.4,644.95 1351.4,1402.85 0,775.12 -628.56,1403.79 -1403.85,1403.79l-732.08 0 -187.78 115.37z"/>
   <path class="fil13" d="M23163.4 28746.92l-135.94 -83.45c34.11,-63.66 67.97,-127.59 101.39,-191.38l34.55 274.83z"/>
   <polygon class="fil7" points="28547.01,15331.78 12688.8,15331.78 12688.8,14405.07 28547.01,14405.07 "/>
   <path class="fil11" d="M26181.7 19622.97l-166.33 0c9.36,-53.07 18.59,-106.45 27.45,-158.53l138.88 0 0 158.53z"/>
   <path class="fil11" d="M26181.7 20014.11l-237.04 0c9.85,-53.06 19.71,-106.33 29.18,-158.59l207.86 0 0 158.59z"/>
   <path class="fil11" d="M26181.7 20405.19l-312.31 0c10.53,-53.19 20.88,-105.89 30.99,-158.34l281.32 0 0 158.34z"/>
   <path class="fil11" d="M26181.7 20796.46l-392.01 0c11.1,-52.89 22.14,-106.27 32.8,-158.6l359.21 0 0 158.6z"/>
   <path class="fil14" d="M18696.15 34094.47l-43.21 0c14.47,-11.6 28.81,-23.07 43.21,-34.68l0 34.68z"/>
   <path class="fil13" d="M20334.99 34094.47l-1021.26 0 0 -561.9c358.15,-323.48 698.09,-662.6 1021.26,-1015.02l0 1576.91z"/>
   <polygon class="fil13" points="21582.88,35461.41 27119.46,35461.41 27119.46,31245.65 21582.88,31245.65 "/>
   <path class="fil10" d="M62643.56 36214.13l0 3866c0,0 659.17,355.16 1043.33,223.89 0,0 432.8,-2781.39 379.79,-3223.54l-1423.12 -866.34z"/>
   <path class="fil10" d="M56849.11 34170.43l-398.19 -41.96c0,0 -249.82,195.2 0,1867.34l-131.34 3103.61c0,0 557.22,222.82 961.64,0l581.85 -2686.41 -1013.96 -2242.57z"/>
   <path class="fil15" d="M63010.88 52578.71l56.12 433.21c0,0 -271.9,421.38 -697.22,753.39l-25.56 154.89c0,0 1051.43,-4.85 2609.89,-11.79 0,0 21.83,-527.44 -821.33,-1832.53l-1121.9 502.83z"/>
   <path class="fil15" d="M59304.33 40496.34l-329.59 -202.74 -197.81 2418.12 -2200.23 5220.96c0,0 1461.35,586.03 1902.51,411.35l2846.8 -5146.12 -2021.69 -2701.56z"/>
   <path class="fil7" d="M59001.43 40261.05c0,0 -105.64,1500.14 1485.62,3090.39l-1443.64 4769.08c0,0 1228.8,684.06 2099.63,34.68 0,0 2422.24,-4370.58 2509.54,-5164.84 116.62,-1053.5 -1308.37,-4561.85 -1308.37,-4561.85l-3342.79 1832.54z"/>
   <path class="fil16" d="M57860.63 33327.84c64.86,-229.99 -51.94,-493.91 -199.24,-669.96 -5.18,-6.12 -10.73,-11.23 -15.97,-17.09l-21.07 -66.17 1127.27 -780.47c0,0 248.46,1142.93 1079.81,1276.44 0,0 -1265.21,1346.24 -1516.1,1311.62 0,0 -513.57,-758.02 -467.85,-1021.63 5.18,-9.72 9.72,-20.71 13.15,-32.74z"/>
   <path class="fil17" d="M58353.43 29811.7c0,0 -998.37,-322.98 -1576.41,397.69 0,0 -713.18,186.21 -206.55,1717.47 196.51,593.82 606.8,1024.31 817.83,1016.14 0,0 1139.44,-216.52 1270.09,-1105.7 118.17,-806.91 434.23,-1647.88 -304.95,-2025.61z"/>
   <path class="fil7" d="M58626.14 31349.69c0,0 -507.7,-278.2 -480.25,-876.94 0,0 -414.53,537.88 -925.66,394.75 0,0 -722.85,626.69 -1613.83,179.98l188.53 -52.39c0,0 -300.09,-115.75 -381.54,-623.51l245.34 27.07c0,0 -15.9,-1037.91 1557.38,-1068.09 0,0 1146.67,-227.32 1576.41,304.95 0,0 663.98,482.5 295.6,2104.51 0,0 152.79,433.92 276.83,516.3 0,0 -286.56,-22.39 -429.68,-95.66 0,0 92.54,231.61 -110.88,559.08l-120.92 -767.68c0,0 347.24,-376.87 -77.33,-602.37z"/>
   <path class="fil17" d="M58533.6 31443.3c-98.72,255.19 -61.68,508.02 82.88,564.13 144.86,56 342.37,-105.39 441.84,-360.39 99.1,-255.44 61.68,-508.01 -82.82,-563.76 -145.24,-56.75 -342.44,104.65 -441.9,360.02z"/>
   <path class="fil10" d="M59457.49 32925.92l-878.81 1202.54c-65.48,-42.97 -489.68,-411.29 -719.05,-815.27l-1408.72 815.27c0,0 0,1476.44 938.13,2783.95 0,0 1025.75,3794.97 1674.75,3968.89 0,0 2162.43,600.56 3939.59,-577.29 0,0 -1343.3,-5713.14 -2213.83,-7360.45l-1332.07 -17.64z"/>
   <path class="fil10" d="M57211.56 38608.37c0,0 -545.43,-304.96 -752.66,-121.3 -207.23,183.65 -1787.44,2998.59 -1787.44,2998.59 0,0 62.36,611.29 339.25,257.81 487.24,-621.33 2123.96,-2215.38 2270.51,-2538.36 0,0 48.52,-459.86 -69.66,-596.75z"/>
   <path class="fil16" d="M55696.52 42047.74l-191.95 -33.93c0,0 -126.85,-101.91 -170.19,-177.43 -27.38,-47.46 -183.66,-261.98 -183.66,-261.98l-360.39 -299.77c0,0 -754.1,470.96 -895.1,502.83 -140.69,32.55 -467.16,260.25 -546.86,276.51 0,0 -43.65,81.83 213.47,56.5 48.52,-4.49 439.41,-157.28 439.41,-157.28 0,0 747.47,-130.33 943.3,12.1 138.63,100.83 383.97,165.64 383.97,165.64 0,0 377.36,77.95 368.01,-83.19z"/>
   <path class="fil10" d="M60361.27 32964.14c0,0 -146.93,1425.43 854.93,2565.56 1001.86,1140.12 1792.81,1846.06 1792.81,1846.06 0,0 845.02,107.4 1057.68,-295.28l-1490.48 -2409.14c0,0 -885.24,-1564.5 -1156.58,-1669.33 -271.72,-105.21 -1058.36,-37.86 -1058.36,-37.86z"/>
   <path class="fil17" d="M62656.03 39985.15c0,0 -308.01,544.05 -337.13,596.37 -28.81,52.69 -81.13,206.23 -81.13,206.23l925.27 418.96c0,0 138.45,-527.78 154.66,-1013.58 15.6,-485.87 -661.67,-207.98 -661.67,-207.98z"/>
   <path class="fil15" d="M56576.7 47932.68c0,0 1817.63,4428.08 1827.98,4597.59 0,0 427.68,471.96 1326.58,27.68l-1470.39 -5334.65 -1684.17 709.38z"/>
   <path class="fil7" d="M59315.06 47815.56l-271.65 304.95 3970.58 4518.57c0,0 1288.42,33.93 1267.22,-677.2l-3265.63 -4396.83 -1700.52 250.51z"/>
   <path class="fil15" d="M59582.98 52366.68l94.6 764.11c0,0 183.66,478.57 114.01,764.12l-3365.6 0c0,0 155.22,-284.51 512.18,-482.73 155.6,-86.29 1153.28,-174.67 1566.37,-918.35 149.36,-268.54 1078.45,-127.16 1078.45,-127.16z"/>
   <polygon class="fil0" points="58931.46,32130.79 58313.58,33040.29 58578.68,34128.46 59049.27,33656.31 59195.51,33841.71 59682.06,32925.92 59438.42,32761.9 59086,32138.52 "/>
   <polygon class="fil0" points="58578.68,34128.46 57972.26,33212.47 57772.63,32820.27 57545.27,32902.1 57365.4,33552.11 57863.07,34009.22 58062,33789.02 "/>
   <path class="fil7" d="M49321.9 27417.96c0,0 59.63,724.1 556.9,799.62 496.97,75.15 765.13,609.78 407.17,1107.95 -357.59,497.97 198.93,501.08 447.39,688.3 248.46,187.4 556.59,705.57 0,1276.44 -556.52,570.8 -318.11,729.83 -169.07,928.64 149.36,198.81 192.64,2142.98 -1119.35,2321.9 -1311.99,179.04 -1182.02,-1367.62 -1182.02,-1367.62l59.92 -3159.37 999.06 -2595.86z"/>
   <path class="fil15" d="M47095.42 26069.67c0,0 -719.11,-222.07 -984.21,245.09 -264.41,467.04 285.94,526.66 207.61,735.26 -77.96,209.04 -206.24,238.97 -370.81,536.88 -164.58,298.35 -125.79,535.82 133.77,897.72 259.24,362.01 -57.5,682.75 -232.55,881.62 -174.99,198.81 -667.72,928.02 -503.14,1165.13 164.58,236.92 -979.65,1439.03 -440.1,1777.1 539.57,337.82 1178.22,-1297.4 1753.47,-1846.51 575.23,-549.11 1017.44,-1555.89 1017.44,-1555.89l-581.47 -2836.39z"/>
   <path class="fil18" d="M46207.25 30402.34c0,0 -856.31,124.98 -1426.05,1371.86 0,0 -633.49,1036.53 -1176.48,2601.16 0,0 49.2,513.93 425.88,726.03 0,0 799.11,258.86 1071.14,-363.52 272.41,-622.63 1105.51,-4335.53 1105.51,-4335.53z"/>
   <path class="fil16" d="M47262.06 51261.93c0,0 203.8,1286.67 537.19,2075.74 333.02,789.09 334.39,677.83 334.39,677.83l-447.01 19.42c0,0 -1650.25,99.1 -2107.37,0 0,0 -69.6,-446.7 447.46,-595.72 0,0 762.01,-382.58 334.02,-2139.55l901.33 -37.73z"/>
   <path class="fil18" d="M47932.65 53646.44c-276.58,-142.78 -563.83,-268.59 -855.93,-288.31 -456.43,-31.21 -770,-37.1 -1192.44,97.71 -493.85,253.32 -305.02,579.08 -305.02,579.08 457.12,99.1 2107.37,0 2107.37,0l435.6 -18.71c-18.7,-17.68 -66.6,-93.57 -189.58,-369.76z"/>
   <path class="fil15" d="M45425.4 45297.59c0,0 -437.29,1519.61 159.1,3507.74 596.37,1988.06 885.05,2820.42 885.05,2820.42 0,0 601.92,291.48 771.36,0 101.22,-173.93 -169.44,-2820.42 -169.44,-2820.42 0,0 -252.25,-3249.17 -919.35,-3507.74 -667.09,-258.49 -726.72,0 -726.72,0z"/>
   <path class="fil15" d="M44680.04 37924.3l2174.85 477.2 -355.22 2955.95 571.8 0 -799.11 3402.71c0,0 -747.79,1092.29 -885.06,698.27 -73.46,-211.4 -181.23,-907.62 -284.87,-1667.9 -790.08,-3973.77 -422.39,-5866.23 -422.39,-5866.23z"/>
   <path class="fil7" d="M45759.86 44760.16c4.12,-172.56 14.53,-352.1 29.8,-536.45 -50.64,-72.09 -29.8,-143.5 -29.8,-143.5 196.5,-4399.64 507.32,-7600.6 507.32,-7600.6l1743.42 83.12c3872.62,2719.96 397.19,7315.48 397.19,7315.48 -6.3,2.06 -11.79,4.12 -18.03,6.24 -445.33,818.14 -854.62,1521.28 -938.12,1664.41 371.5,561.01 977.23,1556.27 1126.28,2287.47 89.74,441.52 410.6,2703.74 474.09,3645.99 27,402.67 -803.67,434.91 -803.67,434.91l-2311.42 -5195.01c-401.99,-1007.72 -177.04,-1962.06 -177.04,-1962.06z"/>
   <path class="fil0" d="M47172 30013.82l-553.09 249.7 -566.94 173.81c0,0 -1322.4,865.72 -1080.81,2837.2 0,0 171.5,2414.26 293.49,3522.44 0,0 1840.82,1379.22 2951.82,-93.16l487.93 -1603.48c248.46,-854.44 1395.18,-2753.64 1268.34,-3614.68 0,0 38.79,-797.38 -1130.76,-1101.83l-1669.96 -370z"/>
   <path class="fil0" d="M48424.06 35032.09l1020.88 2836.09c0,0 -1286.74,913.11 -3868.81,554.47l-645.58 -109.51 -403.37 -162.9 588.46 -3283.47 771.74 -613.34 2536.68 778.66z"/>
   <path class="fil16" d="M46941.57 29066.84c-4.86,-6.93 -5.55,-15.22 -7.98,-23.13l7.98 -72.09 1409.71 -267.6c0,0 -721.16,1453.12 490.68,1679.81 0,0 -1878.56,330.46 -2893.95,1145.98 0,0 315.69,-543.37 1013.28,-1480.81 9.04,-7.11 313.61,-470.9 -19.72,-982.15z"/>
   <path class="fil17" d="M48813.21 26638.55c0,0 -817.51,-733.39 -1676.93,-289.74 0,0 -625.13,-93.29 -791.14,1586.95 -64.11,651.63 -13.85,1294.71 191.64,1376.1 0,0 1071.89,157.16 1707.06,-606.23 546.11,-656.12 1115.86,-1391.87 569.37,-2067.08z"/>
   <path class="fil17" d="M48292.35 28275.83c-203.43,202.05 -275.15,459.73 -160.46,574.68 114.37,115.25 372.18,44.83 575.61,-156.91 203.05,-202.25 275.15,-459.68 160.09,-574.3 -114.69,-115.99 -371.81,-45.59 -575.23,156.53z"/>
   <path class="fil0" d="M45241.06 32006.44c-47.83,-251.76 -4.86,-420.89 84.94,-533.77 -18.77,-32.17 -33.99,-66.6 -45.4,-103.46 -270.34,365.7 -681.63,1024.5 -753.41,1196.25 -310.5,740 -108.07,1324.71 507.01,1776.9 615.09,452.32 3596.34,-627.68 3596.34,-627.68 0,0 -3203.02,-729.39 -3389.48,-1708.24z"/>
   <polygon class="fil8" points="48208.17,35636.46 49481.67,34367.63 51778.88,36366.6 49022.5,39547.86 46762.4,37202.14 "/>
   <path class="fil16" d="M47437.8 35007.47c0,0 670.22,50.57 883.31,160.46 512.18,263.73 386.77,683.05 386.77,683.05 0,0 -106.38,-260.61 -319.55,-325.1 -213.09,-65.11 -445.95,-16.65 -445.95,-16.65l-504.58 -501.77z"/>
   <path class="fil16" d="M43726.33 34054.99c0,0 154.22,-167.32 1215.33,72.41 1061.1,239.78 2408.83,677.7 2408.83,677.7l-73.47 740.19c0,0 -3090.46,-85.57 -3490.39,-532.96 -400.62,-447.7 -60.3,-957.34 -60.3,-957.34z"/>
   <path class="fil16" d="M47521.3 35014.77c0,0 407.53,29.8 835.84,395.07 106.08,90.05 457.12,400.25 515.99,462.23 0,0 196.13,160.83 177.11,231.87 0,0 -10.04,137.95 -229.13,112.25 0,0 -81.07,118.56 -197.12,106.08 -101.22,-10.04 -140.01,-24.94 -140.01,-24.94 0,0 -54.75,95.97 -121.67,81.07 -67.23,-15.28 -244.96,-74.53 -329.53,-99.47 -180.54,-53.38 -390.21,-208.23 -432.86,-227.31 -112.56,-50.27 -648.33,-592.57 -647.33,-706.27 0.69,-113.31 568.69,-330.58 568.69,-330.58z"/>
   <path class="fil0" d="M48150.6 31786.61c0,0 -589.46,2037.21 -1265.91,3302.3 0,0 133.46,360.77 392.33,456.37 0,0 80.39,644.2 704.83,59.24 722.53,-676.39 1727.51,-2858.09 1777.78,-2929.19 49.89,-71.15 -1609.03,-888.73 -1609.03,-888.73z"/>
   <path class="fil17" d="M47027.82 30229.97l163.21 177.04c0,0 608.54,4029.21 833.1,4575.5 224.19,545.8 -369.75,932.89 -369.75,932.89 0,0 -252.63,48.83 -649.07,-408.91 -396.82,-458.12 -440.47,-4712.39 -403.37,-4906.34 37.04,-193.14 321.24,-484.18 425.87,-370.19z"/>
   <path class="fil17" d="M49052 51482.32c-20.15,-63.11 -938.44,132.01 -938.44,132.01 0,0 437.66,1169.56 -108.14,1706.02 0,0 -700.02,29.45 -1044.45,254.7 -344.5,225.25 -208.98,487.93 -208.98,487.93 0,0 622.69,35 1510.93,-28.06l850.76 -0.34c0,0 201.68,10.75 262.67,-49.92 127.84,-127.18 132.33,-313.27 111.19,-452.93 -200.62,-798.41 -333.02,-1328.62 -435.54,-2049.41z"/>
   <path class="fil0" d="M48746.29 53713.33c-341.31,-25.99 -562.39,-201.7 -781.4,-390.21 -152.86,9.7 -836.54,-7.62 -1131.83,185.39 -344.8,225.26 -155.6,566.93 -155.6,566.93 0,0 697.22,22.53 1585.46,-40.53l850.76 -0.34c0,0 322.6,4.84 383.58,-55.45 105.33,-104.68 47.84,-318.11 -2.05,-369.08 -236.04,94.27 -507.33,121.65 -748.92,103.28z"/>
   <path class="fil17" d="M47179.24 30858.58c0,0 46.83,-670.59 -30.81,-897.09 -187.15,-545.18 -620.33,-481.5 -620.33,-481.5 0,0 242.59,142.88 275.52,363.07 33.61,219.83 -48.2,443.47 -48.2,443.47l423.82 572.05z"/>
   <path class="fil17" d="M47184.1 30774.96c0,0 29.13,-407.67 -269.91,-884.31 -74.15,-117.8 -329.96,-510.37 -382.97,-577.54 0,0 -130.65,-217.33 -203.74,-208.79 0,0 -137.95,-9.97 -144.18,210.41 0,0 -129.27,63.3 -134.08,179.73 -4.17,101.71 4.8,142.06 4.8,142.06 0,0 -102.52,40.66 -97.66,109.08 5.18,68.35 38.1,253.19 50.88,340.5 26.39,185.96 149.36,415.71 162.21,461.11 33.61,118.49 492.79,726.96 605.05,742.8 112.62,15.34 409.6,-515.05 409.6,-515.05z"/>
   <path class="fil0" d="M48133.95 31786.61c0,0 423.13,-1681.62 1227.8,-1255.24 804.29,426.13 667.78,1784.2 380.85,2143.98 -286.56,359.65 -1879.31,867.41 -1608.65,-888.73z"/>
   <path class="fil7" d="M46884.69 26586.22c0,0 -182.59,384.66 -23.88,662.67 158.34,278.39 423.45,318.49 728.4,596.44 304.65,278.45 251.64,377.36 304.65,639.28 53.01,262.11 259.17,63.86 209.29,421.44 -49.89,357.41 -288.68,118.87 -540.63,768.51 -251.57,649.19 -244.96,857.43 -109.14,1184.02 135.82,326.66 5.18,861.11 -15.59,922.53 -21.14,61.49 -104.33,1087.24 885.05,742.62 989.02,-344.5 393.33,-1822.62 1122.1,-1885.29 0,0 300.09,-62.93 315.68,-738.82 15.28,-676.07 -37.79,-993.94 -236.66,-1524.27 -198.57,-530.02 6.92,-588.83 6.54,-867.22 0,-278.2 159.09,-1226.68 -809.15,-1301.27 0,0 -274.77,-37.98 -441.85,-217.02 -167,-178.73 -352.41,-105.83 -465.04,0 -112.62,106.14 -636.23,6.8 -775.23,13.28 -139.25,6.74 -448.02,245.27 -154.54,583.09z"/>
   <path class="fil16" d="M38853.98 41930.62c0,0 546.86,-360.39 775.54,-366.63 285.26,-7.99 692.8,-104.65 692.8,-104.65 0,0 42.97,131.34 -158.72,199.25 -201.37,68.28 -638.34,381.53 -638.34,381.53l-671.28 -109.51z"/>
   <path class="fil16" d="M35226.07 41287.47c0,0 3340.65,655.31 3718.02,569.68 0,0 160.82,630.37 -144.13,669.54 -370.13,47.46 -2257.04,221.76 -2586.94,207.23 -1529.26,-65.48 -1698.14,-546.49 -1698.14,-546.49l711.19 -899.96z"/>
   <path class="fil16" d="M38944.09 41857.15c0,0 312.25,-170.49 848,-125.1 132.34,11.1 879.13,91.87 959.2,107.46 0,0 89.06,95.97 3.5,182.59 0,0 -64.79,65.48 -153.91,78.33 0,0 2.8,137.26 -93.92,192.33 -84.57,48.21 -122.99,58.25 -122.99,58.25 0,0 10.73,104.95 -49.58,130.59 -60.3,25.69 -231.49,78.32 -311.19,106.07 -169.81,58.57 -570.75,97.04 -614.77,106.02 -115.37,23.26 -680.94,-142.06 -743.31,-230.43 -62.73,-89.06 278.96,-606.11 278.96,-606.11z"/>
   <path class="fil15" d="M35365.77 51209.91l0 746.8 651.82 1486.32 820.94 111.94 159.09 328.15c0,0 -1715.04,9.36 -1758.69,9.36 -43.65,0 -1316.73,-1254.46 -1316.73,-1254.46l271.46 -679.57 457.68 -959.2 714.43 210.66z"/>
   <polygon class="fil15" points="40057.21,51527.71 40489.69,51975.8 41470.35,52197.55 42641.65,52103.32 42847.51,52354.21 40143.83,53645.05 39200.21,51677.07 "/>
   <path class="fil15" d="M36860.05 46126.9l9.35 -203.81c0,0 634.48,-67.53 1281.12,407.54 646.34,475.15 195.45,934.95 153.16,954.03 -42.59,19.4 -927.34,-63.73 -927.34,-63.73l-516.3 -1094.03z"/>
   <path class="fil15" d="M37482.43 46927.39c0,0 -1081.25,1243.39 743.99,3686.46l1016.77 1489.47c0,0 1130.39,-463.35 1081.19,-575.61 -944.99,-2149.96 -1841.14,-4757.98 -1841.14,-4757.98 -474.46,-473.77 -1000.8,157.66 -1000.8,157.66z"/>
   <path class="fil15" d="M32720.21 43344.89c0,0 3147.64,1524.77 5230.38,2906.42 0,0 935.63,2451.42 -566.57,1790.87l-5630.94 -2318.34c0,0 -387.4,-2675.31 967.13,-2378.96z"/>
   <polygon class="fil0" points="34075.29,42735.67 71210.42,42735.67 71210.42,42297.64 34075.29,42297.64 "/>
   <polygon class="fil0" points="68228.16,53921.93 68705.33,53921.93 68705.33,42516.63 68228.16,42516.63 "/>
   <polygon class="fil0" points="37256.48,53921.93 37950.59,53921.93 37950.59,42516.63 37256.48,42516.63 "/>
   <path class="fil17" d="M36669.09 37151.19c0,0 73.09,-23.57 125.41,48.83 52.01,72.09 9.05,723.59 -10.73,768.31 -20.08,45.03 -84.56,33.61 -96.35,-64.48 -11.79,-97.72 -32.24,-670.9 -32.24,-676.77 0,-5.92 13.9,-75.89 13.9,-75.89z"/>
   <path class="fil16" d="M36121.86 38279.83c0,0 -334.39,-563.13 -330.22,-791.82 5.55,-285.19 -71.72,-697.28 -71.72,-697.28 0,0 132.71,-36.37 191.64,167.75 58.57,204.43 350.67,655.69 350.67,655.69l-140.37 665.66z"/>
   <path class="fil16" d="M32922.39 34402.61c-9.48,163.39 -36.55,324.85 -112.88,473.9 -97.35,190.21 -230.56,352.03 -392.08,486.49 -20.51,20.83 -41.91,40.6 -65.29,57.87l-17.08 32.62c361.21,328.84 1011.71,1117.54 1011.71,1117.54 24.39,-947.04 1011.9,-1337.94 1011.9,-1337.94l-1436.28 -830.49z"/>
   <path class="fil17" d="M33500.12 35175.91c0,0 1546.47,375.3 1804.65,311.19 0,0 71.35,-604.35 71.35,-1178.91 0,-363.32 -47.47,-1389.62 -353.79,-1690.84 -583.65,-574.68 -2685.6,-931.88 -2550.02,1045.89 0,0 150.61,803.04 1027.81,1512.67z"/>
   <path class="fil0" d="M32335.06 35414.32c0,0 1216.08,905.14 1497.34,1686.91 281.37,781.47 60.74,1690.1 -485.63,2612.2 -546.17,922.53 -601.05,1408.41 -601.05,1408.41 0,0 -2022.99,560.32 -2835.89,-96.36 0,0 427.75,-4923.3 2425.23,-5611.16z"/>
   <path class="fil0" d="M32078.37 37664.38c0,0 -108.95,-993.51 1038.72,-984.53 1147.23,9.04 846.76,1692.16 893.47,1780.9 46.65,88.67 -409.47,465.04 -945.42,544.42 -535.81,79.33 -1038.53,-1057.67 -986.77,-1340.79z"/>
   <path class="fil0" d="M34005.57 38427.44c0,0 1019.51,2427.17 1488.41,3298.75 0,0 -398.56,516.31 -890.97,574.86 0,0 -1735.18,-2363.74 -2069.39,-3779 0,0 1154.96,-217.27 1471.95,-94.61z"/>
   <path class="fil17" d="M34125.87 41621.18c0,0 1741.29,-2950.77 1785.7,-3335.11 0,0 631.74,72.78 567.63,373.93 -78.02,364.58 -538.57,2202.6 -661.61,2509.3 -569,1420.81 -1255.3,1128.33 -1255.3,1128.33l-436.41 -676.44z"/>
   <path class="fil17" d="M35904.27 38321.12c0,0 -138.63,-327.52 -39.54,-855.99 24.63,-130.65 179.85,-865.66 203.11,-943.99 0,0 104.65,-79.02 182.29,15.28 0,0 58.56,70.72 62.36,160.78 0,0 136.89,11.1 181.92,112.62 39.54,89.06 45.4,128.22 45.4,128.22 0,0 105.71,0 125.1,62.43 19.76,62.36 55.13,238.41 74.15,320.48 41.92,174.68 39.54,577.36 44.03,622.07 11.79,117.11 -209.66,663.29 -303.89,716.98 -94.67,52.63 -574.92,-338.88 -574.92,-338.88z"/>
   <path class="fil0" d="M31413.08 44013.36c542.68,-208.67 1050.07,-464.73 1500.02,-818.52l-284.57 -893.79c93.98,-582.84 159.59,-1382.64 159.59,-1382.64l-2250.3 -2253.93c0,0 -1088.23,2954.95 -847.7,5648.96 587.08,-43.65 1149.66,-80.38 1722.96,-300.09z"/>
   <path class="fil7" d="M37405.1 45120.55c-2330.12,-904.13 -5620.65,-2124.33 -5620.65,-2124.33 -728.52,0.37 -943.8,779.41 -984.52,1518.91 -85.56,18.03 -172.25,32.55 -260.92,40.91 -271.78,25.63 -544.5,37.79 -816.84,53.38 38.23,297.98 93.73,591.14 170.5,875.64 136.14,503.58 1246.7,531.28 2043.26,483.81l4523.12 634.86c1197.68,-25.64 946.05,-1483.18 946.05,-1483.18z"/>
   <path class="fil0" d="M32720.7 42590.11l323.55 875.7c0,0 -1456.86,1716.05 -3399.09,1334.51 0,0 -203.99,-1793.31 240.03,-3642.8l2835.52 1432.6z"/>
   <path class="fil7" d="M37202.73 45214.09l225.94 -83.88c0,0 690.98,164.64 147.3,1579.21 -339.25,883.68 -924.9,643.15 -965.5,606.05 -40.54,-37.43 -357.22,-1036.47 -357.22,-1036.47l949.48 -1064.91z"/>
   <path class="fil7" d="M37173.66 45798.37c0,0 -1463.84,-568.31 -2259.78,2985.75l-685.43 2613.26c0,0 1232.6,86.62 1283.18,-24.95 1047.57,-2320.77 1312.37,-2750.82 1986.38,-4423.89 250.51,-621.7 -324.35,-1150.17 -324.35,-1150.17z"/>
   <path class="fil7" d="M33346.76 34223.13c0,0 251.51,-39.72 320.98,-258.43 0,0 -178.92,39.84 -228.61,-159.03 0,0 347.86,-119.43 327.9,-397.63 -19.71,-278.45 179.05,-397.68 427.5,-347.8 0,0 387.58,178.86 506.89,-99.53 0,0 336.89,-278.45 506.33,0 0,0 402.99,165.64 512.18,-284.74 0,0 150.74,-540.94 -343.8,-511 -494.48,29.74 31.24,-337.45 40.9,-456.69 10.04,-119.23 -168.75,-258.43 -447.01,-178.66 0,0 159.03,9.54 128.9,129.03 0,0 -297.72,268.41 -740.24,-49.89 -442.34,-318.05 -945.05,-29.69 -1011.9,139.38 -66.73,168.75 -503.95,158.96 -623.31,129.27 -119.3,-30.12 -896.4,125.35 -791.08,967.13 0,0 -93.55,155.84 -163.07,404.55 -69.67,248.33 97.53,228.37 163.07,298.15 65.42,69.6 133.33,169.14 0,337.82 -133.33,168.95 -63.67,268.23 85.37,338.07 149.17,69.54 407.54,130.22 357.84,263.73 -49.7,133.7 -258.3,302.96 -129.15,372.31 129.15,69.66 -169.07,308.38 -367.89,169.07 0,0 230.81,544.43 795.13,228.37 0,0 280.32,-109.14 229.69,-427.25 -50.57,-318.04 93.86,-467.03 140.88,-467.03 47.08,0 302.51,-139.19 302.51,-139.19z"/>
   <path class="fil17" d="M33011.75 34155.52c0,0 -354.34,-187.47 -415.65,0 -61.31,187.65 204.49,667.91 595.31,746.24 0,0 133.03,-480.25 -179.67,-746.24z"/>
   <polygon class="fil0" points="29509.76,52586.38 29931.84,52586.38 29931.84,46753.8 29509.76,46753.8 "/>
   <path class="fil7" d="M25126.21 33519.37c0,0 218.89,-245.83 625.43,-216.78 406.48,29.13 1407.16,3333.24 0,3718.95 0,0 -344.06,72.77 -417.01,-177.05 -72.97,-250.2 -271.1,-3179.2 -208.42,-3325.12z"/>
   <path class="fil7" d="M25275.39 37388.86c0,0 80.82,-496.54 583.77,-404.74 502.84,91.49 1271.52,2761.93 1059.55,4740.02 -212.09,1978.34 -758.83,4479.35 -803.67,4527.17 -44.89,48.52 -663.91,296.6 -839.65,0 -175.93,-295.97 610.96,-4171.64 583.77,-4791.97 -27.25,-619.64 -583.77,-4070.49 -583.77,-4070.49z"/>
   <path class="fil7" d="M25619.88 47153.02c0,0 -31.25,-850.08 872.21,-1116.61 903.7,-266.79 5498.85,-792.89 7428.92,557.27 0,0 657.8,1057.99 -402.43,2118.41 0,0 -537.39,282.45 -931.27,-1025.43 -393.82,-1307.5 -5933.71,716.99 -6967.44,-533.63z"/>
   <path class="fil0" d="M32231.41 52163.56c-322.17,0 -4625.02,-13.84 -4997.09,-3.8 -371.92,9.72 -420.82,426.62 -420.82,426.62l5814.72 0c0,0 -74.65,-422.82 -396.81,-422.82z"/>
   <path class="fil7" d="M30390.26 53158.15c0,370.12 -299.77,669.53 -669.4,669.53 -369.63,0 -669.34,-299.41 -669.34,-669.53 0,-369.4 299.71,-669.17 669.34,-669.17 369.63,0 669.4,299.77 669.4,669.17z"/>
   <path class="fil0" d="M30141.75 53158.15c0,232.89 -188.46,421.05 -420.88,421.05 -232.43,0 -420.95,-188.16 -420.95,-421.05 0,-232.18 188.53,-420.66 420.95,-420.66 232.43,0 420.88,188.48 420.88,420.66z"/>
   <path class="fil7" d="M33297.56 53158.15c0,370.12 -299.59,669.53 -669.27,669.53 -369.69,0 -669.34,-299.41 -669.34,-669.53 0,-369.4 299.66,-669.17 669.34,-669.17 369.69,0 669.27,299.77 669.27,669.17z"/>
   <path class="fil0" d="M33049.17 53158.15c0,232.89 -188.46,421.05 -420.88,421.05 -232.43,0 -420.95,-188.16 -420.95,-421.05 0,-232.18 188.53,-420.66 420.95,-420.66 232.43,0 420.88,188.48 420.88,420.66z"/>
   <path class="fil7" d="M27482.84 53158.15c0,370.12 -299.77,669.53 -669.34,669.53 -369.63,0 -669.4,-299.41 -669.4,-669.53 0,-369.4 299.77,-669.17 669.4,-669.17 369.57,0 669.34,299.77 669.34,669.17z"/>
   <path class="fil0" d="M27234.33 53158.15c0,232.89 -188.46,421.05 -420.82,421.05 -232.43,0 -421.01,-188.16 -421.01,-421.05 0,-232.18 188.59,-420.66 421.01,-420.66 232.37,0 420.82,188.48 420.82,420.66z"/>
   <path class="fil0" d="M26262.59 43576.38l4294 0c0,0 1971.97,126.1 866.66,3074.81 0,0 278.51,314.69 509.13,102.58 306.58,-281.76 808.03,-2172.41 -230.62,-3257.09 -479.13,-500.46 -1145.17,-456.75 -1145.17,-456.75l-4303.91 19.77c0,0 -258.44,-81.45 -258.44,262.3 0,284.13 268.35,254.37 268.35,254.37z"/>
   <polygon class="fil15" points="65961.89,42299 69828.92,42299 69828.92,42105.29 65961.89,42105.29 "/>
   <polygon class="fil15" points="66528.76,42299 65504.77,42299 64341.7,38693.93 65365.7,38693.93 "/>
   <polygon class="fil0" points="66281.19,41938.61 65630.12,41938.61 64699.66,39054.69 65350.73,39054.69 "/>
   <polygon class="fil15" points="51630.95,42297.63 55696.89,42297.63 55696.89,42149.64 51630.95,42149.64 "/>
   <polygon class="fil15" points="53675.83,42297.63 58734.27,42297.63 59573.24,38692.55 54514.8,38692.55 "/>
   <path class="fil0" d="M56451.6 40402.05c-84.87,187.46 -36.36,392.63 108.82,458.8 145.19,65.85 332.02,-32.18 416.9,-219.71 85.63,-187.47 36.74,-392.57 -108.45,-458.8 -145.25,-65.85 -332.01,32.61 -417.27,219.71z"/>
   <polygon class="fil15" points="32335.06,35414.32 32643.93,34901.76 34075.29,35873.12 33700.67,36827.15 "/>
   <polygon class="fil0" points="73346.91,53012.62 73768.98,53012.62 73768.98,47180.01 73346.91,47180.01 "/>
   <path class="fil7" d="M78152.59 33945.49c0,0 -218.89,-245.58 -625.5,-216.52 -406.6,29.13 -1407.52,3333.48 0,3719.2 0,0 343.62,72.78 416.59,-177.43 73.59,-250.2 271.28,-3179.07 208.91,-3325.25z"/>
   <path class="fil7" d="M78003.54 37814.79c0,0 -81.07,-496.29 -583.71,-404.42 -503.27,91.86 -1271.58,2761.93 -1060.18,4739.95 212.66,1978.09 758.96,4479.4 803.86,4527.55 44.9,48.2 664.16,296.66 840.03,0 175.86,-296.29 -611.15,-4172.02 -583.71,-4791.97 26.82,-619.95 583.71,-4071.11 583.71,-4071.11z"/>
   <path class="fil7" d="M77658.68 47579.21c0,0 31.18,-850.01 -871.84,-1116.55 -904.26,-266.47 -5499.16,-792.5 -7429.29,556.9 0,0 -657.93,1058.3 402.87,2118.71 0,0 536.94,282.82 931.07,-1025.06 393.52,-1307.43 5933.83,716.68 6967.19,-534.01z"/>
   <path class="fil0" d="M71046.96 52590.19c322.42,0 4625.46,-14.22 4997.14,-3.81 372.31,9.67 420.95,426.24 420.95,426.24l-5814.73 0c0,0 74.84,-422.43 396.63,-422.43z"/>
   <path class="fil7" d="M72888.54 53584.75c0,369.77 299.34,669.16 669.15,669.16 369.81,0 669.15,-299.39 669.15,-669.16 0,-369.76 -299.34,-669.15 -669.15,-669.15 -369.81,0 -669.15,299.39 -669.15,669.15z"/>
   <path class="fil0" d="M73136.74 53584.75c0,232.19 188.34,420.71 420.95,420.71 232.61,0 420.95,-188.52 420.95,-420.71 0,-232.51 -188.34,-421.04 -420.95,-421.04 -232.61,0 -420.95,188.53 -420.95,421.04z"/>
   <path class="fil7" d="M69981.17 53584.75c0,369.77 299.97,669.16 669.15,669.16 369.81,0 669.15,-299.39 669.15,-669.16 0,-369.76 -299.34,-669.15 -669.15,-669.15 -369.18,0 -669.15,299.39 -669.15,669.15z"/>
   <path class="fil0" d="M70229.39 53584.75c0,232.19 188.33,420.71 420.94,420.71 232.62,0 420.95,-188.52 420.95,-420.71 0,-232.51 -188.33,-421.04 -420.95,-421.04 -232.61,0 -420.94,188.53 -420.94,421.04z"/>
   <path class="fil7" d="M75795.9 53584.75c0,369.77 299.96,669.16 669.15,669.16 369.8,0 669.15,-299.39 669.15,-669.16 0,-369.76 -299.35,-669.15 -669.15,-669.15 -369.19,0 -669.15,299.39 -669.15,669.15z"/>
   <path class="fil0" d="M76044.1 53584.75c0,232.19 188.96,420.71 420.95,420.71 232.61,0 421.57,-188.52 421.57,-420.71 0,-232.51 -188.96,-421.04 -421.57,-421.04 -231.99,0 -420.95,188.53 -420.95,421.04z"/>
   <path class="fil0" d="M77015.71 44002.94l-4293.69 0c0,0 -1971.91,125.48 -866.85,3074.49 0,0 -278.13,314.69 -508.88,102.59 -306.83,-281.76 -807.6,-2172.48 230.75,-3256.78 478.95,-500.4 1144.98,-457.44 1144.98,-457.44l4304.3 20.09c0,0 258.18,-81.07 258.18,262.36 0,284.13 -268.79,254.69 -268.79,254.69z"/>
   <path class="fil8" d="M73149.83 26004.88c-1680.06,0 -3042.69,-1362.32 -3042.69,-3042.56 0,-1680.49 1362.63,-3042.44 3042.69,-3042.44 1680.69,0 3042.69,1361.95 3042.69,3042.44 0,1680.24 -1362,3042.56 -3042.69,3042.56zm7335.76 -2659.09l-525.73 -3136.29 -2034.27 36.36 1071.39 -1730.14 -2427.17 -2054.36 -1529.76 1341.99 -299.96 -2012.64 -3179.89 0 -266.92 1785.51 -1309.62 -1242.39 -2504.5 1959.44 1003.43 1770.23 -2031.79 -114.87 -645.46 3113.85 1909.56 702.51 -1625.17 1224.94 1518.53 2793.6 1911.42 -697.28 -448.39 1984.64 2964.11 1151.09 1008.41 -1766.86 939.81 1805.15 3006.51 -1036.72 -372.31 -2000.11 1883.37 770.49 1625.17 -2733.11 -1576.53 -1286.61 1935.74 -628.44z"/>
   <path class="fil0" d="M61673.25 17361.01c-885.74,0 -1603.72,-717.99 -1603.72,-1603.79 0,-885.49 717.99,-1603.79 1603.72,-1603.79 885.5,0 1603.92,718.3 1603.92,1603.79 0,885.8 -718.42,1603.79 -1603.92,1603.79zm3866.44 -1401.42l-276.27 -1653.24 -1072.64 19.15 564.39 -911.93 -1279.07 -1083.12 -806.35 707.51 -158.4 -1061.05 -1676.01 0 -140.37 941.31 -690.61 -654.81 -1320.35 1032.93 528.84 932.89 -1070.77 -60.43 -340.31 1641.32 1006.35 370.5 -856.68 645.46 800.86 1472.89 1007.41 -367.69 -236.36 1046.38 1562.57 606.73 531.58 -931.45 495.23 951.53 1584.76 -546.42 -195.82 -1054.18 992.19 405.99 857.49 -1440.77 -831.3 -678.26 1019.63 -331.21z"/>
   <path class="fil4" d="M43981.4 18144.66c0,2014.06 -1632.54,3646.79 -3646.62,3646.79 -2014.45,0 -3646.98,-1632.73 -3646.98,-3646.79 0,-2014.01 1632.53,-3646.93 3646.98,-3646.93 2014.07,0 3646.62,1632.92 3646.62,3646.93z"/>
   <path class="fil0" d="M43613.02 18144.66c0,1810.64 -1467.59,3278.41 -3278.24,3278.41 -1811.02,0 -3278.6,-1467.78 -3278.6,-3278.41 0,-1810.83 1467.58,-3278.42 3278.6,-3278.42 1810.65,0 3278.24,1467.59 3278.24,3278.42z"/>
   <path class="fil4" d="M40431.45 15126.04c0,-58.24 -47.09,-105.58 -105.33,-105.58 -58.25,0 -105.39,47.34 -105.39,105.58l0 3026.35c0,58.18 47.14,105.27 105.39,105.27 58.24,0 105.33,-47.08 105.33,-105.27l0 -3026.35z"/>
   <path class="fil4" d="M39051.91 17012.89c-46.15,-35.92 -112.32,-28.01 -148.36,17.84 -36.05,45.78 -28.06,112.12 17.71,148.1l1336.87 1049.45c45.78,36.04 111.94,28.18 148.04,-17.71 35.98,-45.9 28.06,-112.13 -17.71,-147.93l-1336.56 -1049.75z"/>
  </g>
 </g>
</svg>
