<?xml version="1.0" encoding="UTF-8"?>
<!DOCTYPE svg PUBLIC "-//W3C//DTD SVG 1.1//EN" "http://www.w3.org/Graphics/SVG/1.1/DTD/svg11.dtd">
<!-- Creator: CorelDRAW 2019 (64 Bit) -->
<svg xmlns="http://www.w3.org/2000/svg" xml:space="preserve" width="112.508mm" height="112.396mm" version="1.1" style="shape-rendering:geometricPrecision; text-rendering:geometricPrecision; image-rendering:optimizeQuality; fill-rule:evenodd; clip-rule:evenodd"
viewBox="0 0 257.53 257.27"
 xmlns:xlink="http://www.w3.org/1999/xlink">
 <defs>
  <style type="text/css">
   <![CDATA[
    .fil57 {fill:#7D97F4;fill-rule:nonzero}
    .fil43 {fill:#91B3FA;fill-rule:nonzero}
    .fil10 {fill:#91FAC2;fill-rule:nonzero}
    .fil12 {fill:#B0C7FB;fill-rule:nonzero}
    .fil1 {fill:#BDD0FB;fill-rule:nonzero}
    .fil11 {fill:#DEE8FD;fill-rule:nonzero}
    .fil3 {fill:white;fill-rule:nonzero}
    .fil29 {fill:url(#id0)}
    .fil26 {fill:url(#id1)}
    .fil42 {fill:url(#id2)}
    .fil32 {fill:url(#id3)}
    .fil36 {fill:url(#id4)}
    .fil64 {fill:url(#id5)}
    .fil59 {fill:url(#id6)}
    .fil34 {fill:url(#id7)}
    .fil74 {fill:url(#id8)}
    .fil4 {fill:url(#id9)}
    .fil49 {fill:url(#id10)}
    .fil47 {fill:url(#id11)}
    .fil41 {fill:url(#id12)}
    .fil51 {fill:url(#id13)}
    .fil38 {fill:url(#id14)}
    .fil65 {fill:url(#id15)}
    .fil30 {fill:url(#id16)}
    .fil66 {fill:url(#id17)}
    .fil7 {fill:url(#id18)}
    .fil6 {fill:url(#id19)}
    .fil72 {fill:url(#id20)}
    .fil70 {fill:url(#id21)}
    .fil27 {fill:url(#id22)}
    .fil37 {fill:url(#id23)}
    .fil48 {fill:url(#id24)}
    .fil69 {fill:url(#id25)}
    .fil44 {fill:url(#id26)}
    .fil2 {fill:url(#id27)}
    .fil62 {fill:url(#id28)}
    .fil52 {fill:url(#id29)}
    .fil60 {fill:url(#id30)}
    .fil75 {fill:url(#id31)}
    .fil19 {fill:url(#id32)}
    .fil56 {fill:url(#id33)}
    .fil54 {fill:url(#id34)}
    .fil40 {fill:url(#id35)}
    .fil39 {fill:url(#id36)}
    .fil53 {fill:url(#id37)}
    .fil46 {fill:url(#id38)}
    .fil33 {fill:url(#id39)}
    .fil25 {fill:url(#id40)}
    .fil61 {fill:url(#id41)}
    .fil71 {fill:url(#id42)}
    .fil50 {fill:url(#id43)}
    .fil63 {fill:url(#id44)}
    .fil58 {fill:url(#id45)}
    .fil68 {fill:url(#id46)}
    .fil45 {fill:url(#id47)}
    .fil73 {fill:url(#id48)}
    .fil28 {fill:url(#id49)}
    .fil15 {fill:url(#id50)}
    .fil23 {fill:url(#id51)}
    .fil18 {fill:url(#id52)}
    .fil35 {fill:url(#id53)}
    .fil31 {fill:url(#id54)}
    .fil0 {fill:url(#id55)}
    .fil22 {fill:url(#id56)}
    .fil16 {fill:url(#id57)}
    .fil5 {fill:url(#id58)}
    .fil8 {fill:url(#id59)}
    .fil67 {fill:url(#id60)}
    .fil20 {fill:url(#id61)}
    .fil21 {fill:url(#id62)}
    .fil9 {fill:url(#id63)}
    .fil14 {fill:url(#id64)}
    .fil55 {fill:url(#id65)}
    .fil17 {fill:url(#id66)}
    .fil13 {fill:url(#id67)}
    .fil24 {fill:url(#id68)}
   ]]>
  </style>
  <linearGradient id="id0" gradientUnits="userSpaceOnUse" x1="17.09" y1="248.39" x2="20.82" y2="248.43">
   <stop offset="0" style="stop-opacity:1; stop-color:#FEBBBA"/>
   <stop offset="1" style="stop-opacity:1; stop-color:#FF928E"/>
  </linearGradient>
  <linearGradient id="id1" gradientUnits="userSpaceOnUse" xlink:href="#id0" x1="32.66" y1="248.64" x2="36.98" y2="248.67">
  </linearGradient>
  <linearGradient id="id2" gradientUnits="userSpaceOnUse" xlink:href="#id0" x1="28.05" y1="166.34" x2="36.51" y2="166.34">
  </linearGradient>
  <linearGradient id="id3" gradientUnits="userSpaceOnUse" xlink:href="#id0" x1="51.52" y1="136.56" x2="73.61" y2="136.76">
  </linearGradient>
  <linearGradient id="id4" gradientUnits="userSpaceOnUse" xlink:href="#id0" x1="3.19" y1="164.72" x2="30.85" y2="164.9">
  </linearGradient>
  <linearGradient id="id5" gradientUnits="userSpaceOnUse" x1="176.75" y1="243.24" x2="184.74" y2="199.98">
   <stop offset="0" style="stop-opacity:1; stop-color:#09005D"/>
   <stop offset="1" style="stop-opacity:1; stop-color:#1A0F91"/>
  </linearGradient>
  <linearGradient id="id6" gradientUnits="userSpaceOnUse" xlink:href="#id0" x1="161.86" y1="238.02" x2="156.54" y2="236.82">
  </linearGradient>
  <linearGradient id="id7" gradientUnits="userSpaceOnUse" xlink:href="#id0" x1="73.58" y1="121.6" x2="79.47" y2="112.15">
  </linearGradient>
  <linearGradient id="id8" gradientUnits="userSpaceOnUse" xlink:href="#id5" x1="179.44" y1="186.22" x2="156.25" y2="193.79">
  </linearGradient>
  <linearGradient id="id9" gradientUnits="userSpaceOnUse" x1="184.3" y1="28.43" x2="-5.38" y2="280.26">
   <stop offset="0" style="stop-opacity:1; stop-color:#4F52FF"/>
   <stop offset="1" style="stop-opacity:1; stop-color:#4042E2"/>
  </linearGradient>
  <linearGradient id="id10" gradientUnits="userSpaceOnUse" xlink:href="#id5" x1="257.06" y1="104.37" x2="236.51" y2="119.08">
  </linearGradient>
  <linearGradient id="id11" gradientUnits="userSpaceOnUse" xlink:href="#id0" x1="230.77" y1="140.68" x2="235.17" y2="131.68">
  </linearGradient>
  <linearGradient id="id12" gradientUnits="userSpaceOnUse" xlink:href="#id5" x1="38.35" y1="149.56" x2="53.65" y2="213.38">
  </linearGradient>
  <linearGradient id="id13" gradientUnits="userSpaceOnUse" xlink:href="#id0" x1="255.38" y1="263.4" x2="222.8" y2="204.3">
  </linearGradient>
  <linearGradient id="id14" gradientUnits="userSpaceOnUse" xlink:href="#id0" x1="37.97" y1="130.04" x2="26.34" y2="122.97">
  </linearGradient>
  <linearGradient id="id15" gradientUnits="userSpaceOnUse" x1="193.41" y1="159.74" x2="143.57" y2="198.09">
   <stop offset="0" style="stop-opacity:1; stop-color:#8EFFB4"/>
   <stop offset="1" style="stop-opacity:1; stop-color:#63FEAB"/>
  </linearGradient>
  <linearGradient id="id16" gradientUnits="userSpaceOnUse" xlink:href="#id5" x1="44.38" y1="179.8" x2="6.75" y2="235.43">
  </linearGradient>
  <linearGradient id="id17" gradientUnits="userSpaceOnUse" xlink:href="#id0" x1="158.23" y1="186.83" x2="140.63" y2="183.18">
  </linearGradient>
  <linearGradient id="id18" gradientUnits="userSpaceOnUse" x1="128.11" y1="-9.72" x2="117.55" y2="73.51">
   <stop offset="0" style="stop-opacity:1; stop-color:#8EFFB4"/>
   <stop offset="1" style="stop-opacity:1; stop-color:#63FE9C"/>
  </linearGradient>
  <linearGradient id="id19" gradientUnits="userSpaceOnUse" x1="128.11" y1="-9.72" x2="117.55" y2="73.51">
   <stop offset="0" style="stop-opacity:1; stop-color:#8EFFC7"/>
   <stop offset="1" style="stop-opacity:1; stop-color:#63FEB0"/>
  </linearGradient>
  <linearGradient id="id20" gradientUnits="userSpaceOnUse" xlink:href="#id5" x1="186.08" y1="152.15" x2="175.26" y2="139.44">
  </linearGradient>
  <linearGradient id="id21" gradientUnits="userSpaceOnUse" xlink:href="#id0" x1="194.13" y1="188.38" x2="240.69" y2="243.98">
  </linearGradient>
  <linearGradient id="id22" gradientUnits="userSpaceOnUse" xlink:href="#id5" x1="52.33" y1="192.52" x2="11.71" y2="241.89">
  </linearGradient>
  <linearGradient id="id23" gradientUnits="userSpaceOnUse" xlink:href="#id0" x1="23.49" y1="149.88" x2="34.02" y2="131.24">
  </linearGradient>
  <linearGradient id="id24" gradientUnits="userSpaceOnUse" xlink:href="#id0" x1="231.86" y1="118.16" x2="238.53" y2="134.34">
  </linearGradient>
  <linearGradient id="id25" gradientUnits="userSpaceOnUse" x1="147.62" y1="218" x2="187.86" y2="188.65">
   <stop offset="0" style="stop-opacity:1; stop-color:#8EF5C2"/>
   <stop offset="1" style="stop-opacity:1; stop-color:#63FEAB"/>
  </linearGradient>
  <linearGradient id="id26" gradientUnits="userSpaceOnUse" xlink:href="#id0" x1="203.87" y1="116.97" x2="225.63" y2="150.58">
  </linearGradient>
  <linearGradient id="id27" gradientUnits="userSpaceOnUse" xlink:href="#id9" x1="184.3" y1="28.43" x2="-5.38" y2="280.26">
  </linearGradient>
  <linearGradient id="id28" gradientUnits="userSpaceOnUse" xlink:href="#id9" x1="161.57" y1="250.02" x2="147.43" y2="247.12">
  </linearGradient>
  <linearGradient id="id29" gradientUnits="userSpaceOnUse" xlink:href="#id5" x1="248.37" y1="242.8" x2="238.86" y2="242.72">
  </linearGradient>
  <linearGradient id="id30" gradientUnits="userSpaceOnUse" xlink:href="#id5" x1="174.27" y1="225.33" x2="160.59" y2="189.37">
  </linearGradient>
  <linearGradient id="id31" gradientUnits="userSpaceOnUse" xlink:href="#id5" x1="147.68" y1="170.98" x2="131.13" y2="188.63">
  </linearGradient>
  <linearGradient id="id32" gradientUnits="userSpaceOnUse" x1="281.72" y1="331.66" x2="61.04" y2="48.67">
   <stop offset="0" style="stop-opacity:1; stop-color:#C4D5FD"/>
   <stop offset="1" style="stop-opacity:1; stop-color:#CEDDFC"/>
  </linearGradient>
  <linearGradient id="id33" gradientUnits="userSpaceOnUse" xlink:href="#id0" x1="250.95" y1="172.09" x2="211.2" y2="105.75">
  </linearGradient>
  <linearGradient id="id34" gradientUnits="userSpaceOnUse" xlink:href="#id5" x1="238.37" y1="244.22" x2="227.91" y2="244.11">
  </linearGradient>
  <linearGradient id="id35" gradientUnits="userSpaceOnUse" xlink:href="#id0" x1="34.99" y1="132.21" x2="24.67" y2="127.76">
  </linearGradient>
  <linearGradient id="id36" gradientUnits="userSpaceOnUse" xlink:href="#id5" x1="20.08" y1="117.61" x2="35.05" y2="128.43">
  </linearGradient>
  <linearGradient id="id37" gradientUnits="userSpaceOnUse" xlink:href="#id0" x1="218.48" y1="220.53" x2="266.52" y2="236.38">
  </linearGradient>
  <linearGradient id="id38" gradientUnits="userSpaceOnUse" x1="258.58" y1="118.21" x2="243.1" y2="141.92">
   <stop offset="0" style="stop-opacity:1; stop-color:#8EFFBD"/>
   <stop offset="1" style="stop-opacity:1; stop-color:#63FEB8"/>
  </linearGradient>
  <linearGradient id="id39" gradientUnits="userSpaceOnUse" xlink:href="#id0" x1="69.14" y1="131.98" x2="55.17" y2="164.23">
  </linearGradient>
  <linearGradient id="id40" gradientUnits="userSpaceOnUse" xlink:href="#id5" x1="48.39" y1="245.17" x2="-0.17" y2="297.11">
  </linearGradient>
  <linearGradient id="id41" gradientUnits="userSpaceOnUse" xlink:href="#id5" x1="153.26" y1="243.01" x2="166.44" y2="270.95">
  </linearGradient>
  <linearGradient id="id42" gradientUnits="userSpaceOnUse" xlink:href="#id0" x1="178.48" y1="145.94" x2="172.74" y2="170.31">
  </linearGradient>
  <linearGradient id="id43" gradientUnits="userSpaceOnUse" xlink:href="#id0" x1="235.05" y1="119.3" x2="242.37" y2="131.6">
  </linearGradient>
  <linearGradient id="id44" gradientUnits="userSpaceOnUse" xlink:href="#id0" x1="164.74" y1="243.81" x2="159.81" y2="242.71">
  </linearGradient>
  <linearGradient id="id45" gradientUnits="userSpaceOnUse" xlink:href="#id5" x1="152.77" y1="231.5" x2="155.56" y2="243.35">
  </linearGradient>
  <linearGradient id="id46" gradientUnits="userSpaceOnUse" xlink:href="#id0" x1="184.69" y1="159.29" x2="173.1" y2="156.85">
  </linearGradient>
  <linearGradient id="id47" gradientUnits="userSpaceOnUse" xlink:href="#id5" x1="263.75" y1="113.96" x2="243.61" y2="128.25">
  </linearGradient>
  <linearGradient id="id48" gradientUnits="userSpaceOnUse" xlink:href="#id0" x1="180.47" y1="166.55" x2="181.68" y2="153.48">
  </linearGradient>
  <linearGradient id="id49" gradientUnits="userSpaceOnUse" xlink:href="#id5" x1="37.21" y1="234.99" x2="-10.63" y2="287.45">
  </linearGradient>
  <linearGradient id="id50" gradientUnits="userSpaceOnUse" xlink:href="#id32" x1="277.73" y1="331.74" x2="59.97" y2="48.68">
  </linearGradient>
  <linearGradient id="id51" gradientUnits="userSpaceOnUse" xlink:href="#id32" x1="276.27" y1="331.74" x2="62.18" y2="48.68">
  </linearGradient>
  <linearGradient id="id52" gradientUnits="userSpaceOnUse" xlink:href="#id32" x1="276.88" y1="331.75" x2="61.87" y2="48.68">
  </linearGradient>
  <linearGradient id="id53" gradientUnits="userSpaceOnUse" x1="-1274.71" y1="-797.75" x2="-1230.61" y2="-765.15">
   <stop offset="0" style="stop-opacity:1; stop-color:#8EFFBD"/>
   <stop offset="1" style="stop-opacity:1; stop-color:#63FE89"/>
  </linearGradient>
  <linearGradient id="id54" gradientUnits="userSpaceOnUse" x1="-1220.73" y1="-772" x2="-1178.32" y2="-740.43">
   <stop offset="0" style="stop-opacity:1; stop-color:#8EFFAA"/>
   <stop offset="1" style="stop-opacity:1; stop-color:#63FE9C"/>
  </linearGradient>
  <linearGradient id="id55" gradientUnits="userSpaceOnUse" x1="272.07" y1="331.72" x2="64.62" y2="48.68">
   <stop offset="0" style="stop-opacity:1; stop-color:#DAE3FE"/>
   <stop offset="1" style="stop-opacity:1; stop-color:#E9EFFD"/>
  </linearGradient>
  <linearGradient id="id56" gradientUnits="userSpaceOnUse" xlink:href="#id32" x1="278.41" y1="331.73" x2="61.71" y2="48.68">
  </linearGradient>
  <linearGradient id="id57" gradientUnits="userSpaceOnUse" xlink:href="#id32" x1="273.49" y1="331.72" x2="57.93" y2="48.68">
  </linearGradient>
  <linearGradient id="id58" gradientUnits="userSpaceOnUse" xlink:href="#id9" x1="184.3" y1="28.43" x2="-5.38" y2="280.26">
  </linearGradient>
  <linearGradient id="id59" gradientUnits="userSpaceOnUse" xlink:href="#id5" x1="88.49" y1="119.83" x2="173.37" y2="68.48">
  </linearGradient>
  <linearGradient id="id60" gradientUnits="userSpaceOnUse" x1="139.58" y1="209.32" x2="182.88" y2="184.19">
   <stop offset="0" style="stop-opacity:1; stop-color:#8EFFBD"/>
   <stop offset="1" style="stop-opacity:1; stop-color:#63FE96"/>
  </linearGradient>
  <linearGradient id="id61" gradientUnits="userSpaceOnUse" xlink:href="#id32" x1="286.79" y1="331.73" x2="60.26" y2="48.68">
  </linearGradient>
  <linearGradient id="id62" gradientUnits="userSpaceOnUse" xlink:href="#id32" x1="288.12" y1="331.83" x2="60.17" y2="48.68">
  </linearGradient>
  <linearGradient id="id63" gradientUnits="userSpaceOnUse" xlink:href="#id5" x1="117.1" y1="119.95" x2="173.53" y2="73.14">
  </linearGradient>
  <linearGradient id="id64" gradientUnits="userSpaceOnUse" xlink:href="#id32" x1="274.05" y1="331.71" x2="58.27" y2="48.68">
  </linearGradient>
  <linearGradient id="id65" gradientUnits="userSpaceOnUse" xlink:href="#id5" x1="269.69" y1="157.52" x2="244" y2="178.64">
  </linearGradient>
  <linearGradient id="id66" gradientUnits="userSpaceOnUse" xlink:href="#id32" x1="275.18" y1="331.71" x2="60.15" y2="48.68">
  </linearGradient>
  <linearGradient id="id67" gradientUnits="userSpaceOnUse" xlink:href="#id32" x1="282.47" y1="331.73" x2="59.56" y2="48.68">
  </linearGradient>
  <linearGradient id="id68" gradientUnits="userSpaceOnUse" xlink:href="#id32" x1="282.89" y1="331.71" x2="61.08" y2="48.68">
  </linearGradient>
 </defs>
 <g id="Camada_x0020_1">
  <metadata id="CorelCorpID_0Corel-Layer"/>
  <g id="_1980142443424">
   <path class="fil0" d="M131.26 256.13c-15.46,0 -27.27,-2.16 -31.98,-3.12 -17.08,-3.47 -50.1,-10.18 -73.98,-38.25 -36.12,-42.47 -30.49,-109.39 -2.48,-153.57 4.36,-6.88 24.63,-40.39 64.48,-54.65 0.1,0.1 0.2,0.19 0.29,0.29 0.09,0.09 0.21,0.14 0.33,0.14 0.12,0 0.24,-0.05 0.33,-0.14 0.01,-0.01 0.02,-0.03 0.03,-0.04 0.14,-0.17 0.14,-0.43 -0,-0.6 6.7,-2.32 13.93,-4.1 21.74,-5.12 5.46,-0.71 11.08,-1.07 16.76,-1.07 28.98,0 59.96,9.36 83.46,29.05 59,49.43 54.8,149.29 15.13,191.05 -5.24,5.51 -10.19,9.07 -14.1,11.87 -27.27,19.57 -57.51,24.15 -80.02,24.15zm-100.06 -188.49c-11.95,16.32 -19,36.45 -19,58.23 0,54.52 44.19,98.71 98.71,98.71 54.51,0 98.71,-44.19 98.71,-98.71 0,-54.51 -44.19,-98.71 -98.71,-98.71 -6.43,0 -12.72,0.62 -18.8,1.79 -0.03,-0.03 -0.07,-0.06 -0.12,-0.08 -0.07,-0.03 -0.14,-0.05 -0.21,-0.05 -0.17,0 -0.34,0.1 -0.43,0.26 -0,0.01 -0,0.01 -0.01,0.02 -24.05,4.84 -44.94,18.42 -59.21,37.28 -0.1,-0.1 -0.23,-0.17 -0.38,-0.19 -0.8,-0.14 -1.6,-0.32 -2.38,-0.53 -0.07,-0.02 -0.13,-0.03 -0.2,-0.03 -0.34,0 -0.65,0.22 -0.74,0.56 -0.11,0.41 0.13,0.83 0.54,0.94 0.73,0.2 1.47,0.37 2.22,0.51zm-8.11 -4.41c-0.27,0 -0.54,0.15 -0.68,0.41 -0.2,0.37 -0.05,0.84 0.32,1.03 0.75,0.4 1.53,0.77 2.31,1.1 0.1,0.04 0.2,0.06 0.3,0.06 0.23,0 0.45,-0.1 0.59,-0.28 0.04,-0.06 0.08,-0.12 0.11,-0.18 0.16,-0.39 -0.02,-0.84 -0.41,-1 -0.74,-0.32 -1.48,-0.66 -2.2,-1.04 -0.11,-0.06 -0.24,-0.09 -0.36,-0.09zm70.26 -38.97c-0.22,0 -0.41,0.15 -0.46,0.37 -0.16,0.77 -0.37,1.53 -0.63,2.27 -0.08,0.25 0.05,0.52 0.29,0.6 0.05,0.02 0.1,0.03 0.15,0.03 0.14,0 0.28,-0.07 0.37,-0.18 0.03,-0.04 0.06,-0.09 0.08,-0.14 0.27,-0.78 0.49,-1.58 0.66,-2.38 0.05,-0.26 -0.11,-0.51 -0.36,-0.56 -0.03,-0.01 -0.07,-0.01 -0.1,-0.01zm0.43 -3.59c-0.25,0 -0.46,0.2 -0.47,0.46 -0.01,0.38 -0.03,0.76 -0.07,1.15 -0.02,0.26 0.17,0.49 0.43,0.51 0.01,0 0.03,0 0.04,0 0.15,0 0.28,-0.07 0.37,-0.18 0.06,-0.07 0.09,-0.16 0.1,-0.26 0.04,-0.4 0.06,-0.81 0.07,-1.2 0.01,-0.26 -0.2,-0.48 -0.46,-0.49 -0,0 -0.01,0 -0.01,0zm-4.21 -12.82c-0.1,0 -0.2,0.03 -0.29,0.1 -0.21,0.16 -0.24,0.46 -0.08,0.66 0.24,0.3 0.46,0.61 0.68,0.93 0.09,0.13 0.24,0.2 0.39,0.2 0.09,0 0.19,-0.03 0.27,-0.08 0.04,-0.03 0.07,-0.06 0.1,-0.09 0.13,-0.16 0.14,-0.39 0.02,-0.57 -0.23,-0.33 -0.47,-0.66 -0.71,-0.97 -0.09,-0.12 -0.23,-0.18 -0.37,-0.18z"/>
   <path class="fil1" d="M209.62 125.87c0,54.52 -44.19,98.71 -98.71,98.71 -54.52,0 -98.71,-44.19 -98.71,-98.71 0,-54.51 44.19,-98.71 98.71,-98.71 54.51,0 98.71,44.19 98.71,98.71z"/>
   <path class="fil2" d="M195.15 125.87c0,46.53 -37.72,84.24 -84.24,84.24 -46.53,0 -84.24,-37.72 -84.24,-84.24 0,-46.53 37.72,-84.24 84.24,-84.24 46.53,0 84.24,37.72 84.24,84.24z"/>
   <path class="fil3" d="M110.91 41.62c-46.45,0 -84.24,37.79 -84.24,84.24 0,46.45 37.79,84.24 84.24,84.24 46.45,0 84.24,-37.79 84.24,-84.24 0,-46.45 -37.79,-84.24 -84.24,-84.24zm0 172.71c-48.78,0 -88.46,-39.68 -88.46,-88.46 0,-48.78 39.68,-88.46 88.46,-88.46 48.78,0 88.46,39.68 88.46,88.46 0,48.78 -39.69,88.46 -88.46,88.46z"/>
   <path class="fil4" d="M162.27 125.87c0,28.36 -22.99,51.36 -51.36,51.36 -28.36,0 -51.36,-22.99 -51.36,-51.36 0,-28.36 22.99,-51.36 51.36,-51.36 28.36,0 51.36,22.99 51.36,51.36z"/>
   <path class="fil5" d="M110.91 78.73c-25.99,0 -47.14,21.15 -47.14,47.14 0,25.99 21.15,47.14 47.14,47.14 25.99,0 47.14,-21.15 47.14,-47.14 0,-25.99 -21.15,-47.14 -47.14,-47.14zm0 102.72c-30.65,0 -55.58,-24.93 -55.58,-55.58 0,-30.65 24.93,-55.58 55.58,-55.58 30.65,0 55.58,24.93 55.58,55.58 0,30.65 -24.93,55.58 -55.58,55.58z"/>
   <path class="fil6" d="M130.81 125.87c0,10.99 -8.91,19.9 -19.9,19.9 -10.99,0 -19.9,-8.91 -19.9,-19.9 0,-10.99 8.91,-19.9 19.9,-19.9 10.99,0 19.9,8.91 19.9,19.9z"/>
   <path class="fil7" d="M110.91 110.19c-8.65,0 -15.68,7.03 -15.68,15.68 0,8.65 7.03,15.68 15.68,15.68 8.64,0 15.68,-7.03 15.68,-15.68 0,-8.65 -7.03,-15.68 -15.68,-15.68zm0 39.8c-13.3,0 -24.12,-10.82 -24.12,-24.12 0,-13.3 10.82,-24.12 24.12,-24.12 13.3,0 24.12,10.82 24.12,24.12 0,13.3 -10.82,24.12 -24.12,24.12z"/>
   <polygon class="fil8" points="205.09,31.94 207.19,34.03 127.83,113.4 125.73,111.3 "/>
   <path class="fil9" d="M127.21 106.24c1.2,-1.2 6.87,4.47 5.67,5.67l-21.02 16.53c-0.78,0.61 -1.78,-0.4 -1.17,-1.17l16.53 -21.02z"/>
   <path class="fil10" d="M207.14 34.08l10.67 1.06 -14.66 14.66c-4.8,4.8 -11.51,7.2 -18.26,6.53l22.24 -22.24z"/>
   <path class="fil10" d="M205.05 31.98l-1.06 -10.68 -14.66 14.66c-4.8,4.8 -7.2,11.5 -6.53,18.26l22.24 -22.24z"/>
   <path class="fil11" d="M8.14 30.93c-0.06,0 -0.13,-0.01 -0.19,-0.03 -0.41,-0.11 -0.65,-0.52 -0.55,-0.93 0.22,-0.84 0.48,-1.68 0.76,-2.49 0.11,-0.31 0.41,-0.51 0.72,-0.51 0.08,0 0.17,0.01 0.26,0.04 0.4,0.14 0.61,0.58 0.46,0.98 -0.28,0.77 -0.52,1.57 -0.73,2.37 -0.03,0.11 -0.08,0.2 -0.15,0.29 -0.14,0.18 -0.36,0.28 -0.59,0.28zm2.39 -6.21c-0.12,0 -0.24,-0.03 -0.35,-0.09 -0.37,-0.2 -0.52,-0.66 -0.32,-1.03 0.4,-0.77 0.84,-1.53 1.3,-2.26 0.14,-0.23 0.39,-0.36 0.64,-0.36 0.14,0 0.28,0.04 0.41,0.12 0.36,0.23 0.46,0.7 0.24,1.05 -0.44,0.69 -0.86,1.42 -1.24,2.14 -0.02,0.05 -0.05,0.09 -0.08,0.13 -0.15,0.18 -0.37,0.28 -0.59,0.28zm3.71 -5.52c-0.17,0 -0.35,-0.06 -0.49,-0.18 -0.32,-0.27 -0.36,-0.74 -0.1,-1.06l0.01 -0.01c0.56,-0.66 1.15,-1.3 1.77,-1.91 0.15,-0.15 0.34,-0.22 0.54,-0.22 0.2,0 0.39,0.07 0.54,0.22 0.28,0.28 0.3,0.72 0.05,1.02 -0.02,0.02 -0.04,0.04 -0.05,0.06 -0.58,0.58 -1.15,1.19 -1.68,1.82 -0.15,0.18 -0.37,0.27 -0.58,0.27zm43.75 -1.76c-0.2,0 -0.39,-0.07 -0.54,-0.22 -0.58,-0.58 -1.19,-1.14 -1.82,-1.68 -0.32,-0.27 -0.36,-0.74 -0.1,-1.06l0.01 -0.01c0.15,-0.18 0.37,-0.27 0.58,-0.27 0.17,0 0.35,0.06 0.49,0.18 0.66,0.56 1.31,1.15 1.92,1.76 0.28,0.28 0.3,0.72 0.05,1.02 -0.02,0.02 -0.03,0.04 -0.05,0.06 -0.15,0.15 -0.34,0.22 -0.54,0.22zm-38.91 -2.8c-0.23,0 -0.46,-0.11 -0.61,-0.31 -0.25,-0.34 -0.18,-0.82 0.15,-1.07 0.69,-0.52 1.41,-1.01 2.15,-1.47 0.13,-0.08 0.27,-0.12 0.4,-0.12 0.26,0 0.5,0.13 0.65,0.36 0.18,0.28 0.14,0.64 -0.05,0.89 -0.05,0.06 -0.12,0.12 -0.19,0.17 -0.7,0.43 -1.38,0.9 -2.04,1.4 -0.14,0.1 -0.3,0.15 -0.46,0.15zm33.71 -1.35c-0.14,0 -0.28,-0.04 -0.41,-0.12 -0.7,-0.44 -1.42,-0.86 -2.15,-1.23 -0.37,-0.2 -0.52,-0.66 -0.33,-1.03 0.14,-0.26 0.4,-0.41 0.68,-0.41 0.12,0 0.24,0.03 0.35,0.09 0.77,0.4 1.53,0.83 2.26,1.3 0.36,0.23 0.46,0.7 0.24,1.05 -0.02,0.03 -0.03,0.05 -0.05,0.07 -0.15,0.18 -0.37,0.28 -0.59,0.28zm-27.97 -2.01c-0.29,0 -0.57,-0.17 -0.7,-0.45 -0.17,-0.39 0,-0.84 0.39,-1.01 0.79,-0.35 1.61,-0.67 2.42,-0.96 0.08,-0.03 0.17,-0.04 0.25,-0.04 0.32,0 0.61,0.2 0.72,0.51 0.09,0.26 0.03,0.53 -0.13,0.73 -0.09,0.11 -0.2,0.19 -0.34,0.24 -0.78,0.27 -1.55,0.57 -2.3,0.91 -0.1,0.04 -0.21,0.07 -0.31,0.07zm21.99 -0.89c-0.08,0 -0.17,-0.01 -0.25,-0.04 -0.77,-0.27 -1.57,-0.52 -2.37,-0.72 -0.41,-0.11 -0.65,-0.52 -0.55,-0.93 0.09,-0.34 0.4,-0.57 0.74,-0.57 0.06,0 0.13,0.01 0.19,0.02 0.84,0.22 1.68,0.47 2.49,0.76 0.4,0.14 0.61,0.58 0.47,0.98 -0.03,0.08 -0.07,0.16 -0.13,0.23 -0.14,0.18 -0.36,0.28 -0.59,0.28zm-15.65 -1.12c-0.36,0 -0.68,-0.25 -0.75,-0.62 -0.08,-0.41 0.19,-0.82 0.6,-0.9 0.85,-0.17 1.72,-0.3 2.57,-0.4 0.03,-0 0.06,-0 0.09,-0 0.38,0 0.71,0.29 0.76,0.68 0.02,0.21 -0.04,0.41 -0.17,0.57 -0.12,0.15 -0.3,0.25 -0.51,0.28 -0.82,0.09 -1.64,0.22 -2.45,0.38 -0.05,0.01 -0.1,0.01 -0.15,0.01zm9.16 -0.37c-0.03,0 -0.06,-0 -0.09,-0 -0.82,-0.1 -1.65,-0.15 -2.47,-0.18 -0.42,-0.01 -0.75,-0.36 -0.74,-0.79 0.01,-0.41 0.35,-0.74 0.76,-0.74 0.01,0 0.01,0 0.02,0 0.86,0.03 1.74,0.09 2.6,0.18 0.42,0.05 0.72,0.43 0.67,0.85 -0.02,0.15 -0.08,0.29 -0.17,0.4 -0.14,0.17 -0.36,0.28 -0.59,0.28z"/>
   <path class="fil11" d="M7.26 36.22c-0.02,0 -0.04,-0 -0.06,-0 -0.42,-0.03 -0.74,-0.4 -0.71,-0.82 0.03,-0.41 0.07,-0.83 0.12,-1.25 0.04,-0.39 0.37,-0.68 0.76,-0.68 0.03,0 0.06,0 0.09,0 0.42,0.05 0.72,0.43 0.67,0.85 -0.05,0.4 -0.08,0.79 -0.11,1.19 -0.01,0.16 -0.07,0.31 -0.17,0.43 -0.14,0.17 -0.36,0.28 -0.59,0.28z"/>
   <path class="fil11" d="M14.75 58.26c-0.21,0 -0.42,-0.09 -0.57,-0.25 -0.28,-0.31 -0.55,-0.63 -0.82,-0.95 -0.27,-0.33 -0.22,-0.8 0.1,-1.07 0.14,-0.12 0.31,-0.17 0.49,-0.17 0.22,0 0.44,0.09 0.59,0.28 0.25,0.31 0.51,0.61 0.78,0.9 0.25,0.28 0.26,0.7 0.02,0.99 -0.03,0.03 -0.05,0.06 -0.08,0.09 -0.15,0.13 -0.33,0.2 -0.51,0.2z"/>
   <path class="fil12" d="M36.9 68.17c-0.43,0 -0.85,-0.01 -1.28,-0.03 -0.42,-0.02 -0.75,-0.37 -0.73,-0.79 0.02,-0.41 0.36,-0.73 0.76,-0.73 0.01,0 0.02,0 0.03,0 0.4,0.02 0.81,0.03 1.21,0.03 0.41,0 0.82,-0.01 1.22,-0.03 0.01,0 0.02,0 0.03,0 0.41,0 0.75,0.32 0.76,0.73 0.01,0.19 -0.06,0.37 -0.17,0.51 -0.13,0.16 -0.33,0.27 -0.56,0.28 -0.43,0.02 -0.86,0.03 -1.28,0.03zm5.28 -0.47c-0.36,0 -0.68,-0.26 -0.75,-0.63 -0.07,-0.42 0.2,-0.81 0.62,-0.89 0.8,-0.14 1.59,-0.32 2.38,-0.53 0.07,-0.02 0.13,-0.03 0.2,-0.03 0.34,0 0.65,0.22 0.74,0.57 0.03,0.1 0.03,0.2 0.02,0.3 -0.19,0.21 -0.38,0.42 -0.57,0.63 -0.82,0.22 -1.66,0.41 -2.49,0.56 -0.05,0.01 -0.09,0.01 -0.14,0.01z"/>
   <path class="fil11" d="M44.81 67.13c0.19,-0.21 0.38,-0.42 0.57,-0.63 -0.02,0.14 -0.08,0.27 -0.16,0.37 -0.1,0.12 -0.23,0.21 -0.4,0.26 -0,0 -0.01,0 -0.01,0z"/>
   <path class="fil13" d="M31.2 67.64c-0.74,-0.14 -1.49,-0.31 -2.22,-0.51 -0.41,-0.11 -0.65,-0.53 -0.54,-0.94 0.09,-0.34 0.4,-0.56 0.74,-0.56 0.07,0 0.13,0.01 0.2,0.03 0.78,0.21 1.58,0.39 2.38,0.53 0.15,0.03 0.28,0.1 0.38,0.19 -0.32,0.42 -0.63,0.84 -0.94,1.26z"/>
   <path class="fil12" d="M31.62 67.7c-0.04,0 -0.09,-0 -0.14,-0.01 -0.09,-0.02 -0.19,-0.03 -0.28,-0.05 0.31,-0.42 0.62,-0.84 0.94,-1.26 0.18,0.17 0.28,0.43 0.23,0.7 -0.02,0.13 -0.08,0.25 -0.16,0.34 -0.14,0.18 -0.36,0.28 -0.59,0.28z"/>
   <path class="fil11" d="M48.46 65.85c-0.3,0 -0.58,-0.18 -0.7,-0.47 -0.16,-0.39 0.02,-0.84 0.41,-1 0.75,-0.31 1.49,-0.66 2.2,-1.04 0.11,-0.06 0.23,-0.09 0.35,-0.09 0.28,0 0.54,0.15 0.68,0.41 0.15,0.28 0.1,0.61 -0.08,0.84 -0.06,0.08 -0.14,0.15 -0.24,0.2 -0.75,0.39 -1.53,0.76 -2.32,1.09 -0.1,0.04 -0.2,0.06 -0.3,0.06z"/>
   <path class="fil14" d="M25.34 65.83c-0.1,0 -0.2,-0.02 -0.3,-0.06 -0.78,-0.33 -1.56,-0.7 -2.31,-1.1 -0.37,-0.2 -0.52,-0.66 -0.32,-1.03 0.14,-0.26 0.4,-0.41 0.68,-0.41 0.12,0 0.24,0.03 0.36,0.09 0.72,0.38 1.46,0.73 2.2,1.04 0.39,0.17 0.57,0.61 0.41,1 -0.03,0.07 -0.07,0.13 -0.11,0.18 -0.15,0.18 -0.37,0.28 -0.59,0.28z"/>
   <path class="fil15" d="M54.18 62.66c-0.24,0 -0.47,-0.11 -0.62,-0.32 -0.24,-0.34 -0.16,-0.82 0.18,-1.06 0.66,-0.47 1.31,-0.97 1.92,-1.49 0.14,-0.12 0.32,-0.18 0.49,-0.18 0.22,0 0.43,0.09 0.58,0.27 0.24,0.28 0.24,0.69 0.01,0.97 -0.03,0.04 -0.06,0.07 -0.1,0.1 -0.65,0.55 -1.33,1.08 -2.02,1.57 -0.13,0.1 -0.29,0.14 -0.44,0.14z"/>
   <path class="fil16" d="M19.63 62.63c-0.15,0 -0.31,-0.04 -0.44,-0.14 -0.51,-0.36 -1.01,-0.75 -1.5,-1.14 -0.18,-0.14 -0.35,-0.29 -0.52,-0.43 -0.32,-0.27 -0.37,-0.76 -0.09,-1.08 0.15,-0.18 0.37,-0.27 0.58,-0.27 0.17,0 0.35,0.06 0.49,0.18 0.16,0.14 0.33,0.28 0.5,0.41 0.46,0.37 0.94,0.74 1.43,1.09 0.34,0.25 0.42,0.72 0.18,1.07 -0.01,0.01 -0.02,0.03 -0.03,0.04 -0.15,0.18 -0.37,0.28 -0.59,0.28z"/>
   <path class="fil17" d="M59.06 58.3c-0.18,0 -0.36,-0.06 -0.51,-0.19 -0.31,-0.28 -0.34,-0.76 -0.06,-1.08 0.54,-0.6 1.05,-1.23 1.55,-1.88 0.15,-0.2 0.38,-0.3 0.61,-0.3 0.16,0 0.32,0.05 0.46,0.15 0.34,0.26 0.4,0.73 0.15,1.07 -0.21,0.28 -0.43,0.56 -0.65,0.83 -0.32,0.39 -0.64,0.77 -0.97,1.15 -0.15,0.17 -0.36,0.25 -0.57,0.25z"/>
   <path class="fil12" d="M62.11 52.11c0.01,-0.09 0.04,-0.19 0.09,-0.27 0.4,-0.71 0.77,-1.44 1.1,-2.17 0.13,-0.28 0.4,-0.45 0.69,-0.45 0.11,0 0.21,0.02 0.32,0.07 0.38,0.18 0.55,0.63 0.38,1.01 -0.03,0.07 -0.07,0.15 -0.1,0.23 -0.84,0.51 -1.66,1.05 -2.48,1.59z"/>
   <path class="fil11" d="M62.87 52.98c-0.13,0 -0.26,-0.03 -0.37,-0.1 -0.28,-0.16 -0.42,-0.46 -0.38,-0.77 0.82,-0.54 1.65,-1.07 2.48,-1.59 -0.33,0.7 -0.68,1.39 -1.06,2.06 -0.02,0.04 -0.05,0.07 -0.07,0.11 -0.15,0.18 -0.37,0.28 -0.59,0.28z"/>
   <path class="fil12" d="M65.43 46.95c-0.07,0 -0.15,-0.01 -0.22,-0.03 -0.4,-0.12 -0.63,-0.55 -0.51,-0.95 0.23,-0.77 0.43,-1.57 0.6,-2.36 0.08,-0.36 0.39,-0.61 0.75,-0.61 0.05,0 0.1,0 0.16,0.02 0.41,0.09 0.68,0.49 0.59,0.9 -0.17,0.83 -0.39,1.67 -0.63,2.48 -0.03,0.1 -0.08,0.19 -0.14,0.26 -0.14,0.18 -0.36,0.28 -0.59,0.28z"/>
   <path class="fil12" d="M66.6 40.49c-0.02,0 -0.03,0 -0.05,-0 -0.42,-0.03 -0.74,-0.39 -0.71,-0.81 0.03,-0.39 0.05,-0.79 0.06,-1.19 0.01,-0.42 0.35,-0.74 0.76,-0.74 0.01,0 0.01,0 0.02,0 0.42,0.01 0.75,0.36 0.74,0.79 -0.01,0.42 -0.03,0.84 -0.06,1.25 -0.01,0.16 -0.07,0.31 -0.17,0.43 -0.14,0.17 -0.36,0.28 -0.59,0.28z"/>
   <path class="fil10" d="M58.6 30.32c-0.03,-0.15 -0.15,-0.26 -0.3,-0.28l-4.31 -0.55c-0.85,-1.84 -2.01,-3.56 -3.45,-5.07l1.07 -4.21c0.04,-0.15 -0.02,-0.3 -0.15,-0.39l-4.36 -2.86c-0.13,-0.08 -0.29,-0.08 -0.41,0.02l-3.43 2.66c-1.96,-0.72 -4,-1.09 -6.02,-1.14l-2.22 -3.73c-0.08,-0.13 -0.23,-0.2 -0.38,-0.17l-5.1 1.06c-0.15,0.03 -0.26,0.15 -0.28,0.3l-0.55 4.31c-1.84,0.85 -3.56,2.01 -5.07,3.45l-4.21 -1.07c-0.15,-0.04 -0.3,0.02 -0.39,0.15l-2.86 4.36c-0.08,0.13 -0.08,0.29 0.02,0.41l2.66 3.43c-0.72,1.96 -1.09,4 -1.14,6.02l-3.73 2.22c-0.13,0.08 -0.2,0.23 -0.17,0.38l1.06 5.1c0.03,0.15 0.15,0.26 0.3,0.28l4.31 0.55c0.86,1.84 2.01,3.56 3.45,5.07l-1.07 4.21c-0.04,0.15 0.02,0.3 0.15,0.39l4.36 2.86c0.13,0.08 0.29,0.08 0.41,-0.02l3.43 -2.66c1.96,0.72 4,1.09 6.02,1.14l2.22 3.73c0.08,0.13 0.23,0.2 0.38,0.17l5.1 -1.06c0.15,-0.03 0.26,-0.15 0.28,-0.3l0.55 -4.31c1.84,-0.86 3.56,-2.01 5.07,-3.45l4.21 1.07c0.15,0.04 0.3,-0.02 0.39,-0.15l2.86 -4.36c0.08,-0.13 0.08,-0.29 -0.02,-0.41l-2.66 -3.43c0.72,-1.96 1.09,-3.99 1.14,-6.02l3.73 -2.22c0.13,-0.08 0.2,-0.23 0.17,-0.38l-1.06 -5.1z"/>
   <path class="fil1" d="M32.71 37.36c-0.05,1.07 0.33,2.1 1.06,2.89 1.5,1.63 4.04,1.74 5.67,0.24 1.63,-1.5 1.74,-4.05 0.24,-5.68 -1.5,-1.63 -4.04,-1.74 -5.67,-0.24 -0.15,0.14 -0.28,0.28 -0.41,0.43 -0.54,0.66 -0.85,1.48 -0.89,2.35zm7.56 4.03c-2.13,1.95 -5.45,1.81 -7.4,-0.31 -0.95,-1.03 -1.44,-2.37 -1.38,-3.76 0.06,-1.4 0.66,-2.69 1.69,-3.64 2.13,-1.95 5.45,-1.81 7.4,0.31 1.78,1.93 1.82,4.86 0.21,6.84 -0.16,0.2 -0.34,0.38 -0.53,0.56z"/>
   <path class="fil1" d="M46.61 45.68c0.28,-0.34 0.54,-0.7 0.78,-1.07 0.08,-0.12 0.15,-0.23 0.22,-0.36 0.36,-0.59 0.67,-1.2 0.93,-1.84 0,-0.01 0.01,-0.02 0.01,-0.03 0.01,-0.02 0.02,-0.05 0.03,-0.07 0.02,-0.05 0.04,-0.1 0.06,-0.14 0.05,-0.13 0.01,-0.27 -0.09,-0.35 -0.02,-0.02 -0.05,-0.03 -0.08,-0.05 -0.16,-0.06 -0.33,0.02 -0.39,0.18 -0.31,0.81 -0.71,1.59 -1.19,2.32 -2.38,3.64 -6.38,5.59 -10.44,5.54 -2.26,-0.03 -4.53,-0.68 -6.55,-2.01 -0.35,-0.23 -0.69,-0.48 -1.02,-0.74 -2.19,-1.77 -3.68,-4.22 -4.27,-7.02 -0.67,-3.21 -0.05,-6.49 1.75,-9.22 3.71,-5.66 11.33,-7.24 16.99,-3.53 0.35,0.23 0.68,0.47 1.01,0.74 1.39,1.13 2.53,2.55 3.31,4.17 0.02,0.04 0.05,0.08 0.08,0.1 0.09,0.07 0.22,0.09 0.33,0.04 0.15,-0.07 0.22,-0.26 0.14,-0.41 -0.82,-1.7 -2.01,-3.19 -3.47,-4.38 -0.34,-0.27 -0.69,-0.53 -1.06,-0.77 -5.94,-3.89 -13.94,-2.23 -17.83,3.71 -1.89,2.88 -2.54,6.32 -1.84,9.68 0.61,2.93 2.18,5.5 4.48,7.37 0.34,0.28 0.7,0.54 1.07,0.78 2.88,1.89 6.32,2.54 9.69,1.84 2.93,-0.61 5.51,-2.18 7.37,-4.48z"/>
   <path class="fil18" d="M90.26 9.75c-0.15,0 -0.3,-0.07 -0.39,-0.2 -0.22,-0.31 -0.45,-0.63 -0.68,-0.93 -0.16,-0.2 -0.12,-0.5 0.08,-0.66 0.09,-0.07 0.19,-0.1 0.29,-0.1 0.14,0 0.28,0.06 0.37,0.18 0.25,0.32 0.49,0.64 0.71,0.97 0.12,0.18 0.11,0.41 -0.02,0.57 -0.03,0.03 -0.06,0.07 -0.1,0.09 -0.08,0.06 -0.17,0.08 -0.27,0.08z"/>
   <path class="fil11" d="M56.46 11.43c-0.08,0 -0.16,-0.02 -0.23,-0.06 -0.23,-0.13 -0.31,-0.41 -0.18,-0.64 0.35,-0.63 0.74,-1.25 1.16,-1.85 0.06,-0.09 0.13,-0.18 0.19,-0.27 0.09,-0.13 0.23,-0.2 0.38,-0.2 0.1,0 0.2,0.03 0.28,0.09 0.21,0.15 0.26,0.45 0.1,0.66 -0.06,0.08 -0.12,0.17 -0.18,0.26 -0.4,0.57 -0.77,1.16 -1.11,1.77 -0.01,0.02 -0.03,0.05 -0.05,0.07 -0.09,0.11 -0.23,0.17 -0.37,0.17zm2.88 -3.96c-0.11,0 -0.23,-0.04 -0.32,-0.13 -0.19,-0.18 -0.2,-0.47 -0.02,-0.67 0.57,-0.61 1.18,-1.19 1.82,-1.73 0.09,-0.07 0.2,-0.11 0.3,-0.11 0.14,0 0.27,0.06 0.36,0.17 0.15,0.18 0.14,0.43 0,0.6 -0.02,0.02 -0.04,0.05 -0.06,0.07 -0.61,0.51 -1.19,1.06 -1.74,1.65 -0.09,0.1 -0.22,0.15 -0.35,0.15zm27.97 -0.92c-0.38,-0.36 -0.77,-0.71 -1.18,-1.04 -0.11,-0.09 -0.22,-0.17 -0.33,-0.26 -0.21,-0.16 -0.24,-0.46 -0.08,-0.66 0.09,-0.11 0.24,-0.18 0.38,-0.18 0.1,0 0.2,0.03 0.28,0.1 0.12,0.09 0.23,0.18 0.34,0.27 0.53,0.43 1.05,0.9 1.54,1.38 0.01,0.01 0.02,0.02 0.03,0.03 -0.33,0.12 -0.66,0.23 -0.99,0.35z"/>
   <path class="fil19" d="M87.94 6.96c-0.12,0 -0.24,-0.04 -0.33,-0.14 -0.1,-0.1 -0.19,-0.19 -0.29,-0.29 0.33,-0.12 0.66,-0.23 0.99,-0.35 0.14,0.17 0.14,0.42 0,0.6 -0.01,0.01 -0.02,0.02 -0.03,0.04 -0.09,0.09 -0.21,0.14 -0.33,0.14z"/>
   <path class="fil20" d="M63.1 4.32c-0.16,0 -0.31,-0.08 -0.4,-0.22 -0.14,-0.22 -0.08,-0.51 0.14,-0.65 0.7,-0.45 1.44,-0.86 2.19,-1.22 0.07,-0.03 0.14,-0.05 0.2,-0.05 0.18,0 0.34,0.1 0.43,0.27 0.08,0.17 0.05,0.36 -0.06,0.5 -0.04,0.05 -0.1,0.1 -0.16,0.13 -0.72,0.34 -1.42,0.74 -2.09,1.17 -0.08,0.05 -0.17,0.07 -0.25,0.07zm20.97 -0.36c-0.08,0 -0.17,-0.02 -0.24,-0.07 -0.68,-0.41 -1.4,-0.78 -2.13,-1.1 -0.24,-0.1 -0.35,-0.38 -0.24,-0.62 0.08,-0.18 0.25,-0.28 0.43,-0.28 0.06,0 0.13,0.01 0.19,0.04 0.76,0.34 1.51,0.72 2.23,1.15 0.22,0.13 0.3,0.42 0.16,0.65 -0.01,0.02 -0.02,0.04 -0.04,0.05 -0.09,0.11 -0.23,0.17 -0.37,0.17zm-16.56 -1.76c-0.2,0 -0.38,-0.13 -0.45,-0.32 -0.08,-0.25 0.05,-0.52 0.3,-0.6 0.79,-0.27 1.61,-0.49 2.42,-0.66 0.03,-0.01 0.06,-0.01 0.1,-0.01 0.22,0 0.42,0.15 0.46,0.38 0.03,0.14 -0.01,0.29 -0.1,0.39 -0.07,0.08 -0.16,0.14 -0.27,0.16 -0.78,0.16 -1.56,0.37 -2.31,0.62 -0.05,0.02 -0.1,0.03 -0.15,0.03zm12.08 -0.22c-0.04,0 -0.09,-0.01 -0.14,-0.02 -0.76,-0.23 -1.55,-0.41 -2.33,-0.54 -0.26,-0.04 -0.43,-0.29 -0.39,-0.54 0.04,-0.23 0.24,-0.39 0.46,-0.39 0.03,0 0.05,0 0.08,0.01 0.82,0.14 1.65,0.33 2.45,0.57 0.25,0.07 0.39,0.34 0.32,0.59 -0.02,0.06 -0.05,0.11 -0.09,0.16 -0.09,0.11 -0.22,0.18 -0.37,0.18zm-7.28 -0.77c-0.24,0 -0.45,-0.19 -0.47,-0.43 -0.02,-0.26 0.17,-0.49 0.43,-0.51 0.54,-0.04 1.09,-0.07 1.63,-0.07 0.29,0 0.59,0 0.88,0.02 0.26,0.01 0.46,0.23 0.45,0.49 -0.01,0.11 -0.04,0.2 -0.1,0.28 -0.09,0.11 -0.22,0.18 -0.37,0.18 -0.01,0 -0.01,0 -0.02,-0 -0.28,-0.01 -0.56,-0.02 -0.84,-0.02 -0.52,0 -1.04,0.02 -1.56,0.06 -0.01,0 -0.02,0 -0.04,0z"/>
   <path class="fil12" d="M74.41 40.95c-0.25,0 -0.46,-0.2 -0.47,-0.46 -0.01,-0.26 0.2,-0.48 0.46,-0.49 0.78,-0.02 1.57,-0.09 2.35,-0.2 0.02,-0 0.05,-0.01 0.07,-0.01 0.23,0 0.43,0.17 0.47,0.4 0.02,0.13 -0.02,0.27 -0.1,0.36 -0.07,0.09 -0.18,0.15 -0.3,0.17 -0.81,0.12 -1.64,0.2 -2.46,0.22 -0,0 -0.01,0 -0.01,0zm-2.41 -0.08c-0.01,0 -0.03,-0 -0.04,-0 -0.82,-0.08 -1.64,-0.21 -2.44,-0.38 -0.26,-0.06 -0.42,-0.31 -0.36,-0.56 0.05,-0.22 0.24,-0.37 0.46,-0.37 0.03,0 0.07,0 0.1,0.01 0.76,0.17 1.55,0.29 2.33,0.36 0.26,0.03 0.45,0.26 0.43,0.52 -0.01,0.1 -0.05,0.18 -0.1,0.25 -0.09,0.11 -0.22,0.18 -0.37,0.18zm7.18 -0.63c-0.21,0 -0.4,-0.14 -0.45,-0.35 -0.07,-0.25 0.08,-0.51 0.33,-0.58 0.76,-0.21 1.51,-0.46 2.23,-0.76 0.06,-0.02 0.12,-0.04 0.18,-0.04 0.19,0 0.36,0.11 0.44,0.29 0.07,0.17 0.04,0.35 -0.07,0.48 -0.05,0.06 -0.11,0.11 -0.19,0.14 -0.76,0.31 -1.55,0.58 -2.34,0.8 -0.04,0.01 -0.08,0.02 -0.13,0.02zm4.46 -1.83c-0.17,0 -0.33,-0.09 -0.41,-0.24 -0.13,-0.23 -0.05,-0.51 0.18,-0.64 0.68,-0.38 1.35,-0.81 1.98,-1.27 0.08,-0.06 0.18,-0.09 0.28,-0.09 0.15,0 0.29,0.07 0.38,0.19 0.13,0.18 0.12,0.41 -0.01,0.58 -0.02,0.03 -0.05,0.06 -0.09,0.08 -0.66,0.49 -1.36,0.94 -2.08,1.34 -0.07,0.04 -0.15,0.06 -0.23,0.06zm3.88 -2.85c-0.12,0 -0.25,-0.05 -0.34,-0.15 -0.18,-0.19 -0.17,-0.49 0.02,-0.67 0.57,-0.53 1.11,-1.11 1.61,-1.71 0.09,-0.11 0.23,-0.17 0.36,-0.17 0.11,0 0.21,0.03 0.3,0.11 0.2,0.17 0.23,0.46 0.07,0.66l-0 0c-0.53,0.63 -1.1,1.24 -1.69,1.8 -0.09,0.09 -0.21,0.13 -0.32,0.13z"/>
   <path class="fil21" d="M91.35 29.1c0,-0 0,-0.01 0.01,-0.02 0.08,-0.17 0.25,-0.26 0.43,-0.26 0.07,0 0.14,0.02 0.21,0.05 0.05,0.02 0.09,0.05 0.12,0.08 -0.26,0.05 -0.5,0.1 -0.76,0.15z"/>
   <path class="fil22" d="M90.59 31.86c-0.09,0 -0.18,-0.03 -0.26,-0.08 -0.22,-0.14 -0.28,-0.43 -0.14,-0.65 0.42,-0.65 0.81,-1.34 1.15,-2.04 0.25,-0.05 0.5,-0.1 0.76,-0.15 0.14,0.14 0.19,0.36 0.1,0.55 -0.36,0.74 -0.77,1.46 -1.21,2.15 -0.01,0.01 -0.02,0.03 -0.03,0.04 -0.09,0.11 -0.23,0.17 -0.37,0.17z"/>
   <path class="fil23" d="M92.7 27.53c-0.05,0 -0.1,-0.01 -0.15,-0.03 -0.25,-0.08 -0.38,-0.35 -0.29,-0.6 0.25,-0.74 0.47,-1.5 0.63,-2.27 0.05,-0.22 0.24,-0.37 0.46,-0.37 0.03,0 0.07,0 0.1,0.01 0.25,0.05 0.42,0.3 0.36,0.56 -0.17,0.8 -0.39,1.6 -0.66,2.38 -0.02,0.05 -0.05,0.1 -0.08,0.14 -0.09,0.11 -0.22,0.18 -0.37,0.18z"/>
   <path class="fil24" d="M93.71 22.8c-0.01,0 -0.03,-0 -0.04,-0 -0.26,-0.02 -0.45,-0.25 -0.43,-0.51 0.03,-0.38 0.06,-0.77 0.07,-1.15 0.01,-0.26 0.22,-0.46 0.47,-0.46 0,0 0.01,0 0.01,0 0.26,0.01 0.47,0.23 0.46,0.49 -0.01,0.4 -0.03,0.8 -0.07,1.2 -0.01,0.1 -0.04,0.19 -0.1,0.26 -0.09,0.11 -0.22,0.18 -0.37,0.18z"/>
   <path class="fil10" d="M88.38 15.67c-0.02,-0.1 -0.1,-0.18 -0.2,-0.19l-2.88 -0.37c-0.57,-1.23 -1.35,-2.38 -2.31,-3.39l0.71 -2.82c0.02,-0.1 -0.02,-0.2 -0.1,-0.26l-2.92 -1.91c-0.08,-0.06 -0.2,-0.05 -0.28,0.01l-2.3 1.78c-1.31,-0.48 -2.67,-0.73 -4.03,-0.76l-1.49 -2.5c-0.05,-0.09 -0.15,-0.13 -0.25,-0.11l-3.41 0.71c-0.1,0.02 -0.18,0.1 -0.19,0.2l-0.37 2.88c-1.23,0.57 -2.38,1.35 -3.39,2.31l-2.82 -0.72c-0.1,-0.02 -0.2,0.02 -0.26,0.1l-1.91 2.92c-0.06,0.08 -0.05,0.2 0.01,0.28l1.78 2.3c-0.48,1.31 -0.73,2.67 -0.76,4.03l-2.5 1.49c-0.09,0.05 -0.13,0.15 -0.11,0.25l0.71 3.41c0.02,0.1 0.1,0.18 0.2,0.19l2.88 0.37c0.57,1.23 1.34,2.38 2.31,3.39l-0.71 2.82c-0.02,0.1 0.02,0.2 0.1,0.26l2.92 1.91c0.08,0.06 0.2,0.05 0.28,-0.01l2.3 -1.78c1.31,0.48 2.67,0.73 4.03,0.76l1.49 2.5c0.05,0.09 0.15,0.13 0.25,0.11l3.41 -0.71c0.1,-0.02 0.18,-0.1 0.19,-0.2l0.37 -2.88c1.23,-0.57 2.38,-1.35 3.39,-2.31l2.82 0.72c0.1,0.02 0.2,-0.02 0.26,-0.1l1.91 -2.92c0.06,-0.08 0.05,-0.2 -0.01,-0.28l-1.78 -2.3c0.48,-1.31 0.73,-2.67 0.76,-4.03l2.5 -1.49c0.09,-0.05 0.13,-0.15 0.11,-0.25l-0.71 -3.41z"/>
   <path class="fil1" d="M71.82 22.27c0.47,0.52 1.12,0.82 1.82,0.85 0.7,0.03 1.37,-0.22 1.89,-0.69 0.52,-0.48 0.82,-1.12 0.85,-1.82 0.03,-0.7 -0.21,-1.37 -0.69,-1.89 -0.98,-1.07 -2.64,-1.14 -3.71,-0.16 -0.1,0.09 -0.18,0.18 -0.26,0.28 -0.81,0.99 -0.78,2.46 0.11,3.43zm4.35 0.85c-0.7,0.64 -1.61,0.98 -2.57,0.94 -0.95,-0.04 -1.83,-0.45 -2.48,-1.15 -1.33,-1.45 -1.23,-3.71 0.21,-5.04 1.45,-1.33 3.71,-1.23 5.04,0.21 0.65,0.7 0.98,1.61 0.94,2.57 -0.03,0.77 -0.31,1.5 -0.79,2.09 -0.11,0.13 -0.23,0.27 -0.36,0.39z"/>
   <path class="fil1" d="M80.57 26.11c0.19,-0.23 0.37,-0.48 0.53,-0.73 0.33,-0.51 0.61,-1.05 0.84,-1.61 0.01,-0.03 0.02,-0.05 0.03,-0.07 0.08,-0.2 0.01,-0.41 -0.14,-0.54 -0.04,-0.03 -0.08,-0.06 -0.13,-0.07 -0.24,-0.09 -0.51,0.03 -0.61,0.27 -0.2,0.53 -0.46,1.03 -0.77,1.5l0 0c-0.02,0.03 -0.04,0.05 -0.05,0.08 -0.74,1.11 -1.74,2 -2.89,2.6 -0.63,0.33 -1.3,0.57 -2.01,0.73l-0.02 0c-0.02,0 -0.03,0.01 -0.05,0.01 -2.08,0.43 -4.2,0.03 -5.97,-1.13 -0.23,-0.15 -0.45,-0.31 -0.66,-0.48 -1.42,-1.15 -2.39,-2.74 -2.76,-4.54 -0.43,-2.08 -0.03,-4.2 1.13,-5.97 1.16,-1.77 2.95,-2.99 5.02,-3.42 2.08,-0.43 4.2,-0.03 5.97,1.13 0.23,0.15 0.44,0.31 0.65,0.48 0.9,0.73 1.64,1.65 2.14,2.7 0.03,0.06 0.08,0.12 0.13,0.16 0.14,0.11 0.33,0.14 0.5,0.06 0.23,-0.11 0.33,-0.4 0.22,-0.63 -0.57,-1.17 -1.39,-2.2 -2.4,-3.02 -0.23,-0.19 -0.48,-0.37 -0.73,-0.53 -1.98,-1.3 -4.36,-1.75 -6.68,-1.27 -2.32,0.48 -4.32,1.84 -5.62,3.83 -1.3,1.98 -1.75,4.36 -1.27,6.68 0.42,2.02 1.5,3.8 3.09,5.08 0.24,0.19 0.48,0.37 0.74,0.54 3.84,2.52 8.94,1.67 11.77,-1.83z"/>
   <path class="fil25" d="M33.07 248.93c0,0 -0.53,2.85 -0.81,5.67 -0.11,1.1 0.73,2.07 1.84,2.13 3.76,0.19 11.8,0.57 14.69,0.47 0.43,-0.01 0.72,-0.46 0.57,-0.86 -0.13,-0.34 -0.39,-0.62 -0.72,-0.77l-13.23 -6.23 -2.34 -0.4z"/>
   <path class="fil26" d="M32.68 247.25l0.37 3.42c0,0 2.32,1.11 3.92,-0.1l-0.93 -3.81 -3.36 0.49z"/>
   <path class="fil27" d="M33.59 183.09c-0.18,0.89 -1.36,44.46 3.11,64.04 0.07,0.32 -0.09,0.65 -0.4,0.77 -0.72,0.28 -2.12,0.69 -3.8,0.73 -0.52,0.01 -0.98,-0.33 -1.13,-0.83 -1.29,-4.54 -7.45,-27.31 -8.08,-49 -0.7,-24.24 0.01,-0.82 0.01,-0.82l0.69 -14.97 9.6 0.09z"/>
   <path class="fil28" d="M17.77 250.27c0,0 -0.82,1.43 -1.63,5.25 -0.15,0.69 0.33,1.36 1.03,1.43 1.24,0.13 3.15,0.31 4.68,0.31 0.71,0 1.26,-0.61 1.18,-1.31 -0.16,-1.4 -0.66,-3.7 -2.28,-5.5l-2.99 -0.19z"/>
   <path class="fil29" d="M17.11 245.87l0.9 5.17c0,0 0.93,0.7 2.78,0.22l-0.4 -5.56 -3.28 0.17z"/>
   <path class="fil30" d="M15.14 184.25c-4.03,22.96 0.28,56.84 1.78,63.48 0.09,0.41 0.42,0.72 0.83,0.79 0.7,0.12 1.84,0.23 2.98,-0.09 0.39,-0.11 0.67,-0.46 0.69,-0.86 0.26,-5.35 0.2,-38.23 3.87,-51.18 0.19,-0.66 0.59,-1.23 1.15,-1.62l6.94 -4.83 0.6 -7.91 -18.85 2.23z"/>
   <path class="fil31" d="M39.84 140.92c-11.42,-0.3 -24.04,2.77 -24.04,2.77 -3.59,19.83 -1,42.76 -1,42.76 8.82,2.4 18.82,-1.24 18.82,-1.24 1.55,-8.29 8.63,-31.58 8.63,-31.58 5.59,-0.64 10.2,-2.21 14,-4.3 -2.85,-3.37 -4.18,-7.64 -4.74,-10.17 -4.05,1.22 -8.14,1.85 -11.66,1.76z"/>
   <path class="fil32" d="M73.72 124.42c-1.11,-1.37 -2.54,-0.74 -2.54,-0.74 -1.75,7.08 -10.61,12.75 -19.69,15.48 0.57,2.52 1.89,6.79 4.74,10.17 15.1,-8.3 17.48,-24.91 17.48,-24.91z"/>
   <path class="fil33" d="M73.45 124.76c0.11,0.37 -1.25,0.93 -2.04,-0.6 -0.02,-0.73 -0.44,-3.87 0.01,-4.46 2.36,-3.15 6.91,-7.08 6.91,-7.08 0.76,0.76 0.12,1.49 0.12,1.49l-2.21 2.26c0.45,0.83 1,1.54 1.25,2.54 0.19,0.76 0.06,1.57 -0.33,2.26 -0.39,0.69 -0.92,1.58 -1.43,2.28 -0.95,1.32 -2.29,1.32 -2.29,1.32z"/>
   <path class="fil34" d="M75.26 117.84l-2.01 1.67 -0.64 1.68 1.76 1.99c0,0 0.63,-3.34 1.08,-4.05 0.45,-0.72 0.22,-1.07 -0.19,-1.29z"/>
   <path class="fil35" d="M20.07 154.78l-4.27 -11.1c0,0 -10.73,7.14 -12.58,16.32 2.01,0.17 5.68,0.73 9.25,2.57 0.83,-4.33 7.6,-7.79 7.6,-7.79z"/>
   <path class="fil36" d="M29.29 165.28c0,0 -12.04,6.65 -16.02,0.84 -0.83,-1.21 -1.02,-2.4 -0.8,-3.54 -3.57,-1.85 -7.23,-2.41 -9.25,-2.57 -0.56,2.76 -0.3,5.71 1.3,8.71 6.95,13.01 26.33,-0.46 26.33,-0.46l-1.56 -2.97z"/>
   <path class="fil37" d="M28.36 131.54l-3.73 10.47c-0.06,0.17 0.01,0.37 0.17,0.46 0.99,0.56 4.54,2.17 8.86,-0.51 0.45,-0.28 0.76,-0.74 0.83,-1.27l1.26 -9.08 -7.39 -0.07z"/>
   <path class="fil38" d="M36.36 121.89c0,0 3.92,7.55 3.38,10.58 -0.54,3.03 -5.48,2.76 -9.78,0.26l-2.94 -8.14 9.34 -2.7z"/>
   <path class="fil39" d="M30.19 128.74c0.18,-0.08 0.24,-0.29 0.14,-0.45 -0.32,-0.49 -0.9,-1.49 -1.09,-2.37 0,0 -0.71,-0.47 1.84,-1.05 2.55,-0.58 6.35,-1.49 7.17,-3.65 0.8,-2.1 -1.19,-7.43 -4.49,-3.23 -0.13,0.16 -0.37,0.16 -0.49,-0 -0.53,-0.7 -1.92,-2.16 -3.87,-1.3 -1.83,0.8 -2.05,2.14 -2.03,2.81 0.01,0.2 -0.17,0.35 -0.37,0.31 -0.92,-0.18 -3.13,-0.36 -4.19,1.9 -0.87,1.86 -0.33,2.93 0.17,3.45 0.16,0.17 0.09,0.44 -0.14,0.51 -0.61,0.18 -1.4,0.69 -1.33,2.11 0.09,1.96 2.29,1.81 2.91,1.73 0.1,-0.01 0.21,0.02 0.27,0.1 0.53,0.6 2.92,3.14 5.53,3.47 0.23,0.03 0.4,-0.19 0.33,-0.41l-1.1 -3.3c-0.05,-0.15 0.02,-0.32 0.17,-0.38l0.56 -0.24z"/>
   <path class="fil40" d="M30.64 129.21c0,0 -2.82,-1.98 -3.05,-0.34 -0.22,1.64 2.54,2.4 3.91,1.8l-0.87 -1.47z"/>
   <path class="fil41" d="M26.83 175.79l6.56 -22.9c0.07,-0.26 0.3,-0.45 0.56,-0.48 1.19,-0.14 4.63,-0.53 8.61,-0.86 4.79,-0.4 10.35,-0.73 13.67,-0.45 0.47,0.04 0.76,0.54 0.55,0.96 -1.89,3.82 -9.66,19.37 -13.55,24.47 -0.13,0.17 -0.33,0.27 -0.54,0.27l-15.22 -0.14c-0.44,-0 -0.76,-0.43 -0.64,-0.85z"/>
   <path class="fil42" d="M28.41 170.26c0,0 -0.91,-3.76 -0.54,-5.09 0.37,-1.33 1.08,-3.05 3.46,-2.67 2.38,0.38 5.19,1.38 5.19,1.38 0,0 -0.14,1.74 -1.95,1.18l1.12 0.87c0,0 -0.16,1.39 -1.69,0.65l1.04 1.15c0,0 -0.66,1.14 -1.78,0.41 -1.12,-0.73 -1.66,2.57 -4.85,2.12z"/>
   <path class="fil43" d="M42.12 158.38c0,1.06 0.86,1.93 1.93,1.93 1.06,0 1.92,-0.86 1.92,-1.93 0,-1.06 -0.86,-1.92 -1.92,-1.92 -1.06,0 -1.93,0.86 -1.93,1.92z"/>
   <path class="fil1" d="M34.13 159.65l1.34 -4.53c0.16,-0.56 0.61,-0.97 1.17,-1.09 4.18,-0.87 15.64,-1.06 15.75,-1.06l-0.01 -0.51c-0.47,0.01 -11.62,0.19 -15.85,1.07 -0.74,0.15 -1.34,0.71 -1.55,1.45l-1.34 4.53 0.49 0.15z"/>
   <path class="fil44" d="M204.56 125.59c0.18,-0.35 0.7,-0.29 0.8,0.09 0.39,1.4 1.33,3.84 3.3,4.71 0.1,0.04 0.2,0.09 0.29,0.13 0.09,-0.27 0.09,-0.58 -0.12,-0.91 -0.62,-0.94 0.49,-2.22 0.49,-2.22 0,0 0.07,1.13 0.93,1.84 0.74,0.61 1.09,1.97 0.59,3.09 -1.07,4.15 -2.67,9.64 3.56,13.66 6.24,4.01 15.02,-7.57 15.02,-7.57l-4.36 13.82c0,0 -6.73,4.96 -14.55,-2.02 -7.82,-6.98 -2.64,-17.14 -2.64,-17.14 0,0 -5.97,-2.41 -3.32,-7.48z"/>
   <path class="fil45" d="M230.52 118.11c0,0 -1.81,-8.1 7.48,-5.96 0,0 4.51,-0.74 4.74,3.52 0,0 2.9,1.91 0.78,5.59 0,0 8.63,-3.33 12.39,4.23 3.76,7.57 0.3,11.73 -3.32,12.81 0,0 2.93,1.47 1.55,4.8 -1.39,3.33 -8.43,5.67 -12.58,1.63 0,0 -11.83,1.56 -11.59,-6.79 0,0 -5.5,-3.55 0.28,-10.46 5.78,-6.91 0.3,-9.37 0.3,-9.37z"/>
   <path class="fil46" d="M230.01 136.89c1.87,-0.56 7.3,-1.59 12.46,3.18 0.88,0.81 1.23,2.04 0.92,3.19 -1.39,5.11 -5.05,20.2 -1.84,26.73 0,0 -5.66,6.24 -11.83,1.21 0,0 -2.77,-12.07 -6.4,-17.36 -2.5,-3.66 3.99,-13.73 5.63,-16.17 0.25,-0.37 0.62,-0.64 1.04,-0.77z"/>
   <path class="fil47" d="M235.16 126.74c0,0 2.76,7.8 2.97,11.24 0,0 -3.05,1.39 -5.92,-0.95 0,0 -0.3,-7.79 -0.74,-9.19l3.69 -1.1z"/>
   <path class="fil48" d="M231.33 116.1c0,0 -7.21,10.1 -2.9,13.03 4.31,2.93 9.45,-4.24 9.45,-4.24 0,0 1.67,-5.53 -0.08,-7.4 -1.75,-1.88 -6.47,-1.39 -6.47,-1.39z"/>
   <path class="fil49" d="M234.67 113.69c0,0 -3.32,0.79 -3.78,2.29 -0.46,1.5 4.7,2.89 6.15,2.96l1.16 6.05c0,0 3.45,-5.69 2.08,-8.98 -1.36,-3.29 -5.61,-2.31 -5.61,-2.31z"/>
   <path class="fil50" d="M236.48 124.15c0,0 2.81,-3.25 3.92,-1.13 1.12,2.12 -2.53,3.71 -3.79,2.67l-0.13 -1.54z"/>
   <path class="fil51" d="M222.52 196.52c0.02,0.55 -0.94,4.89 -1.46,7.21 -0.21,0.93 -0.06,1.91 0.41,2.74l18.13 30.51c0.22,0.37 0.38,0.77 0.48,1.19 0.33,1.43 1.02,4.94 0.66,8.13l-0.94 1.95 4.06 -0.92 0.88 -10.89 -1.15 -0.7c-0.99,-0.6 -1.76,-1.51 -2.21,-2.58 -1.64,-3.98 -5.71,-14.12 -6.76,-19.06 -1.19,-5.61 -7.43,-10.17 -7.43,-10.17l1.09 -2.59 -5.77 -4.81z"/>
   <path class="fil52" d="M248.36 243.58c0,0 -2.19,-3.47 -2.45,-4.82 -0.26,-1.35 -0.97,-3.74 -2.33,-3.02 0,0 -0.63,6.57 -0.42,9.13 0.22,2.57 -2.9,2.48 -2.9,2.48 0,0 -0.86,0.12 -1.49,0.75 -0.43,0.43 -0.12,1.19 0.49,1.23 1.02,0.07 2.64,0.08 4.35,-0.25 0.59,-0.11 1.03,-0.62 1.07,-1.23l0.45 -7.56 2.76 3.49 0.46 -0.21z"/>
   <path class="fil53" d="M233.35 201.38c0,0 0.64,27.29 0.73,31.17 0.09,3.88 -0.61,12.47 -4.5,15.03l1.69 1.25c0,0 2.11,-1.8 4.18,-5.25 2.32,-3.88 3.02,-4.59 3.02,-4.59l-0.77 -1.58c-0.34,-0.69 -0.44,-1.47 -0.28,-2.22 0.84,-4.06 3.64,-17.58 4.4,-20.49 0.9,-3.44 0.97,-8.02 -2.17,-11.87 -3.14,-3.84 -6.3,-1.45 -6.3,-1.45z"/>
   <path class="fil54" d="M236.94 250.07c0.12,0 0.22,-0.09 0.24,-0.2 0.13,-0.91 0.67,-4.56 1.11,-5.5 0.5,-1.08 2.15,-5.63 0,-6.02 0,0 -5.35,7.82 -6.38,8.88 -1.03,1.05 -2.32,0.37 -2.32,0.37 0,0 -1,0.3 -1.76,1.26 -0.36,0.46 -0.03,1.13 0.56,1.14l3.61 0.03c1.05,0.01 1.99,-0.63 2.38,-1.6 0.63,-1.58 1.72,-3.91 3,-4.94l-0.66 6.32c-0.01,0.14 0.1,0.26 0.24,0.27z"/>
   <path class="fil55" d="M228.87 168.25c0,0 0.81,2.59 -0.43,6.86l-7.75 27.05c-0.12,0.43 0.11,0.87 0.53,1.02 2.32,0.83 9.93,3.18 20.33,2.47 0.53,-0.04 0.96,-0.41 1.08,-0.92 0.69,-3.08 3.02,-13.6 3.5,-15.77 1.83,-8.24 3.88,-17.12 -5.13,-22.49 -4.15,1.78 -8.02,2.83 -12.12,1.79z"/>
   <path class="fil56" d="M243.21 141.08c0,0 8.81,7.32 11,17.33 2.19,10.01 -12.88,11.07 -12.88,11.07 0,0 -2.04,-2.28 -4.47,-1.47 -2.43,0.81 -0.19,-3.98 2.65,-3.97 2.84,0.01 1.53,2.26 5.54,0.44 3.91,-1.77 6.33,-7.26 -3.65,-15.57 -0.58,-0.48 -1.04,-1.1 -1.32,-1.8 -1.94,-4.88 -0.4,-8.09 3.13,-6.03z"/>
   <polygon class="fil57" points="184.92,249.84 188.07,249.84 188.07,215.85 184.92,215.85 "/>
   <path class="fil57" d="M200.26 250.5l-27.53 0 0 -1.82c0,-0.13 0.1,-0.23 0.23,-0.23l27.08 0c0.13,0 0.23,0.1 0.23,0.23l0 1.82z"/>
   <path class="fil57" d="M205.47 214.6c0,1.98 -1.62,3.59 -3.59,3.59l-29.6 0c-1.98,0 -3.59,-1.62 -3.59,-3.59l0 -3.25c0,-1.98 1.62,-3.59 3.59,-3.59l29.6 0c1.98,0 3.59,1.62 3.59,3.59l0 3.25z"/>
   <path class="fil58" d="M158.63 239.52c0,0 -10.16,4.38 -9.58,8.96 0,0 10.5,-2.01 12.38,-5.02 1.88,-3 0.84,-4.74 0.84,-4.74l-3.65 0.8z"/>
   <path class="fil59" d="M161.12 234.52l0.52 4.46c0.08,0.67 -0.3,1.34 -0.93,1.57 -0.32,0.11 -0.74,0.19 -1.29,0.2 -0.78,0 -1.46,-0.51 -1.67,-1.25l-1 -3.61 4.37 -1.36z"/>
   <path class="fil60" d="M183.32 200.32c0,0 -18.69,-0.87 -27.99,4.56 -9.3,5.42 0.47,31.45 0.47,31.45 0,0 2.43,0.52 5.93,-1.35 0,0 -4.99,-19.06 3.68,-22.37 9.75,-3.73 19.83,-2.82 19.83,-2.82l-1.87 -8.89 -0.05 -0.59z"/>
   <path class="fil61" d="M151.09 246.47c2.13,-0.47 8.43,-3.08 9.38,-3.04 0.96,0.04 2.31,1.47 2.31,1.47 0,0 0.23,0.78 -0.45,1.91 -1.62,1.27 -5.12,3.59 -9.19,3.85 -2.99,0.19 -4.79,-1 -5.82,-2.16 0.9,-0.88 2.35,-1.72 3.76,-2.03z"/>
   <path class="fil62" d="M153.15 250.65c4.07,-0.25 7.57,-2.58 9.19,-3.85 -0.46,0.76 -1.34,1.68 -3,2.61 -4.11,2.32 -10.9,1.98 -12.25,1.46 -1.08,-0.42 -0.75,-1.43 0.24,-2.39 1.03,1.15 2.83,2.35 5.82,2.16z"/>
   <path class="fil63" d="M165.02 242.56c-0.14,0.53 -1.63,2.11 -2.49,2.99 -0.41,0.42 -1,0.6 -1.58,0.47 -0.36,-0.08 -0.77,-0.2 -1.13,-0.4 -0.53,-0.29 -0.72,-0.96 -0.43,-1.49l2.18 -3.96 3.44 2.39z"/>
   <path class="fil64" d="M201.84 198.75c0,0 1.63,11.57 -3.09,13.94 -4.72,2.37 -15.06,3.91 -18.63,9.92 -3.56,6 -9.96,17.79 -15.79,21.17 0,0 -3.33,-1.08 -4.3,-2.72 0,0 6.91,-18.17 9.8,-22.59 2.5,-3.83 6.15,-9.34 11.34,-11.72 1.49,-0.68 1.6,-2.26 1.34,-3.87l-0.48 -2.94 19.8 -1.19z"/>
   <path class="fil65" d="M158.12 185.63c6.61,1.89 9.57,-16.72 9.55,-17.18l10.14 11.86c0,0 -6.04,10.63 -15.16,11.76 -2.31,0.29 -4.27,-0.11 -5.92,-0.87 1.21,-1.99 1.49,-3.95 1.4,-5.57z"/>
   <path class="fil66" d="M145.88 179.54c2.88,-1.18 5.33,1.18 5.33,1.18 2.86,2.92 5.12,4.4 6.92,4.91 0.09,1.62 -0.18,3.59 -1.4,5.57 -3.56,-1.63 -5.64,-4.93 -6.5,-6.58 -0.31,-0.59 -1.03,-0.84 -1.63,-0.55 -0.61,0.29 -1.24,0.75 -1.28,1.36 -0.08,1.21 -1.51,1.28 -1.52,0.83 -0.01,-0.45 1.11,-2.83 1.11,-2.83 0,0 -3.31,2.12 -4.6,2.94 -1.29,0.81 -2.39,-0.53 -2.39,-0.53 0,0 3.07,-5.12 5.96,-6.3z"/>
   <path class="fil67" d="M199.29 160.8c0,0 -8.89,-6.06 -30.35,4.9 0,0 -2.21,2.8 -1.18,5.96 1.04,3.16 13.78,20.25 14.27,28.28 0,0 8.71,5.13 20.02,0.04 0,0 3.79,-21.19 -2.77,-39.19z"/>
   <path class="fil68" d="M180.79 153.04l3.51 6.88c0.35,0.68 0.28,1.51 -0.2,2.11 -0.97,1.21 -2.99,2.84 -6.43,1.79 -1.03,-0.31 -1.81,-1.15 -2.06,-2.19l-1.82 -7.68 7 -0.91z"/>
   <path class="fil69" d="M205.88 184.83c0.6,-4.18 -10.45,-12.29 -10.45,-12.29l3.87 -11.74c0,0 21.09,15.05 16.66,27.35 -0.64,1.76 -1.58,3.05 -2.74,3.96 -2.23,-4.58 -5.26,-6.49 -7.34,-7.27z"/>
   <path class="fil70" d="M190.45 185.99c0,0 12.5,3.49 15.1,-0.31 0.18,-0.26 0.28,-0.54 0.32,-0.85 2.07,0.79 5.1,2.69 7.34,7.27 -5.94,4.67 -17.38,-0.57 -20.49,-2.13 -0.51,-0.26 -1.1,-0.31 -1.65,-0.14 -1.11,0.35 -3.02,0.88 -4.09,0.82 -1.56,-0.09 -3.24,5.56 -5.9,4.13 0,0 1.21,-9.65 9.37,-8.79z"/>
   <path class="fil71" d="M176.29 141.8c-0.11,0.1 -4.74,8.19 -7.1,12.31 -0.72,1.26 -0.18,2.86 1.15,3.43l1.02 0.44c1.4,0.6 4.4,1.1 5.58,0.15l7.45 -7.86c0,0 -5.59,-10.64 -8.1,-8.47z"/>
   <path class="fil72" d="M186.48 148.12c0.91,-0.51 2.01,-1.55 1.16,-3.39 -0.87,-1.87 -2.59,-2.03 -3.69,-1.91 -0.45,0.05 -0.85,-0.24 -0.98,-0.67 -0.07,-0.25 -0.26,-0.46 -0.65,-0.52 -0.53,-0.08 -0.86,-0.62 -0.72,-1.14 0.26,-0.99 0.22,-2.34 -1.38,-3.31 -2.83,-1.72 -5.48,0.78 -6.22,2.94 -0.74,2.17 2.44,3.85 4.47,4.2 1.54,0.26 2.3,2.04 2.57,2.88 0.09,0.27 0.05,0.55 -0.11,0.79l-2.26 3.44c0.62,0.78 1.17,1.61 1.72,2.45 0.2,-0.22 0.38,-0.4 0.52,-0.53 0.98,-0.9 2.73,-0.44 3.45,-0.19 0.24,0.08 0.49,0.06 0.72,-0.05 0.78,-0.41 2.37,-1.54 1.07,-3.7 -0.27,-0.45 -0.12,-1.03 0.34,-1.29z"/>
   <path class="fil73" d="M179.56 155.35c0,0 1.45,-3.72 3.09,-3.51 1.65,0.21 2.88,1.91 0.75,3.67 -2.64,2.19 -3.85,-0.16 -3.85,-0.16z"/>
   <path class="fil74" d="M174.49 193.95c-0.02,0 -0.05,0 -0.07,0l-29.21 -0.03c-0.72,-0 -1.31,-0.59 -1.31,-1.31 0,-0.72 0.59,-1.32 1.31,-1.31l29.21 0.03c0.72,0 1.31,0.59 1.31,1.31 -0,0.7 -0.55,1.27 -1.24,1.3z"/>
   <path class="fil75" d="M118.94 167.42l24.33 0c1.79,0 3.43,1.04 4.19,2.66l11.25 23.85 -30.23 0c-1.16,0 -2.2,-0.71 -2.62,-1.78l-8.72 -22.07c-0.5,-1.28 0.44,-2.66 1.81,-2.66z"/>
   <path class="fil43" d="M136.08 179.65c0.53,1.64 0.14,3.23 -0.87,3.55 -1.01,0.32 -2.25,-0.74 -2.78,-2.38 -0.53,-1.64 -0.14,-3.23 0.87,-3.55 1.01,-0.32 2.25,0.74 2.78,2.38z"/>
   <path class="fil43" d="M122.89 256.61c-0.16,0 -0.33,-0.03 -0.48,-0.1 -0.62,-0.26 -0.91,-0.96 -0.64,-1.56l25.75 -57.95c0.27,-0.6 0.99,-0.88 1.61,-0.62 0.62,0.26 0.91,0.96 0.64,1.56l-25.75 57.95c-0.2,0.45 -0.65,0.72 -1.13,0.72z"/>
   <path class="fil43" d="M151.89 256.61c-0.48,0 -0.93,-0.27 -1.13,-0.72l-25.75 -57.95c-0.27,-0.6 0.02,-1.3 0.64,-1.56 0.62,-0.26 1.34,0.02 1.61,0.62l25.75 57.95c0.27,0.6 -0.02,1.3 -0.64,1.56 -0.16,0.07 -0.32,0.1 -0.48,0.1z"/>
   <path class="fil43" d="M202.59 256.61c-0.16,0 -0.33,-0.03 -0.49,-0.1 -0.62,-0.26 -0.91,-0.96 -0.64,-1.56l25.75 -57.95c0.27,-0.6 0.99,-0.88 1.61,-0.62 0.62,0.26 0.91,0.96 0.64,1.56l-25.75 57.95c-0.2,0.45 -0.65,0.72 -1.13,0.72z"/>
   <path class="fil43" d="M231.59 256.61c-0.48,0 -0.93,-0.27 -1.13,-0.72l-25.75 -57.95c-0.27,-0.6 0.02,-1.3 0.64,-1.56 0.62,-0.26 1.34,0.02 1.61,0.62l25.75 57.95c0.27,0.6 -0.02,1.3 -0.64,1.56 -0.16,0.07 -0.32,0.1 -0.48,0.1z"/>
   <path class="fil43" d="M234.61 195.21c0.07,-0.38 -0.03,-0.77 -0.24,-1.07 -0.22,-0.3 -0.55,-0.47 -0.89,-0.47l-117.13 0c-0.45,0 -0.88,0.26 -1.12,0.69 -0.25,0.43 -0.28,0.97 -0.09,1.43l1.27 3.08c0.29,0.7 0.92,1.16 1.61,1.16l114.65 0c0.65,0 1.2,-0.51 1.32,-1.22l0.62 -3.59z"/>
  </g>
 </g>
</svg>
