<?xml version="1.0" encoding="UTF-8"?>
<!DOCTYPE svg PUBLIC "-//W3C//DTD SVG 1.1//EN" "http://www.w3.org/Graphics/SVG/1.1/DTD/svg11.dtd">
<!-- Creator: CorelDRAW 2019 (64 Bit) -->
<svg xmlns="http://www.w3.org/2000/svg" xml:space="preserve" width="526.647mm" height="447.92mm" version="1.1" style="shape-rendering:geometricPrecision; text-rendering:geometricPrecision; image-rendering:optimizeQuality; fill-rule:evenodd; clip-rule:evenodd"
viewBox="0 0 16592.6 14112.23"
 xmlns:xlink="http://www.w3.org/1999/xlink">
 <defs>
  <style type="text/css">
   <![CDATA[
    .fil8 {fill:#192F47;fill-rule:nonzero}
    .fil13 {fill:#3A3866;fill-rule:nonzero}
    .fil10 {fill:#3E4095;fill-rule:nonzero}
    .fil1 {fill:#428961;fill-rule:nonzero}
    .fil7 {fill:#5FC78C;fill-rule:nonzero}
    .fil6 {fill:#70CC98;fill-rule:nonzero}
    .fil2 {fill:#8FE5E5;fill-rule:nonzero}
    .fil0 {fill:#ADFFD1;fill-rule:nonzero}
    .fil3 {fill:#B4EFEC;fill-rule:nonzero}
    .fil12 {fill:#EA8E50;fill-rule:nonzero}
    .fil9 {fill:#F69D5E;fill-rule:nonzero}
    .fil5 {fill:#F7F8F8;fill-rule:nonzero}
    .fil11 {fill:#FEFEFE;fill-rule:nonzero}
    .fil4 {fill:white;fill-rule:nonzero}
   ]]>
  </style>
 </defs>
 <g id="Camada_x0020_1">
  <metadata id="CorelCorpID_0Corel-Layer"/>
  <g id="_1797232667808">
   <path class="fil0" d="M11060.85 12998.49c1793.27,-117.68 4152.31,-839.9 3926.82,-2177.35 -225.62,-1337.46 -2347.8,-1825.53 -2480.31,-2769.64 -132.38,-944.17 3846.06,-1380.43 2668.48,-3593.25 -1177.71,-2212.84 -2311.64,-3269.02 -3972.59,-3177.97 -1660.86,91.05 -2192.81,1628.57 -4111.55,1674.55 -1918.82,45.98 -3887.89,-395.45 -5288.28,512.85 -1400.4,908.24 2041.05,3985.06 1293.52,5577.99 -747.53,1592.94 -2338.89,1827.15 -1893.31,2921.65 445.58,1094.58 7492.75,1186.39 9857.23,1031.18z"/>
   <path class="fil1" d="M14797.3 9596.34c-26.09,-4.08 -234.79,27.62 -584.66,40.23 -240.22,8.66 -592.92,-15.38 -628.96,-5.32 -35.9,9.98 -56.82,172.92 -56.82,172.92 0,0 446.85,93.27 699.99,87.23 340.44,-8.02 648.33,32.05 652.72,-9.33 4.39,-41.53 -47.66,-280.33 -82.27,-285.73z"/>
   <path class="fil2" d="M5970.93 8690.56l22.19 -2.98 -0.05 -0.44c-1.24,-9.4 -22.5,-174.74 -22.5,-416.08 -0.05,-296.01 32.1,-706.11 171.2,-1082.49 69.6,-188.22 165.79,-367.92 297.61,-521.09 131.89,-153.17 299.34,-280.05 512.63,-363.18l-8.16 -20.84 -19.61 10.86c156.53,281.85 219.49,540.7 219.49,775.7 0,253.44 -73.38,479.78 -183.92,677.4 -165.71,296.43 -415.58,527.73 -624.2,684.46 -104.21,78.41 -198.06,138.16 -265.83,178.24 -33.81,20.11 -61.12,35.2 -79.92,45.33 -9.39,5.03 -16.65,8.82 -21.54,11.37 -2.44,1.24 -4.28,2.18 -5.53,2.76l-1.35 0.74 -0.41 0.22 9.9 20.03 22.19 -2.98 -22.19 2.98 9.9 20.12c1.16,-0.66 301.51,-148.66 602.9,-427.17 150.63,-139.25 301.6,-311.22 415.22,-514.17 113.54,-202.93 189.6,-437.07 189.6,-699.33 0,-243.1 -65.44,-509.87 -225.1,-797.42l-9.54 -17.11 -18.22 7.06c-220.28,85.83 -394.15,217.51 -530.27,375.72 -204.17,237.34 -323.75,533.7 -392.66,826.34 -68.85,292.71 -86.96,582.01 -86.97,806.46 0,251.77 22.86,421.76 22.95,422.5l4.16 30.89 27.94 -13.77 -9.9 -20.12z"/>
   <path class="fil2" d="M6900.27 6364.78c0,0 -0.58,1.9 -1.68,5.68 -17.12,58.88 -164.24,561.54 -347.44,1078.83 -91.6,258.69 -192.24,520.95 -289.88,732.86 -48.83,105.96 -96.93,199.3 -142.46,272.97 -22.73,36.87 -44.89,68.78 -65.94,94.81 -21.08,26.01 -41.16,46.12 -59.23,59.38l26.55 36.07c23.19,-17.12 46.14,-40.73 69.69,-70.03 43.87,-54.87 89.49,-129.78 136.34,-219.41 81.97,-156.81 167.53,-358.59 250.02,-573.34 247.39,-644.09 466.95,-1405.16 467.02,-1405.44l-42.99 -12.39z"/>
   <path class="fil2" d="M7082.15 6831.29l-0.14 0.14c-2.92,4.22 -59.32,83.29 -136.92,160.31 -38.83,38.55 -82.92,76.52 -127.66,104.35 -22.37,13.92 -44.89,25.29 -66.76,33.09 -21.93,7.87 -43.14,12.03 -63.17,12.03 -4.08,0 -8.16,-0.16 -12.18,-0.52l-3.93 44.59c5.32,0.52 10.71,0.73 16.11,0.73 26.73,0 53.34,-5.61 79.43,-15.08 45.61,-16.55 89.77,-44.53 130.94,-77.03 61.64,-48.75 116.52,-107.71 156.3,-154.63 39.79,-46.93 64.35,-81.84 64.65,-82.28l-36.67 -25.72z"/>
   <path class="fil2" d="M7104.09 6974.77l-0.08 0.16c-2.84,3.92 -59.1,80.59 -142.75,155.35 -41.83,37.39 -90.43,74.26 -142.24,101.43 -51.74,27.27 -106.46,44.67 -160.61,44.67 -9.33,0 -18.65,-0.5 -27.97,-1.6l-5.03 44.52c11,1.24 22.08,1.82 33.01,1.82 64.86,0 127.24,-20.91 184.14,-51.16 85.4,-45.54 159.3,-112.58 212.35,-168.32 53.05,-55.68 85.11,-100.13 85.55,-100.71l-36.35 -26.17z"/>
   <path class="fil2" d="M6368.26 6744.73c0,0.3 -3.8,72.14 -3.8,174.38 0,113.53 4.6,264.37 24.41,396.91 9.92,66.32 23.54,128.04 42.93,178.98 9.68,25.43 20.84,48.24 34.1,67.62 13.26,19.31 28.72,35.35 47.29,46.35l22.67 -38.63c-11.23,-6.56 -22.45,-17.55 -33.01,-33.08 -18.58,-26.97 -34.61,-67.26 -47.22,-115.21 -19.02,-71.99 -30.75,-161.03 -37.61,-250.38 -6.78,-89.33 -8.75,-178.9 -8.75,-252.56 0,-50.57 0.88,-93.63 1.82,-124.02 0.51,-15.24 0.95,-27.25 1.32,-35.41 0.14,-4.16 0.28,-7.3 0.36,-9.42 0.15,-2.1 0.22,-3.13 0.22,-3.13l-44.74 -2.4z"/>
   <path class="fil2" d="M7037.49 7542.94l-0.15 0.14c-4.66,3.93 -90.57,74.69 -205.13,144.07 -57.28,34.68 -121.76,69 -186.48,94.43 -64.7,25.51 -129.71,41.9 -187.27,41.83 -11.59,0 -22.81,-0.66 -33.75,-1.96l-5.46 44.44c12.9,1.53 25.95,2.33 39.21,2.33 67.04,-0.08 137.79,-18.87 206.87,-46.27 103.55,-41.17 203.31,-102.16 277.57,-152.95 74.25,-50.8 122.94,-91.39 123.3,-91.67l-28.71 -34.39z"/>
   <path class="fil2" d="M6038.68 7509.72c0.12,0.58 19.58,127.22 62.51,266.33 21.41,69.6 48.74,142.32 82.99,204.41 17.13,31.11 36,59.54 57.14,83.65 21.13,24.05 44.52,43.95 70.9,57.05l19.89 -40.07c-19.6,-9.69 -38.83,-25.57 -57.12,-46.49 -32.07,-36.58 -60.93,-88.39 -85.26,-145.37 -36.65,-85.47 -63.54,-182.47 -81.03,-257.74 -8.74,-37.59 -15.22,-69.88 -19.46,-92.69 -2.1,-11.36 -3.72,-20.41 -4.74,-26.59 -0.5,-3.06 -0.94,-5.4 -1.16,-7 -0.14,-0.8 -0.22,-1.38 -0.29,-1.75l-0.08 -0.6 -44.28 6.86z"/>
   <path class="fil3" d="M4013.5 6819.27c0,0 338.2,-233.11 507.89,-135.62 169.81,97.65 28.25,419.15 224.42,418.49 196.23,-0.64 570.62,-55.38 669.04,42.41 98.44,97.79 -122.74,624.64 109.55,748.74 232.33,124.1 936.76,77.16 1071.63,424.62 135.04,347.29 83.59,954.07 -334.76,1231.86 -418.25,277.92 -1069.34,289 -1320.08,-31.19 -250.78,-320.34 184.95,-705.23 -30.09,-989.94 -214.98,-284.7 -570.45,91.09 -830.15,-202.43 -259.53,-293.38 176.95,-446.48 24.47,-686.8 -152.38,-240.32 -312.61,-132.69 -349.02,-364.5 -36.43,-231.8 257.1,-455.65 257.1,-455.65z"/>
   <path class="fil4" d="M4169.59 7122.99c0.2,0.3 432.62,603.65 995,1249.21 281.21,322.81 594.89,656.19 903.65,930.26 154.35,136.99 307.52,259.19 454.93,357.78 147.43,98.67 289.07,173.8 421.04,216.43l11.66 -35.99c-127.16,-41.03 -266.19,-114.48 -411.72,-211.83 -254.6,-170.37 -528.88,-413.69 -796.55,-682.72 -401.59,-403.55 -788.56,-865.04 -1074.99,-1225.46 -143.22,-180.2 -261.32,-335.19 -343.6,-445.09 -41.15,-54.94 -73.32,-98.67 -95.21,-128.54 -10.95,-15.01 -19.32,-26.53 -24.95,-34.33 -5.63,-7.73 -8.5,-11.73 -8.51,-11.73l-30.75 22.01z"/>
   <polygon class="fil5" points="4242.18,8077.01 4874.8,8023.81 5112.32,7402.08 5076.97,7388.6 4847.92,7988.11 4239,8039.25 "/>
   <polygon class="fil5" points="5271.39,9271.77 5954.89,9175.96 6129.54,8409.29 6092.65,8400.91 5923.79,9142.07 5266.13,9234.32 "/>
   <path class="fil6" d="M16592.6 13673.41c0,242.52 -3714.33,438.82 -8296.44,438.82 -4581.88,0 -8296.16,-196.31 -8296.16,-438.82 0,-242.22 3714.28,-438.75 8296.16,-438.75 4582.11,0 8296.44,196.53 8296.44,438.75z"/>
   <path class="fil1" d="M1788.46 6234.78c-88.66,6.42 -222,-89.57 -121.24,-231.3 77.91,-109.67 177.73,-22.59 472.66,-82.19 80.89,-16.32 312.74,-47.87 312.74,-47.87l127.15 -508.92 127.33 47.22c0,0 -5.71,603.14 -175.86,655.03 -77.63,23.67 -363.75,159 -742.78,168.04z"/>
   <path class="fil7" d="M4197.19 557.81c34.93,376.99 -85.02,528.74 -132.39,826.04l1597.69 -436.4 432.57 1584.4c274.35,-195.66 439.26,-463.51 696.12,-533.51 9.25,-2.85 18.65,-5.17 28.05,-6.72 394.53,-92.21 794.2,143.61 901.98,537.91 109.97,403.46 -127.8,819.71 -531.14,929.62 -399.26,37.2 -545.8,-99.58 -879.98,-139.87l441.96 1618.54 -1604.74 438.19c45.32,-308.47 170.53,-458.8 134.83,-842.63 -109.89,-403.5 -526.13,-641.46 -929.59,-531.12 -394.32,107.54 -629.95,507.55 -538.02,902.05 1.67,9.13 3.86,18.38 6.87,27.91 67.52,247.2 318.21,409.4 511.48,666.2l-1571.2 429.05 -1089.6 -3990.37 1565.37 -427.48c-191.45,-249 -434.87,-409.53 -501.18,-652.85 -3.06,-9.3 -5.23,-18.59 -6.97,-27.9 -91.84,-394.55 143.97,-794.27 537.89,-901.98 403.56,-110.04 819.85,127.73 930,530.93z"/>
   <path class="fil1" d="M3861.56 10793.97c373.06,64.19 488.44,219.47 763.14,342.63l-5.88 -1656.26 1642.3 -5.68c-117.6,-315.82 -333.26,-544.7 -334.17,-810.98 -0.3,-9.69 -0.13,-19.31 0.84,-28.93 13.61,-404.78 345.21,-729.42 753.87,-730.88 418.2,-1.52 758.29,336.37 759.75,754.5 -67.98,395.17 -238.28,501.12 -363.92,813.37l1677.62 -5.9 5.9 1663.48c-286.17,-124.1 -398.75,-284.05 -778.63,-349.41 -418.2,1.38 -756.17,341.39 -754.57,759.67 1.39,408.65 326.32,740.28 731.11,753.97 9.17,0.74 18.79,1.18 28.92,0.59 256.08,-0.88 477.97,-200.84 776.07,-320.7l5.84 1628.79 -4136.52 14.57 -5.75 -1622.67c-290.2,120.16 -508.52,313.34 -760.69,314.22 -9.79,0.52 -19.3,0.08 -28.69,-0.5 -404.87,-13.92 -729.51,-345.63 -731.06,-754 -1.34,-418.26 336.42,-758.43 754.5,-759.87z"/>
   <path class="fil8" d="M1936.62 13729.59l1559.84 -4695.43 0.29 -0.96 -41.19 -12.24 41.13 12.46 0.05 -0.22 -41.19 -12.24 41.13 12.46 -3.69 -1.16 3.68 1.16 0.01 0 -3.69 -1.16 3.68 1.16c0.1,-0.36 2.29,-7.35 6.35,-17.05 3.03,-7.36 7.14,-16.17 12.03,-24.91 3.64,-6.5 7.72,-12.9 11.91,-18.44 6.25,-8.38 12.8,-14.58 17.37,-17.49 2.3,-1.54 4.04,-2.26 5.32,-2.7 1.28,-0.36 2.09,-0.5 3.33,-0.5 1.87,0 3,0.21 4.82,0.87 1.58,0.66 3.63,1.68 6.16,3.58 4.43,3.2 10.16,9.03 15.56,16.47 8.2,11.14 15.48,25.57 20.07,36.65 2.32,5.54 4.04,10.28 5.1,13.41 0.53,1.54 0.89,2.7 1.1,3.36l0.18 0.58 1.9 -0.58 -1.9 0.58 0 0 1.9 -0.58 -1.9 0.58 40.55 -11.88 -40.62 11.58 0.06 0.3 40.55 -11.88 -40.62 11.58 0.32 1.18 1535.4 4701.2c10.91,33.45 46.84,51.67 80.27,40.73 33.42,-10.86 51.66,-46.86 40.74,-80.23l-1535.03 -4700.11 -60.51 19.75 61.19 -17.49c-0.44,-1.53 -3.18,-11 -8.65,-24.77 -4.11,-10.42 -9.74,-23.25 -17.31,-37.23 -5.68,-10.44 -12.44,-21.58 -20.67,-32.73 -12.36,-16.69 -27.97,-33.81 -49.23,-47.87 -10.6,-7 -22.68,-13.12 -36.11,-17.49 -13.39,-4.38 -28.16,-6.92 -43.34,-6.84 -18.41,-0.08 -36.07,3.71 -51.52,9.91 -13.56,5.46 -25.49,12.6 -35.91,20.47 -18.22,13.78 -32.07,29.67 -43.34,45.18 -16.83,23.4 -28.03,46.49 -35.65,64.28 -7.54,17.78 -11.31,30.31 -11.83,31.99l61 18.22 -60.4 -20.12 -1559.53 4694.57c-11.08,33.31 6.98,69.38 40.33,80.46 33.36,11.07 69.4,-7 80.49,-40.38z"/>
   <path class="fil8" d="M599.09 13681.57l1559.85 -4695.43 0.28 -0.95 -40.95 -12.17 40.89 12.39 0.07 -0.22 -40.95 -12.17 40.89 12.39 -3.76 -1.16 3.76 1.16 0 0 -3.76 -1.16 3.76 1.16c0.1,-0.36 2.27,-7.28 6.34,-17.05 3.03,-7.36 7.16,-16.18 12.02,-24.85 3.64,-6.56 7.73,-12.9 11.91,-18.51 6.25,-8.38 12.8,-14.58 17.38,-17.49 2.3,-1.46 4.04,-2.26 5.31,-2.7 1.29,-0.36 2.1,-0.52 3.33,-0.52 1.87,0 3.01,0.22 4.83,0.88 1.56,0.66 3.61,1.68 6.16,3.56 4.43,3.22 10.16,9.04 15.56,16.48 8.19,11.15 15.47,25.57 20.07,36.65 2.33,5.54 4.03,10.27 5.1,13.41 0.52,1.52 0.89,2.69 1.1,3.35l0.18 0.59 1.9 -0.59 -1.9 0.59 0 0 1.9 -0.59 -1.9 0.59 40.34 -11.8 -40.41 11.51 0.07 0.29 40.34 -11.8 -40.41 11.51 0.31 1.16 1535.43 4701.21c10.91,33.45 46.86,51.66 80.27,40.73 33.42,-10.86 51.66,-46.86 40.75,-80.23l-1535.05 -4700.11 -60.51 19.74 61.2 -17.49c-0.45,-1.54 -3.19,-11.01 -8.65,-24.78 -4.12,-10.43 -9.75,-23.25 -17.3,-37.16 -5.68,-10.5 -12.45,-21.64 -20.69,-32.79 -12.35,-16.69 -27.97,-33.81 -49.22,-47.87 -10.61,-7 -22.68,-13.12 -36.11,-17.49 -13.41,-4.38 -28.15,-6.86 -43.36,-6.86 -18.39,-0.07 -36.06,3.72 -51.5,9.98 -13.56,5.4 -25.49,12.54 -35.92,20.41 -18.22,13.77 -32.07,29.65 -43.34,45.18 -16.83,23.39 -28.04,46.49 -35.64,64.28 -7.54,17.77 -11.33,30.31 -11.83,31.99l61.01 18.21 -60.42 -20.11 -1559.54 4694.57c-11.1,33.3 6.97,69.37 40.34,80.45 33.36,11.08 69.39,-7 80.47,-40.37z"/>
   <polygon class="fil8" points="2058.03,9151.62 3372.08,9151.62 3372.08,9024.31 2058.03,9024.31 "/>
   <polygon class="fil8" points="1876.2,9869.03 3190.26,9869.03 3190.26,9741.72 1876.2,9741.72 "/>
   <polygon class="fil8" points="1653.41,10537.46 2967.47,10537.46 2967.47,10410.08 1653.41,10410.08 "/>
   <polygon class="fil8" points="1401,11216.39 2715.05,11216.39 2715.05,11089.08 1401,11089.08 "/>
   <polygon class="fil8" points="1146.38,11895.39 2460.44,11895.39 2460.44,11768.08 1146.38,11768.08 "/>
   <polygon class="fil8" points="943.35,12584.95 2257.4,12584.95 2257.4,12457.65 943.35,12457.65 "/>
   <polygon class="fil8" points="699.33,13263.95 2013.4,13263.95 2013.4,13136.65 699.33,13136.65 "/>
   <polygon class="fil8" points="2460.44,9374.45 3774.49,9374.45 3774.49,9247.07 2460.44,9247.07 "/>
   <polygon class="fil8" points="2642.26,10091.86 3956.32,10091.86 3956.32,9964.56 2642.26,9964.56 "/>
   <polygon class="fil8" points="2865.06,10760.22 4179.13,10760.22 4179.13,10632.92 2865.06,10632.92 "/>
   <polygon class="fil8" points="3117.47,11439.22 4431.51,11439.22 4431.51,11311.85 3117.47,11311.85 "/>
   <polygon class="fil8" points="3372.08,12118.22 4686.12,12118.22 4686.12,11990.85 3372.08,11990.85 "/>
   <polygon class="fil8" points="3575.12,12807.79 4889.15,12807.79 4889.15,12680.48 3575.12,12680.48 "/>
   <polygon class="fil8" points="3819.12,13486.79 5133.19,13486.79 5133.19,13359.49 3819.12,13359.49 "/>
   <path class="fil9" d="M3126.37 5861.46c0,0 -34.65,-72.73 44.28,-209.27 78.95,-136.64 68.55,-141.74 68.55,-141.74 0,0 83.62,-21.13 114.45,59.4 30.81,80.59 -102.3,197.18 -102.3,197.18l-35.95 188.08 -79.85 -6.06 -9.18 -87.59z"/>
   <path class="fil8" d="M1730.02 9965.86l-8.19 444.95 469.6 0c0,0 -50.26,-91.09 -146.38,-145.67 -96.05,-54.66 -78.28,-338.69 -78.28,-338.69l-236.76 39.41z"/>
   <path class="fil8" d="M2369.33 9968.12l-10.19 441.52 471.6 3.42c0,0 -50.28,-91.01 -146.36,-145.67 -96.09,-54.58 -78.29,-338.69 -78.29,-338.69l-236.76 39.42z"/>
   <path class="fil10" d="M1632.74 7058.87c0,0 -300,198.2 -262.52,692.19 37.44,494.06 262.52,1137.57 262.52,1137.57l93.22 1143.69c0,0 169.9,25.29 233.71,14.79 69.79,-11.43 86.62,-615.23 78.59,-1105.94 -6.21,-380.01 -31.6,-721.56 -31.6,-721.56l362.73 632.37c0,0 -58.94,965.53 -2.52,1223.12 8.25,37.67 255.25,31.91 255.25,31.91 0,0 204.71,-1127.73 97.25,-1543.74 -159.01,-615.75 -464.02,-962.32 -449.05,-1209.06 14.95,-246.8 -7.5,-374.26 -7.5,-374.26l-618.56 61.72 -11.51 17.2z"/>
   <path class="fil1" d="M1559.21 6014.57c0,0 538.94,-82.35 763.47,0 224.56,82.34 591.35,256.72 651.18,246.96 142.7,-23.25 119.79,-426.66 119.79,-426.66l149.69 44.96c0,0 80.65,533.11 -106.48,622.9 -187.16,89.85 -739.31,-16.62 -739.31,-16.62 0,0 -110.38,595.06 -110.38,662.39 0,67.4 -727.95,-41.09 -727.95,-41.09 0,0 -57.87,-518.83 -67.35,-598.85 -23.63,-199.23 67.35,-493.98 67.35,-493.98z"/>
   <path class="fil9" d="M2281.9 5872.32c-9,75.06 -243.64,24.34 -243.64,24.34l-44.93 -315.54 161.86 -156.01c0,0 145.77,288.13 126.71,447.2z"/>
   <path class="fil10" d="M2254.22 5490.42c45.08,-15.75 -3.02,-258.26 -160.48,-214.53 -139.68,38.76 -22.72,77.46 -223.92,121.18 -172.11,37.39 -196.46,67.33 -196.46,241.34 0,174.09 -159.32,101.07 -273.19,185.32 -103.48,76.51 -187.14,217 -97.31,291.92 112.01,93.35 202.26,-74.76 292.02,-37.39 89.72,37.39 49.99,173.95 168.82,190.56 119.01,16.61 179.18,-50.28 218.47,-156.97 39.3,-106.68 411.65,39.35 220.77,-190.84 -98.98,-119.36 -121.7,-321.87 -47.75,-372.36 23.58,-16.11 43.69,-28.27 60.07,-37.23 34.93,-19.31 25.16,-16.11 38.96,-20.99z"/>
   <path class="fil7" d="M8626.34 10753.59c396.49,68.34 503.1,239.3 816.88,365.52l-6.12 -1652.69 1670.61 -6.04c-124.53,287.32 -285.35,400.35 -351.16,781.96 1.52,419.81 343.07,759.17 763.09,757.79 410.17,-1.54 743.24,-327.85 757.06,-734.24 0.51,-9.48 1.03,-18.94 0.65,-28.86 -0.9,-257.59 -201.86,-480.2 -322.23,-779.56l1635.67 -5.68 14.59 4153.29 -726.46 2.56 -3427.1 0 -5.76 -1605.04c-317.28,118.04 -546.97,302.7 -814.33,303.72 -9.84,0.14 -19.6,0 -28.87,-0.88 -406.53,-13.55 -732.84,-346.79 -734.22,-757.11 -1.46,-420.02 337.97,-793.34 757.69,-794.72z"/>
   <path class="fil11" d="M8240.35 5418.78c-82.79,-32.35 -161.77,-176.42 -9.84,-260.95 117.55,-65.36 170.15,56.12 462,129.36 80.01,20.11 302.84,91.44 302.84,91.44l333.97 -404.6 94.51 97.45c0,0 -264.81,541.94 -440.72,515.49 -80.23,-12.02 -396.77,-13.12 -742.76,-168.19z"/>
   <path class="fil1" d="M14072.64 6289c-378.41,-0.36 -518.15,-134.44 -809.76,-209.43l284.26 1631.7 -1617.72 282.15c168.93,291.34 419.99,480.73 465.84,743.06 2.07,9.77 3.36,19.09 4.13,28.49 54.5,401.51 -217.74,777.31 -620.17,847.63 -412.09,71.85 -804.14,-204.04 -875.9,-616.19 0.43,-400.79 150.47,-533.84 221.82,-863l-1652.76 288.21 -285.81 -1638.7c303.15,74.17 441.02,212.84 826.35,213.57 412.07,-71.85 687.82,-464.18 616.34,-876.11 -70.18,-402.25 -446.19,-674.85 -847.77,-620.06 -9.33,0.66 -18.59,2.04 -28.71,4.16 -252.35,44.01 -437.29,278.57 -710.99,446.69l-279.59 -1604.46 4074.9 -710.24 278.44 1598.47c266.31,-167.56 448.8,-394.54 697.15,-437.8 9.69,-1.97 18.86,-3.4 28.54,-4.2 401.39,-54.64 777.35,217.47 847.48,620.09 71.81,412.08 -203.93,804.33 -616.04,875.97z"/>
   <polygon class="fil12" points="8293.03,4897.71 8293.03,5220.15 8068.51,5220.15 8070.05,4697.75 "/>
   <path class="fil9" d="M8234.59 4405.47c0,0 301.11,-36.32 292.8,257.58 -8.31,293.9 -234.92,349.81 -297.16,316.69 -62.38,-33.1 -207.03,-222.82 -144.43,-398 62.59,-175.14 148.79,-176.26 148.79,-176.26z"/>
   <path class="fil10" d="M8480.02 4571.9c137.43,-1.72 190.7,-154.23 44.82,-211.54 -145.75,-57.32 -281.79,-82.82 -355.76,-68.5 -74.04,14.34 -234.21,161.68 -198.34,283.48 35.77,121.75 -77.25,111.57 -163.23,197.55 -85.99,85.96 -38.03,137.8 -127.96,216.62 -89.99,78.83 -343.57,-22.17 -489.68,287.9 -65.38,138.6 -1.32,419.81 212.48,358.67 167.61,-47.87 231.07,171.54 417.91,85.55 186.84,-85.99 28.65,-458.57 121.77,-580.35 93.2,-121.76 236.46,29.59 293.73,-106.97 57.27,-136.6 -48.03,-450.19 57.27,-480.48 80.46,-23.13 149.32,18.54 187,18.07z"/>
   <path class="fil8" d="M7545.46 8941.9l-134.15 382.57 439.69 147.63c0,0 72.58,-146.69 -115.34,-220.79 -94.45,-37.17 27.69,-276.69 27.69,-276.69l-217.89 -32.72z"/>
   <path class="fil8" d="M8281.66 9064.03l-4.52 405.37 474.17 -1.52c0,0 42.55,-122.36 -177.22,-132.62 -101.29,-4.66 -75.49,-310.06 -75.49,-310.06l-216.94 38.83z"/>
   <path class="fil13" d="M8483.15 6412.8l161.05 1565.61 -129.86 1190.55c0,0 -114.12,20.26 -241.92,-18.73 -54.95,-621.86 20.69,-1132.33 20.69,-1132.33l-211.69 -951.67 -76.43 -699.99 478.16 46.56z"/>
   <path class="fil10" d="M7497.88 9031.6l248.84 85.92c0,0 354.08,-828.02 398.31,-1127.81 42.99,-291.33 106.83,-1182.9 106.83,-1182.9l41.16 -372.51 -522.91 30.67c0,0 -156.81,279.17 -153.61,451.07 3.14,171.98 175.11,1107.12 175.11,1107.12 0,0 -265.11,664.5 -293.74,1008.44z"/>
   <path class="fil11" d="M8328.89 5150.47c0,0 198.13,168.19 210.45,396.64 5.46,100.62 -49.49,197.11 -58.08,405.15 -9.78,236.74 23.67,512.71 23.67,512.71 0,0 -522.76,196.82 -734.82,0 0.37,-732.56 -260.65,-1244.83 1.24,-1352.02 214.24,-87.68 557.54,37.52 557.54,37.52z"/>
   <path class="fil9" d="M8979.11 5719.59c0,0 48.53,-64.28 206.15,-57.13 157.62,7.22 157.33,-4.44 157.33,-4.44 0,0 57.34,64.5 0,128.98 -57.36,64.48 -222.11,0 -222.11,0l-183.49 54.72 -31.47 -73.66 73.6 -48.46z"/>
   <path class="fil11" d="M7687.78 5363.92c-55.9,-85.99 -33.17,-274.14 166.13,-251.34 154.12,17.79 186.4,135.98 352.25,381.26 53.26,78.84 216.49,307.94 216.49,307.94l585.01 -123.07 23.09 154.92c0,0 -612.4,330.11 -759.59,187.14 -67.12,-65.3 -363.26,-278.95 -583.39,-656.85z"/>
   <path class="fil8" d="M16128.44 12940.79l218.65 87.15c0,0 -177.84,508.99 -275.09,489.83 -78.78,-15.37 39.39,-201.77 24.67,-280.03 -12.01,-63.69 -36.81,-147.63 -36.81,-147.63l68.58 -149.31z"/>
   <path class="fil13" d="M15485.02 11017.3c0,0 -259.2,849.08 -207.67,909.34 69.23,80.89 889.97,972.09 885.84,1024.55 -4.39,52.4 -91.44,181.24 -91.44,181.24 0,0 -1131.61,-880.86 -1193.47,-1050.78 -61.86,-169.93 -76.85,-950.81 -76.85,-950.81l683.59 -113.53z"/>
   <path class="fil8" d="M14793.94 13322.97l28.67 234.43c0,0 -529.77,88.25 -559.73,-6.48 -24.41,-76.81 195.14,-62.46 256.49,-113.09 49.85,-41.25 111.2,-103.62 111.2,-103.62l163.37 -11.24z"/>
   <path class="fil10" d="M15495.61 10801.97c0,0 149.17,327.48 -100.99,538.65 -250.04,211.19 -816.61,669.32 -816.61,669.32 0,0 275.86,1273.76 226.01,1332.06 -49.85,58.22 -187.78,6.48 -187.78,6.48 0,0 -556.89,-1212.92 -436.01,-1485.96 121.01,-272.89 740.41,-993.14 740.41,-993.14l267.6 -286.22 307.37 218.82z"/>
   <path class="fil9" d="M13712.19 10125.97c0,0 -13.95,-90.37 -42.62,-212.64 -37.97,-161.18 -53.08,-172.62 -74.26,-148.21 -28.67,32.93 18.73,169.86 -16.53,250.67 -43.01,98.59 45.72,212.13 85.24,210.6 239.18,-9.62 48.17,-100.41 48.17,-100.41z"/>
   <polygon class="fil12" points="14762.17,9669.8 14661.44,9400.91 14913.02,9185.94 15076.52,9575.51 "/>
   <path class="fil1" d="M15070.32 9495.27c-110.81,-7.94 -55.27,15.96 -291.88,86.94 -97.9,29.29 -196.18,121.98 -214.78,241.34 -14.85,95.32 117.91,497.7 168.8,649.49 55.92,167.82 128.12,485.9 128.12,485.9 0,0 569.29,-24.63 646.78,-195.8 0,0 -126.7,-475.77 -185.72,-779.41 -57.99,-299.28 -148.26,-481.1 -251.32,-488.46z"/>
   <path class="fil1" d="M14585.24 10164.94c208.58,-56.26 674.55,-174.08 601.84,-477.95 -66.38,-277.05 -377.37,-1.96 -441.43,54.87 -96.47,85.55 -238.15,143.41 -374.27,179.34 -133.41,35.12 -663.05,168.54 -663.05,168.54l-4 135.98c0,0 499.03,42.19 880.92,-60.78z"/>
   <path class="fil9" d="M14507.49 9096.9c5.68,18.5 8.91,314.72 111.07,369.74 102.03,55.02 330.88,-89.19 339.53,-227.86 8.78,-138.6 -62.25,-409.39 -152.01,-372.44 -89.63,36.94 -196.95,-1.9 -249.64,74.54 -52.56,76.51 -48.95,156.02 -48.95,156.02z"/>
   <path class="fil10" d="M14457.38 9056.52c0,0 -128.63,-53.92 -80.72,-179.18 48.04,-125.2 125.79,-111.93 195.92,-103.55 126.57,15.01 115.98,62.38 235.7,41.46 119.59,-20.83 144.39,52.39 154.85,155.07 10.72,102.53 35.39,385.7 -42.49,294.83 -77.75,-90.95 -136.64,-271.01 -217.1,-236.97 -80.46,34.03 -195.4,50.57 -246.15,28.35z"/>
  </g>
 </g>
</svg>
