<?xml version="1.0" encoding="UTF-8"?>
<!DOCTYPE svg PUBLIC "-//W3C//DTD SVG 1.1//EN" "http://www.w3.org/Graphics/SVG/1.1/DTD/svg11.dtd">
<!-- Creator: CorelDRAW 2019 (64 Bit) -->
<svg xmlns="http://www.w3.org/2000/svg" xml:space="preserve" width="112.705mm" height="112.396mm" version="1.1" style="shape-rendering:geometricPrecision; text-rendering:geometricPrecision; image-rendering:optimizeQuality; fill-rule:evenodd; clip-rule:evenodd"
viewBox="0 0 492.04 490.69"
 xmlns:xlink="http://www.w3.org/1999/xlink">
 <defs>
  <style type="text/css">
   <![CDATA[
    .fil18 {fill:#91B3FA;fill-rule:nonzero}
    .fil19 {fill:#BDD0FB;fill-rule:nonzero}
    .fil4 {fill:#DCE6FB;fill-rule:nonzero}
    .fil6 {fill:#DEE8FD;fill-rule:nonzero}
    .fil39 {fill:white;fill-rule:nonzero}
    .fil57 {fill:url(#id0)}
    .fil46 {fill:url(#id1)}
    .fil33 {fill:url(#id2)}
    .fil64 {fill:url(#id3)}
    .fil27 {fill:url(#id4)}
    .fil41 {fill:url(#id5)}
    .fil62 {fill:url(#id6)}
    .fil17 {fill:url(#id7)}
    .fil20 {fill:url(#id8)}
    .fil22 {fill:url(#id9)}
    .fil67 {fill:url(#id10)}
    .fil28 {fill:url(#id11)}
    .fil31 {fill:url(#id12)}
    .fil49 {fill:url(#id13)}
    .fil66 {fill:url(#id14)}
    .fil70 {fill:url(#id15)}
    .fil59 {fill:url(#id16)}
    .fil63 {fill:url(#id17)}
    .fil51 {fill:url(#id18)}
    .fil35 {fill:url(#id19)}
    .fil21 {fill:url(#id20)}
    .fil50 {fill:url(#id21)}
    .fil55 {fill:url(#id22)}
    .fil52 {fill:url(#id23)}
    .fil65 {fill:url(#id24)}
    .fil34 {fill:url(#id25)}
    .fil44 {fill:url(#id26)}
    .fil40 {fill:url(#id27)}
    .fil26 {fill:url(#id28)}
    .fil54 {fill:url(#id29)}
    .fil25 {fill:url(#id30)}
    .fil61 {fill:url(#id31)}
    .fil24 {fill:url(#id32)}
    .fil38 {fill:url(#id33)}
    .fil29 {fill:url(#id34)}
    .fil5 {fill:url(#id35)}
    .fil30 {fill:url(#id36)}
    .fil36 {fill:url(#id37)}
    .fil58 {fill:url(#id38)}
    .fil68 {fill:url(#id39)}
    .fil43 {fill:url(#id40)}
    .fil42 {fill:url(#id41)}
    .fil53 {fill:url(#id42)}
    .fil47 {fill:url(#id43)}
    .fil48 {fill:url(#id44)}
    .fil13 {fill:url(#id45)}
    .fil60 {fill:url(#id46)}
    .fil11 {fill:url(#id47)}
    .fil15 {fill:url(#id48)}
    .fil7 {fill:url(#id49)}
    .fil0 {fill:url(#id50)}
    .fil32 {fill:url(#id51)}
    .fil56 {fill:url(#id52)}
    .fil2 {fill:url(#id53)}
    .fil9 {fill:url(#id54)}
    .fil1 {fill:url(#id55)}
    .fil10 {fill:url(#id56)}
    .fil3 {fill:url(#id57)}
    .fil71 {fill:url(#id58)}
    .fil69 {fill:url(#id59)}
    .fil23 {fill:url(#id60)}
    .fil45 {fill:url(#id61)}
    .fil12 {fill:url(#id62)}
    .fil16 {fill:url(#id63)}
    .fil37 {fill:url(#id64)}
    .fil14 {fill:url(#id65)}
    .fil8 {fill:url(#id66)}
   ]]>
  </style>
  <linearGradient id="id0" gradientUnits="userSpaceOnUse" x1="136.28" y1="479.31" x2="172.39" y2="479.31">
   <stop offset="0" style="stop-opacity:1; stop-color:#09005D"/>
   <stop offset="1" style="stop-opacity:1; stop-color:#1A0F91"/>
  </linearGradient>
  <linearGradient id="id1" gradientUnits="userSpaceOnUse" x1="360.31" y1="369.75" x2="359.92" y2="324.11">
   <stop offset="0" style="stop-opacity:1; stop-color:#FF928E"/>
   <stop offset="1" style="stop-opacity:1; stop-color:#FE7062"/>
  </linearGradient>
  <linearGradient id="id2" gradientUnits="userSpaceOnUse" x1="353.53" y1="470.84" x2="342.76" y2="470.84">
   <stop offset="0" style="stop-opacity:1; stop-color:#FEBBBA"/>
   <stop offset="1" style="stop-opacity:1; stop-color:#FF928E"/>
  </linearGradient>
  <linearGradient id="id3" gradientUnits="userSpaceOnUse" xlink:href="#id2" x1="138.84" y1="185.6" x2="124.44" y2="161.61">
  </linearGradient>
  <linearGradient id="id4" gradientUnits="userSpaceOnUse" xlink:href="#id2" x1="322.59" y1="202.21" x2="314.1" y2="177.68">
  </linearGradient>
  <linearGradient id="id5" gradientUnits="userSpaceOnUse" x1="337.26" y1="296.92" x2="344.47" y2="333.01">
   <stop offset="0" style="stop-opacity:1; stop-color:#E1473D"/>
   <stop offset="1" style="stop-opacity:1; stop-color:#E9605A"/>
  </linearGradient>
  <linearGradient id="id6" gradientUnits="userSpaceOnUse" xlink:href="#id2" x1="149.46" y1="180.22" x2="131.58" y2="152.56">
  </linearGradient>
  <linearGradient id="id7" gradientUnits="userSpaceOnUse" x1="583.52" y1="1034.91" x2="201.76" y2="-360.58">
   <stop offset="0" style="stop-opacity:1; stop-color:#C4D5FD"/>
   <stop offset="1" style="stop-opacity:1; stop-color:#CEDDFC"/>
  </linearGradient>
  <linearGradient id="id8" gradientUnits="userSpaceOnUse" xlink:href="#id7" x1="518.78" y1="497.32" x2="181.75" y2="175.55">
  </linearGradient>
  <linearGradient id="id9" gradientUnits="userSpaceOnUse" xlink:href="#id7" x1="597.23" y1="1034.98" x2="185.97" y2="-360.62">
  </linearGradient>
  <linearGradient id="id10" gradientUnits="userSpaceOnUse" xlink:href="#id2" x1="225.99" y1="194.59" x2="202.05" y2="215.68">
  </linearGradient>
  <linearGradient id="id11" gradientUnits="userSpaceOnUse" xlink:href="#id2" x1="298.63" y1="161.96" x2="329.4" y2="173.93">
  </linearGradient>
  <linearGradient id="id12" gradientUnits="userSpaceOnUse" x1="357.06" y1="488.64" x2="319.14" y2="488.64">
   <stop offset="0" style="stop-opacity:1; stop-color:#4F52FF"/>
   <stop offset="1" style="stop-opacity:1; stop-color:#4042E2"/>
  </linearGradient>
  <linearGradient id="id13" gradientUnits="userSpaceOnUse" xlink:href="#id1" x1="355.4" y1="342.22" x2="370.03" y2="340.35">
  </linearGradient>
  <linearGradient id="id14" gradientUnits="userSpaceOnUse" xlink:href="#id2" x1="227.02" y1="201.68" x2="157.02" y2="229.87">
  </linearGradient>
  <linearGradient id="id15" gradientUnits="userSpaceOnUse" xlink:href="#id5" x1="156.79" y1="171" x2="68.6" y2="306.75">
  </linearGradient>
  <linearGradient id="id16" gradientUnits="userSpaceOnUse" xlink:href="#id0" x1="145.94" y1="297.46" x2="66.62" y2="550.47">
  </linearGradient>
  <linearGradient id="id17" gradientUnits="userSpaceOnUse" xlink:href="#id0" x1="115.7" y1="131.49" x2="141.31" y2="163.43">
  </linearGradient>
  <linearGradient id="id18" gradientUnits="userSpaceOnUse" xlink:href="#id0" x1="296.56" y1="313.88" x2="372.33" y2="222.59">
  </linearGradient>
  <linearGradient id="id19" gradientUnits="userSpaceOnUse" xlink:href="#id0" x1="374.6" y1="445.5" x2="457.43" y2="500.78">
  </linearGradient>
  <linearGradient id="id20" gradientUnits="userSpaceOnUse" xlink:href="#id7" x1="535.72" y1="497.29" x2="168.31" y2="175.54">
  </linearGradient>
  <linearGradient id="id21" gradientUnits="userSpaceOnUse" xlink:href="#id2" x1="371.4" y1="267.2" x2="342.31" y2="321.09">
  </linearGradient>
  <linearGradient id="id22" gradientUnits="userSpaceOnUse" xlink:href="#id2" x1="104.94" y1="450.28" x2="100.24" y2="491.89">
  </linearGradient>
  <linearGradient id="id23" gradientUnits="userSpaceOnUse" xlink:href="#id0" x1="352.95" y1="225.14" x2="372.2" y2="148.76">
  </linearGradient>
  <linearGradient id="id24" gradientUnits="userSpaceOnUse" xlink:href="#id1" x1="116.5" y1="268.58" x2="158.58" y2="211.03">
  </linearGradient>
  <linearGradient id="id25" gradientUnits="userSpaceOnUse" xlink:href="#id12" x1="432.96" y1="487.98" x2="418.63" y2="487.98">
  </linearGradient>
  <linearGradient id="id26" gradientUnits="userSpaceOnUse" xlink:href="#id1" x1="355.54" y1="273.87" x2="355.33" y2="300.38">
  </linearGradient>
  <linearGradient id="id27" gradientUnits="userSpaceOnUse" xlink:href="#id5" x1="340.4" y1="315.19" x2="338.24" y2="304.46">
  </linearGradient>
  <linearGradient id="id28" gradientUnits="userSpaceOnUse" xlink:href="#id0" x1="282.96" y1="302.44" x2="353.75" y2="211.15">
  </linearGradient>
  <linearGradient id="id29" gradientUnits="userSpaceOnUse" xlink:href="#id12" x1="160.88" y1="456.63" x2="69.63" y2="514.44">
  </linearGradient>
  <linearGradient id="id30" gradientUnits="userSpaceOnUse" xlink:href="#id0" x1="241.4" y1="267.37" x2="325.15" y2="176.08">
  </linearGradient>
  <linearGradient id="id31" gradientUnits="userSpaceOnUse" xlink:href="#id2" x1="114.17" y1="194.56" x2="147.52" y2="174.71">
  </linearGradient>
  <linearGradient id="id32" gradientUnits="userSpaceOnUse" xlink:href="#id2" x1="200.46" y1="254.27" x2="206.21" y2="252.51">
  </linearGradient>
  <linearGradient id="id33" gradientUnits="userSpaceOnUse" xlink:href="#id5" x1="356.48" y1="301.58" x2="361.24" y2="335.72">
  </linearGradient>
  <linearGradient id="id34" gradientUnits="userSpaceOnUse" xlink:href="#id0" x1="320.18" y1="178.52" x2="295.8" y2="153.01">
  </linearGradient>
  <linearGradient id="id35" gradientUnits="userSpaceOnUse" xlink:href="#id7" x1="529.96" y1="497.29" x2="175.66" y2="175.54">
  </linearGradient>
  <linearGradient id="id36" gradientUnits="userSpaceOnUse" xlink:href="#id2" x1="299.81" y1="165.79" x2="325.49" y2="175.85">
  </linearGradient>
  <linearGradient id="id37" gradientUnits="userSpaceOnUse" xlink:href="#id2" x1="421.76" y1="461.81" x2="409.12" y2="461.81">
  </linearGradient>
  <linearGradient id="id38" gradientUnits="userSpaceOnUse" xlink:href="#id2" x1="143.4" y1="454.65" x2="141.26" y2="496.57">
  </linearGradient>
  <linearGradient id="id39" gradientUnits="userSpaceOnUse" xlink:href="#id2" x1="227.35" y1="201.4" x2="157.36" y2="234.15">
  </linearGradient>
  <linearGradient id="id40" gradientUnits="userSpaceOnUse" xlink:href="#id5" x1="372.41" y1="289.83" x2="379.62" y2="325.94">
  </linearGradient>
  <linearGradient id="id41" gradientUnits="userSpaceOnUse" xlink:href="#id5" x1="375.78" y1="309.4" x2="373.62" y2="298.67">
  </linearGradient>
  <linearGradient id="id42" gradientUnits="userSpaceOnUse" xlink:href="#id0" x1="98.65" y1="478.62" x2="123.17" y2="478.62">
  </linearGradient>
  <linearGradient id="id43" gradientUnits="userSpaceOnUse" xlink:href="#id1" x1="360.21" y1="369.75" x2="359.81" y2="324.11">
  </linearGradient>
  <linearGradient id="id44" gradientUnits="userSpaceOnUse" xlink:href="#id5" x1="359.62" y1="353.63" x2="363.9" y2="333.77">
  </linearGradient>
  <linearGradient id="id45" gradientUnits="userSpaceOnUse" xlink:href="#id7" x1="531.6" y1="497.3" x2="182.79" y2="175.54">
  </linearGradient>
  <linearGradient id="id46" gradientUnits="userSpaceOnUse" xlink:href="#id1" x1="79.81" y1="315.91" x2="154.43" y2="209.4">
  </linearGradient>
  <linearGradient id="id47" gradientUnits="userSpaceOnUse" xlink:href="#id7" x1="534.81" y1="497.31" x2="170.74" y2="175.55">
  </linearGradient>
  <linearGradient id="id48" gradientUnits="userSpaceOnUse" xlink:href="#id7" x1="530.68" y1="497.32" x2="189.25" y2="175.55">
  </linearGradient>
  <linearGradient id="id49" gradientUnits="userSpaceOnUse" xlink:href="#id7" x1="535.81" y1="496.79" x2="168.22" y2="175.38">
  </linearGradient>
  <linearGradient id="id50" gradientUnits="userSpaceOnUse" x1="597.96" y1="1034.97" x2="185.69" y2="-360.62">
   <stop offset="0" style="stop-opacity:1; stop-color:#4FFFC7"/>
   <stop offset="1" style="stop-opacity:1; stop-color:#41E2B4"/>
  </linearGradient>
  <linearGradient id="id51" gradientUnits="userSpaceOnUse" xlink:href="#id0" x1="449.2" y1="453.31" x2="310.91" y2="492.3">
  </linearGradient>
  <linearGradient id="id52" gradientUnits="userSpaceOnUse" xlink:href="#id12" x1="176.74" y1="469.83" x2="86.28" y2="541.38">
  </linearGradient>
  <linearGradient id="id53" gradientUnits="userSpaceOnUse" xlink:href="#id7" x1="582.84" y1="1034.98" x2="197.99" y2="-360.62">
  </linearGradient>
  <linearGradient id="id54" gradientUnits="userSpaceOnUse" xlink:href="#id7" x1="529.8" y1="497.31" x2="188.81" y2="175.55">
  </linearGradient>
  <linearGradient id="id55" gradientUnits="userSpaceOnUse" x1="312.59" y1="745.6" x2="-93.96" y2="-614.44">
   <stop offset="0" style="stop-opacity:1; stop-color:#4FFFC7"/>
   <stop offset="1" style="stop-opacity:1; stop-color:#41E299"/>
  </linearGradient>
  <linearGradient id="id56" gradientUnits="userSpaceOnUse" xlink:href="#id7" x1="531.07" y1="497.26" x2="197.32" y2="175.53">
  </linearGradient>
  <linearGradient id="id57" gradientUnits="userSpaceOnUse" xlink:href="#id7" x1="534.72" y1="497.28" x2="169.59" y2="175.54">
  </linearGradient>
  <linearGradient id="id58" gradientUnits="userSpaceOnUse" xlink:href="#id5" x1="155.73" y1="172.23" x2="67.28" y2="302.66">
  </linearGradient>
  <linearGradient id="id59" gradientUnits="userSpaceOnUse" xlink:href="#id2" x1="256.6" y1="256.1" x2="53.47" y2="223.22">
  </linearGradient>
  <linearGradient id="id60" gradientUnits="userSpaceOnUse" xlink:href="#id7" x1="582.9" y1="1034.91" x2="195.27" y2="-360.58">
  </linearGradient>
  <linearGradient id="id61" gradientUnits="userSpaceOnUse" x1="355.37" y1="273.87" x2="355.15" y2="300.38">
   <stop offset="0" style="stop-opacity:1; stop-color:#FFD1D0"/>
   <stop offset="1" style="stop-opacity:1; stop-color:#FFC3BD"/>
  </linearGradient>
  <linearGradient id="id62" gradientUnits="userSpaceOnUse" xlink:href="#id7" x1="591.14" y1="1034.96" x2="194.04" y2="-360.61">
  </linearGradient>
  <linearGradient id="id63" gradientUnits="userSpaceOnUse" xlink:href="#id7" x1="535.44" y1="497.29" x2="170.97" y2="175.54">
  </linearGradient>
  <linearGradient id="id64" gradientUnits="userSpaceOnUse" xlink:href="#id0" x1="423.81" y1="479.15" x2="227.41" y2="210.1">
  </linearGradient>
  <linearGradient id="id65" gradientUnits="userSpaceOnUse" xlink:href="#id7" x1="533.54" y1="497.28" x2="177.38" y2="175.54">
  </linearGradient>
  <linearGradient id="id66" gradientUnits="userSpaceOnUse" xlink:href="#id7" x1="535.2" y1="497.3" x2="169.57" y2="175.54">
  </linearGradient>
 </defs>
 <g id="Camada_x0020_1">
  <metadata id="CorelCorpID_0Corel-Layer"/>
  <g id="_1980492796944">
   <path class="fil0" d="M395.85 437.36c-13.73,-0 -27.64,-4 -33.69,-9.03 -9.14,-7.62 -10.34,-33.63 -2.33,-50.61 1.5,-3.18 1.25,-6.88 -0.66,-9.9 -1.99,-3.14 -5.39,-5.02 -9.09,-5.02l-59.28 0 0 -80.5c0,-3.22 -1.67,-6.1 -4.46,-7.69 -1.38,-0.78 -2.88,-1.17 -4.38,-1.17 -1.56,0 -3.12,0.42 -4.54,1.26 -10.47,6.23 -26.26,13.79 -42,14.47 -0.49,0.02 -0.98,0.03 -1.45,0.03 -10.78,0 -18.31,-5.41 -23,-16.52 -4.32,-10.22 -5.5,-23.6 -6.09,-35.35 -0.52,-10.35 9.75,-24.26 23.89,-32.35 7.78,-4.46 15.79,-6.69 23.46,-6.69 7.36,0 14.42,2.05 20.7,6.17 0.38,0.25 8.09,5.26 13.19,5.26 0.91,0 1.73,-0.16 2.41,-0.53 0.86,-0.46 1.89,-1.46 1.89,-3.57l0 -75.4 62.98 0c4.31,0 8.17,-2.21 10.33,-5.93 2.18,-3.75 2.19,-8.25 0.04,-12.03 -11.28,-19.81 -7.02,-31.42 -1.46,-37.68 9.09,-10.22 22.56,-16.37 34.8,-16.37 2.52,0 4.99,0.26 7.36,0.8 7.51,1.71 17.37,6.95 21.72,22.17 3.25,11.37 2.13,21.82 -3.31,31.03 -2.2,3.73 -2.22,8.2 -0.08,11.96 2.16,3.78 6.05,6.04 10.41,6.04l58.83 0 0 78.9c0,2.91 -1.54,5.45 -4.1,6.79 -1.16,0.61 -2.39,0.91 -3.63,0.91 -1.55,0 -3.1,-0.48 -4.47,-1.43 -11.98,-8.32 -21.97,-11.1 -29.97,-11.1 -5.99,0 -10.86,1.56 -14.62,3.52 -12.78,6.66 -18.57,20.62 -18.59,28.4 -0.04,13.16 4.25,36.92 16.24,48.41 4.81,4.61 10.47,6.95 16.8,6.95 0.4,0 0.8,-0.01 1.21,-0.03 10.17,-0.46 20.09,-3.43 29.47,-8.84 1.24,-0.71 2.59,-1.07 3.95,-1.07 1.34,0 2.68,0.35 3.9,1.05 2.39,1.38 3.82,3.87 3.82,6.64l0 73.46 -60.93 0c-3.9,0 -7.33,2.04 -9.19,5.45 -1.86,3.43 -1.7,7.44 0.43,10.72 5.45,8.41 8.31,19 8.49,31.46 0.16,10.68 -4.5,18.36 -13.85,22.82 -6.09,2.91 -13.58,4.12 -21.13,4.12zm-70.14 -247.99c-17.32,0 -29.72,4.19 -29.72,4.19l-2.17 13.98c-1.93,12.45 2.06,24.4 6.45,36.2 13.95,37.52 18.12,48.98 22.29,68.78 4.27,1.17 8.42,1.76 12.44,1.76 11.53,0 22.01,-4.89 31.31,-15.31 0.29,-0.92 0.58,-1.83 0.85,-2.73l8.24 -1.33c0.9,-0.15 1.58,-0.89 1.63,-1.8 0.06,-1.27 0.01,-3.14 -0.52,-5.03 -0.56,-1.99 -2.4,-3.32 -4.44,-3.32 -0.16,0 -0.32,0.01 -0.48,0.02 -0.38,0.04 -0.8,0.08 -1.25,0.13 19.39,-75.87 -17.19,-91.75 -17.19,-91.75 -9.74,-2.85 -19.16,-3.81 -27.46,-3.81zm38.81 -44.66c-0.49,0 -0.9,0.39 -0.92,0.88 -0.02,0.51 0.37,0.93 0.88,0.96 0.56,0.02 1.12,0.03 1.68,0.03 1.05,0 2.09,-0.04 3.13,-0.12 0.03,-0 0.07,-0.01 0.1,-0.01 0.46,-0.08 0.78,-0.5 0.75,-0.97 -0.04,-0.48 -0.44,-0.85 -0.92,-0.85 -0.02,0 -0.05,0 -0.07,0 -0.99,0.08 -1.98,0.12 -2.98,0.12 -0.54,0 -1.08,-0.01 -1.61,-0.04 -0.01,0 -0.03,0 -0.04,0zm-9.26 -1.54c-0.4,0 -0.76,0.26 -0.88,0.66 -0.14,0.49 0.13,1 0.62,1.14 1.53,0.45 3.11,0.82 4.69,1.08 0.05,0.01 0.1,0.01 0.15,0.01 0.06,0 0.11,-0.01 0.17,-0.02 0.37,-0.07 0.67,-0.36 0.74,-0.75 0.08,-0.5 -0.26,-0.97 -0.76,-1.06 -1.5,-0.25 -3.01,-0.6 -4.47,-1.03 -0.09,-0.02 -0.17,-0.04 -0.26,-0.04zm23.16 -0.39c-0.09,0 -0.19,0.01 -0.28,0.04 -1.45,0.48 -2.94,0.87 -4.44,1.17 -0.5,0.1 -0.82,0.58 -0.72,1.08 0.09,0.44 0.47,0.74 0.9,0.74 0.05,0 0.11,-0.01 0.17,-0.02l0.01 -0c1.57,-0.31 3.13,-0.73 4.65,-1.23 0.48,-0.16 0.74,-0.68 0.59,-1.16 -0.13,-0.39 -0.49,-0.63 -0.88,-0.63zm-29.69 -2.21c-0.34,0 -0.66,0.18 -0.82,0.5 -0.23,0.45 -0.05,1.01 0.4,1.24 0.69,0.35 1.41,0.69 2.13,1 0.12,0.05 0.24,0.08 0.37,0.08 0.06,0 0.11,-0 0.17,-0.02 0.29,-0.06 0.55,-0.25 0.67,-0.54 0.2,-0.46 -0.01,-1.01 -0.48,-1.21 -0.69,-0.3 -1.37,-0.62 -2.03,-0.95 -0.13,-0.07 -0.28,-0.1 -0.41,-0.1zm38.18 -1.8c-0.17,0 -0.33,0.04 -0.49,0.14 -1.29,0.81 -2.64,1.56 -4.02,2.21 -0.46,0.22 -0.66,0.76 -0.44,1.22 0.16,0.33 0.49,0.53 0.84,0.53 0.05,0 0.11,-0.01 0.17,-0.02 0.08,-0.01 0.15,-0.04 0.22,-0.07 1.45,-0.68 2.87,-1.46 4.22,-2.32 0.43,-0.27 0.56,-0.84 0.29,-1.27 -0.17,-0.28 -0.47,-0.43 -0.78,-0.43zm7.27 -5.93c-0.24,0 -0.48,0.09 -0.67,0.28 -1.05,1.1 -2.19,2.15 -3.37,3.11 -0.39,0.32 -0.45,0.9 -0.13,1.29 0.18,0.22 0.45,0.34 0.71,0.34 0.05,0 0.11,-0.01 0.17,-0.01 0.15,-0.03 0.29,-0.09 0.42,-0.19 1.24,-1.01 2.43,-2.11 3.53,-3.26 0.35,-0.37 0.34,-0.95 -0.03,-1.3 -0.18,-0.17 -0.41,-0.26 -0.63,-0.26zm5.64 -7.5c-0.32,0 -0.63,0.16 -0.8,0.46 -0.76,1.32 -1.61,2.61 -2.53,3.83 -0.3,0.41 -0.22,0.98 0.18,1.29 0.17,0.12 0.36,0.18 0.55,0.18 0.05,0 0.11,-0.01 0.17,-0.02 0.21,-0.04 0.42,-0.16 0.56,-0.35 0.96,-1.28 1.85,-2.63 2.65,-4.01 0.25,-0.44 0.1,-1 -0.33,-1.25 -0.14,-0.08 -0.3,-0.12 -0.46,-0.12zm3.67 -8.64c-0.4,0 -0.76,0.26 -0.88,0.67 -0.42,1.46 -0.94,2.92 -1.54,4.32 -0.2,0.47 0.02,1.01 0.49,1.21 0.12,0.05 0.24,0.08 0.36,0.08 0.06,0 0.12,-0 0.17,-0.02 0.29,-0.05 0.55,-0.25 0.68,-0.54 0.63,-1.48 1.17,-3 1.61,-4.54 0.14,-0.49 -0.14,-1 -0.63,-1.14 -0.08,-0.02 -0.17,-0.04 -0.25,-0.04zm9.71 -3.22c-0.64,0 -1.23,0.42 -1.42,1.06 -0.24,0.79 0.21,1.61 1,1.85 1.59,0.47 3.22,0.89 4.84,1.23 0.1,0.02 0.2,0.03 0.3,0.03 0.09,0 0.18,-0.01 0.27,-0.03 0.57,-0.11 1.05,-0.55 1.18,-1.16 0.17,-0.8 -0.35,-1.59 -1.15,-1.76 -1.55,-0.33 -3.09,-0.71 -4.6,-1.17 -0.14,-0.04 -0.29,-0.06 -0.43,-0.06zm-9.58 -3.83c-0.54,0 -1.07,0.3 -1.33,0.82 -0.37,0.73 -0.08,1.63 0.66,2 0.72,0.37 1.47,0.72 2.2,1.06 0.2,0.09 0.41,0.13 0.62,0.13 0.09,0 0.18,-0 0.27,-0.02 0.46,-0.09 0.88,-0.39 1.08,-0.85 0.34,-0.75 0.01,-1.63 -0.74,-1.97 -0.69,-0.32 -1.39,-0.66 -2.09,-1 -0.21,-0.11 -0.45,-0.16 -0.67,-0.16zm-30.57 -39.91c-0.09,0 -0.18,0.01 -0.28,0.02l-0.03 0.01c-0.8,0.17 -1.32,0.95 -1.16,1.76 0.34,1.66 0.76,3.31 1.24,4.92 0.19,0.65 0.79,1.06 1.42,1.06 0.09,0 0.18,-0.01 0.27,-0.02 0.05,-0.01 0.1,-0.02 0.15,-0.04 0.79,-0.23 1.24,-1.06 1,-1.85 -0.46,-1.53 -0.85,-3.1 -1.18,-4.68 -0.14,-0.7 -0.76,-1.18 -1.45,-1.18z"/>
   <path class="fil1" d="M60.67 278.31c-7.06,4.74 -16.38,9.35 -26.89,10.4 -23.26,2.33 -32.57,-23.26 -33.73,-45.36 -1.16,-22.1 18.61,-43.03 36.06,-40.71 8.22,1.09 17.21,6.32 24.42,11.54 5.83,4.22 13.96,0.07 13.96,-7.12l0 -79.37 80.3 0c6.69,0 11.13,-6.91 8.33,-12.99 -6.3,-13.69 -13.38,-34.5 -3.51,-43.48 15.34,-13.96 56.77,-13.96 63.75,6.98 3.91,11.72 -1.4,25.83 -6.83,35.97 -3.28,6.12 1.14,13.49 8.08,13.49l68.53 0 0 73.51c0,7.84 -8.87,12.71 -15.26,8.18 -29.65,-21.04 -62.02,1.15 -64.99,25.87 -3.49,29.07 15.12,53.5 34.89,51.17 10.04,-1.18 21.58,-6.86 30.51,-12.17 6.56,-3.9 14.85,0.78 14.85,8.41l0 81.19 -78.94 0c-9.03,0 -15.07,-9.42 -11.16,-17.56 4.67,-9.7 23.79,-21.61 22.64,-30.8 -2.33,-18.61 -43.76,-23.21 -66.08,-19.75 -17.03,2.64 -8.57,29.29 1.12,50.64 3.71,8.18 -2.2,17.46 -11.18,17.46l-75.05 0 0 -78.28c0,-7.11 -7.92,-11.19 -13.82,-7.23z"/>
   <path class="fil2" d="M374.26 77.51c-0.64,0 -1.23,-0.42 -1.42,-1.06 -0.48,-1.61 -0.89,-3.27 -1.24,-4.92 -0.17,-0.8 0.35,-1.59 1.16,-1.76l0.03 -0.01c0.09,-0.01 0.18,-0.02 0.28,-0.02 0.69,0 1.31,0.48 1.45,1.18 0.33,1.57 0.72,3.14 1.18,4.68 0.23,0.79 -0.21,1.62 -1,1.85 -0.05,0.02 -0.1,0.03 -0.15,0.04 -0.09,0.01 -0.18,0.02 -0.27,0.02z"/>
   <path class="fil3" d="M370.78 64.17c-0.17,-0.22 -0.28,-0.5 -0.3,-0.8 -0.11,-1.68 -0.16,-3.39 -0.13,-5.07 0.01,-0.81 0.68,-1.46 1.49,-1.46 0,0 0.01,0 0.02,0 0.82,0.01 1.47,0.69 1.46,1.51 -0.03,1.39 0,2.8 0.08,4.19 -0.89,0.51 -1.77,1.05 -2.63,1.62z"/>
   <path class="fil4" d="M371.97 64.76c-0.48,0 -0.91,-0.23 -1.18,-0.59 0.86,-0.57 1.74,-1.11 2.63,-1.62 0.01,0.21 0.03,0.42 0.04,0.62 0.05,0.76 -0.48,1.42 -1.21,1.56 -0.06,0.01 -0.12,0.02 -0.17,0.02 -0.04,0 -0.07,0 -0.1,0z"/>
   <path class="fil5" d="M372.55 51.81c-0.08,0 -0.15,-0 -0.23,-0.02 -0.81,-0.13 -1.37,-0.89 -1.24,-1.7 0.26,-1.66 0.6,-3.34 1.01,-4.97 0.17,-0.68 0.78,-1.13 1.45,-1.13 0.12,0 0.24,0.01 0.36,0.04 0.79,0.2 1.28,1 1.09,1.8 -0.38,1.55 -0.71,3.14 -0.96,4.73 -0.1,0.63 -0.59,1.12 -1.2,1.23 -0.09,0.02 -0.18,0.02 -0.27,0.02zm3.46 -12.49c-0.18,0 -0.38,-0.03 -0.55,-0.11 -0.76,-0.3 -1.13,-1.17 -0.83,-1.93 0.63,-1.56 1.34,-3.12 2.1,-4.62 0.26,-0.52 0.79,-0.82 1.33,-0.82 0.22,0 0.46,0.05 0.67,0.16 0.73,0.37 1.03,1.27 0.66,2 -0.72,1.42 -1.39,2.9 -1.99,4.39 -0.2,0.49 -0.63,0.82 -1.11,0.91 -0.09,0.01 -0.18,0.02 -0.27,0.02z"/>
   <path class="fil6" d="M382.16 27.91c-0.17,0 -0.34,-0.03 -0.51,-0.09 -0.14,-0.08 -0.28,-0.16 -0.42,-0.24 -0.6,-0.49 -0.74,-1.36 -0.29,-2.01 0.96,-1.38 1.99,-2.74 3.06,-4.04 0.29,-0.36 0.72,-0.54 1.15,-0.54 0.33,0 0.67,0.11 0.95,0.34 0.63,0.53 0.72,1.47 0.2,2.09 -1.02,1.24 -2.01,2.53 -2.92,3.84 -0.23,0.34 -0.58,0.54 -0.95,0.62 -0.09,0.02 -0.18,0.02 -0.28,0.02z"/>
   <path class="fil7" d="M381.65 27.82c-0.11,-0.04 -0.23,-0.1 -0.33,-0.17 -0.03,-0.02 -0.06,-0.04 -0.09,-0.07 0.14,0.08 0.28,0.16 0.42,0.24z"/>
   <path class="fil8" d="M390.69 18.15c-0.4,0 -0.8,-0.16 -1.09,-0.48 -0.56,-0.61 -0.51,-1.55 0.09,-2.1 1.24,-1.13 2.55,-2.23 3.88,-3.26 0.27,-0.21 0.59,-0.31 0.91,-0.31 0.45,0 0.89,0.2 1.18,0.58 0.5,0.65 0.38,1.59 -0.27,2.09 -1.27,0.97 -2.51,2.02 -3.69,3.1 -0.21,0.19 -0.46,0.31 -0.73,0.36 -0.09,0.02 -0.18,0.03 -0.28,0.03zm10.47 -7.62c-0.51,0 -1.02,-0.27 -1.29,-0.75 -0.41,-0.71 -0.16,-1.63 0.56,-2.03 1.46,-0.84 2.98,-1.61 4.51,-2.32 0.2,-0.09 0.41,-0.13 0.62,-0.13 0.56,0 1.1,0.32 1.35,0.87 0.34,0.75 0.01,1.63 -0.73,1.97 -1.45,0.67 -2.89,1.41 -4.28,2.2 -0.15,0.08 -0.3,0.14 -0.46,0.17 -0.09,0.01 -0.18,0.02 -0.27,0.02zm11.92 -5.09c-0.64,0 -1.23,-0.42 -1.43,-1.06 -0.23,-0.79 0.21,-1.62 1,-1.85 1.61,-0.48 3.27,-0.9 4.92,-1.25l0.03 -0.01c0.09,-0.02 0.18,-0.03 0.27,-0.03 0.69,0 1.31,0.48 1.46,1.19 0.17,0.8 -0.35,1.59 -1.15,1.76 -1.57,0.33 -3.14,0.72 -4.67,1.18 -0.05,0.01 -0.1,0.03 -0.16,0.04 -0.09,0.02 -0.18,0.03 -0.27,0.03zm30.56 -0.79c-0.12,0 -0.24,-0.01 -0.36,-0.04 -1.55,-0.38 -3.14,-0.7 -4.73,-0.95 -0.81,-0.13 -1.37,-0.89 -1.24,-1.7 0.12,-0.73 0.75,-1.26 1.47,-1.26 0.08,0 0.16,0.01 0.23,0.02 1.67,0.26 3.34,0.6 4.98,1 0.79,0.2 1.28,1 1.09,1.8 -0.14,0.59 -0.62,1 -1.17,1.11 -0.09,0.01 -0.18,0.02 -0.27,0.02zm-17.8 -1.53c-0.78,0 -1.43,-0.6 -1.48,-1.38 -0.06,-0.82 0.56,-1.53 1.38,-1.59 1.38,-0.09 2.76,-0.14 4.14,-0.14 0.31,0 0.62,0 0.93,0.01 0.82,0.01 1.48,0.69 1.46,1.51 -0.01,0.72 -0.53,1.31 -1.21,1.44 -0.09,0.02 -0.18,0.03 -0.28,0.03 -0.01,0 -0.01,0 -0.02,0 -0.29,-0 -0.59,-0.01 -0.89,-0.01 -1.31,0 -2.63,0.05 -3.93,0.14 -0.04,0 -0.07,0 -0.1,0z"/>
   <path class="fil9" d="M453.51 8.05c-0.2,0 -0.41,-0.04 -0.61,-0.13 -0.7,-0.32 -1.42,-0.62 -2.13,-0.91 -0.76,-0.31 -1.13,-1.17 -0.83,-1.94 0.23,-0.58 0.79,-0.93 1.38,-0.93 0.18,0 0.37,0.04 0.55,0.11 0.75,0.3 1.51,0.63 2.25,0.96 0.75,0.34 1.08,1.22 0.75,1.97 -0.21,0.46 -0.63,0.76 -1.09,0.85 -0.09,0.01 -0.18,0.02 -0.28,0.02z"/>
   <path class="fil10" d="M484.33 41.34c-0.61,0 -1.18,-0.38 -1.4,-0.99 -0.26,-0.72 -0.54,-1.45 -0.83,-2.17 -0.31,-0.76 0.06,-1.63 0.82,-1.93 0.18,-0.08 0.37,-0.11 0.56,-0.11 0.59,0 1.14,0.35 1.38,0.93 0.3,0.75 0.59,1.52 0.87,2.28 0.28,0.77 -0.13,1.63 -0.9,1.9 -0.08,0.03 -0.15,0.04 -0.23,0.06 -0.09,0.01 -0.18,0.02 -0.27,0.02z"/>
   <path class="fil11" d="M429.72 118.87c-1.36,0 -2.72,-0.04 -4.07,-0.14 -0.82,-0.06 -1.44,-0.77 -1.38,-1.59 0.05,-0.79 0.71,-1.39 1.48,-1.39 0.04,0 0.07,0 0.11,0 1.28,0.09 2.58,0.13 3.87,0.13 0.29,0 0.58,-0 0.87,-0.01 0.01,0 0.02,0 0.03,0 0.81,0 1.47,0.65 1.49,1.47 0.01,0.74 -0.51,1.36 -1.21,1.49 -0.08,0.01 -0.17,0.02 -0.25,0.02 -0.31,0.01 -0.62,0.01 -0.92,0.01zm8.78 -0.67c-0.73,0 -1.36,-0.53 -1.47,-1.26 -0.13,-0.81 0.44,-1.58 1.24,-1.69 1.58,-0.24 3.14,-0.54 4.66,-0.91 0.12,-0.03 0.23,-0.04 0.35,-0.04 0.67,0 1.28,0.46 1.44,1.14 0.19,0.8 -0.3,1.6 -1.1,1.8 -0.94,0.22 -1.91,0.43 -2.87,0.61 -0.67,0.13 -1.35,0.24 -2.03,0.34 -0.08,0.01 -0.15,0.02 -0.22,0.02z"/>
   <path class="fil12" d="M417.93 117.65c-0.1,0 -0.21,-0.01 -0.3,-0.03 -1.63,-0.34 -3.26,-0.75 -4.84,-1.23 -0.79,-0.24 -1.24,-1.06 -1,-1.85 0.19,-0.65 0.78,-1.06 1.42,-1.06 0.14,0 0.29,0.02 0.43,0.06 1.51,0.45 3.05,0.84 4.6,1.17 0.8,0.17 1.32,0.96 1.15,1.76 -0.13,0.61 -0.61,1.05 -1.18,1.16 -0.09,0.02 -0.18,0.03 -0.27,0.03z"/>
   <path class="fil13" d="M450.83 114.92c-0.59,0 -1.16,-0.36 -1.39,-0.95 -0.29,-0.76 0.08,-1.63 0.85,-1.93 1.47,-0.57 2.93,-1.21 4.34,-1.9 0.21,-0.1 0.43,-0.15 0.65,-0.15 0.55,0 1.08,0.31 1.34,0.84 0.36,0.74 0.05,1.63 -0.68,1.99 -1.49,0.73 -3.03,1.41 -4.57,2.01 -0.08,0.04 -0.18,0.06 -0.26,0.08 -0.09,0.02 -0.18,0.03 -0.27,0.03z"/>
   <path class="fil14" d="M463.31 108.51c-0.5,-0.86 -1.01,-1.72 -1.53,-2.56 1.13,-0.78 2.25,-1.61 3.32,-2.47 0.28,-0.22 0.61,-0.33 0.93,-0.33 0.43,0 0.87,0.19 1.16,0.55 0.51,0.64 0.41,1.58 -0.23,2.1 -1.18,0.95 -2.41,1.86 -3.66,2.72z"/>
   <path class="fil15" d="M462.12 109.01c-0.48,0 -0.95,-0.23 -1.23,-0.66 -0.46,-0.68 -0.28,-1.6 0.4,-2.06 0.17,-0.11 0.33,-0.22 0.5,-0.34 0.51,0.85 1.02,1.71 1.53,2.56 -0.12,0.08 -0.24,0.16 -0.36,0.25 -0.17,0.12 -0.36,0.19 -0.56,0.23 -0.09,0.02 -0.18,0.02 -0.27,0.02z"/>
   <path class="fil16" d="M471.85 100.77c-0.37,0 -0.74,-0.13 -1.02,-0.41 -0.6,-0.57 -0.63,-1.51 -0.06,-2.1 1.08,-1.14 2.13,-2.35 3.11,-3.58 0.29,-0.37 0.72,-0.56 1.16,-0.56 0.33,0 0.65,0.11 0.93,0.33 0.64,0.51 0.75,1.45 0.23,2.09 -1.04,1.29 -2.14,2.56 -3.27,3.77 -0.23,0.24 -0.51,0.38 -0.81,0.44 -0.09,0.02 -0.18,0.03 -0.27,0.03zm7.7 -10.17c-0.26,0 -0.52,-0.07 -0.76,-0.21 -0.71,-0.42 -0.94,-1.34 -0.52,-2.04 0.81,-1.35 1.57,-2.76 2.26,-4.17 0.25,-0.53 0.79,-0.84 1.34,-0.84 0.22,0 0.44,0.05 0.65,0.15 0.74,0.36 1.05,1.25 0.68,1.99 -0.73,1.49 -1.53,2.97 -2.38,4.39 -0.23,0.38 -0.6,0.63 -1,0.7 -0.09,0.01 -0.18,0.02 -0.28,0.02zm5.3 -11.6c-0.16,0 -0.31,-0.02 -0.46,-0.07 -0.78,-0.26 -1.21,-1.1 -0.95,-1.88 0.5,-1.5 0.92,-3.03 1.29,-4.56 0.16,-0.68 0.77,-1.14 1.45,-1.14 0.11,0 0.23,0.01 0.34,0.04 0.8,0.19 1.3,0.99 1.1,1.79 -0.38,1.61 -0.84,3.23 -1.36,4.81 -0.17,0.54 -0.63,0.9 -1.14,1 -0.08,0.01 -0.18,0.02 -0.27,0.02zm2.62 -12.49c-0.05,0 -0.1,0 -0.15,-0 -0.82,-0.08 -1.42,-0.81 -1.34,-1.63 0.15,-1.56 0.24,-3.16 0.25,-4.73 0.01,-0.82 0.67,-1.47 1.49,-1.47 0,0 0.01,0 0.02,0 0.82,0.01 1.48,0.68 1.47,1.51 -0.02,1.66 -0.11,3.34 -0.27,4.98 -0.06,0.67 -0.57,1.2 -1.21,1.32 -0.09,0.01 -0.18,0.02 -0.27,0.02zm-0.19 -12.75c-0.74,0 -1.38,-0.55 -1.48,-1.3 -0.14,-1.15 -0.32,-2.31 -0.54,-3.45 -0.08,-0.42 -0.16,-0.83 -0.24,-1.23 -0.17,-0.8 0.34,-1.59 1.15,-1.76 0.11,-0.03 0.22,-0.04 0.32,-0.04 0.69,0 1.29,0.5 1.44,1.19 0.09,0.43 0.17,0.86 0.25,1.29 0.22,1.2 0.42,2.42 0.57,3.63 0.09,0.79 -0.44,1.51 -1.21,1.65 -0.03,0 -0.06,0.01 -0.09,0.01 -0.06,0.01 -0.12,0.01 -0.18,0.01z"/>
   <path class="fil17" d="M405.77 113.66c-0.21,0 -0.42,-0.04 -0.62,-0.13 -0.73,-0.34 -1.47,-0.69 -2.2,-1.06 -0.73,-0.37 -1.03,-1.26 -0.66,-2 0.26,-0.52 0.79,-0.82 1.33,-0.82 0.22,0 0.46,0.05 0.67,0.16 0.69,0.35 1.39,0.69 2.09,1 0.75,0.34 1.08,1.22 0.74,1.97 -0.21,0.46 -0.62,0.76 -1.08,0.85 -0.09,0.02 -0.18,0.02 -0.27,0.02z"/>
   <path class="fil18" d="M404.84 96.3c0.23,0.19 0.55,0.22 0.8,0.07l7.27 -4.33c3.52,1.8 7.35,3.04 11.38,3.64l3.42 7.74c0.12,0.27 0.4,0.44 0.69,0.41l10.12 -0.85c0.29,-0.02 0.54,-0.23 0.62,-0.52l2.08 -8.2c3.87,-1.26 7.44,-3.13 10.61,-5.48l7.89 3.06c0.28,0.11 0.59,0.03 0.78,-0.2l6.55 -7.76c0.19,-0.22 0.22,-0.55 0.07,-0.8l-4.33 -7.27c1.8,-3.52 3.04,-7.35 3.64,-11.38l7.74 -3.42c0.27,-0.12 0.44,-0.4 0.41,-0.7l-0.85 -10.12c-0.03,-0.29 -0.23,-0.54 -0.52,-0.62l-8.2 -2.08c-1.26,-3.87 -3.13,-7.44 -5.49,-10.61l3.06 -7.89c0.11,-0.28 0.03,-0.59 -0.2,-0.78l-7.76 -6.55c-0.23,-0.19 -0.55,-0.21 -0.8,-0.07l-7.27 4.33c-3.52,-1.8 -7.35,-3.04 -11.38,-3.63l-3.42 -7.74c-0.12,-0.27 -0.4,-0.44 -0.7,-0.41l-10.12 0.85c-0.29,0.03 -0.54,0.24 -0.62,0.52l-2.08 8.2c-3.87,1.26 -7.44,3.13 -10.61,5.49l-7.89 -3.06c-0.28,-0.11 -0.59,-0.03 -0.78,0.2l-6.55 7.75c-0.19,0.23 -0.22,0.55 -0.07,0.8l4.33 7.27c-1.8,3.52 -3.04,7.36 -3.63,11.38l-7.74 3.42c-0.27,0.12 -0.44,0.4 -0.41,0.69l0.85 10.12c0.03,0.29 0.24,0.54 0.52,0.62l8.2 2.08c1.26,3.87 3.12,7.44 5.49,10.61l-3.06 7.89c-0.11,0.28 -0.03,0.59 0.2,0.78l7.75 6.55z"/>
   <path class="fil19" d="M428.31 51.28c-0.38,0.07 -0.75,0.17 -1.12,0.29 -4.08,1.4 -6.26,5.86 -4.86,9.94 1.4,4.08 5.86,6.26 9.94,4.86 4.08,-1.4 6.26,-5.86 4.86,-9.94 -0.68,-1.97 -2.09,-3.57 -3.97,-4.48 -1.53,-0.75 -3.22,-0.97 -4.86,-0.67zm3.29 17.73c-4.89,0.92 -9.85,-1.88 -11.52,-6.71 -1.83,-5.32 1.01,-11.14 6.33,-12.97 2.58,-0.88 5.35,-0.71 7.79,0.48 2.45,1.19 4.29,3.27 5.17,5.85 1.83,5.32 -1.01,11.14 -6.33,12.97 -0.48,0.17 -0.96,0.3 -1.45,0.38z"/>
   <path class="fil19" d="M434.52 83.46c-0.84,0.16 -1.69,0.27 -2.56,0.34 -0.27,0.02 -0.54,0.04 -0.81,0.06 -1.34,0.07 -2.69,0.03 -4.02,-0.11 -0.02,-0 -0.04,-0 -0.05,-0 -0.05,-0.01 -0.1,-0.01 -0.15,-0.02 -0.1,-0.01 -0.2,-0.02 -0.3,-0.04 -0.26,-0.03 -0.46,-0.23 -0.51,-0.48 -0.01,-0.06 -0.01,-0.12 -0,-0.19 0.04,-0.33 0.34,-0.55 0.67,-0.51 1.68,0.21 3.39,0.25 5.09,0.11 8.44,-0.71 15.49,-5.75 19.17,-12.74 2.04,-3.89 3.04,-8.39 2.64,-13.08 -0.07,-0.82 -0.18,-1.63 -0.33,-2.44 -1,-5.39 -3.81,-10.23 -8.06,-13.82 -4.87,-4.12 -11.06,-6.1 -17.43,-5.56 -13.14,1.11 -22.92,12.69 -21.82,25.82 0.07,0.81 0.18,1.61 0.33,2.4 0.64,3.44 2.03,6.7 4.08,9.54 0.05,0.08 0.09,0.16 0.1,0.24 0.04,0.22 -0.04,0.45 -0.24,0.59 -0.27,0.19 -0.64,0.13 -0.83,-0.13 -2.15,-2.98 -3.6,-6.41 -4.28,-10.01 -0.16,-0.84 -0.27,-1.68 -0.34,-2.53 -1.16,-13.79 9.12,-25.95 22.9,-27.11 6.68,-0.56 13.18,1.51 18.3,5.84 4.46,3.77 7.41,8.85 8.46,14.51 0.16,0.84 0.28,1.69 0.35,2.56 0.56,6.68 -1.51,13.18 -5.84,18.3 -3.77,4.46 -8.85,7.41 -14.51,8.46z"/>
   <path class="fil20" d="M331.66 125.38c-0.33,0 -0.66,-0.18 -0.82,-0.5 -0.35,-0.7 -0.69,-1.41 -1,-2.13 -0.2,-0.46 0.01,-1 0.47,-1.21 0.12,-0.05 0.25,-0.08 0.37,-0.08 0.35,0 0.69,0.21 0.84,0.55 0.3,0.68 0.62,1.37 0.96,2.03 0.23,0.45 0.05,1 -0.4,1.24 -0.08,0.04 -0.16,0.07 -0.25,0.08 -0.06,0.01 -0.11,0.02 -0.17,0.02z"/>
   <path class="fil21" d="M329.05 118.81c-0.4,0 -0.76,-0.26 -0.88,-0.66 -0.38,-1.29 -0.7,-2.61 -0.94,-3.93 -0.05,-0.28 -0.1,-0.56 -0.15,-0.84 -0.08,-0.5 0.29,-0.96 0.76,-1.06 0.05,-0.01 0.1,-0.01 0.15,-0.01 0.44,0 0.83,0.32 0.9,0.77 0.05,0.27 0.09,0.53 0.14,0.8 0.23,1.26 0.54,2.52 0.9,3.75 0.14,0.49 -0.14,1 -0.62,1.14 -0.03,0.01 -0.06,0.02 -0.09,0.02 -0.06,0.01 -0.11,0.01 -0.17,0.01zm-1.56 -9.41c-0.49,0 -0.9,-0.39 -0.92,-0.88 -0.07,-1.63 -0.04,-3.27 0.1,-4.89 0.04,-0.48 0.45,-0.84 0.92,-0.84 0.02,0 0.05,0 0.07,0 0.51,0.04 0.88,0.49 0.84,0.99 -0.13,1.54 -0.16,3.11 -0.09,4.66 0.02,0.46 -0.31,0.86 -0.75,0.94 -0.04,0.01 -0.09,0.01 -0.13,0.02 -0.01,0 -0.02,0 -0.04,0zm0.77 -9.51c-0.06,0 -0.12,-0 -0.19,-0.02 -0.5,-0.1 -0.81,-0.59 -0.71,-1.09 0.33,-1.59 0.77,-3.18 1.29,-4.72 0.13,-0.38 0.49,-0.62 0.87,-0.62 0.1,0 0.2,0.01 0.3,0.05 0.48,0.17 0.74,0.69 0.57,1.17 -0.5,1.47 -0.92,2.98 -1.23,4.5 -0.08,0.38 -0.38,0.65 -0.73,0.71 -0.05,0.01 -0.11,0.01 -0.17,0.01zm3.09 -9.03c-0.14,0 -0.27,-0.03 -0.4,-0.09 -0.46,-0.22 -0.65,-0.77 -0.42,-1.23 0.71,-1.46 1.52,-2.89 2.41,-4.26 0.18,-0.27 0.47,-0.42 0.77,-0.42 0.17,0 0.35,0.05 0.5,0.15 0.43,0.27 0.55,0.84 0.27,1.27 -0.84,1.3 -1.62,2.67 -2.3,4.06 -0.13,0.27 -0.38,0.45 -0.66,0.5 -0.05,0.01 -0.11,0.02 -0.17,0.02zm5.2 -8c-0.21,0 -0.42,-0.07 -0.59,-0.21 -0.39,-0.33 -0.44,-0.91 -0.11,-1.3 1.05,-1.25 2.18,-2.44 3.37,-3.55 0.18,-0.17 0.4,-0.25 0.62,-0.25 0.25,0 0.49,0.1 0.67,0.3 0.35,0.37 0.32,0.95 -0.05,1.3 -1.14,1.05 -2.22,2.19 -3.22,3.38 -0.14,0.17 -0.33,0.27 -0.53,0.31 -0.06,0.01 -0.11,0.02 -0.17,0.02zm6.98 -6.49c-0.28,0 -0.56,-0.13 -0.74,-0.38 -0.3,-0.41 -0.21,-0.98 0.21,-1.28 1.32,-0.95 2.71,-1.83 4.13,-2.61 0.14,-0.08 0.29,-0.11 0.44,-0.11 0.32,0 0.64,0.17 0.81,0.47 0.24,0.45 0.08,1 -0.36,1.25 -1.36,0.75 -2.68,1.58 -3.94,2.49 -0.11,0.08 -0.24,0.13 -0.37,0.16 -0.06,0.01 -0.11,0.02 -0.17,0.02zm8.36 -4.59c-0.37,0 -0.71,-0.22 -0.85,-0.58 -0.19,-0.47 0.04,-1.01 0.52,-1.2 1.51,-0.6 3.07,-1.11 4.65,-1.52 0.08,-0.02 0.15,-0.03 0.23,-0.03 0.41,0 0.79,0.27 0.89,0.68 0.13,0.49 -0.17,0.99 -0.66,1.12 -1.5,0.39 -3,0.88 -4.43,1.45 -0.06,0.02 -0.11,0.04 -0.17,0.05 -0.06,0.01 -0.11,0.01 -0.17,0.01zm9.23 -2.4c-0.45,0 -0.85,-0.33 -0.91,-0.79 -0.07,-0.5 0.29,-0.98 0.79,-1.04 0.21,-0.03 0.43,-0.05 0.64,-0.08 1.41,-0.17 2.84,-0.25 4.24,-0.27 0,0 0,0 0.01,0 0.19,0 0.37,0.06 0.52,0.16 -0.68,0.55 -1.36,1.13 -2.01,1.72 -0.85,0.04 -1.7,0.12 -2.55,0.21 -0.2,0.02 -0.4,0.04 -0.6,0.07 -0.04,0.01 -0.08,0.01 -0.12,0.01z"/>
   <path class="fil4" d="M364.41 69.08c0.66,-0.59 1.33,-1.17 2.01,-1.72 0.24,0.17 0.4,0.44 0.4,0.75 0.01,0.45 -0.32,0.83 -0.75,0.91 -0.05,0.01 -0.11,0.02 -0.16,0.02 -0.5,0 -1,0.02 -1.5,0.04z"/>
   <path class="fil22" d="M366.17 146.58c-0.56,0 -1.12,-0.01 -1.68,-0.03 -0.51,-0.02 -0.9,-0.45 -0.88,-0.96 0.02,-0.5 0.43,-0.88 0.92,-0.88 0.01,0 0.02,0 0.04,0 0.53,0.02 1.07,0.04 1.61,0.04 1,0 1.99,-0.04 2.98,-0.12 0.02,-0 0.05,-0 0.07,-0 0.47,0 0.88,0.37 0.92,0.85 0.04,0.47 -0.29,0.89 -0.75,0.97 -0.03,0.01 -0.07,0.01 -0.1,0.01 -1.04,0.08 -2.08,0.12 -3.13,0.12zm-6.32 -0.52c-0.05,0 -0.1,-0 -0.15,-0.01 -1.58,-0.26 -3.16,-0.63 -4.69,-1.08 -0.49,-0.14 -0.76,-0.66 -0.62,-1.14 0.12,-0.4 0.49,-0.66 0.88,-0.66 0.09,0 0.17,0.01 0.26,0.04 1.46,0.43 2.97,0.78 4.47,1.03 0.5,0.08 0.84,0.56 0.76,1.06 -0.07,0.39 -0.37,0.68 -0.74,0.75 -0.06,0.01 -0.11,0.02 -0.17,0.02zm14.04 -0.24c-0.43,0 -0.81,-0.3 -0.9,-0.74 -0.1,-0.5 0.22,-0.98 0.72,-1.08 1.5,-0.3 2.99,-0.69 4.44,-1.17 0.09,-0.03 0.19,-0.04 0.28,-0.04 0.39,0 0.75,0.24 0.88,0.63 0.16,0.48 -0.1,1 -0.59,1.16 -1.52,0.5 -3.08,0.92 -4.65,1.23l-0.01 0c-0.06,0.01 -0.12,0.02 -0.17,0.02zm8.91 -2.94c-0.34,0 -0.67,-0.19 -0.84,-0.53 -0.21,-0.46 -0.02,-1.01 0.44,-1.22 1.38,-0.66 2.73,-1.4 4.02,-2.21 0.16,-0.1 0.33,-0.14 0.49,-0.14 0.3,0 0.6,0.15 0.78,0.43 0.27,0.43 0.14,1 -0.29,1.27 -1.35,0.85 -2.77,1.63 -4.22,2.32 -0.07,0.03 -0.15,0.06 -0.22,0.07 -0.05,0.01 -0.11,0.02 -0.17,0.02zm7.93 -5.01c-0.27,0 -0.53,-0.11 -0.71,-0.34 -0.32,-0.39 -0.26,-0.97 0.13,-1.29 1.18,-0.96 2.32,-2.01 3.37,-3.11 0.18,-0.19 0.42,-0.28 0.67,-0.28 0.23,0 0.46,0.09 0.63,0.26 0.37,0.35 0.38,0.93 0.03,1.3 -1.11,1.15 -2.3,2.25 -3.53,3.26 -0.13,0.1 -0.27,0.16 -0.42,0.19 -0.05,0.01 -0.11,0.01 -0.17,0.01zm6.5 -6.77c-0.19,0 -0.39,-0.06 -0.55,-0.18 -0.41,-0.31 -0.49,-0.88 -0.18,-1.29 0.92,-1.22 1.77,-2.51 2.53,-3.83 0.17,-0.3 0.48,-0.46 0.8,-0.46 0.15,0 0.31,0.04 0.46,0.12 0.44,0.25 0.59,0.81 0.33,1.25 -0.8,1.38 -1.69,2.73 -2.65,4.01 -0.14,0.19 -0.35,0.31 -0.56,0.35 -0.06,0.01 -0.12,0.02 -0.17,0.02zm4.69 -8.13c-0.12,0 -0.24,-0.02 -0.36,-0.08 -0.47,-0.2 -0.68,-0.74 -0.49,-1.21 0.6,-1.4 1.12,-2.86 1.54,-4.32 0.12,-0.4 0.48,-0.67 0.88,-0.67 0.09,0 0.17,0.01 0.25,0.04 0.49,0.14 0.77,0.65 0.63,1.14 -0.44,1.54 -0.99,3.06 -1.61,4.54 -0.13,0.29 -0.39,0.49 -0.68,0.54 -0.05,0.01 -0.11,0.02 -0.17,0.02z"/>
   <path class="fil23" d="M350.81 143.38c-0.12,0 -0.25,-0.02 -0.37,-0.08 -0.72,-0.31 -1.44,-0.65 -2.13,-1 -0.45,-0.23 -0.63,-0.78 -0.4,-1.24 0.16,-0.32 0.49,-0.5 0.82,-0.5 0.14,0 0.28,0.03 0.41,0.1 0.66,0.33 1.34,0.65 2.03,0.95 0.47,0.2 0.68,0.75 0.48,1.21 -0.13,0.29 -0.39,0.48 -0.67,0.54 -0.06,0.01 -0.11,0.02 -0.17,0.02z"/>
   <path class="fil18" d="M349.54 131.56c0.15,0.13 0.37,0.15 0.54,0.05l4.87 -2.9c2.36,1.2 4.92,2.03 7.61,2.43l2.29 5.18c0.08,0.18 0.27,0.29 0.46,0.28l6.77 -0.57c0.2,-0.02 0.37,-0.16 0.42,-0.35l1.39 -5.49c2.59,-0.84 4.98,-2.09 7.1,-3.67l5.28 2.05c0.19,0.07 0.4,0.02 0.52,-0.13l4.39 -5.19c0.12,-0.15 0.14,-0.37 0.04,-0.54l-2.9 -4.86c1.2,-2.36 2.03,-4.92 2.43,-7.62l5.18 -2.29c0.18,-0.08 0.29,-0.26 0.28,-0.46l-0.57 -6.77c-0.02,-0.2 -0.16,-0.37 -0.35,-0.42l-5.49 -1.39c-0.84,-2.59 -2.09,-4.98 -3.67,-7.1l2.05 -5.28c0.07,-0.19 0.02,-0.4 -0.13,-0.52l-5.19 -4.39c-0.15,-0.13 -0.37,-0.15 -0.54,-0.04l-4.87 2.9c-2.35,-1.2 -4.92,-2.04 -7.61,-2.43l-2.29 -5.18c-0.08,-0.18 -0.26,-0.29 -0.46,-0.27l-6.77 0.57c-0.2,0.02 -0.36,0.16 -0.41,0.35l-1.39 5.49c-2.59,0.84 -4.98,2.09 -7.1,3.67l-5.28 -2.05c-0.19,-0.07 -0.4,-0.02 -0.52,0.13l-4.38 5.19c-0.13,0.15 -0.15,0.37 -0.04,0.54l2.9 4.87c-1.2,2.35 -2.04,4.92 -2.43,7.62l-5.18 2.28c-0.18,0.08 -0.29,0.27 -0.28,0.46l0.57 6.77c0.02,0.2 0.16,0.36 0.35,0.41l5.49 1.39c0.84,2.59 2.09,4.98 3.67,7.1l-2.05 5.28c-0.07,0.19 -0.02,0.39 0.13,0.52l5.19 4.38z"/>
   <path class="fil19" d="M365.26 101.55c-0.24,0.04 -0.49,0.11 -0.73,0.19 -2.67,0.92 -4.09,3.83 -3.17,6.5 0.45,1.29 1.37,2.33 2.59,2.93 1.23,0.6 2.61,0.68 3.9,0.24 1.29,-0.44 2.33,-1.36 2.93,-2.59 0.6,-1.23 0.68,-2.61 0.24,-3.91 -0.84,-2.43 -3.32,-3.82 -5.77,-3.36zm2.2 11.86c-1.46,0.27 -2.96,0.07 -4.31,-0.59 -1.67,-0.81 -2.92,-2.23 -3.52,-3.98 -1.25,-3.62 0.69,-7.59 4.31,-8.84 3.63,-1.24 7.59,0.69 8.84,4.32 0.6,1.76 0.49,3.64 -0.33,5.31 -0.82,1.67 -2.23,2.92 -3.99,3.52 -0.33,0.11 -0.66,0.2 -1,0.26z"/>
   <path class="fil19" d="M369.48 123.48c-0.57,0.11 -1.15,0.18 -1.74,0.23 -1.17,0.1 -2.36,0.08 -3.53,-0.06 -0.05,-0.01 -0.1,-0.01 -0.16,-0.02 -0.41,-0.05 -0.72,-0.36 -0.79,-0.74 -0.02,-0.09 -0.02,-0.19 -0.01,-0.29 0.07,-0.5 0.53,-0.86 1.03,-0.79 1.09,0.14 2.2,0.16 3.3,0.07l0 0c0.06,0 0.12,-0.01 0.18,-0.01 2.59,-0.25 5.03,-1.13 7.14,-2.54 1.15,-0.77 2.19,-1.7 3.12,-2.77l0.02 -0.03c0.02,-0.03 0.04,-0.05 0.07,-0.08 2.67,-3.16 3.94,-7.16 3.6,-11.28 -0.04,-0.53 -0.12,-1.06 -0.21,-1.58 -0.65,-3.49 -2.47,-6.62 -5.22,-8.95 -3.16,-2.67 -7.17,-3.94 -11.28,-3.6 -4.12,0.34 -7.86,2.27 -10.52,5.43 -2.67,3.16 -3.95,7.16 -3.6,11.28 0.04,0.52 0.11,1.05 0.21,1.55 0.42,2.23 1.31,4.34 2.64,6.18 0.08,0.11 0.13,0.24 0.16,0.37 0.06,0.34 -0.07,0.7 -0.37,0.92 -0.41,0.29 -0.99,0.21 -1.28,-0.21 -1.48,-2.06 -2.49,-4.42 -2.95,-6.91 -0.11,-0.58 -0.19,-1.16 -0.24,-1.75 -0.39,-4.61 1.04,-9.09 4.03,-12.62 2.98,-3.53 7.16,-5.69 11.77,-6.08 4.61,-0.38 9.09,1.05 12.62,4.03 3.07,2.59 5.11,6.1 5.84,10.01 0.11,0.58 0.19,1.17 0.24,1.76 0.75,8.92 -5.44,16.85 -14.06,18.47z"/>
   <path class="fil24" d="M217.15 246.38c0,0 -2.77,-7.28 -6,-6.61 -3.23,0.67 -6.77,3.15 -6.77,3.15l-5.19 7.02c0,0 14.57,5.74 19.7,2.45 0,0 14.89,2.57 33.68,-0.51 -2.72,-5.74 -4.34,-11.5 -5.29,-15.96 -9.52,5.39 -19.77,9.41 -30.13,10.47z"/>
   <path class="fil25" d="M296 193.56c0,0 -21.31,26.84 -48.72,42.35 0.95,4.46 2.57,10.22 5.29,15.96 14.22,-2.33 30.67,-7.9 44.62,-20.27l-1.2 -38.04z"/>
   <path class="fil26" d="M335.02 314.29c-4.02,0 -8.17,-0.59 -12.44,-1.76 -4.17,-19.8 -8.33,-31.26 -22.29,-68.78 -4.39,-11.81 -8.38,-23.76 -6.45,-36.2l2.17 -13.98c0,0 12.4,-4.19 29.72,-4.19 8.3,0 17.72,0.96 27.46,3.81 0,0 36.57,15.88 17.19,91.75 -8.09,0.89 -25.45,3.33 -34.77,8.47 -1.04,0.57 -1.73,1.61 -1.86,2.79 -0.13,1.12 -0.11,2.59 0.42,4.03 0.25,0.67 0.9,1.1 1.61,1.1 0.09,0 0.19,-0.01 0.28,-0.02l31.15 -5.04c-0.28,0.9 -0.56,1.82 -0.85,2.73 -9.31,10.41 -19.79,15.31 -31.31,15.31z"/>
   <path class="fil27" d="M300.61 175.71l7.03 16.89c0.44,1.07 1.4,1.83 2.54,2.02 4.05,0.69 13.86,1.78 20.3,-2.45 0.77,-0.5 0.96,-1.55 0.44,-2.3l-12.99 -18.65 -17.32 4.49z"/>
   <path class="fil28" d="M307.88 149.87c-0.29,0.28 -12.46,24.17 -12.46,24.17l13.79 6.66 14.9 -20.94c0,0 -11.28,-14.55 -16.23,-9.9z"/>
   <path class="fil29" d="M317.84 162.28l-6.88 11.47c-0.1,0.17 -0.23,0.33 -0.38,0.47 -0.82,0.76 -3.62,2.98 -5.79,-0.04 -1.85,-2.57 -3.58,-4.91 -5.43,-5.88 -1.08,-0.56 -2.42,-0.11 -2.97,0.98 -1.13,2.25 -3.33,6.82 -4.71,11.17 -0.34,1.09 0.22,2.26 1.28,2.68 2.79,1.13 8.31,3.18 13.21,3.85 0.81,0.11 1.6,-0.23 2.08,-0.88 2.11,-2.89 8.05,-10.95 10.07,-12.97 1.88,-1.88 5.36,-1.17 6.93,-0.72 0.59,0.17 1.23,0.09 1.76,-0.23 1.59,-0.96 4.36,-3.34 1.82,-7.38 -0.63,-1 -0.31,-2.34 0.68,-2.99 1.77,-1.17 3.7,-3.36 1.87,-6.91 -1.86,-3.59 -5.17,-3.91 -7.43,-3.64 -1,0.12 -2.01,-0.4 -2.4,-1.33 -0.17,-0.41 -0.51,-0.77 -1.13,-0.89 -1.18,-0.24 -1.96,-1.32 -1.73,-2.51 0.4,-2.03 0.1,-4.67 -3.15,-6.46 -5.95,-3.27 -11.16,2.06 -12.49,6.56 -1.33,4.5 5.33,7.68 9.51,8.21 3.07,0.39 4.76,3.75 5.44,5.5 0.25,0.64 0.19,1.35 -0.16,1.93z"/>
   <path class="fil30" d="M315.43 176.55c0,0 2.96,-6.96 6.35,-6.68 3.39,0.28 6.05,3.66 1.85,7.45 -5.22,4.72 -8.2,-0.77 -8.2,-0.77z"/>
   <path class="fil31" d="M319.9 486.99c6.55,0.57 17.92,1.49 26.88,1.88 5.39,0.24 8.49,-0.29 10.28,-1 -0,0.2 -0.01,0.39 -0.02,0.57 -0.04,0.94 -0.81,1.7 -1.76,1.75 -16.93,0.95 -30.4,0.33 -35.19,0.04 -0.99,-0.06 -1.58,-1.14 -1.08,-1.98 0.25,-0.42 0.56,-0.84 0.9,-1.25z"/>
   <path class="fil32" d="M346.78 488.87c-8.96,-0.39 -20.33,-1.31 -26.88,-1.88 6.44,-7.9 26.88,-13.23 26.88,-13.23l5.77 0c3.97,5.72 4.54,11.17 4.5,14.1 -1.79,0.72 -4.89,1.24 -10.28,1z"/>
   <path class="fil33" d="M353.53 464.34l-0.54 10.69c-0.06,1.16 -0.93,2.13 -2.08,2.3 -1.15,0.17 -2.7,0.19 -4.34,-0.36 -1.01,-0.34 -1.76,-1.19 -1.94,-2.22l-1.87 -10.41 10.77 0z"/>
   <path class="fil34" d="M428.5 488.79c2.84,-0.4 4.13,-1.87 4.66,-3.45l0.01 0.04c0.42,1.66 -0.55,3.39 -2.49,4.21 -2.34,0.99 -4.9,1.16 -6.89,1.08 -2.13,-0.09 -4.09,-0.97 -5.16,-2.38l-0.02 -0.02c2.14,1.06 5.15,1.18 9.88,0.52z"/>
   <path class="fil35" d="M415.11 464.27l4.76 0c7.25,-0.15 11.81,15.15 13.29,21.07 -0.54,1.58 -1.82,3.05 -4.66,3.45 -4.73,0.66 -7.74,0.54 -9.88,-0.52 -3.92,-5.16 -5.86,-12.71 -6.79,-17.11 -1.06,-5.01 3.28,-6.88 3.28,-6.88z"/>
   <path class="fil36" d="M419.26 454.35l2.64 10.51c0.32,1.29 -0.29,2.62 -1.49,3.23 -1.48,0.76 -3.56,1.56 -5.48,1.33 -0.9,-0.11 -1.64,-0.74 -1.94,-1.59l-3.88 -11.06 10.14 -2.42z"/>
   <path class="fil37" d="M422.42 457.39c-3.29,2.92 -13.99,3.3 -13.99,3.3 -38.53,-92.49 -54.6,-117.95 -54.6,-117.95 5.57,34.91 1.2,124.52 1.2,124.52 -6.36,2.8 -14.56,0 -14.56,0 -0.52,-57.15 -8.56,-118.56 -18.94,-157.86 26.05,-0.59 40.2,-6.26 44.72,-9.84 21.71,35 56.16,157.83 56.16,157.83z"/>
   <path class="fil38" d="M314.97 335.25l4.79 29.81c0.84,5.2 5.65,8.8 10.9,8.16l71.73 -8.75c3.51,-0.43 6.17,-3.36 6.24,-6.88 0.16,-7.7 -0.15,-21.41 -3.38,-33.9l-90.28 11.55z"/>
   <path class="fil39" d="M397.32 324.91c-0.1,0 -0.19,-0.08 -0.21,-0.18 -0.01,-0.11 0.07,-0.22 0.18,-0.23l1.62 -0.21c0.13,-0.01 0.21,0.07 0.23,0.18 0.02,0.11 -0.06,0.22 -0.17,0.23l-1.62 0.21 -0.03 0zm6.07 0.5c-0.09,0 -0.17,-0.06 -0.2,-0.16 -0.09,-0.36 -0.17,-0.71 -0.26,-1.06l-0.18 0.02c-0.12,0.02 -0.21,-0.07 -0.23,-0.18 -0.02,-0.11 0.06,-0.22 0.17,-0.23l0.54 -0.07 0.04 0.18c0.11,0.41 0.21,0.82 0.31,1.24 0.03,0.11 -0.04,0.22 -0.15,0.25 -0.02,0 -0.03,0.01 -0.05,0.01zm-11.48 0.19c-0.1,0 -0.19,-0.08 -0.21,-0.18 -0.01,-0.11 0.07,-0.22 0.18,-0.23l1.62 -0.21c0.13,-0.01 0.21,0.07 0.23,0.18 0.02,0.11 -0.06,0.22 -0.17,0.23l-1.62 0.21 -0.03 0zm-5.41 0.69c-0.1,0 -0.19,-0.08 -0.21,-0.18 -0.01,-0.11 0.07,-0.21 0.18,-0.23l1.62 -0.21c0.13,-0.02 0.21,0.07 0.23,0.18 0.01,0.11 -0.06,0.22 -0.17,0.23l-1.63 0.21 -0.02 0zm-5.41 0.69c-0.1,0 -0.19,-0.08 -0.2,-0.18 -0.01,-0.11 0.06,-0.22 0.18,-0.23l1.62 -0.21c0.13,-0.02 0.21,0.07 0.23,0.18 0.01,0.11 -0.06,0.22 -0.17,0.23l-1.63 0.21 -0.03 0zm-5.4 0.69c-0.1,0 -0.19,-0.07 -0.21,-0.18 -0.01,-0.11 0.07,-0.21 0.18,-0.23l1.62 -0.21c0.13,-0.01 0.21,0.07 0.23,0.18 0.02,0.11 -0.06,0.22 -0.18,0.23l-1.62 0.21 -0.02 0zm-5.41 0.69c-0.1,0 -0.19,-0.07 -0.2,-0.18 -0.01,-0.11 0.07,-0.21 0.17,-0.23l1.63 -0.21c0.13,-0.01 0.21,0.07 0.23,0.18 0.01,0.11 -0.06,0.22 -0.17,0.23l-1.63 0.21 -0.03 0zm-5.41 0.69c-0.1,0 -0.19,-0.08 -0.2,-0.18 -0.01,-0.11 0.07,-0.21 0.18,-0.23l1.62 -0.21c0.13,-0.01 0.21,0.07 0.23,0.18 0.01,0.11 -0.07,0.21 -0.17,0.23l-1.63 0.21 -0.03 0zm-5.41 0.69c-0.1,0 -0.19,-0.07 -0.2,-0.18 -0.02,-0.11 0.06,-0.21 0.18,-0.23l1.62 -0.21c0.13,-0.02 0.21,0.07 0.23,0.18 0.01,0.11 -0.07,0.22 -0.18,0.23l-1.62 0.21 -0.02 0zm-5.41 0.69c-0.1,0 -0.19,-0.08 -0.2,-0.18 -0.01,-0.11 0.07,-0.21 0.18,-0.23l1.62 -0.21c0.13,-0.02 0.21,0.07 0.23,0.18 0.01,0.11 -0.07,0.21 -0.18,0.23l-1.62 0.21 -0.03 0zm50.46 0.3c-0.1,0 -0.18,-0.07 -0.2,-0.17 -0.1,-0.54 -0.2,-1.07 -0.3,-1.61 -0.02,-0.11 0.05,-0.22 0.16,-0.24 0.11,-0.02 0.22,0.05 0.24,0.16 0.1,0.54 0.21,1.07 0.3,1.61 0.02,0.11 -0.05,0.22 -0.17,0.24l-0.04 0zm-55.87 0.39c-0.1,0 -0.19,-0.08 -0.2,-0.18 -0.01,-0.11 0.07,-0.21 0.18,-0.23l1.62 -0.21c0.13,-0.01 0.22,0.07 0.23,0.18 0.01,0.11 -0.07,0.21 -0.18,0.23l-1.62 0.21 -0.03 0zm-5.41 0.69c-0.1,0 -0.19,-0.08 -0.2,-0.18 -0.01,-0.11 0.07,-0.22 0.18,-0.23l1.62 -0.21c0.13,-0.01 0.22,0.07 0.23,0.18 0.01,0.11 -0.07,0.21 -0.18,0.23l-1.62 0.21 -0.03 0zm-5.41 0.69c-0.1,0 -0.19,-0.08 -0.2,-0.18 -0.02,-0.11 0.07,-0.22 0.18,-0.23l1.62 -0.21c0.13,-0.01 0.21,0.07 0.23,0.18 0.02,0.11 -0.07,0.21 -0.18,0.23l-1.62 0.21 -0.02 0zm-5.41 0.69c-0.1,0 -0.19,-0.08 -0.2,-0.18 -0.01,-0.11 0.07,-0.22 0.18,-0.23l1.62 -0.21c0.12,-0.01 0.22,0.07 0.23,0.18 0.01,0.11 -0.07,0.21 -0.18,0.23l-1.62 0.21 -0.03 0zm-5.41 0.69c-0.1,0 -0.19,-0.08 -0.2,-0.18 -0.01,-0.11 0.07,-0.22 0.18,-0.23l1.62 -0.21c0.13,-0.02 0.22,0.07 0.23,0.18 0.01,0.11 -0.07,0.21 -0.18,0.23l-1.62 0.21 -0.03 0zm-5.41 0.69c-0.1,0 -0.19,-0.08 -0.2,-0.18 -0.02,-0.11 0.07,-0.22 0.18,-0.23l1.62 -0.21c0.13,-0.02 0.22,0.07 0.23,0.18 0.01,0.11 -0.07,0.22 -0.18,0.23l-1.62 0.21 -0.02 0zm83.73 1.54c-0.1,0 -0.19,-0.08 -0.21,-0.18 -0.07,-0.54 -0.14,-1.08 -0.21,-1.62 -0.02,-0.11 0.06,-0.21 0.17,-0.23 0.1,-0.02 0.21,0.06 0.23,0.17 0.08,0.54 0.15,1.08 0.21,1.62 0.02,0.11 -0.07,0.21 -0.18,0.23l-0.02 0zm-87.89 0.64c-0.1,0 -0.19,-0.07 -0.2,-0.17l-0.29 -1.82 0.84 -0.11c0.13,-0.01 0.21,0.07 0.23,0.18 0.01,0.11 -0.06,0.21 -0.18,0.23l-0.42 0.05 0.23 1.41c0.02,0.11 -0.06,0.22 -0.17,0.23l-0.03 0zm88.44 4.78c-0.11,0 -0.2,-0.08 -0.21,-0.19 -0.04,-0.54 -0.09,-1.08 -0.14,-1.63 -0.01,-0.11 0.07,-0.21 0.18,-0.22 0.12,-0.01 0.21,0.07 0.22,0.19 0.05,0.55 0.1,1.09 0.14,1.63 0.01,0.11 -0.07,0.21 -0.18,0.22l-0.02 0zm-87.57 0.6c-0.1,0 -0.19,-0.07 -0.2,-0.17l-0.26 -1.62c-0.02,-0.11 0.06,-0.22 0.17,-0.24 0.11,-0.02 0.22,0.06 0.23,0.17l0.26 1.62c0.02,0.11 -0.06,0.22 -0.17,0.23l-0.03 0zm87.9 4.85c-0.11,0 -0.2,-0.09 -0.2,-0.2 -0.03,-0.54 -0.05,-1.08 -0.08,-1.63 -0,-0.11 0.08,-0.21 0.19,-0.22 0.13,-0.01 0.21,0.08 0.21,0.19 0.03,0.55 0.06,1.1 0.08,1.64 0,0.11 -0.08,0.21 -0.2,0.21l-0.01 0zm-87.04 0.54c-0.1,0 -0.19,-0.07 -0.2,-0.17l-0.26 -1.62c-0.02,-0.11 0.06,-0.22 0.17,-0.23 0.12,-0.02 0.22,0.06 0.24,0.17l0.26 1.61c0.02,0.11 -0.06,0.22 -0.17,0.24l-0.03 0zm87.17 4.92c-0.11,0 -0.2,-0.09 -0.2,-0.2 -0,-0.53 -0.01,-1.07 -0.02,-1.63 0,-0.11 0.09,-0.21 0.21,-0.21 0.11,-0.02 0.2,0.09 0.21,0.2 0.01,0.56 0.01,1.11 0.02,1.64 0,0.11 -0.09,0.21 -0.2,0.21l-0 0zm-86.3 0.47c-0.1,0 -0.19,-0.07 -0.2,-0.17l-0.26 -1.62c-0.02,-0.11 0.06,-0.22 0.17,-0.23 0.11,-0.02 0.22,0.06 0.23,0.17l0.26 1.62c0.02,0.11 -0.06,0.22 -0.17,0.23l-0.03 0zm86.08 4.97c-0.01,0 -0.03,-0 -0.05,-0.01 -0.11,-0.03 -0.17,-0.14 -0.15,-0.25 0.12,-0.46 0.17,-0.94 0.19,-1.43l0 -0.15c0,-0.11 0.09,-0.2 0.21,-0.2l0 0c0.11,0 0.2,0.1 0.2,0.21l-0 0.15c-0.01,0.51 -0.08,1.02 -0.2,1.52 -0.03,0.09 -0.11,0.16 -0.2,0.16zm-85.22 0.41c-0.1,0 -0.19,-0.07 -0.2,-0.17l-0.26 -1.61c-0.02,-0.11 0.06,-0.22 0.17,-0.23 0.12,-0.02 0.22,0.06 0.24,0.17l0.26 1.61c0.02,0.11 -0.06,0.22 -0.17,0.23l-0.03 0zm82.02 3.81c-0.07,0 -0.14,-0.04 -0.17,-0.1 -0.06,-0.1 -0.02,-0.22 0.08,-0.28 0.46,-0.26 0.88,-0.58 1.27,-0.94 0.08,-0.08 0.21,-0.07 0.29,0.01 0.08,0.08 0.07,0.21 -0.01,0.29 -0.41,0.39 -0.86,0.73 -1.35,1 -0.03,0.02 -0.07,0.03 -0.1,0.03zm-5.28 1.18c-0.1,0 -0.19,-0.08 -0.2,-0.18 -0.01,-0.11 0.07,-0.21 0.18,-0.23l1.62 -0.2c0.12,-0.02 0.22,0.07 0.23,0.18 0.01,0.11 -0.06,0.21 -0.17,0.23l-1.63 0.2 -0.03 0zm-75.87 0.39c-0.1,0 -0.18,-0.07 -0.2,-0.17l-0.26 -1.62c-0.02,-0.11 0.06,-0.22 0.17,-0.23 0.11,-0.02 0.22,0.06 0.23,0.17l0.26 1.61c0.02,0.11 -0.05,0.22 -0.17,0.24l-0.04 0zm70.46 0.27c-0.1,0 -0.19,-0.08 -0.2,-0.18 -0.01,-0.11 0.07,-0.21 0.18,-0.23l1.63 -0.2c0.11,-0.01 0.21,0.07 0.22,0.18 0.01,0.11 -0.06,0.21 -0.18,0.23l-1.62 0.2 -0.03 0zm-5.41 0.66c-0.1,0 -0.19,-0.08 -0.21,-0.18 -0.01,-0.11 0.07,-0.21 0.18,-0.23l1.62 -0.2c0.12,-0.01 0.22,0.07 0.23,0.18 0.02,0.11 -0.06,0.22 -0.17,0.23l-1.63 0.2 -0.02 0zm-5.41 0.66c-0.1,0 -0.19,-0.08 -0.21,-0.18 -0.01,-0.11 0.07,-0.22 0.18,-0.23l1.62 -0.2c0.12,-0.02 0.22,0.07 0.23,0.18 0.02,0.11 -0.06,0.22 -0.17,0.23l-1.63 0.2 -0.02 0zm-5.41 0.66c-0.1,0 -0.19,-0.08 -0.21,-0.18 -0.01,-0.11 0.07,-0.21 0.18,-0.23l1.62 -0.2c0.12,-0.02 0.22,0.07 0.23,0.18 0.02,0.11 -0.06,0.22 -0.17,0.23l-1.63 0.2 -0.02 0zm-5.41 0.66c-0.1,0 -0.19,-0.08 -0.21,-0.18 -0.01,-0.11 0.07,-0.22 0.18,-0.23l1.63 -0.2c0.12,-0.01 0.21,0.07 0.23,0.18 0.01,0.11 -0.07,0.21 -0.18,0.23l-1.63 0.2 -0.02 0zm-5.41 0.66c-0.1,0 -0.19,-0.08 -0.2,-0.18 -0.01,-0.11 0.07,-0.21 0.18,-0.23l1.63 -0.2c0.11,-0.02 0.21,0.07 0.23,0.18 0.01,0.11 -0.07,0.22 -0.18,0.23l-1.62 0.2 -0.02 0zm-5.41 0.66c-0.1,0 -0.19,-0.08 -0.2,-0.18 -0.01,-0.11 0.07,-0.21 0.18,-0.23l1.62 -0.2c0.12,-0.02 0.22,0.07 0.23,0.18 0.01,0.11 -0.07,0.21 -0.18,0.23l-1.62 0.2 -0.02 0zm-35.54 0.56c-0.05,0 -0.11,-0.02 -0.15,-0.06 -0.39,-0.4 -0.74,-0.84 -1.05,-1.3 -0.06,-0.09 -0.04,-0.22 0.06,-0.28 0.09,-0.07 0.22,-0.04 0.28,0.05 0.3,0.44 0.63,0.86 1,1.25 0.08,0.08 0.08,0.21 -0,0.29 -0.04,0.04 -0.09,0.06 -0.14,0.06zm30.13 0.1c-0.1,0 -0.19,-0.08 -0.2,-0.18 -0.01,-0.11 0.07,-0.21 0.18,-0.23l1.62 -0.2c0.12,-0.01 0.22,0.07 0.23,0.18 0.01,0.11 -0.07,0.21 -0.18,0.23l-1.62 0.2 -0.02 0zm-5.41 0.66c-0.1,0 -0.19,-0.08 -0.2,-0.18 -0.01,-0.11 0.07,-0.22 0.18,-0.23l1.62 -0.2c0.12,-0.02 0.22,0.07 0.23,0.18 0.01,0.11 -0.07,0.21 -0.18,0.23l-1.62 0.2 -0.02 0zm-5.41 0.66c-0.1,0 -0.19,-0.08 -0.2,-0.18 -0.01,-0.11 0.07,-0.22 0.18,-0.23l1.62 -0.2c0.12,-0.02 0.22,0.07 0.23,0.18 0.01,0.11 -0.07,0.22 -0.18,0.23l-1.62 0.2 -0.02 0zm-5.41 0.66c-0.1,0 -0.19,-0.08 -0.2,-0.18 -0.01,-0.11 0.07,-0.22 0.18,-0.23l1.62 -0.2c0.11,-0.01 0.21,0.07 0.23,0.18 0.01,0.11 -0.07,0.21 -0.18,0.23l-1.62 0.2 -0.02 0zm-9.21 0.57l-0.04 -0.01c-0.54,-0.12 -1.08,-0.29 -1.59,-0.51 -0.1,-0.04 -0.15,-0.16 -0.11,-0.27 0.05,-0.1 0.17,-0.15 0.27,-0.11 0.49,0.21 1,0.37 1.52,0.49 0.11,0.02 0.18,0.13 0.15,0.25 -0.02,0.09 -0.11,0.16 -0.2,0.16zm3.79 0.09c-0.1,0 -0.19,-0.08 -0.2,-0.18 -0.01,-0.11 0.07,-0.22 0.18,-0.23l1.62 -0.2c0.12,-0.02 0.22,0.07 0.23,0.18 0.01,0.11 -0.07,0.21 -0.18,0.23l-1.62 0.2 -0.02 0z"/>
   <path class="fil40" d="M333.19 310.83l-0.08 -2.34c0.17,-0.58 0.63,-1.04 1.21,-1.21 2.19,-0.64 7.65,-1.97 10.57,-0.32l0.74 2.63 -12.44 1.24z"/>
   <path class="fil41" d="M339.88 307.72c-0.5,0.19 -1.01,0.26 -1.55,0.2 -0.64,-0.07 -1.16,-0.58 -1.24,-1.22l-0.93 -7.23 3.68 -0.47 0.92 7.22c0.08,0.64 -0.29,1.26 -0.89,1.5z"/>
   <path class="fil42" d="M368.82 306.27l-0.08 -2.34c0.17,-0.58 0.63,-1.04 1.21,-1.21 2.19,-0.64 7.64,-1.97 10.57,-0.32l0.74 2.63 -12.44 1.24z"/>
   <path class="fil43" d="M375.51 303.16c-0.5,0.19 -1.01,0.26 -1.55,0.2 -0.64,-0.07 -1.16,-0.58 -1.24,-1.22l-1.02 -7.99 3.68 -0.47 1.02 7.98c0.09,0.64 -0.29,1.26 -0.89,1.5z"/>
   <path class="fil44" d="M335.75 301.31c-0.7,0 -1.35,-0.43 -1.61,-1.1 -0.53,-1.43 -0.54,-2.91 -0.42,-4.03 0.13,-1.18 0.82,-2.21 1.86,-2.79 9.32,-5.14 26.69,-7.57 34.77,-8.47 0.44,-0.05 0.86,-0.09 1.25,-0.13 0.16,-0.02 0.32,-0.02 0.48,-0.02 2.04,0 3.87,1.33 4.44,3.32 0.53,1.89 0.58,3.76 0.52,5.03 -0.04,0.91 -0.72,1.65 -1.63,1.8l-8.24 1.33 -31.15 5.04c-0.09,0.02 -0.19,0.02 -0.28,0.02zm10.59 -11.18c-0.03,0 -0.05,0 -0.08,0.01 -3.47,0.54 -7.58,2.2 -9.71,3.13 -1.17,0.51 -2,1.61 -2.17,2.86 -0.21,1.55 0.14,3.08 0.15,3.15 0.06,0.25 0.28,0.42 0.53,0.42 0.04,0 0.08,-0 0.13,-0.01 0.29,-0.07 0.48,-0.36 0.41,-0.65 -0,-0.01 -0.32,-1.4 -0.13,-2.75 0.12,-0.88 0.71,-1.65 1.53,-2.01 1.68,-0.74 5.97,-2.51 9.44,-3.05 0.3,-0.05 0.5,-0.33 0.45,-0.62 -0.04,-0.27 -0.28,-0.46 -0.54,-0.46z"/>
   <path class="fil45" d="M335.06 299.69c-0.25,0 -0.47,-0.17 -0.53,-0.42 -0.01,-0.06 -0.36,-1.6 -0.15,-3.15 0.17,-1.25 1,-2.35 2.17,-2.86 2.13,-0.94 6.24,-2.59 9.71,-3.13 0.03,-0 0.05,-0.01 0.08,-0.01 0.27,0 0.5,0.19 0.54,0.46 0.05,0.3 -0.16,0.58 -0.45,0.62 -3.48,0.54 -7.76,2.31 -9.44,3.05 -0.82,0.36 -1.41,1.13 -1.53,2.01 -0.19,1.35 0.13,2.74 0.13,2.75 0.07,0.29 -0.12,0.59 -0.41,0.65 -0.04,0.01 -0.08,0.01 -0.13,0.01z"/>
   <path class="fil46" d="M314.72 312.28c12.76,-1.8 67.97,-9.46 84.28,-9.57 1.41,-0.01 2.66,0.86 3.14,2.17 1.5,4.17 4.68,13.89 5.72,23.8 0.14,1.35 -0.7,2.61 -2,3.03l-35.77 11.63 -13.02 1.67 -40.05 -2.77c-1.41,-0.1 -2.58,-1.13 -2.83,-2.52 -0.89,-4.94 -2.78,-16.55 -2.4,-24.23 0.08,-1.63 1.3,-2.98 2.93,-3.21z"/>
   <path class="fil47" d="M392.78 306.37c-0.11,0 -0.2,-0.08 -0.21,-0.19 -0,-0.11 0.08,-0.21 0.19,-0.22 0.57,-0.04 1.11,-0.07 1.63,-0.1 0.12,-0.02 0.21,0.08 0.21,0.19 0.01,0.11 -0.08,0.21 -0.19,0.22 -0.52,0.03 -1.06,0.06 -1.63,0.1l-0.01 0zm-5.44 0.42c-0.1,0 -0.19,-0.08 -0.2,-0.19 -0.01,-0.11 0.07,-0.21 0.19,-0.22 0.56,-0.05 1.1,-0.09 1.63,-0.14 0.11,-0.01 0.21,0.07 0.22,0.19 0.01,0.11 -0.08,0.21 -0.19,0.22 -0.53,0.04 -1.07,0.09 -1.63,0.14l-0.02 0zm12.03 0.03c-0.09,0 -0.16,-0.05 -0.19,-0.14l-0.21 -0.59c-0.24,0 -0.49,0.01 -0.75,0.01l-0 0c-0.11,0 -0.2,-0.09 -0.2,-0.2 -0,-0.11 0.08,-0.21 0.2,-0.21 0.28,-0.01 0.55,-0.01 0.8,-0.01 0.14,0 0.26,0.08 0.31,0.2l0.24 0.66c0.04,0.11 -0.02,0.22 -0.12,0.26 -0.03,0.01 -0.04,0.01 -0.07,0.01zm-17.46 0.47c-0.11,0 -0.19,-0.08 -0.21,-0.19 -0.01,-0.11 0.07,-0.21 0.18,-0.22l1.63 -0.16c0.12,-0.02 0.21,0.07 0.22,0.18 0.01,0.11 -0.07,0.21 -0.18,0.22l-1.63 0.16 -0.02 0zm-5.43 0.55c-0.1,0 -0.19,-0.08 -0.21,-0.18 -0.01,-0.11 0.07,-0.21 0.18,-0.22l1.63 -0.17c0.13,-0 0.21,0.07 0.23,0.18 0.01,0.11 -0.07,0.21 -0.18,0.22l-1.63 0.17 -0.02 0zm-5.42 0.59c-0.1,0 -0.19,-0.08 -0.21,-0.18 -0.01,-0.11 0.07,-0.21 0.18,-0.23l1.63 -0.18c0.12,-0.01 0.21,0.07 0.23,0.18 0.01,0.11 -0.07,0.21 -0.18,0.23l-1.63 0.18 -0.02 0zm-5.42 0.62c-0.1,0 -0.19,-0.08 -0.2,-0.18 -0.01,-0.11 0.07,-0.21 0.18,-0.23l1.63 -0.19c0.12,-0.02 0.21,0.07 0.22,0.18 0.02,0.11 -0.07,0.21 -0.17,0.23l-1.63 0.19 -0.02 0zm-5.42 0.64c-0.1,0 -0.19,-0.08 -0.2,-0.18 -0.01,-0.11 0.07,-0.21 0.18,-0.23l1.62 -0.19c0.12,-0.02 0.21,0.07 0.23,0.18 0.01,0.11 -0.07,0.21 -0.18,0.23l-1.63 0.19 -0.02 0zm-5.41 0.66c-0.1,0 -0.19,-0.08 -0.2,-0.18 -0.01,-0.11 0.07,-0.21 0.18,-0.23l1.62 -0.2c0.12,-0.02 0.21,0.07 0.23,0.18 0.01,0.11 -0.07,0.21 -0.18,0.23l-1.62 0.2 -0.02 0zm-5.41 0.68c-0.1,0 -0.19,-0.08 -0.2,-0.18 -0.01,-0.11 0.07,-0.21 0.18,-0.23l1.62 -0.2c0.11,-0.02 0.22,0.07 0.23,0.18 0.01,0.11 -0.07,0.22 -0.18,0.23l-1.62 0.21 -0.03 0zm-5.41 0.69c-0.1,0 -0.19,-0.07 -0.2,-0.18 -0.01,-0.11 0.07,-0.21 0.18,-0.23l1.62 -0.21c0.11,-0.01 0.22,0.07 0.23,0.18 0.01,0.11 -0.06,0.21 -0.18,0.23l-1.62 0.21 -0.03 0zm57.07 0.27c-0.09,0 -0.17,-0.06 -0.2,-0.15 -0.17,-0.54 -0.33,-1.06 -0.48,-1.56 -0.04,-0.11 0.02,-0.22 0.13,-0.26 0.11,-0.04 0.22,0.03 0.26,0.13 0.16,0.5 0.32,1.02 0.48,1.57 0.03,0.11 -0.03,0.22 -0.14,0.25 -0.02,0.01 -0.04,0.01 -0.06,0.01zm-62.47 0.44c-0.1,0 -0.19,-0.07 -0.2,-0.18 -0.01,-0.11 0.06,-0.21 0.18,-0.23l1.62 -0.21c0.11,-0.01 0.22,0.07 0.23,0.18 0.01,0.11 -0.07,0.22 -0.18,0.23l-1.62 0.21 -0.03 0zm-5.41 0.72c-0.1,0 -0.19,-0.07 -0.2,-0.18 -0.01,-0.11 0.06,-0.22 0.18,-0.23l1.62 -0.22c0.12,-0.02 0.22,0.07 0.23,0.18 0.01,0.11 -0.07,0.22 -0.18,0.23l-1.62 0.22 -0.03 0zm-5.41 0.73c-0.1,0 -0.19,-0.07 -0.2,-0.18 -0.02,-0.11 0.06,-0.21 0.17,-0.23l1.62 -0.22c0.11,-0.01 0.22,0.06 0.23,0.18 0.01,0.11 -0.06,0.22 -0.18,0.23l-1.62 0.22 -0.03 0zm-5.41 0.74c-0.1,0 -0.19,-0.07 -0.2,-0.18 -0.02,-0.11 0.06,-0.22 0.18,-0.23l1.62 -0.22c0.11,-0.02 0.22,0.06 0.23,0.17 0.02,0.11 -0.06,0.22 -0.17,0.23l-1.62 0.22 -0.03 0zm-5.4 0.75c-0.1,0 -0.19,-0.07 -0.2,-0.18 -0.02,-0.11 0.06,-0.22 0.18,-0.23l1.62 -0.23c0.11,-0.02 0.22,0.06 0.23,0.18 0.02,0.11 -0.06,0.22 -0.18,0.23l-1.62 0.23 -0.03 0zm85.55 1.88c-0.09,0 -0.18,-0.06 -0.2,-0.16 -0.13,-0.54 -0.27,-1.07 -0.41,-1.58 -0.03,-0.11 0.04,-0.22 0.14,-0.25 0.11,-0.03 0.22,0.03 0.25,0.14 0.14,0.52 0.28,1.05 0.41,1.59 0.03,0.11 -0.04,0.22 -0.15,0.25 -0.02,0.01 -0.04,0.01 -0.05,0.01zm-87.56 1.91c-0.11,0 -0.2,-0.09 -0.2,-0.2 -0.01,-0.44 -0.02,-0.88 -0.02,-1.31l0 -0.34c0,-0.11 0.09,-0.2 0.2,-0.2l0 0c0.11,0 0.2,0.09 0.2,0.21l0 0.33c0,0.42 0.01,0.86 0.02,1.3 0,0.11 -0.09,0.21 -0.2,0.21l-0.01 0zm88.75 3.41c-0.1,0 -0.18,-0.07 -0.2,-0.17 -0.11,-0.54 -0.21,-1.07 -0.33,-1.6 -0.02,-0.11 0.05,-0.22 0.16,-0.24 0.11,-0.02 0.22,0.05 0.24,0.16 0.11,0.53 0.22,1.07 0.33,1.61 0.02,0.11 -0.05,0.22 -0.16,0.24l-0.04 0zm-88.42 2.03c-0.1,0 -0.19,-0.08 -0.2,-0.19 -0.05,-0.55 -0.1,-1.09 -0.14,-1.63 -0.01,-0.11 0.08,-0.21 0.19,-0.22 0.13,0.01 0.21,0.08 0.22,0.19 0.04,0.54 0.09,1.08 0.13,1.63 0.01,0.11 -0.07,0.21 -0.19,0.22l-0.02 0zm89.28 3.35c-0.1,0 -0.19,-0.08 -0.2,-0.18 -0.07,-0.54 -0.14,-1.08 -0.22,-1.62 -0.02,-0.11 0.06,-0.22 0.17,-0.23 0.12,-0.02 0.22,0.06 0.24,0.17 0.08,0.54 0.15,1.08 0.22,1.63 0.01,0.11 -0.07,0.21 -0.18,0.23l-0.03 0zm-88.67 2.07c-0.1,0 -0.19,-0.07 -0.2,-0.18 -0.07,-0.54 -0.14,-1.08 -0.2,-1.63 -0.01,-0.11 0.07,-0.21 0.18,-0.23 0.11,-0.01 0.22,0.07 0.23,0.18 0.07,0.55 0.13,1.09 0.2,1.62 0.02,0.11 -0.06,0.22 -0.17,0.23l-0.03 0zm84.53 0.29c-0.09,0 -0.17,-0.06 -0.19,-0.14 -0.04,-0.11 0.02,-0.22 0.13,-0.26l1.55 -0.51c0.11,-0.04 0.22,0.02 0.26,0.13 0.04,0.11 -0.02,0.22 -0.13,0.26l-1.55 0.51c-0.02,0.01 -0.04,0.01 -0.06,0.01zm-5.19 1.68c-0.09,0 -0.17,-0.05 -0.2,-0.14 -0.04,-0.11 0.03,-0.22 0.13,-0.26l1.55 -0.51c0.11,-0.04 0.22,0.02 0.26,0.13 0.04,0.11 -0.03,0.22 -0.13,0.26l-1.55 0.5c-0.02,0.01 -0.04,0.01 -0.06,0.01zm-5.19 1.69c-0.08,0 -0.17,-0.06 -0.19,-0.14 -0.04,-0.11 0.03,-0.22 0.13,-0.26l1.56 -0.51c0.11,-0.03 0.22,0.02 0.25,0.13 0.04,0.11 -0.02,0.22 -0.13,0.26l-1.55 0.51c-0.02,0.01 -0.04,0.01 -0.07,0.01zm-5.18 1.69c-0.09,0 -0.17,-0.06 -0.2,-0.14 -0.04,-0.11 0.03,-0.22 0.13,-0.26l1.56 -0.51c0.11,-0.03 0.22,0.02 0.25,0.13 0.04,0.11 -0.02,0.22 -0.13,0.26l-1.55 0.51c-0.02,0.01 -0.04,0.01 -0.06,0.01zm-68.19 0.06c-0.1,0 -0.19,-0.07 -0.2,-0.17 -0.08,-0.52 -0.17,-1.06 -0.25,-1.62 -0.02,-0.11 0.06,-0.22 0.17,-0.23 0.12,-0.01 0.22,0.06 0.23,0.17 0.08,0.56 0.17,1.1 0.25,1.62 0.02,0.11 -0.06,0.22 -0.17,0.23l-0.03 0zm63 1.63c-0.09,0 -0.17,-0.06 -0.2,-0.14 -0.04,-0.11 0.02,-0.22 0.13,-0.26l1.56 -0.51c0.11,-0.03 0.22,0.02 0.25,0.13 0.04,0.11 -0.02,0.22 -0.13,0.26l-1.56 0.51c-0.02,0.01 -0.04,0.01 -0.06,0.01zm-5.19 1.68c-0.08,0 -0.17,-0.05 -0.19,-0.14 -0.04,-0.11 0.02,-0.22 0.13,-0.26l1.55 -0.51c0.11,-0.03 0.22,0.02 0.26,0.13 0.04,0.11 -0.02,0.22 -0.13,0.26l-1.55 0.51c-0.02,0.01 -0.04,0.01 -0.07,0.01zm-55.58 0.61l-0.01 -0 -1.74 -0.12 -0.03 -0.16c-0.02,-0.11 0.05,-0.24 0.16,-0.26 0.06,-0.01 0.12,-0 0.16,0.03l1.48 0.1c0.11,0.01 0.2,0.11 0.19,0.22 -0.01,0.11 -0.1,0.19 -0.2,0.19zm5.44 0.38l-0.01 -0 -1.63 -0.11c-0.11,-0.01 -0.2,-0.11 -0.19,-0.22 0.01,-0.11 0.11,-0.19 0.22,-0.19l1.63 0.11c0.11,0.01 0.2,0.11 0.19,0.22 -0.01,0.11 -0.1,0.19 -0.2,0.19zm5.44 0.37l-0.01 0 -1.63 -0.11c-0.11,-0.01 -0.2,-0.1 -0.19,-0.22 0.01,-0.11 0.11,-0.19 0.22,-0.19l1.63 0.11c0.11,0.01 0.2,0.11 0.19,0.22 -0.01,0.11 -0.1,0.19 -0.2,0.19zm39.51 0.3c-0.1,0 -0.19,-0.08 -0.2,-0.18 -0.01,-0.11 0.06,-0.22 0.18,-0.23l0.1 -0.01 1.42 -0.46c0.11,-0.03 0.22,0.02 0.26,0.13 0.04,0.11 -0.02,0.22 -0.13,0.26l-1.6 0.49 -0.03 0zm-34.07 0.07l-0.01 0 -1.63 -0.11c-0.11,-0.01 -0.2,-0.11 -0.19,-0.22 0.01,-0.11 0.11,-0.18 0.22,-0.19l1.63 0.11c0.11,0.01 0.2,0.1 0.19,0.22 -0.01,0.11 -0.1,0.19 -0.2,0.19zm5.44 0.38l-0.01 -0 -1.63 -0.11c-0.11,-0.01 -0.2,-0.11 -0.19,-0.22 0.01,-0.11 0.11,-0.18 0.22,-0.19l1.63 0.11c0.11,0.01 0.2,0.11 0.19,0.22 -0.01,0.11 -0.1,0.19 -0.21,0.19zm23.22 0.24c-0.1,0 -0.19,-0.08 -0.2,-0.18 -0.02,-0.11 0.06,-0.21 0.18,-0.23l1.62 -0.21c0.13,-0.02 0.22,0.07 0.23,0.18 0.01,0.11 -0.07,0.21 -0.18,0.23l-1.62 0.21 -0.03 0zm-17.78 0.13l-0.01 0 -1.63 -0.11c-0.11,-0.01 -0.2,-0.11 -0.19,-0.22 0.01,-0.11 0.12,-0.18 0.22,-0.19l1.63 0.11c0.11,0.01 0.2,0.11 0.19,0.22 -0.01,0.11 -0.1,0.19 -0.2,0.19zm5.44 0.38l-0.01 0 -1.63 -0.11c-0.11,-0.01 -0.2,-0.1 -0.19,-0.22 0.01,-0.11 0.11,-0.18 0.22,-0.19l1.63 0.11c0.11,0.01 0.2,0.11 0.19,0.22 -0.01,0.11 -0.1,0.19 -0.2,0.19zm6.93 0.19c-0.1,0 -0.19,-0.08 -0.2,-0.18 -0.02,-0.11 0.06,-0.21 0.18,-0.23l1.62 -0.21c0.13,-0.02 0.22,0.07 0.23,0.18 0.01,0.11 -0.07,0.21 -0.18,0.23l-1.62 0.21 -0.03 0zm-1.49 0.19l-0.01 0 -1.63 -0.11c-0.11,-0.01 -0.2,-0.11 -0.19,-0.22 0.01,-0.11 0.11,-0.18 0.22,-0.19l1.63 0.11c0.11,0.01 0.2,0.1 0.19,0.22 -0.01,0.11 -0.1,0.19 -0.2,0.19z"/>
   <path class="fil48" d="M369.57 348.96l-11.41 1.46c-1.49,0.19 -2.9,-0.76 -3.26,-2.21l-2.72 -10.81c-0.43,-1.72 0.74,-3.44 2.51,-3.66l13.7 -1.75c1.73,-0.22 3.28,1.08 3.35,2.82l0.42 11.1c0.06,1.53 -1.07,2.86 -2.6,3.06z"/>
   <path class="fil49" d="M367.91 347.12l-8.68 1.11c-1.14,0.14 -2.2,-0.58 -2.48,-1.69l-2.07 -8.23c-0.33,-1.31 0.56,-2.61 1.91,-2.79l10.43 -1.34c1.32,-0.17 2.5,0.82 2.55,2.15l0.32 8.45c0.04,1.17 -0.81,2.18 -1.97,2.32z"/>
   <path class="fil50" d="M361.12 259.64c2.69,11.12 2.76,22 2.35,25.96 -0.16,1.49 -1.35,2.66 -2.85,2.76 -1.7,0.12 -4.02,0.28 -6.08,0.39 -2.27,0.13 -4.8,-1.31 -6.49,-2.51 -0.86,-0.61 -1.98,0.34 -1.5,1.28 0.83,1.62 2.27,2.9 3.7,3.99 0.86,0.65 3.72,1.82 3.52,3.1 -0.06,0.41 -0.31,0.76 -0.57,1.08 -1.59,1.91 -3.99,2.92 -6.36,3.65 -0.3,0.09 -0.61,0.19 -0.82,0.42 -0.06,1.53 4.66,3.24 5.88,3.64 1.82,0.6 3.76,0.86 5.67,0.66 4.75,-0.5 9.13,-3.78 11.69,-7.73 6.84,-10.56 10.37,-23.32 11.66,-33.07 -6.36,-6.36 -15.96,-4.75 -19.8,-3.63z"/>
   <path class="fil51" d="M380.92 264.27c5.07,-38.31 -24.45,-67.76 -24.45,-67.76l-17.56 20.48c13.34,16.62 19.67,31.85 22.57,43.82 3.84,-1.12 13.08,-2.89 19.44,3.47z"/>
   <path class="fil52" d="M361.05 260.61c-0.49,0 -0.94,-0.33 -1.06,-0.83 -3.57,-14.75 -11.09,-29.35 -22.36,-43.39 -0.38,-0.47 -0.3,-1.15 0.17,-1.53 0.47,-0.37 1.15,-0.3 1.53,0.17 11.47,14.3 19.13,29.18 22.78,44.24 0.14,0.58 -0.22,1.17 -0.8,1.31 -0.08,0.02 -0.17,0.03 -0.26,0.03z"/>
   <path class="fil53" d="M123.17 487.71c0,-0.19 -0.01,-0.38 -0.06,-0.57 -2.83,-11.2 -16.85,-18.17 -16.85,-18.17l-5.56 0.43c-3.19,9.87 -2.78,15.93 -2.27,18.62 0.01,0.08 0.04,0.15 0.06,0.22 4.58,0.41 14.02,0.68 24.67,-0.54z"/>
   <path class="fil54" d="M98.5 488.25c0.25,0.9 0.91,1.6 1.76,1.78 6.52,1.37 16.88,0.27 21.23,-0.3 0.96,-0.13 1.66,-1.01 1.68,-2.02 -10.66,1.21 -20.09,0.94 -24.67,0.54z"/>
   <path class="fil55" d="M98.48 461.13l2.35 11.33c0.17,0.83 0.81,1.45 1.58,1.52 0.95,0.09 2.29,0.14 3.65,-0.06 1.21,-0.18 2.06,-1.41 1.84,-2.74l-1.64 -10.06 -7.79 0z"/>
   <path class="fil56" d="M147.23 488.1c-6.14,-0.17 -9.31,-0.89 -10.95,-1.57 -0,0.61 0,1.23 0.02,1.88 0.02,0.69 0.53,1.23 1.16,1.23l33.69 -0.22c1.08,-0.01 1.7,-1.25 1.24,-2.24 -4.42,0.36 -15.67,1.18 -25.15,0.91z"/>
   <path class="fil57" d="M172.39 487.19c-0.04,-0.09 -0.08,-0.17 -0.13,-0.25 -2.97,-4.16 -10.55,-12.44 -25.53,-16.03l-7.18 -0.23c0,0 -3.2,5.56 -3.26,15.86 1.64,0.67 4.81,1.39 10.95,1.57 9.49,0.27 20.74,-0.55 25.15,-0.91z"/>
   <path class="fil58" d="M137.89 460.13c0.11,0.53 1.61,8.59 2.19,11.72 0.14,0.74 0.72,1.29 1.4,1.33 1.23,0.07 3.21,0.08 4.92,-0.39 0.92,-0.25 1.54,-1.19 1.47,-2.23l-0.8 -12.75 -9.18 2.32z"/>
   <path class="fil59" d="M132.45 311.3c0,0 9.88,67.9 17.01,148.71 0.13,1.5 -1.07,2.81 -2.55,3.12 -2.18,0.46 -5.38,1 -8.03,0.93 -1.41,-0.04 -2.6,-1.09 -2.84,-2.48 -2.43,-14.25 -19.77,-90.71 -24.32,-107.54 0,0 -5.23,71.48 -3.56,108.57 0.04,0.92 -0.63,1.72 -1.55,1.83 -1.39,0.16 -3.62,0.28 -6.45,-0.02 -1.08,-0.11 -1.94,-0.93 -2.1,-2 -1.73,-12.06 -11.69,-83.83 -11.27,-135.53 0.02,-2.92 3.42,-26.87 3.42,-26.87l42.21 11.28z"/>
   <path class="fil60" d="M88.75 315.22c-1.02,-0.36 -1.72,-1.28 -1.83,-2.35 -1.31,-12.75 -7.68,-91.8 32.49,-124.32 0,0 2.3,-6.03 21.24,8.79 18.93,14.81 8.8,30.34 4.26,51.76 -5.49,25.92 -15.11,47.11 -10.85,63.06 0.29,1.1 -0.28,2.25 -1.35,2.65 -14.71,5.42 -29.36,5.6 -43.95,0.41z"/>
   <path class="fil61" d="M135.08 164.86c-0.01,1.13 -16.05,23.91 -16.05,23.91 0,0 2.88,5.67 16.62,10.27l11.87 -24.39 -12.44 -9.79z"/>
   <path class="fil62" d="M147.7 151.8c0,0 5.71,13.11 6.09,19.99 0.38,6.88 1.87,11.35 -6.09,12.73 -7.96,1.39 -14.66,-2.58 -18.29,-9.43 0,0 -5.69,-10.56 -4.41,-14.89 1.28,-4.33 22.7,-8.4 22.7,-8.4z"/>
   <path class="fil63" d="M132.13 170.17l0.45 -0.2c0.58,-0.25 0.82,-0.94 0.53,-1.5 -1.12,-2.17 -3.31,-7.14 -0.48,-8.29 3.64,-1.49 18.07,-4.44 21.18,-9.55 2.99,-4.92 0.34,-11.27 -3.64,-13.07 -0.27,-0.12 -0.58,-0.02 -0.72,0.23l-0.33 0.63c-0.23,0.43 -0.86,0.36 -1,-0.1 -0.13,-0.45 -0.73,-0.54 -0.97,-0.14 -0.96,1.53 -3.54,4.01 -10.45,5.29 -9.81,1.81 -16.31,5.78 -16.47,12.57 -0.01,0.43 -0.47,0.67 -0.84,0.44 -0.72,-0.44 -1.88,-0.65 -3.44,0.66 -2.69,2.27 -1.59,8.15 4.32,12.98 0.28,0.23 0.28,0.67 -0.03,0.87 -1.07,0.7 -2.67,2.36 1.47,4.57 4.28,2.29 7.48,2.1 8.71,1.9 0.31,-0.05 0.5,-0.35 0.44,-0.65l-1.31 -5.96c-0.07,-0.34 0.18,-0.66 0.53,-0.66l2.05 0z"/>
   <path class="fil64" d="M132.38 171.42c0,0 -2.18,-8.38 -5.93,-6.03 -3.76,2.35 1.95,9.38 4.97,9.7l0.96 -3.67z"/>
   <path class="fil65" d="M146.74 204.21l1.11 29.7c3.14,1.08 6.13,1.92 8.98,2.55 1.78,-5.73 5.7,-12.77 8.92,-18.01 -11.8,-4.17 -19,-14.25 -19,-14.25z"/>
   <path class="fil66" d="M205.65 203.7c-16.19,17.48 -29.29,18.51 -39.91,14.75 -3.21,5.23 -7.13,12.27 -8.92,18.01 43.23,9.53 53.41,-30.21 53.41,-30.21l-4.58 -2.55z"/>
   <path class="fil67" d="M208.93 201.84c0,0 1.87,-2 5.32,-1.37 3.45,0.63 6.52,1.83 8.67,0 2.15,-1.83 2.91,0.63 2.91,0.63l-6.44 4.89 -10.46 -4.15z"/>
   <path class="fil68" d="M205.08 205.27c0,0 1.28,-5.34 5.13,-4.61 3.85,0.73 12.59,5.49 14.84,4.61 2.25,-0.87 5.13,-2.97 6.61,-2.23l-2.6 3.24c0,0 6.69,-3.86 7.84,-1.49l-11.13 6.27c0,0 -16.29,-1.63 -20.69,-5.78z"/>
   <path class="fil69" d="M128.77 243.08c0,0 30.43,25.49 63.29,14.37 2.04,-0.69 4.27,-0.54 6.17,0.46l9.45 4.99c3.97,2.09 8.88,0.72 11.18,-3.13 1.31,-2.2 2.43,-4.7 2.65,-7.11l-18.49 -7.48 1.36 -2.27c0,0 -9.03,-0.76 -11.39,5.7 0,0 -17.19,7.15 -46.18,-24.74 0,0 -13.16,11.19 -18.05,19.2z"/>
   <path class="fil70" d="M127.13 242.82c-0.1,0 -0.2,-0.03 -0.29,-0.09 -12.81,-8.66 -18.84,-22.63 -18.9,-22.77 -0.11,-0.26 0.01,-0.57 0.28,-0.68 0.26,-0.11 0.57,0.01 0.68,0.28 0.06,0.14 5.97,13.83 18.53,22.32 0.24,0.16 0.3,0.48 0.14,0.72 -0.1,0.15 -0.26,0.23 -0.43,0.23z"/>
   <path class="fil71" d="M146.21 223.45c-0.17,0 -0.34,-0.08 -0.44,-0.24 -0.04,-0.06 -3.95,-6.15 -11.41,-19.5 -2.29,-4.11 -5.31,-6.7 -8.96,-7.73 -6.04,-1.69 -11.87,1.55 -11.93,1.58 -0.25,0.14 -0.57,0.05 -0.71,-0.2 -0.14,-0.25 -0.05,-0.57 0.19,-0.71 0.25,-0.14 6.24,-3.49 12.71,-1.68 3.93,1.1 7.16,3.86 9.59,8.22 7.44,13.32 11.34,19.39 11.38,19.45 0.16,0.24 0.09,0.56 -0.16,0.72 -0.09,0.06 -0.19,0.08 -0.28,0.08z"/>
  </g>
 </g>
</svg>
