<?xml version="1.0" encoding="UTF-8"?>
<!DOCTYPE svg PUBLIC "-//W3C//DTD SVG 1.1//EN" "http://www.w3.org/Graphics/SVG/1.1/DTD/svg11.dtd">
<!-- Creator: CorelDRAW 2019 (64 Bit) -->
<svg xmlns="http://www.w3.org/2000/svg" xml:space="preserve" width="143.755mm" height="112.397mm" version="1.1" style="shape-rendering:geometricPrecision; text-rendering:geometricPrecision; image-rendering:optimizeQuality; fill-rule:evenodd; clip-rule:evenodd"
viewBox="0 0 13560.82 10602.72"
 xmlns:xlink="http://www.w3.org/1999/xlink">
 <defs>
  <style type="text/css">
   <![CDATA[
    .fil19 {fill:#7D97F4;fill-rule:nonzero}
    .fil6 {fill:#91B3FA;fill-rule:nonzero}
    .fil50 {fill:#91FACE;fill-rule:nonzero}
    .fil7 {fill:#BDD0FB;fill-rule:nonzero}
    .fil36 {fill:white;fill-rule:nonzero}
    .fil5 {fill:url(#id0)}
    .fil31 {fill:url(#id1)}
    .fil43 {fill:url(#id2)}
    .fil22 {fill:url(#id3)}
    .fil52 {fill:url(#id4)}
    .fil49 {fill:url(#id5)}
    .fil42 {fill:url(#id6)}
    .fil44 {fill:url(#id7)}
    .fil51 {fill:url(#id8)}
    .fil48 {fill:url(#id9)}
    .fil33 {fill:url(#id10)}
    .fil34 {fill:url(#id11)}
    .fil4 {fill:url(#id12)}
    .fil14 {fill:url(#id13)}
    .fil29 {fill:url(#id14)}
    .fil1 {fill:url(#id15)}
    .fil20 {fill:url(#id16)}
    .fil46 {fill:url(#id17)}
    .fil2 {fill:url(#id18)}
    .fil23 {fill:url(#id19)}
    .fil41 {fill:url(#id20)}
    .fil28 {fill:url(#id21)}
    .fil10 {fill:url(#id22)}
    .fil30 {fill:url(#id23)}
    .fil40 {fill:url(#id24)}
    .fil47 {fill:url(#id25)}
    .fil9 {fill:url(#id26)}
    .fil27 {fill:url(#id27)}
    .fil8 {fill:url(#id28)}
    .fil21 {fill:url(#id29)}
    .fil3 {fill:url(#id30)}
    .fil16 {fill:url(#id31)}
    .fil13 {fill:url(#id32)}
    .fil15 {fill:url(#id33)}
    .fil11 {fill:url(#id34)}
    .fil12 {fill:url(#id35)}
    .fil0 {fill:url(#id36)}
    .fil39 {fill:url(#id37)}
    .fil37 {fill:url(#id38)}
    .fil25 {fill:url(#id39)}
    .fil18 {fill:url(#id40)}
    .fil45 {fill:url(#id41)}
    .fil26 {fill:url(#id42)}
    .fil35 {fill:url(#id43)}
    .fil17 {fill:url(#id44)}
    .fil24 {fill:url(#id45)}
    .fil38 {fill:url(#id46)}
    .fil32 {fill:url(#id47)}
   ]]>
  </style>
  <linearGradient id="id0" gradientUnits="userSpaceOnUse" x1="2742.53" y1="6060.66" x2="2577.02" y2="1532.27">
   <stop offset="0" style="stop-opacity:1; stop-color:#09005D"/>
   <stop offset="1" style="stop-opacity:1; stop-color:#1A0F91"/>
  </linearGradient>
  <linearGradient id="id1" gradientUnits="userSpaceOnUse" x1="4133.73" y1="5775.82" x2="3680.72" y2="6606.31">
   <stop offset="0" style="stop-opacity:1; stop-color:#FF928E"/>
   <stop offset="1" style="stop-opacity:1; stop-color:#FEB3B1"/>
  </linearGradient>
  <linearGradient id="id2" gradientUnits="userSpaceOnUse" x1="10270.92" y1="7683.53" x2="11435.99" y2="8305.59">
   <stop offset="0" style="stop-opacity:1; stop-color:#4042E2"/>
   <stop offset="1" style="stop-opacity:1; stop-color:#4F52FF"/>
  </linearGradient>
  <linearGradient id="id3" gradientUnits="userSpaceOnUse" xlink:href="#id0" x1="49" y1="8559.34" x2="5341.79" y2="8559.34">
  </linearGradient>
  <linearGradient id="id4" gradientUnits="userSpaceOnUse" x1="830.6" y1="7927.56" x2="1642.22" y2="7927.56">
   <stop offset="0" style="stop-opacity:1; stop-color:#DAE3FE"/>
   <stop offset="1" style="stop-opacity:1; stop-color:#E9EFFD"/>
  </linearGradient>
  <linearGradient id="id5" gradientUnits="userSpaceOnUse" xlink:href="#id0" x1="9494.19" y1="9513.06" x2="9531.95" y2="11325.06">
  </linearGradient>
  <linearGradient id="id6" gradientUnits="userSpaceOnUse" xlink:href="#id0" x1="11298.22" y1="4435.72" x2="11076.21" y2="7682.19">
  </linearGradient>
  <linearGradient id="id7" gradientUnits="userSpaceOnUse" xlink:href="#id1" x1="12231.08" y1="7978.37" x2="11325.07" y2="9089.99">
  </linearGradient>
  <linearGradient id="id8" gradientUnits="userSpaceOnUse" xlink:href="#id4" x1="1115.46" y1="7957.33" x2="1393" y2="7957.33">
  </linearGradient>
  <linearGradient id="id9" gradientUnits="userSpaceOnUse" xlink:href="#id0" x1="4020.47" y1="9626.32" x2="4058.22" y2="11438.31">
  </linearGradient>
  <linearGradient id="id10" gradientUnits="userSpaceOnUse" x1="3098.59" y1="7740.3" x2="3734.46" y2="7740.3">
   <stop offset="0" style="stop-opacity:1; stop-color:#3EE17A"/>
   <stop offset="1" style="stop-opacity:1; stop-color:#5AE98F"/>
  </linearGradient>
  <linearGradient id="id11" gradientUnits="userSpaceOnUse" x1="3249.66" y1="7059.94" x2="4338.45" y2="7059.94">
   <stop offset="0" style="stop-opacity:1; stop-color:#3EE174"/>
   <stop offset="1" style="stop-opacity:1; stop-color:#5AE98A"/>
  </linearGradient>
  <linearGradient id="id12" gradientUnits="userSpaceOnUse" x1="12080.07" y1="4303.58" x2="7134.82" y2="4586.71">
   <stop offset="0" style="stop-opacity:1; stop-color:#020039"/>
   <stop offset="1" style="stop-opacity:1; stop-color:#090056"/>
  </linearGradient>
  <linearGradient id="id13" gradientUnits="userSpaceOnUse" x1="7284.96" y1="2116.75" x2="7377.85" y2="5218.59">
   <stop offset="0" style="stop-opacity:1; stop-color:#E1473D"/>
   <stop offset="1" style="stop-opacity:1; stop-color:#E9605A"/>
  </linearGradient>
  <linearGradient id="id14" gradientUnits="userSpaceOnUse" xlink:href="#id1" x1="4077.11" y1="8062.59" x2="6719.59" y2="6731.48">
  </linearGradient>
  <linearGradient id="id15" gradientUnits="userSpaceOnUse" x1="5851.34" y1="1774.34" x2="10400.2" y2="9871.69">
   <stop offset="0" style="stop-opacity:1; stop-color:#41E2A7"/>
   <stop offset="1" style="stop-opacity:1; stop-color:#4FBEFF"/>
  </linearGradient>
  <linearGradient id="id16" gradientUnits="userSpaceOnUse" xlink:href="#id1" x1="6153.34" y1="8492.39" x2="7134.82" y2="8108.14">
  </linearGradient>
  <linearGradient id="id17" gradientUnits="userSpaceOnUse" xlink:href="#id13" x1="8992.33" y1="5619.22" x2="10216.62" y2="5619.22">
  </linearGradient>
  <linearGradient id="id18" gradientUnits="userSpaceOnUse" xlink:href="#id0" x1="14439.45" y1="2812.46" x2="9796.2" y2="4737.71">
  </linearGradient>
  <linearGradient id="id19" gradientUnits="userSpaceOnUse" xlink:href="#id2" x1="4401.19" y1="9570.45" x2="-1426.38" y2="6006.19">
  </linearGradient>
  <linearGradient id="id20" gradientUnits="userSpaceOnUse" xlink:href="#id2" x1="11344.21" y1="8569.6" x2="11926.27" y2="11158.69">
  </linearGradient>
  <linearGradient id="id21" gradientUnits="userSpaceOnUse" xlink:href="#id1" x1="4020.48" y1="7707.48" x2="6662.96" y2="6624.94">
  </linearGradient>
  <linearGradient id="id22" gradientUnits="userSpaceOnUse" x1="6965.07" y1="3905.71" x2="6531.86" y2="5477.91">
   <stop offset="0" style="stop-opacity:1; stop-color:#53D8FF"/>
   <stop offset="1" style="stop-opacity:1; stop-color:#3840F7"/>
  </linearGradient>
  <linearGradient id="id23" gradientUnits="userSpaceOnUse" x1="4529.48" y1="6418.85" x2="945.67" y2="12104.52">
   <stop offset="0" style="stop-opacity:1; stop-color:#63FEA3"/>
   <stop offset="1" style="stop-opacity:1; stop-color:#8EFFBD"/>
  </linearGradient>
  <linearGradient id="id24" gradientUnits="userSpaceOnUse" xlink:href="#id1" x1="9717.41" y1="6012.57" x2="9923.48" y2="6932.39">
  </linearGradient>
  <linearGradient id="id25" gradientUnits="userSpaceOnUse" xlink:href="#id1" x1="9837.72" y1="6537.84" x2="9869.08" y2="5871.43">
  </linearGradient>
  <linearGradient id="id26" gradientUnits="userSpaceOnUse" xlink:href="#id22" x1="6983.85" y1="3906.73" x2="6550.56" y2="5477.25">
  </linearGradient>
  <linearGradient id="id27" gradientUnits="userSpaceOnUse" xlink:href="#id1" x1="4039.34" y1="7620.73" x2="6662.98" y2="6627.53">
  </linearGradient>
  <linearGradient id="id28" gradientUnits="userSpaceOnUse" x1="7060.68" y1="3335.87" x2="6854.76" y2="4635.02">
   <stop offset="0" style="stop-opacity:1; stop-color:#2B3582"/>
   <stop offset="1" style="stop-opacity:1; stop-color:#150E42"/>
  </linearGradient>
  <linearGradient id="id29" gradientUnits="userSpaceOnUse" xlink:href="#id0" x1="8663.7" y1="4209.22" x2="8399.45" y2="7455.69">
  </linearGradient>
  <linearGradient id="id30" gradientUnits="userSpaceOnUse" xlink:href="#id2" x1="10400.2" y1="10381.31" x2="10607.82" y2="3944.97">
  </linearGradient>
  <linearGradient id="id31" gradientUnits="userSpaceOnUse" xlink:href="#id1" x1="7283.55" y1="29.63" x2="7115.1" y2="1029.95">
  </linearGradient>
  <linearGradient id="id32" gradientUnits="userSpaceOnUse" x1="6993.84" y1="2693.83" x2="7030.05" y2="273.12">
   <stop offset="0" style="stop-opacity:1; stop-color:#FE7062"/>
   <stop offset="1" style="stop-opacity:1; stop-color:#FF928E"/>
  </linearGradient>
  <linearGradient id="id33" gradientUnits="userSpaceOnUse" xlink:href="#id13" x1="6739.96" y1="2135.59" x2="6832.86" y2="5237.44">
  </linearGradient>
  <linearGradient id="id34" gradientUnits="userSpaceOnUse" xlink:href="#id22" x1="6927.38" y1="3885.93" x2="6494.14" y2="5458.18">
  </linearGradient>
  <linearGradient id="id35" gradientUnits="userSpaceOnUse" xlink:href="#id22" x1="6908.46" y1="3884.82" x2="6475.15" y2="5456.93">
  </linearGradient>
  <linearGradient id="id36" gradientUnits="userSpaceOnUse" xlink:href="#id0" x1="1646.77" y1="9223.39" x2="4054.73" y2="6397.66">
  </linearGradient>
  <linearGradient id="id37" gradientUnits="userSpaceOnUse" xlink:href="#id0" x1="10159.51" y1="4827.61" x2="9991.23" y2="7823.69">
  </linearGradient>
  <linearGradient id="id38" gradientUnits="userSpaceOnUse" xlink:href="#id1" x1="3651.12" y1="5471.15" x2="4028.36" y2="6247.77">
  </linearGradient>
  <linearGradient id="id39" gradientUnits="userSpaceOnUse" x1="11444.7" y1="7288.57" x2="9922.01" y2="10098.49">
   <stop offset="0" style="stop-opacity:1; stop-color:#63FEB8"/>
   <stop offset="1" style="stop-opacity:1; stop-color:#8EFFBD"/>
  </linearGradient>
  <linearGradient id="id40" gradientUnits="userSpaceOnUse" xlink:href="#id1" x1="8051.12" y1="-764.16" x2="8051.12" y2="25.72">
  </linearGradient>
  <linearGradient id="id41" gradientUnits="userSpaceOnUse" xlink:href="#id1" x1="9060.07" y1="5475.46" x2="9739.57" y2="5830.11">
  </linearGradient>
  <linearGradient id="id42" gradientUnits="userSpaceOnUse" x1="4813.22" y1="6644.07" x2="3907.22" y2="7550.07">
   <stop offset="0" style="stop-opacity:1; stop-color:#63FEA3"/>
   <stop offset="1" style="stop-opacity:1; stop-color:#8EFFB7"/>
  </linearGradient>
  <linearGradient id="id43" gradientUnits="userSpaceOnUse" xlink:href="#id1" x1="3814.14" y1="5099.88" x2="4386.34" y2="6122.47">
  </linearGradient>
  <linearGradient id="id44" gradientUnits="userSpaceOnUse" xlink:href="#id1" x1="7855.16" y1="-681.57" x2="7873.18" y2="96.58">
  </linearGradient>
  <linearGradient id="id45" gradientUnits="userSpaceOnUse" xlink:href="#id0" x1="8191.91" y1="8559.34" x2="13484.8" y2="8559.34">
  </linearGradient>
  <linearGradient id="id46" gradientUnits="userSpaceOnUse" xlink:href="#id1" x1="6131.9" y1="8621.85" x2="7094.84" y2="8258.63">
  </linearGradient>
  <linearGradient id="id47" gradientUnits="userSpaceOnUse" xlink:href="#id1" x1="3775.1" y1="7326.7" x2="5681.47" y2="8357.27">
  </linearGradient>
 </defs>
 <g id="Camada_x0020_1">
  <metadata id="CorelCorpID_0Corel-Layer"/>
  <g id="_2237292954832">
   <path class="fil0" d="M1886.08 5748.26c0,0 1143.45,3015.84 1504.9,3643.25 419.4,728.38 1644.2,264.25 1583.24,-345.22 -60.97,-609.48 -1491.88,-3128.72 -1491.88,-3128.72l-1596.07 -169.31 -0.2 0z"/>
   <polygon class="fil1" points="3431.19,3551.41 10538.55,1087.09 10464,7755.81 3236.97,6143.32 "/>
   <path class="fil2" d="M11243.73 4440.8c0,1892.77 -312.57,3427.12 -698.38,3427.12 -385.61,0 -698.38,-1534.34 -698.38,-3427.12 0,-1892.78 312.76,-3427.13 698.38,-3427.13 385.61,0 698.38,1534.34 698.38,3427.13z"/>
   <path class="fil3" d="M10598.39 7633.5c-63.04,-64.17 -200.64,-311.82 -318.42,-952.06 -113.81,-618.72 -176.67,-1421.47 -176.67,-2259.9 0,-838.62 62.67,-1641.18 176.67,-2259.91 117.97,-640.24 255.38,-887.88 318.42,-952.06 63.04,64.17 200.64,311.82 318.61,952.06 113.81,618.72 176.67,1421.47 176.67,2259.91 0,838.62 -62.67,1641.17 -176.67,2259.9 -117.97,640.24 -255.38,887.88 -318.61,952.06z"/>
   <path class="fil4" d="M10506.66 5449.09l0 -0.19 -2.64 0c-7.74,-0.38 -15.29,-0.75 -23.03,-1.32l0 -0.19 -3.77 0c-5.85,-0.38 -11.52,-0.75 -17.37,-1.32l0 -0.19 -2.64 0c-9.81,-0.75 -19.44,-1.7 -29.06,-2.83l0 -0.19 -1.89 0c-3.96,-0.38 -7.74,-0.94 -11.52,-1.32l0 -0.19 -1.51 0c-3.58,-0.38 -7.17,-0.94 -10.57,-1.32l0 -0.19 -1.32 0c-3.58,-0.38 -7.17,-0.94 -10.76,-1.51l0 0 -0.19 0c-3.4,-0.57 -6.79,-0.94 -10.38,-1.51l0 0 0 0c-3.02,-0.38 -6.04,-0.94 -9.06,-1.32l0 -0.19 -0.75 0c-2.83,-0.38 -5.47,-0.94 -8.3,-1.32l0 -0.19 -0.94 0c-2.64,-0.38 -5.47,-0.94 -8.11,-1.32l0 -0.19 -0.75 0c-2.83,-0.57 -5.47,-0.94 -8.3,-1.51l0 0 -0.19 0c-10,-1.89 -20.01,-3.77 -30.01,-5.85l0 -0.19 -0.75 0 -6.79 -1.51 0 0 -0.38 0 -5.66 -1.32 0 -0.19 -1.13 0 -6.41 -1.51 0 0 -0.38 0c-14.16,-3.21 -27.93,-6.6 -41.9,-10.38l0 -0.19 -0.75 0 -5.28 -1.51 0 0 -0.19 0c-12.08,-3.21 -24.16,-6.79 -36.05,-10.38l0 -0.19 -0.38 0 -4.15 -1.32 0 -0.19 -0.75 0c-14.91,-4.72 -29.82,-9.62 -44.54,-14.91l0 -0.19 -0.38 0 -4.15 -1.51 0 0 0 0c-3.96,-1.51 -7.92,-3.02 -12.08,-4.34l0 0 -0.19 0c-3.58,-1.32 -7.17,-2.64 -10.76,-4.15 -0.94,-15.1 -1.7,-30.2 -2.64,-45.49l0 -0.19 0 0c-0.57,-9.06 -0.94,-17.93 -1.51,-26.99l0 -1.7 0 0c-0.57,-8.87 -0.94,-17.56 -1.32,-26.41l0 -2.26 -0.19 0c-0.38,-9.06 -0.94,-17.93 -1.32,-26.99l0 -1.7 0 0c-0.57,-9.62 -0.94,-19.06 -1.51,-28.69l0 -1.51 0 0c-0.94,-20.95 -2.08,-42.09 -3.02,-63.23l0 -3.02 -0.19 0c-0.38,-10.57 -0.94,-21.14 -1.32,-31.71l0 -3.02 -0.19 0c-0.38,-11.14 -0.94,-22.46 -1.32,-33.6l0 -2.45 -0.19 0c-0.94,-26.05 -2.08,-52.09 -2.83,-78.33l0 -4.72 -0.19 0c-0.38,-13.4 -0.94,-26.99 -1.32,-40.58l0 -4.72 -0.19 0c-0.38,-14.91 -0.94,-30.01 -1.32,-44.92l0 -0.38 0 0c-0.57,-18.31 -0.94,-36.81 -1.51,-55.12l0 -6.6 -0.19 0c-0.57,-19.25 -0.94,-38.32 -1.32,-57.57l0 -5.66 -0.19 0c-0.57,-24.35 -0.94,-48.88 -1.32,-73.42l0 -8.11 -0.19 0c-0.57,-35.11 -0.94,-70.21 -1.32,-105.51l0 -3.21 0 0c-0.57,-53.8 -0.75,-107.78 -0.75,-161.95 0,-54.18 0.19,-108.34 0.75,-162.33l0 0 0 -2.64c0.38,-34.92 0.75,-69.65 1.32,-104.38l0.19 0 0 -9.24c0.38,-24.54 0.94,-49.26 1.32,-73.8l0.19 0 0 -5.47c0.38,-19.44 0.94,-38.7 1.32,-57.95l0.19 0 0 -6.23c0.38,-18.12 0.94,-36.05 1.51,-53.99l0 0 0 -1.51c0.38,-15.1 0.94,-30.2 1.32,-45.11l0.19 0 0 -4.34c0.38,-13.59 0.94,-27.37 1.32,-40.96l0.19 0 0 -4.34c0.38,-13.59 0.94,-27.37 1.51,-40.96l0 0 0 -0.75c0.38,-12.27 0.94,-24.54 1.32,-36.81l0 0 0 -2.26c0.38,-10.76 0.94,-21.71 1.32,-32.47l0.19 0 0 -4.15c0.38,-10.76 0.94,-21.33 1.32,-31.9l0.19 0 0 -2.83c0.57,-10.57 0.94,-21.33 1.51,-31.9l0 0 0 -1.32c0.57,-10.19 0.94,-20.39 1.51,-30.38l0 0 0 -1.13c0.38,-9.24 0.94,-18.31 1.32,-27.37l0.19 0 0 -2.83c0.38,-8.49 0.94,-17.18 1.32,-25.67l0.19 0 0 -3.4 1.32 -25.29 0.19 0 0 -2.83c0.94,-17.74 1.89,-35.3 3.02,-52.85l0 0 0 -0.57 1.32 -23.4 0.19 0 0 -2.08 1.32 -22.08 0.19 0 0 -2.83 1.32 -20.95c3.02,-1.13 5.85,-2.26 8.87,-3.4l0.38 0 0 -0.19c3.96,-1.51 7.92,-3.02 11.9,-4.34l0.19 0 0 0c16.23,-5.85 32.66,-11.33 49.26,-16.61l0.57 0 0 -0.19 4.34 -1.32 0.19 0 0 0c8.49,-2.64 16.8,-5.09 25.48,-7.55l0.19 0 0 0c5.47,-1.51 10.76,-3.02 16.23,-4.53l0.38 0 0 0 5.47 -1.51 0.57 0 0 -0.19c10,-2.64 20.01,-5.09 30.01,-7.36l0.19 0 0 0c4.34,-0.94 8.68,-2.08 13.22,-3.02l0.38 0 0 -0.19 6.41 -1.32 1.13 0 0 -0.19c4.53,-0.94 9.06,-1.89 13.4,-2.83l0 0 0 0c7.92,-1.51 15.86,-3.02 23.78,-4.53l0.38 0 0 0c2.64,-0.57 5.47,-0.94 8.11,-1.51l0.94 0 0 -0.19c2.64,-0.38 5.28,-0.94 8.11,-1.32l0.94 0 0 -0.19c2.83,-0.38 5.66,-0.94 8.49,-1.32l0.57 0 0 0c10.38,-1.7 20.76,-3.02 31.14,-4.34l1.89 0 0 -0.19c3.4,-0.38 6.79,-0.75 10.38,-1.32l1.7 0 0 -0.19c3.96,-0.38 7.74,-0.94 11.71,-1.32l1.89 0 0 -0.19c4.34,-0.38 8.68,-0.94 13.22,-1.32l0.38 0 0 0c5.66,-0.57 11.33,-0.94 16.99,-1.51l3.96 0 0 -0.38c5.85,-0.38 11.71,-0.75 17.56,-1.13l3.58 0 0 -0.19c9.24,-0.57 18.5,-0.94 27.74,-1.32l11.33 0 0 -0.38c10.38,-0.19 20.57,-0.38 30.95,-0.38 10.38,0 20.57,0.19 30.76,0.38l0 0.38 9.06 0c10.19,0.38 20.2,0.75 30.2,1.32l0 0.19 1.7 0c6.41,0.38 13.03,0.75 19.44,1.32l0 0.19 2.08 0c5.85,0.38 11.71,0.94 17.56,1.51l0 0 0 0c4.53,0.38 9.06,0.94 13.59,1.51l0 0 0.38 0c3.96,0.38 7.74,0.75 11.71,1.32l0 0.19 1.89 0c3.4,0.38 6.79,0.94 10.19,1.32l0 0.19 0.94 0c9.81,1.32 19.44,2.83 29.06,4.34l0 0.19 1.13 0c2.64,0.38 5.28,0.94 7.92,1.32l0 0.19 1.13 0c2.64,0.38 5.28,0.94 7.92,1.32l0 0 0.57 0c2.45,0.38 4.72,0.94 6.98,1.32l0 0.19 0.75 0c7.36,1.32 14.54,2.83 21.89,4.53l0 0 0.38 0c4.34,0.94 8.87,1.89 13.22,2.83l0 0.19 0.38 0 5.47 1.32 0 0.19 0.75 0c1.7,0.38 3.4,0.94 5.28,1.32l0 0.19 0.75 0c11.52,2.83 22.65,5.85 33.98,9.06l0 0 0.19 0c1.51,0.38 2.83,0.75 4.34,1.13l0 0.38 0.94 0c3.21,0.94 6.41,1.89 9.43,3.02l0 0 0.19 0c12.08,3.77 24.16,7.55 36.05,11.9l0 0.19 0.75 0c1.32,0.38 2.45,0.94 3.77,1.32l0 0.19 0.38 0c7.92,2.83 15.86,5.85 23.78,9.06l0 0 0.19 0c2.45,0.94 4.91,2.08 7.36,3.02l0 0 0 0c3.58,1.51 6.98,2.83 10.57,4.34l0 0.19 0.57 0c3.4,1.32 6.6,2.83 9.81,4.34l0 0.19 0.38 0c21.14,9.24 41.53,19.25 61.53,30.01l0 0.19 0.19 0 2.83 1.51 0 0 0 0c3.58,1.89 6.98,3.77 10.57,5.85l0 0.19 0.38 0c0.94,0.57 1.7,0.94 2.64,1.51l0 0 0 0c2.45,1.51 5.09,3.02 7.55,4.34l0 0.19 0.19 0c4.91,3.02 10,5.85 14.91,8.87l0 0.19 0.19 0c3.96,2.45 7.92,4.91 11.9,7.36l0 0 0.19 0c1.51,0.94 2.83,1.89 4.34,2.83l0 0.19 0.38 0c1.51,0.94 2.83,1.89 4.15,2.83l0 0.19 0.38 0 4.15 2.83 0 0.19 0.38 0c6.6,4.34 13.03,8.87 19.25,13.4l0 0.19 0.38 0c1.32,0.94 2.83,2.08 4.15,3.02l0 0 0 0c2.08,1.51 3.96,2.83 6.04,4.34l0 0.19 0.19 0c1.89,1.51 3.96,3.02 5.85,4.34l0 0.19 0.19 0c1.89,1.51 3.96,3.02 5.85,4.53l0 0 0 0c5.09,3.96 10,7.92 14.91,11.9l0 0.19 0.19 0c2.45,1.89 4.91,3.77 7.17,5.85l0 0.19 0.19 0c3.02,2.45 5.85,4.91 8.87,7.55l0 0 0 0c3.96,3.4 8.11,6.98 12.08,10.38l0 0.19 0.19 0c5.09,4.53 10,9.06 14.91,13.59l0 0 0 0 1.51 1.51 0 0 0 0 1.32 1.32 0 0.19 0.19 0 1.32 1.32 0 0.19 0.19 0c9.62,9.24 19.25,18.69 28.5,28.31l0 0.38 0.38 0 1.13 1.13 0 0.38 0.38 0 1.13 1.32 0 0.19 0.19 0 1.32 1.32 0 0.19 0.19 0 1.32 1.51 0 0 0 0c5.09,5.47 10.19,10.95 15.1,16.61l0 0 0 0c3.02,3.4 6.04,6.79 9.06,10.19l0 0.38 0.19 0 1.13 1.51 0 0 0 0c2.45,3.02 5.09,5.85 7.55,8.87l0 0.19 0.19 0c6.04,7.36 12.08,14.73 17.93,22.27l0 0.38 0.19 0c1.51,1.89 2.83,3.77 4.34,5.66l0 0.38 0.19 0c4.53,5.85 8.87,11.9 13.4,17.93l0 0.19 0.19 0c2.45,3.4 4.91,6.98 7.36,10.38l0 0.19 0.19 0c0.94,1.32 1.89,2.83 2.83,4.15l0 0.38 0.19 0c6.04,8.87 12.08,17.93 17.93,26.99l0 0.19 0.19 0c0.94,1.51 1.89,3.02 2.83,4.53l0 0 0 0c1.51,2.45 3.02,4.72 4.53,7.17l0 0.38 0.19 0c6.6,10.76 13.03,21.71 19.44,32.85l0 0.19 0.19 0c2.45,4.34 4.91,8.87 7.36,13.4l0 0.19 0 0c10.57,19.63 20.57,39.64 30.01,60.21l0 0.19 0 0c2.08,4.34 3.96,8.87 6.04,13.4l0 0.19 0.19 0c1.51,3.4 3.02,6.79 4.34,10.19l0 0.38 0.19 0c1.51,3.4 3.02,6.79 4.34,10.38l0 0.19 0 0c2.08,4.91 3.96,9.81 5.85,14.73l0 0.38 0.19 0c0.94,2.45 1.89,4.72 2.83,7.17l0 0.38 0.19 0c0.94,2.45 1.89,4.91 2.83,7.55l0 0 0 0c0.57,1.32 0.94,2.64 1.51,3.96l0 0.57 0.19 0c4.72,12.46 9.06,24.91 13.4,37.56l0 0.19 0 0c0.57,1.51 0.94,3.02 1.51,4.53l0 0 0 0c3.21,9.43 6.04,19.06 9.06,28.69l0 0 0 0c0.94,3.4 2.08,6.79 3.02,10l0 0.38 0.19 0c0.94,3.4 1.89,6.6 2.83,10l0 0.57 0.19 0c0.94,3.4 1.89,6.98 2.83,10.38l0 0.19 0 0c3.77,13.78 7.17,27.55 10.57,41.53l0 0.75 0.19 0 1.32 5.66 0 0.38 0 0c2.64,11.33 5.09,22.84 7.55,34.36l0 0.19 0 0c3.21,16.42 6.23,33.04 9.06,49.64l0 1.51 0.19 0c0.38,2.83 0.75,5.47 1.32,8.3l0 0.75 0.19 0c1.51,10.38 3.02,20.57 4.34,31.14l0 0.57 0 0c0.57,3.58 0.94,7.36 1.51,10.95l0 1.13 0.19 0c1.7,13.78 3.02,27.55 4.34,41.53l0 2.26 0.19 0c0.38,5.09 0.94,10.19 1.32,15.29l0 1.32 0.19 0c0.57,6.23 0.94,12.46 1.32,18.69l0 0.75 0 0c0.57,8.3 0.94,16.61 1.51,24.91l0 3.77 0.19 0c0.57,13.03 1.13,26.05 1.32,39.07l0 10.76 0.19 0c0.19,8.3 0.19,16.8 0.19,25.1 0,8.3 0,16.42 -0.19,24.72l-0.19 0 0 11.14c-0.19,12.84 -0.75,25.67 -1.32,38.51l-0.19 0 0 4.15c-0.38,8.11 -0.94,16.23 -1.51,24.35l0 0 0 1.32c-0.38,6.04 -0.94,12.27 -1.32,18.31l-0.19 0 0 1.89c-0.38,5.47 -0.94,10.95 -1.32,16.23l-0.19 0 0 1.32c-0.38,5.09 -0.94,10.19 -1.51,15.29l0 0 0 0.38c-0.38,4.34 -0.94,8.87 -1.51,13.22l0 0 0 0.38c-0.38,3.96 -0.94,7.74 -1.32,11.71l-0.19 0 0 1.51c-0.38,3.58 -0.94,6.98 -1.32,10.57l-0.19 0 0 1.13c-0.38,3.58 -0.94,7.36 -1.51,10.95l0 0 0 0.38c-0.38,3.4 -0.94,6.79 -1.51,10.19l0 0 0 0.38c-0.94,6.41 -1.89,12.84 -3.02,19.25l0 0 0 0.57c-0.38,2.83 -0.94,5.66 -1.51,8.49l0 0 0 0.38c-0.57,2.83 -0.94,5.85 -1.51,8.68l0 0 0 0c-0.94,5.47 -1.89,10.95 -3.02,16.61l0 0 0 0 -1.51 7.55 0 0 0 0.38c-0.38,2.45 -0.94,4.72 -1.32,7.17l-0.19 0 0 0.75c-0.38,2.26 -0.94,4.53 -1.51,6.79l0 0 0 0.38c-2.83,13.59 -5.85,26.99 -9.06,40.39l0 0 0 0.19 -1.51 5.85 0 0 0 0.38c-0.38,1.89 -0.94,3.77 -1.51,5.66l0 0 0 0.19 -1.51 5.85 0 0 0 0.19c-0.57,1.89 -0.94,3.96 -1.51,5.85l0 0 0 0c-1.51,5.47 -3.02,11.14 -4.53,16.61l0 0 0 0c-0.94,3.4 -1.89,6.98 -2.83,10.38l-0.19 0 0 0.38c-2.83,10 -5.85,19.82 -9.06,29.63l0 0 0 0c-0.38,1.51 -0.94,3.02 -1.51,4.53l0 0 0 0.19 -1.32 4.34 -0.19 0 0 0.38c-0.38,1.32 -0.94,2.83 -1.32,4.15l-0.19 0 0 0.57c-0.38,1.32 -0.75,2.64 -1.32,3.96l-0.19 0 0 0.57c-0.38,1.32 -0.94,2.64 -1.32,3.96l-0.19 0 0 0.38c-0.38,1.32 -0.94,2.64 -1.32,4.15l-0.19 0 0 0.38 -1.51 4.15 0 0 0 0.19c-3.4,9.62 -6.79,19.06 -10.38,28.5l-0.19 0 0 0.57c-1.51,3.77 -3.02,7.74 -4.53,11.52l0 0 0 0c-0.94,2.45 -1.89,4.91 -3.02,7.36l0 0 0 0.19c-0.94,2.45 -1.89,4.91 -3.02,7.36l0 0 0 0.19c-1.51,3.58 -3.02,6.98 -4.34,10.38l-0.19 0 0 0.38c-1.51,3.4 -2.83,6.79 -4.34,10.19l-0.19 0 0 0.38c-1.89,4.34 -3.96,8.87 -5.85,13.22l-0.19 0 0 0.19c-3.02,6.41 -6.04,13.03 -9.06,19.44l0 0 0 0 -1.51 3.02 0 0 0 0.19c-0.38,0.94 -0.94,1.89 -1.32,2.83l-0.19 0 0 0.38c-0.38,0.94 -0.75,1.89 -1.32,2.64l-0.19 0 0 0.38c-0.38,0.75 -0.94,1.7 -1.32,2.45l-0.19 0 0 0.38c-0.38,0.94 -0.94,1.7 -1.32,2.64l-0.19 0 0 0.38 -1.32 2.64 -0.19 0 0 0.38 -1.32 2.64 -0.19 0 0 0.38 -1.32 2.64 -0.19 0 0 0.19c-1.51,3.02 -3.02,5.85 -4.53,8.87l0 0 0 0c-2.45,4.53 -4.91,9.06 -7.36,13.59l-0.19 0 0 0.38c-0.38,0.75 -0.94,1.7 -1.32,2.64l-0.19 0 0 0.19c-1.89,3.4 -3.77,6.79 -5.85,10.38l-0.19 0 0 0.38 -1.51 2.64 0 0 0 0c-4.34,7.55 -8.87,15.1 -13.4,22.65l-0.19 0 0 0.38c-1.51,2.45 -2.83,4.72 -4.34,7.17l-0.19 0 0 0.19c-2.45,3.96 -4.91,7.92 -7.55,11.71l0 0 0 0c-3.96,6.04 -7.92,12.08 -11.9,18.12l-0.19 0 0 0.19c-0.94,1.51 -1.89,2.83 -2.83,4.34l-0.19 0 0 0.19c-0.94,1.51 -1.89,2.83 -3.02,4.34l0 0 0 0c-1.32,2.08 -2.83,3.96 -4.34,6.04l-0.19 0 0 0.38 -3.02 4.15 0 0 0 0c-5.85,8.11 -11.71,16.23 -17.93,24.16l-0.19 0 0 0.38c-1.51,1.89 -3.02,3.77 -4.53,5.66l0 0 0 0c-1.89,2.45 -3.96,4.91 -6.04,7.55l0 0 0 0c-2.08,2.45 -3.96,4.91 -6.04,7.36l0 0 0 0c-2.83,3.58 -5.85,6.98 -8.87,10.57l-0.19 0 0 0.19c-3.02,3.4 -5.85,6.79 -8.87,10.38l-0.19 0 0 0.19c-18.5,20.95 -37.94,41.15 -58.33,60.21l-0.38 0 0 0.38 -1.13 1.13 -0.38 0 0 0.38c-0.38,0.38 -0.94,0.75 -1.32,1.13l-0.19 0 0 0.19 -1.51 1.32 0 0 0 0c-7.92,7.17 -15.86,14.16 -23.97,21.14l0 0 0 0c-2.26,1.89 -4.72,3.96 -6.98,6.04l-0.57 0 0 0.38 -1.32 1.13 -0.19 0 0 0.19c-2.45,2.08 -4.91,3.96 -7.36,5.85l-0.19 0 0 0.19c-6.41,5.09 -12.84,10 -19.25,14.9l-0.38 0 0 0.19c-1.89,1.51 -3.77,2.83 -5.66,4.34l-0.38 0 0 0.19c-1.89,1.51 -3.96,2.83 -5.85,4.34l0 0 0 0c-3.4,2.45 -6.98,5.09 -10.57,7.55l0 0 0 0c-4.34,3.02 -8.87,6.04 -13.22,9.06l-0.19 0 0 0.19c-1.32,0.94 -2.83,1.89 -4.15,2.83l-0.19 0 0 0.19c-1.32,0.94 -2.83,1.89 -4.15,2.83l-0.38 0 0 0.19c-1.51,0.94 -3.02,1.89 -4.53,2.83l0 0 0 0c-3.96,2.45 -7.92,5.09 -12.08,7.55l0 0 0 0c-2.45,1.51 -4.91,3.02 -7.36,4.53l-0.19 0 0 0c-3.4,2.08 -6.79,3.96 -10.19,6.04l-0.38 0 0 0.19c-2.45,1.51 -4.91,2.83 -7.36,4.34l-0.19 0 0 0c-0.94,0.57 -1.7,0.94 -2.64,1.51l-0.38 0 0 0.19c-14.16,7.92 -28.5,15.29 -43.22,22.46l-0.57 0 0 0.19 -2.64 1.32 -0.38 0 0 0.19 -2.83 1.32 -0.19 0 0 0.19 -3.02 1.32 0 0 0 0c-7.74,3.58 -15.48,7.17 -23.4,10.57l-0.75 0 0 0.38c-0.94,0.38 -1.89,0.75 -2.83,1.13l-0.19 0 0 0.19c-2.26,0.94 -4.72,1.89 -6.98,2.83l-0.38 0 0 0.19c-7.36,3.02 -14.91,6.04 -22.27,8.87l-0.19 0 0 0c-3.96,1.51 -7.92,3.02 -11.9,4.34l-0.19 0 0 0c-1.32,0.38 -2.64,0.94 -3.77,1.51l-0.75 0 0 0.19c-1.13,0.38 -2.45,0.75 -3.77,1.32l-0.75 0 0 0.19c-10.38,3.58 -20.76,6.98 -31.33,10.19l-0.38 0 0 0.19c-3.21,0.94 -6.23,1.89 -9.43,2.83l-1.13 0 0 0.38c-1.32,0.38 -2.83,0.75 -4.15,1.13l-0.38 0 0 0.19c-3.4,0.94 -6.98,1.89 -10.38,2.83l-0.19 0 0 0c-11.52,3.21 -23.22,6.23 -34.92,9.06l-1.13 0 0 0.19c-1.89,0.38 -3.77,0.75 -5.66,1.32l-0.38 0 0 0c-9.24,2.08 -18.88,4.15 -28.31,5.85l-0.38 0 0 0c-2.45,0.57 -4.91,0.94 -7.55,1.51l0 0 0 0c-2.64,0.57 -5.28,0.94 -7.92,1.51l-1.13 0 0 0.19c-2.64,0.38 -5.28,0.94 -8.11,1.32l-0.94 0 0 0.19c-9.43,1.51 -18.88,3.02 -28.5,4.34l0 0 0 0c-3.58,0.57 -7.17,0.94 -10.76,1.51l-1.32 0 0 0.19c-3.96,0.57 -7.92,0.94 -11.71,1.32l-0.38 0 0 0c-9.81,1.13 -19.82,2.08 -29.82,3.02l-1.89 0 0 0.19c-5.66,0.57 -11.52,0.94 -17.37,1.32l-3.77 0 0 0.19c-7.36,0.57 -14.91,0.94 -22.46,1.32l-1.7 0 0 0c-16.99,0.75 -34.36,1.13 -51.9,1.13 -17.56,0 -34.92,-0.38 -52.09,-1.13l0.71 0.56z"/>
   <path class="fil5" d="M2284.91 3407.97c334.28,-38.88 813.89,-52.85 1332.2,65.87 -170.82,892.22 -144.96,1821.99 52.47,2784.99l-1462.06 0c-233.11,0 -431.86,-169.31 -468.29,-399.58 -72.85,-461.5 -161.95,-1237.24 -67,-1860.31 47.75,-312.57 298.41,-554.36 612.68,-590.98l0 0.01z"/>
   <path class="fil6" d="M4286.6 9425.3c-53.8,0 -107.96,-5.85 -162.14,-17.56 -236.88,-51.52 -429.78,-207.82 -529.25,-428.46l-910.15 -2021.88c-10.57,-23.4 0,-50.58 23.22,-61.16 23.22,-10.38 50.77,-0.19 61.16,23.22l910.15 2022.07c87.2,193.66 256.51,330.88 464.51,376.18 204.23,44.36 411.09,-8.49 567.2,-144.96 8.49,-7.36 16.99,-15.1 25.48,-22.84 18.88,-17.37 48.13,-16.05 65.31,2.83 17.37,18.88 16.05,48.13 -2.83,65.5 -9.06,8.3 -18.12,16.42 -27.18,24.16 -137.03,119.86 -308.04,183.28 -485.65,183.28l0.19 -0.38z"/>
   <path class="fil6" d="M2592.76 6685.4c-17.74,0 -34.54,-10.19 -42.28,-27.18l-101.55 -225.56c-10.57,-23.22 0,-50.58 23.22,-61.16 23.22,-10.57 50.77,0 61.16,23.22l101.55 225.56c10.57,23.4 0,50.77 -23.22,61.16 -6.04,2.83 -12.65,3.96 -18.88,3.96z"/>
   <path class="fil7" d="M11326.96 4382.48c-23.97,0 -44.54,-18.69 -46.05,-43.03 -19.82,-279.91 -116.45,-488.48 -286.9,-619.66 -295.39,-227.26 -720.46,-149.49 -724.8,-148.55 -25.1,4.72 -49.26,-11.71 -54.18,-36.81 -4.72,-25.1 11.71,-49.26 36.62,-54.18 19.06,-3.58 469.23,-86.82 798.23,165.72 192.71,147.98 301.24,379.01 323.33,686.86 1.7,25.48 -17.56,47.56 -43.03,49.45 -1.13,0.19 -2.26,0.19 -3.4,0.19l0.19 0.01z"/>
   <path class="fil6" d="M3228.09 4056.13l-1183.09 0c-40.2,0 -75.5,-21.14 -94.75,-56.25 -19.25,-35.3 -17.56,-76.45 4.15,-110.23 9.06,-14.16 27.93,-18.12 42.09,-9.06 14.16,9.06 18.12,27.93 9.06,42.09 -9.43,14.73 -10.19,32.66 -1.89,48.13 8.3,15.29 23.78,24.54 41.34,24.54l1183.09 0c25.86,0 47,-21.14 47,-47l0 -84.18c0,-25.86 -21.14,-47 -47,-47l-1191.95 0c-16.8,0 -30.38,-13.59 -30.38,-30.38 0,-16.8 13.59,-30.38 30.38,-30.38l1191.95 0c59.46,0 107.96,48.32 107.96,107.96l0 84.18c0,59.46 -48.32,107.96 -107.96,107.96l0 -0.39z"/>
   <path class="fil6" d="M3122.58 4580.1l-1183.09 0c-40.2,0 -75.69,-21.14 -94.75,-56.25 -19.25,-35.3 -17.56,-76.45 4.15,-110.23 9.06,-14.16 27.93,-18.12 42.09,-9.06 14.16,9.06 18.12,27.93 9.06,42.09 -9.43,14.73 -10.19,32.66 -1.89,47.94 8.3,15.29 23.78,24.54 41.34,24.54l1183.09 0c25.86,0 47,-21.14 47,-47l0 -84.18c0,-26.05 -21.14,-47 -47,-47l-1191.95 0c-16.8,0 -30.38,-13.59 -30.38,-30.38 0,-16.8 13.59,-30.38 30.38,-30.38l1191.95 0c59.46,0 107.96,48.51 107.96,107.96l0 84.18c0,59.46 -48.32,107.96 -107.96,107.96l0 -0.2z"/>
   <path class="fil6" d="M3228.09 5193.73l-1183.09 0c-40.2,0 -75.5,-21.14 -94.75,-56.44 -19.25,-35.3 -17.56,-76.45 4.15,-110.23 9.06,-14.16 27.93,-18.12 42.09,-9.06 14.16,9.06 18.12,27.93 9.06,42.09 -9.43,14.73 -10.19,32.66 -1.89,48.13 8.3,15.29 23.78,24.54 41.34,24.54l1183.09 0c25.86,0 47,-21.14 47,-47l0 -84.18c0,-25.86 -21.14,-47 -47,-47l-1191.95 0c-16.8,0 -30.38,-13.59 -30.38,-30.38 0,-16.8 13.59,-30.38 30.38,-30.38l1191.95 0c59.46,0 107.96,48.32 107.96,107.96l0 84.18c0,59.46 -48.32,107.96 -107.96,107.96l0 -0.2z"/>
   <path class="fil6" d="M3338.71 5874.91l-1183.09 0c-40.2,0 -75.5,-21.14 -94.75,-56.25 -19.25,-35.3 -17.56,-76.45 4.15,-110.23 9.06,-14.16 27.93,-18.12 42.09,-9.06 14.16,9.06 18.12,27.93 9.06,42.09 -9.43,14.73 -10.19,32.66 -1.89,48.13 8.3,15.48 23.78,24.54 41.34,24.54l1183.09 0c25.86,0 47,-21.14 47,-47l0 -84.18c0,-25.86 -21.14,-47 -47,-47l-1191.95 0c-16.8,0 -30.38,-13.59 -30.38,-30.38 0,-16.8 13.59,-30.38 30.38,-30.38l1191.95 0c59.46,0 107.96,48.32 107.96,107.96l0 84.18c0,59.46 -48.32,107.78 -107.96,107.78l0 -0.2z"/>
   <path class="fil7" d="M4496.3 3413.06c-12.46,0 -24.16,-7.92 -28.12,-20.57 -4.91,-15.48 3.58,-32.09 19.25,-37.19l5430.89 -1728.2c15.48,-4.91 32.28,3.58 37.19,19.25 5.09,15.48 -3.58,32.09 -19.06,37.19l-5430.89 1728.2c-3.02,0.94 -6.04,1.32 -9.06,1.32l-0.2 0z"/>
   <path class="fil7" d="M3761.88 3713.36c-11.71,0 -22.65,-6.98 -27.37,-18.31 -6.23,-15.1 1.13,-32.28 16.23,-38.51l279.54 -114.19c15.1,-6.23 32.28,1.13 38.51,16.23 6.23,15.1 -1.13,32.28 -16.23,38.51l-279.54 114.19c-3.58,1.51 -7.36,2.26 -11.14,2.26l0 -0.19z"/>
   <path class="fil8" d="M7546.49 3414c-1.89,-22.08 -24.35,-41.34 -62.67,-56.63 41.71,-23.03 64.74,-47.56 62.67,-71.72 -5.85,-73.04 -237.07,-114 -516.6,-91.54 -279.35,22.46 -501.13,100.04 -495.28,173.08 1.7,22.08 24.35,41.34 62.67,56.63 -41.71,23.03 -64.74,47.56 -62.67,71.72 1.7,22.08 24.35,41.34 62.67,56.63 -41.71,23.03 -64.74,47.56 -62.67,71.72 1.7,22.08 24.35,41.34 62.67,56.63 -41.71,23.03 -64.74,47.56 -62.67,71.72 2.64,32.28 49.26,58.33 124.76,75.32 -0.94,23.78 -0.38,50.02 1.89,78.9 10.95,134.58 162.33,240.09 362.59,240.09 200.07,0 373.54,-143.83 375.43,-278.78 0.38,-33.04 -0.94,-62.29 -3.96,-88.14 95.89,-31.9 154.02,-70.97 151,-108.91 -1.89,-22.08 -24.35,-41.34 -62.67,-56.63 41.71,-23.03 64.74,-47.56 62.67,-71.72 -1.89,-22.08 -24.35,-41.34 -62.67,-56.63 41.71,-23.03 64.74,-47.56 62.67,-71.72l0.18 -0.01z"/>
   <path class="fil9" d="M6900.78 3856.62c-82.86,0 -158.92,-6.04 -221.59,-18.12 -3.58,-0.75 -6.04,-4.15 -5.28,-7.92 0.75,-3.58 4.15,-6.04 7.92,-5.28 98.15,18.88 229.14,23.03 369.19,11.71 114.38,-9.24 221.4,-27.74 309.55,-53.42 3.58,-0.94 7.36,0.94 8.49,4.53 0.94,3.58 -1.13,7.36 -4.72,8.3 -88.9,26.05 -196.86,44.54 -312.19,53.99 -52.09,4.15 -102.87,6.23 -151.19,6.23l-0.19 0z"/>
   <path class="fil10" d="M6902.1 3728.27c-107.96,0 -204.23,-10.19 -272.18,-29.44 -3.58,-0.94 -5.66,-4.72 -4.53,-8.3 0.94,-3.58 4.72,-5.66 8.3,-4.53 96.83,27.55 252.74,36.05 417.14,22.84 162.52,-13.03 314.27,-46.05 405.62,-88.14 3.21,-1.51 7.36,0 8.87,3.21 1.51,3.4 0,7.36 -3.21,8.87 -92.86,42.85 -246.13,76.26 -410.15,89.47 -51.15,4.15 -101.55,6.23 -149.68,6.23l-0.19 -0.19z"/>
   <path class="fil11" d="M6900.78 3599.92c-116.45,0 -218.19,-11.9 -286.9,-34.54 -3.4,-1.13 -5.47,-4.91 -4.34,-8.49 1.13,-3.58 5.09,-5.47 8.49,-4.34 95.51,31.52 257.08,41.71 432.8,27.55 162.52,-13.03 314.08,-46.05 405.62,-88.33 3.21,-1.51 7.36,0 8.87,3.21 1.51,3.4 0,7.36 -3.21,8.87 -92.86,42.85 -246.13,76.26 -410.15,89.47 -52.09,4.15 -102.87,6.23 -151.19,6.23l0.01 0.39z"/>
   <path class="fil12" d="M6901.54 3471.39c-92.3,0 -176.29,-7.55 -241.6,-21.89 -3.58,-0.75 -5.85,-4.34 -5.09,-7.92 0.75,-3.58 4.34,-5.85 8.11,-5.09 98.15,21.89 239.52,27.55 387.88,15.48 161.01,-13.03 312.01,-45.68 403.55,-87.39 3.21,-1.51 7.36,0 8.87,3.4 1.51,3.4 0,7.36 -3.4,8.87 -92.86,42.28 -245.38,75.32 -407.89,88.52 -51.34,4.15 -101.93,6.23 -150.24,6.23l-0.19 -0.19z"/>
   <path class="fil13" d="M6347.18 2765.83c-33.98,-120.24 -91.54,-232.54 -169.12,-330.32 -166.29,-209.7 -437.71,-635.9 -471.12,-1217.81 -48.51,-846.36 701.96,-1270.1 1386.93,-1212.53 684.97,57.57 1360.7,567.57 1286.71,1354.85 -45.68,484.52 -316.72,851.83 -518.68,1062.85 -128.16,134.01 -219.7,298.22 -269.16,476.78 -60.59,218.76 -204.8,491.31 -547.38,507.93 -443.56,21.52 -627.6,-391.84 -698.38,-641.94l0.19 0.19z"/>
   <path class="fil14" d="M7158.8 3239.03l239.71 -1558.7c4.91,-32.28 20.76,-53.8 35.49,-48.32 14.54,5.47 22.46,36.05 17.37,68.33 0,0.75 -0.19,1.89 -0.38,2.83l-272.93 1544.16c-2.08,11.71 -7.92,18.88 -13.22,16.42 -5.09,-2.45 -7.55,-13.4 -5.85,-24.72l-0.19 0z"/>
   <path class="fil15" d="M6910.03 3251.49l-239.71 -1558.7c-4.91,-32.28 -20.76,-53.8 -35.49,-48.32 -14.73,5.47 -22.46,36.05 -17.56,68.33 0.19,0.94 0.38,1.89 0.38,2.83l272.93 1544.16c2.08,11.71 7.92,18.88 13.22,16.42 4.91,-2.45 7.55,-13.4 5.85,-24.72l0.38 0z"/>
   <path class="fil16" d="M7396.82 1546.51c-6.04,-9.81 -20.2,-13.4 -31.52,-8.11l-133.44 62.29 -46.24 -131.93c-2.45,-6.79 -8.11,-13.03 -16.23,-16.23 -15.29,-6.41 -33.79,-0.75 -40.96,12.65l-0.19 0.38 -109.66 200.07 -101.74 -284.82 -0.19 -0.57c-2.45,-6.98 -7.74,-13.22 -15.48,-17.37 -16.99,-9.24 -39.64,-4.91 -50.39,10l-153.45 211.21c-6.23,8.68 -3.96,20.2 5.47,26.61 10,6.79 24.72,5.28 32.66,-3.58l135.14 -150.62 121.75 271.05 0 0.19c1.89,4.34 5.66,8.11 10.76,10.57 11.33,5.28 25.67,1.7 31.9,-8.3l117.41 -188.37 44.17 95.31 0.38 0.75 1.13 2.08c6.04,9.81 20.2,13.4 31.33,8.11l158.36 -73.99c11.33,-5.28 15.48,-17.56 9.43,-27.37l-0.39 0z"/>
   <path class="fil17" d="M7867.37 2222.05c-6.41,0 -12.65,-1.89 -18.12,-6.04 -13.59,-10 -16.23,-29.06 -6.23,-42.66 40.77,-54.93 78.15,-111.74 111.17,-168.93 8.49,-14.54 26.99,-19.63 41.53,-11.14 14.54,8.3 19.63,26.99 11.14,41.53 -34.17,59.08 -72.85,117.97 -114.94,174.78 -6.04,8.11 -15.1,12.27 -24.35,12.27l-0.2 0.19z"/>
   <path class="fil18" d="M8064.43 1883.81c-3.96,0 -8.11,-0.75 -12.08,-2.45 -15.29,-6.6 -22.46,-24.54 -15.86,-40.02 253.3,-583.24 34.92,-1072.67 32.66,-1077.57 -6.98,-15.29 -0.19,-33.41 15.1,-40.39 15.29,-6.98 33.41,-0.19 40.39,14.91 9.62,20.95 231.97,519.25 -32.09,1127.21 -5.09,11.52 -16.23,18.31 -27.93,18.31l-0.19 0z"/>
   <path class="fil19" d="M9082.73 6671.44l50.58 13.78 0.19 0c9.24,2.64 14.73,12.08 12.27,21.33 -2.64,9.24 -12.08,14.91 -21.52,12.27l0 0 -50.77 -13.78c-9.24,-2.45 -14.73,-12.08 -12.27,-21.33 2.64,-9.24 12.08,-14.73 21.33,-12.27l0 0 0.19 0z"/>
   <path class="fil19" d="M9251.66 6715.99l50.77 12.84 0 0c9.43,2.26 15.1,11.9 12.84,21.14 -2.26,9.43 -11.9,15.1 -21.33,12.84l0 0 -50.96 -12.84c-9.43,-2.45 -15.1,-11.9 -12.65,-21.33 2.26,-9.24 11.9,-15.1 21.14,-12.65l0 0 0.19 0z"/>
   <path class="fil19" d="M9421.54 6757.13l51.15 11.71 0 0c9.43,2.08 15.48,11.52 13.22,20.95 -2.08,9.43 -11.52,15.48 -20.95,13.4l0 0 -51.34 -11.71c-9.43,-2.08 -15.29,-11.52 -13.22,-20.95 2.08,-9.43 11.71,-15.48 21.14,-13.22l0 0 0 -0.19z"/>
   <path class="fil19" d="M9592.36 6794.69l51.34 10.38 0.19 0c9.62,1.89 15.67,11.33 13.78,20.76 -1.89,9.62 -11.33,15.67 -20.76,13.78l0 0 -51.52 -10.57c-9.62,-1.89 -15.67,-11.33 -13.78,-20.76 1.89,-9.62 11.33,-15.67 20.95,-13.78l0 0 -0.19 0.19z"/>
   <path class="fil19" d="M9763.74 6828.1l51.71 9.24 0 0c9.62,1.7 16.05,10.95 14.35,20.57 -1.7,9.81 -10.95,16.05 -20.57,14.35l0 0 -51.9 -9.43c-9.62,-1.7 -16.05,-10.95 -14.35,-20.57 1.7,-9.62 10.95,-16.05 20.57,-14.35l0 0 0.19 0.19z"/>
   <path class="fil19" d="M9936.07 6857.54l51.71 7.92 0.19 0c9.81,1.51 16.42,10.57 14.91,20.39 -1.51,9.81 -10.57,16.42 -20.39,15.1l0 0 -52.09 -8.11c-9.81,-1.51 -16.42,-10.57 -14.91,-20.39 1.51,-9.81 10.57,-16.42 20.39,-14.91l0.19 0z"/>
   <path class="fil19" d="M10108.96 6882.46l52.09 6.41 0 0c10,1.32 16.99,10.19 15.67,20.01 -1.32,9.81 -10.19,16.8 -20.01,15.67l0 0 -52.28 -6.6c-9.81,-1.32 -16.8,-10.19 -15.48,-20.01 1.13,-9.81 10.19,-16.8 20.01,-15.48l0 0z"/>
   <path class="fil19" d="M10282.42 6902.28l52.28 4.91 0.19 0c9.81,0.94 17.18,9.81 16.23,19.63 -0.94,10 -9.81,17.18 -19.63,16.23l0 0 -52.47 -5.09c-10,-0.94 -17.18,-9.81 -16.23,-19.63 0.94,-10 9.81,-17.18 19.63,-16.23l0 0 0 0.19z"/>
   <path class="fil19" d="M10456.45 6917.19l52.28 3.4 0.19 0c9.81,0.75 17.56,9.24 16.8,19.25 -0.57,10 -9.24,17.56 -19.25,16.8l0 0 -52.66 -3.58c-10,-0.75 -17.56,-9.24 -16.8,-19.25 0.57,-10 9.24,-17.56 19.25,-16.8l0 0 0.19 0.19z"/>
   <path class="fil19" d="M10630.86 6927.01l52.28 2.08 0.19 0c10,0.38 17.93,8.87 17.56,18.88 -0.38,10 -8.87,17.93 -18.88,17.37l0 0 -52.66 -2.08c-10,-0.38 -17.93,-8.87 -17.37,-18.88 0.38,-10.19 8.87,-17.93 18.88,-17.56l0.19 0 -0.19 0.19z"/>
   <path class="fil19" d="M10805.45 6932.1l52.28 0.57 0.19 0c10.19,0 18.31,8.3 18.12,18.5 -0.19,10 -8.3,18.31 -18.31,18.12l-0.19 0 -52.66 -0.57c-10.19,0 -18.31,-8.3 -18.12,-18.5 0.19,-10 8.3,-18.12 18.5,-18.12l0.38 0 -0.19 0z"/>
   <path class="fil19" d="M10979.85 6931.91l52.28 -0.94 0.38 0c10.19,-0.19 18.5,7.92 18.69,18.12 0.19,10.19 -7.92,18.5 -18.12,18.69l0 0 -52.66 0.94c-10.19,0.19 -18.5,-7.92 -18.69,-17.93 -0.19,-10.19 7.92,-18.69 18.12,-18.69l0 0 0 -0.19z"/>
   <path class="fil19" d="M11154.63 6926.82l52.09 -2.64 0.38 0c10.19,-0.57 18.88,7.36 19.25,17.56 0.57,10.19 -7.17,18.88 -17.56,19.44l0 0 -52.85 2.64c-10.19,0.38 -18.69,-7.36 -19.25,-17.56 -0.38,-10.19 7.55,-18.88 17.74,-19.25l0.19 0 0 -0.19z"/>
   <path class="fil19" d="M11328.86 6916.43l52.09 -4.15 0.19 0c10.19,-0.75 19.25,6.98 20.01,17.18 0.75,10.19 -6.79,19.25 -17.18,20.01l0 0 -52.47 4.15c-10.19,0.75 -19.06,-6.79 -19.82,-16.99 -0.94,-10.19 6.79,-19.06 16.8,-20.01l0.38 0 0 -0.19z"/>
   <path class="fil19" d="M11502.69 6900.39l52.09 -5.85 0.38 0c10.19,-1.13 19.44,6.23 20.57,16.42 1.13,10.19 -6.04,19.44 -16.42,20.57l0 0 -52.47 5.85c-10.19,1.13 -19.25,-6.23 -20.57,-16.42 -1.13,-10.19 6.41,-19.44 16.42,-20.57l0.19 0 -0.19 0z"/>
   <path class="fil19" d="M11675.96 6878.87l51.9 -7.55 0.19 0c10.19,-1.51 19.82,5.47 21.33,15.86 1.51,10.19 -5.66,19.82 -15.86,21.33l0 0 -52.28 7.55c-10.19,1.51 -19.63,-5.66 -21.14,-15.86 -1.51,-10.19 5.66,-19.82 15.86,-21.14l0.19 -0.19 -0.19 0z"/>
   <path class="fil19" d="M11848.29 6851.69l51.52 -9.43 0.19 0c10.19,-1.89 20.01,4.91 21.89,15.29 1.89,10.19 -4.91,20.01 -15.1,21.89l0 0 -51.9 9.24c-10.19,1.89 -20.01,-4.91 -22.08,-15.1 -1.89,-10.19 4.91,-20.01 15.29,-21.89l0.19 0z"/>
   <path class="fil19" d="M12019.68 6818.48l51.15 -11.33 0.38 0c10.19,-2.26 20.39,4.15 22.46,14.54 2.26,10.19 -4.15,20.39 -14.54,22.46l0 0 -51.52 11.14c-10.19,2.26 -20.2,-4.15 -22.27,-14.35 -2.26,-10.19 4.15,-20.2 14.35,-22.46l0.19 0 -0.19 0z"/>
   <path class="fil19" d="M12189.55 6779.03l50.58 -13.22 0.38 0c10.19,-2.64 20.57,3.58 23.03,13.59 2.64,10.19 -3.4,20.57 -13.59,23.22l0 0 -51.15 13.22c-10.19,2.64 -20.57,-3.4 -23.03,-13.59 -2.64,-10.19 3.4,-20.57 13.59,-23.22l0.19 0z"/>
   <path class="fil19" d="M12357.92 6732.98l50.02 -15.1 0.38 0c10.19,-3.02 20.57,2.64 23.59,12.84 3.21,10.19 -2.64,20.76 -12.65,23.78l0 0 -50.58 15.29c-10,3.02 -20.57,-2.64 -23.78,-12.84 -3.02,-10.19 2.83,-20.76 13.03,-23.78l0.19 0 -0.19 -0.19z"/>
   <path class="fil19" d="M12524.02 6680.12l49.26 -17.18 0.38 0c10,-3.4 20.95,1.7 24.35,11.9 3.4,10 -1.89,20.95 -11.71,24.54l-0.19 0 -49.83 17.37c-10.19,3.58 -20.95,-1.7 -24.35,-11.71 -3.4,-10 1.89,-20.95 11.71,-24.54l0.38 0 0 -0.38z"/>
   <path class="fil20" d="M6605.2 8235.23c0,0 -88.52,-233.29 -192.15,-211.97 -103.44,21.33 -216.68,100.98 -216.68,100.98l-166.29 224.8c0,0 466.97,183.85 630.99,78.52 0,0 476.97,82.48 1079.08,-16.42 -87.2,-184.03 -139.11,-368.25 -169.69,-511.32 -305.02,172.7 -633.45,301.62 -965.27,335.41l0 -0.01z"/>
   <path class="fil21" d="M9131.05 6543.09c0,0 -682.71,859.95 -1560.59,1356.73 30.57,143.07 82.48,327.29 169.69,511.32 455.45,-74.75 982.44,-253.11 1429.4,-649.3l-38.32 -1218.75 -0.18 0z"/>
   <path class="fil22" d="M12.74 6939.65l1355.22 3408.45c68.89,173.46 247.83,277.08 432.61,250.47l3553.96 -262.36 -1280.09 -3624.56c-34.17,-89.65 -120.99,-148.17 -216.87,-145.9 -623.06,14.35 -2892.59,70.4 -3704.41,142.51 -112.68,10.19 -183.47,126.65 -140.43,231.41l0 -0.01z"/>
   <path class="fil23" d="M1680.91 10443.8l-1354.09 -3439.02c-27.37,-69.46 22.84,-144.96 97.4,-146.47l3346.91 -127.03c86.26,-3.4 165.16,48.32 196.67,128.54l1225.74 3352.57 -3512.64 231.41z"/>
   <path class="fil24" d="M13547.98 6939.65l-1355.22 3408.45c-69.08,173.46 -248.02,277.08 -432.8,250.47l-3553.97 -248.77 1280.1 -3638.35c33.98,-89.65 120.99,-148.17 216.87,-145.9 623.06,14.35 2892.59,70.4 3704.6,142.51 112.68,10.19 183.47,126.65 140.62,231.41l-0.19 0.19z"/>
   <path class="fil25" d="M11879.63 10443.8l1354.28 -3439.02c27.37,-69.46 -22.84,-144.96 -97.4,-146.47l-3346.91 -127.03c-86.26,-3.4 -165.16,48.32 -196.49,128.54l-1225.93 3352.57 3512.45 231.41z"/>
   <path class="fil26" d="M4014.24 6656.91l42.47 1138.35c120.43,41.34 234.99,73.61 344.09,97.78 68.33,-219.7 218.57,-489.62 341.64,-690.07 -452.24,-159.88 -728.19,-545.87 -728.19,-545.87l0 -0.19z"/>
   <path class="fil27" d="M6272.24 6637.46c-620.42,669.88 -1122.49,709.32 -1529.81,565.31 -123.07,200.64 -273.31,470.36 -341.64,690.07 1656.65,365.23 2046.8,-1157.8 2046.8,-1157.8l-175.53 -97.59 0.18 0z"/>
   <path class="fil28" d="M6397.95 6566.31c0,0 71.34,-76.64 203.66,-52.66 132.12,23.97 250.1,70.02 332.39,0 82.3,-70.02 111.36,23.97 111.36,23.97l-246.89 187.62 -400.72 -158.92 0.19 -0.01z"/>
   <path class="fil29" d="M6250.35 6697.49c0,0 48.88,-204.8 196.49,-176.67 147.6,28.12 482.64,210.27 568.89,176.67 86.26,-33.6 196.67,-113.81 253.3,-85.5l-99.66 124.01c0,0 256.51,-147.98 300.68,-57.01l-426.76 240.28c0,0 -624.38,-62.67 -792.93,-221.59l0 -0.19z"/>
   <path class="fil30" d="M1866.64 10408.5c0,0 -211.59,-3022.08 1331.44,-3961.67 0,0 431.48,-284.82 969.04,266.71 537.56,551.53 364.47,1124.57 -86.64,1661.75 -451.11,536.99 -910.72,1496.41 -801.25,2033.4l-1412.61 0 0 -0.19z"/>
   <path class="fil31" d="M3975.93 5623.69c-0.38,36.05 -514.34,765.95 -514.34,765.95 0,0 92.3,181.77 532.65,329.18l380.14 -781.61 -398.45 -313.52z"/>
   <path class="fil32" d="M3773.77 8129.53c0,0 974.89,816.54 2027.73,460.17 65.31,-22.08 136.65,-17.37 197.62,14.91l302.56 159.88c127.03,67.19 284.25,23.03 358.06,-100.23 42.09,-70.4 77.96,-150.62 84.94,-227.63l-592.11 -239.71 43.6 -72.66c0,0 -289.17,-24.54 -364.85,182.71 0,0 -550.77,229.14 -1479.6,-792.56 0,0 -421.48,358.44 -578.14,615.14l0.19 -0.02z"/>
   <path class="fil33" d="M3721.3 8125.94c-4.15,0 -8.3,-1.13 -12.08,-3.58 -411.66,-278.22 -605.32,-727.25 -607.21,-731.79 -4.72,-10.95 0.57,-23.59 11.52,-28.31 10.95,-4.72 23.59,0.38 28.31,11.52 1.89,4.34 190.83,441.86 591.73,712.72 9.81,6.6 12.46,20.01 5.85,30.01 -4.15,6.23 -10.95,9.43 -17.93,9.43l-0.18 0z"/>
   <path class="fil34" d="M4332.66 7505.52c-6.98,0 -13.97,-3.58 -18.12,-9.81 -1.32,-1.89 -126.65,-197.24 -365.61,-625.13 -72.85,-130.24 -168.37,-212.91 -283.88,-245.19 -191.77,-53.61 -376.56,49.26 -378.44,50.39 -10.38,5.85 -23.4,2.26 -29.44,-8.11 -5.85,-10.38 -2.26,-23.59 8.11,-29.44 8.11,-4.72 201.78,-112.68 411.09,-54.36 127.22,35.49 231.6,124.95 310.31,265.76 238.2,426.38 362.96,620.98 364.29,622.87 6.41,10 3.58,23.4 -6.41,29.82 -3.58,2.26 -7.74,3.4 -11.71,3.4l-0.19 -0.19z"/>
   <path class="fil35" d="M4380.42 5205.42c0,0 182.9,419.96 195.17,640.42 12.27,220.46 59.84,363.53 -195.17,407.89 -254.81,44.36 -469.61,-82.67 -585.88,-302.19 0,0 -182.34,-338.43 -141.38,-476.97 40.96,-138.55 727.25,-269.15 727.25,-269.15l0.01 0z"/>
   <path class="fil36" d="M3881.55 5793.75l14.54 -6.41c18.5,-8.11 26.42,-30.2 17.18,-48.13 -35.87,-69.46 -106.08,-228.58 -15.48,-265.76 116.65,-47.75 578.7,-142.13 678.56,-305.95 95.89,-157.6 10.95,-361.08 -116.65,-418.84 -8.49,-3.96 -18.69,-0.75 -23.03,7.55l-10.57 20.2c-7.17,13.78 -27.55,11.71 -31.9,-3.21 -4.15,-14.35 -23.22,-17.18 -31.14,-4.53 -30.57,49.07 -113.44,128.54 -334.66,169.5 -314.46,58.14 -522.27,185.35 -527.56,402.59 -0.38,13.78 -14.91,21.52 -26.8,14.35 -23.22,-14.16 -60.4,-20.76 -110.04,20.95 -86.26,72.66 -50.96,261.04 138.36,416.01 9.06,7.36 8.87,21.33 -0.75,27.74 -34.36,22.27 -85.5,75.5 47.19,146.28 137.03,73.23 239.52,67.38 278.97,60.78 9.81,-1.7 16.05,-11.14 13.97,-20.76l-42.09 -191.01c-2.45,-10.76 5.85,-21.14 16.99,-21.14l65.5 0 -0.58 -0.2z"/>
   <path class="fil37" d="M3889.48 5833.95c0,0 -69.65,-268.22 -190.07,-193.09 -120.24,75.32 62.48,300.68 159.12,310.69l30.95 -117.6z"/>
   <path class="fil38" d="M5999.12 8604.62c0,0 247.64,242.35 295.58,207.06 16.99,-12.65 60.02,-58.14 101.55,-108.91 29.25,-35.87 32.28,-86.45 7.17,-125.33l-58.51 -90.03c-55.68,-86.07 -174.97,-104 -252.17,-36.81 -38.88,33.79 -74.17,82.86 -93.8,154.02l0.19 0z"/>
   <path class="fil39" d="M9903.03 10363.95c0,0 -1.7,-1088.71 -634.77,-2213.09 -198,-351.64 -268.41,-761.04 -206.68,-1159.87l69.27 -447.9c0,0 868.82,-294.07 1831.81,-12.46 0,0 1335.41,1102.11 443,3921.09l-1502.64 -87.77 0.01 0z"/>
   <path class="fil40" d="M9278.84 5971.37l225.37 541.34c14.16,34.17 44.92,58.51 81.35,64.74 129.86,22.27 444.13,57.01 650.44,-78.71 24.54,-16.23 30.76,-49.45 13.97,-73.61l-416.2 -597.58 -554.92 143.83 -0.01 -0.01z"/>
   <path class="fil7" d="M9834.52 8514.96c-30.95,8.11 -46.43,43.03 -31.52,71.34l651.76 1249.71c10.95,21.14 35.49,31.52 58.14,24.91l2131.93 -615.51c26.61,-7.74 41.9,-35.49 34.17,-61.91l-367.12 -1271.23c-7.74,-26.05 -34.73,-41.53 -60.97,-34.54l-2416.38 637.22 -0.02 0.01z"/>
   <path class="fil6" d="M9972.12 8368.11c-30.57,7.17 -47.75,39.45 -37,69.08l521.71 1417.14c9.62,25.86 37.37,39.83 63.8,32.28l2125.32 -613.63c26.61,-7.55 42.47,-34.36 36.62,-61.34l-294.45 -1363.9c-6.23,-28.69 -34.73,-46.62 -63.42,-39.83l-2352.58 560.39 0 -0.19z"/>
   <path class="fil41" d="M10157.28 8225.04c-37.37,5.66 -61.91,41.9 -53.42,78.52l354.29 1530c8.49,36.05 45.49,57.76 81.16,47.56l2093.24 -604.38c33.6,-9.81 53.61,-44.36 44.73,-78.33l-322.01 -1248.77c-8.3,-32.09 -39.45,-52.85 -72.29,-47.75l-2125.7 323.14 -0.01 0.01z"/>
   <path class="fil42" d="M11851.5 8808.27c162.52,-1227.25 -783.31,-2170.81 -783.31,-2170.81l-562.67 656.09c427.14,532.46 630.24,1020.38 723.1,1403.73 123.07,-35.87 419.22,-92.48 622.87,111.17l0.01 -0.19z"/>
   <path class="fil43" d="M11228.82 8711.64c-6.41,0 -12.46,-4.53 -13.97,-10.95 -115.13,-475.27 -357.49,-945.83 -720.27,-1398.07 -5.09,-6.23 -3.96,-15.29 2.08,-20.2 6.23,-5.09 15.29,-3.96 20.39,2.08 365.42,455.64 609.66,929.97 725.93,1409.39 1.89,7.74 -2.83,15.48 -10.76,17.37 -1.13,0.19 -2.26,0.38 -3.4,0.38l0.01 0.01z"/>
   <path class="fil44" d="M11228.82 8697.1c86.26,356.17 77.01,621.93 64.17,748.96 -5.09,47.75 -43.41,85.13 -91.35,88.52 -54.55,3.77 -128.73,8.87 -194.98,12.65 -73.04,4.15 -153.64,-41.9 -207.82,-80.41 -27.55,-19.63 -63.42,10.95 -47.94,41.15 40.39,78.9 142.7,149.3 213.29,190.64 25.86,15.1 20.95,53.42 -7.74,61.53l-302 85.5c496.22,467.34 823.52,-55.5 823.52,-55.5 219.14,-338.43 332.39,-669.31 373.54,-981.87 -203.66,-203.66 -499.81,-147.04 -622.87,-111.17l0.17 0z"/>
   <path class="fil45" d="M9511.95 5143.33c-9.43,8.87 -399.21,774.44 -399.21,774.44l441.86 213.29 477.16 -670.63c0,0 -361.46,-466.2 -519.82,-317.09z"/>
   <path class="fil46" d="M9830.93 5540.82l-220.27 367.3c-3.4,5.66 -7.36,10.57 -12.08,15.1 -26.23,24.35 -115.89,95.51 -185.35,-1.32 -59.08,-82.48 -114.57,-157.41 -174.03,-188.18 -34.73,-18.12 -77.58,-3.58 -95.13,31.33 -36.24,71.91 -106.64,218.57 -150.81,357.68 -11.14,34.92 6.79,72.29 40.77,86.07 89.47,36.24 266.33,101.74 423.18,123.44 25.86,3.4 51.34,-7.36 66.63,-28.31 67.57,-92.48 257.83,-350.89 322.76,-415.63 60.4,-60.02 171.76,-37.37 221.78,-23.03 19.06,5.47 39.26,2.83 56.25,-7.36 50.96,-30.76 139.68,-107.02 58.51,-236.31 -20.2,-32.09 -10,-74.94 21.89,-95.89 56.82,-37.37 118.54,-107.59 59.84,-221.21 -59.46,-115.12 -165.72,-125.32 -238.01,-116.44 -32.09,3.96 -64.55,-12.84 -76.82,-42.66 -5.47,-13.22 -16.23,-24.54 -36.24,-28.69 -37.94,-7.74 -62.85,-42.28 -55.5,-80.41 12.84,-65.12 3.21,-149.68 -100.79,-206.87 -190.64,-104.76 -357.68,66.06 -400.15,210.08 -42.47,144.21 170.63,246.12 304.83,263.1 98.53,12.46 152.51,120.05 174.21,176.1 7.92,20.39 6.04,43.22 -5.28,61.91l-0.18 0.19z"/>
   <path class="fil47" d="M9763.74 6023.27c0,0 84.75,-248.02 193.28,-238.95 108.53,9.06 193.84,117.22 59.27,238.77 -167.23,151.19 -252.74,0.19 -252.74,0.19l0.19 0z"/>
   <path class="fil48" d="M6563.3 10487.59c0,63.61 -51.52,114.94 -115.13,114.94l-4674.19 0c-96.64,0 -174.78,-78.15 -174.78,-174.78l-73.61 -85.31 4853.32 -41.53c102.12,1.32 184.41,84.56 184.41,186.68l0 0 -0.02 0z"/>
   <path class="fil49" d="M6997.42 10487.59c0,63.61 51.52,114.94 115.13,114.94l4674.01 0c96.64,0 174.97,-78.15 174.97,-174.78l73.42 -85.31 -4853.14 -41.53c-102.3,1.32 -184.41,84.56 -184.41,186.68l0 0 0.02 0z"/>
   <path class="fil19" d="M814.74 8132.37c-6.6,0 -13.03,-3.21 -16.8,-8.87 -14.73,-21.89 -30.2,-43.98 -46.24,-65.5 -6.6,-8.87 -4.72,-21.71 4.15,-28.31 9.06,-6.6 21.71,-4.91 28.31,4.15 16.23,21.89 32.28,44.54 47.37,67 6.23,9.24 3.77,21.89 -5.66,28.12 -3.4,2.26 -7.36,3.4 -11.33,3.4l0.2 0z"/>
   <path class="fil50" d="M1524.44 7323.38c-3.96,-2.26 -8.68,-1.7 -12.08,1.13l-97.59 83.05c-57.01,-17.93 -117.41,-26.8 -178.93,-25.48l-70.59 -106.83c-2.45,-3.77 -6.98,-5.47 -11.33,-4.34l-148.73 38.32c-4.34,1.13 -7.55,4.91 -7.92,9.43l-10.19 127.59c-54.55,28.5 -103.06,65.5 -144.4,108.72l-125.52 -25.67c-4.34,-0.94 -8.87,1.13 -11.14,4.91l-78.15 132.31c-2.26,3.77 -1.89,8.68 1.13,12.08l83.05 97.59c-17.93,57.19 -26.8,117.41 -25.48,179.12l-106.83 70.59c-3.77,2.45 -5.47,6.98 -4.34,11.33l38.32 148.92c1.13,4.34 4.91,7.55 9.43,7.92l127.59 10.19c28.5,54.55 65.5,103.06 108.72,144.4l-25.67 125.52c-0.94,4.34 1.13,8.87 4.91,11.14l132.31 78.15c3.77,2.26 8.68,1.89 12.08,-1.13l97.59 -82.86c57.01,17.93 117.41,26.8 178.93,25.48l70.59 106.64c2.45,3.77 6.98,5.47 11.33,4.34l148.73 -38.32c4.34,-1.13 7.55,-4.72 7.92,-9.24l10.19 -127.59c54.55,-28.5 103.06,-65.5 144.58,-108.53l125.52 25.67c4.34,0.94 8.87,-1.13 11.14,-4.91l78.15 -132.12c2.26,-3.96 1.89,-8.68 -1.13,-12.27l-83.05 -97.59c17.93,-57.01 26.8,-117.41 25.48,-178.93l106.83 -70.59c3.77,-2.45 5.47,-6.98 4.34,-11.52l-38.32 -148.73c-1.13,-4.34 -4.91,-7.55 -9.24,-7.92l-127.59 -10.19c-28.5,-54.55 -65.5,-103.25 -108.72,-144.58l25.67 -125.33c0.94,-4.53 -1.13,-8.87 -4.91,-11.14l-132.31 -78.15 -0.38 -0.57z"/>
   <path class="fil51" d="M1247.35 7837.16c-17.18,0 -34.54,4.15 -50.58,13.03 -51.34,27.93 -70.21,92.48 -42.28,143.64 27.93,51.34 92.48,70.4 143.83,42.47 24.91,-13.59 43.03,-35.87 50.96,-63.04 7.92,-27.18 4.91,-55.87 -8.68,-80.79 -19.25,-35.3 -55.68,-55.31 -93.24,-55.31l-0.01 0zm0.38 272.92c-15.86,0 -31.71,-2.26 -47.37,-6.79 -42.85,-12.65 -78.15,-40.96 -99.29,-80.22 -43.98,-80.79 -14.16,-182.34 66.63,-226.31 80.79,-44.17 182.34,-14.16 226.31,66.63 21.33,39.07 26.23,84.37 13.59,127.03 -12.65,42.66 -41.15,77.96 -80.22,99.47 -24.91,13.4 -52.09,20.39 -79.65,20.39l0 -0.19z"/>
   <path class="fil52" d="M1245.28 8347.35c-70.78,0 -140.81,-18.88 -203.29,-56.06 -92.3,-54.36 -157.79,-141.75 -184.41,-245.38 -8.68,-33.41 -12.65,-66.82 -12.65,-99.85 0,-178.74 120.43,-342.01 301.24,-388.63 0.94,-0.19 1.7,-0.38 2.64,-0.75 25.1,-6.23 50.77,-10.19 76.45,-11.52 1.7,0 3.58,-0.19 5.28,-0.19l2.45 60.97c-23.97,0.94 -48.13,4.53 -71.72,10.57 -181.77,46.81 -291.43,232.54 -244.81,414.31 22.65,87.96 78.15,161.95 156.47,208.19 78.33,46.24 169.87,59.27 257.83,36.62 153.45,-39.45 255.57,-178.18 255.57,-329.75 0,-27.93 -3.4,-56.44 -10.76,-84.75 -15.29,-59.65 -46.62,-114 -90.22,-157.22l42.66 -43.41c51.52,50.77 88.33,114.94 106.45,185.35 8.68,33.41 12.65,66.82 12.65,99.85 0,178.55 -120.43,342.01 -301.24,388.63 -33.41,8.49 -67,12.84 -100.61,12.84l0.02 0.19z"/>
  </g>
 </g>
</svg>
