<?xml version="1.0" encoding="UTF-8"?>
<!DOCTYPE svg PUBLIC "-//W3C//DTD SVG 1.1//EN" "http://www.w3.org/Graphics/SVG/1.1/DTD/svg11.dtd">
<!-- Creator: CorelDRAW 2019 (64 Bit) -->
<svg xmlns="http://www.w3.org/2000/svg" xml:space="preserve" width="145.377mm" height="112.396mm" version="1.1" style="shape-rendering:geometricPrecision; text-rendering:geometricPrecision; image-rendering:optimizeQuality; fill-rule:evenodd; clip-rule:evenodd"
viewBox="0 0 462.68 357.71"
 xmlns:xlink="http://www.w3.org/1999/xlink">
 <defs>
  <style type="text/css">
   <![CDATA[
    .fil9 {fill:#163560;fill-rule:nonzero}
    .fil19 {fill:#1C468A;fill-rule:nonzero}
    .fil10 {fill:#233862;fill-rule:nonzero}
    .fil16 {fill:#2B478B;fill-rule:nonzero}
    .fil25 {fill:#2C3A64;fill-rule:nonzero}
    .fil6 {fill:#2CED8C;fill-rule:nonzero}
    .fil5 {fill:#46F988;fill-rule:nonzero}
    .fil21 {fill:#4A75CB;fill-rule:nonzero}
    .fil0 {fill:#599DAD;fill-rule:nonzero}
    .fil23 {fill:#699DEE;fill-rule:nonzero}
    .fil1 {fill:#6BB7BF;fill-rule:nonzero}
    .fil2 {fill:#739AF0;fill-rule:nonzero}
    .fil15 {fill:#82B378;fill-rule:nonzero}
    .fil20 {fill:#912F2F;fill-rule:nonzero}
    .fil4 {fill:#A8C3F7;fill-rule:nonzero}
    .fil18 {fill:#A8D29F;fill-rule:nonzero}
    .fil12 {fill:#AF7D5B;fill-rule:nonzero}
    .fil22 {fill:#C65447;fill-rule:nonzero}
    .fil7 {fill:#D39E7A;fill-rule:nonzero}
    .fil3 {fill:#DDFDF4;fill-rule:nonzero}
    .fil8 {fill:#E0B594;fill-rule:nonzero}
    .fil13 {fill:#E2B291;fill-rule:nonzero}
    .fil14 {fill:#ED975D;fill-rule:nonzero}
    .fil24 {fill:#ED985F;fill-rule:nonzero}
    .fil11 {fill:#F2C7AA;fill-rule:nonzero}
    .fil17 {fill:#FFB27D;fill-rule:nonzero}
   ]]>
  </style>
 </defs>
 <g id="Camada_x0020_1">
  <metadata id="CorelCorpID_0Corel-Layer"/>
  <g id="_1980037821808">
   <path class="fil0" d="M364.13 98.53c0,0 -11.39,9.1 -11.62,24.61l2.13 0.11c0,0 3.14,-16.14 9.67,-22.65 6.53,-6.51 -0.18,-2.06 -0.18,-2.06z"/>
   <path class="fil1" d="M342.4 93.55c0,0 -6.6,21.82 6.85,42l2.85 -1.75c0,0 -10.27,-23.58 -7.63,-37.75 2.63,-14.18 -2.06,-2.5 -2.06,-2.5z"/>
   <path class="fil1" d="M160.82 279.82c0,0 6.6,21.82 -6.85,42l-2.85 -1.75c0,0 10.27,-23.58 7.63,-37.76 -2.63,-14.18 2.06,-2.5 2.06,-2.5z"/>
   <polygon class="fil2" points="140.42,357.45 376.68,357.45 376.68,25.67 140.42,25.67 "/>
   <polygon class="fil3" points="148.72,351.3 368.37,351.3 368.37,34.86 148.72,34.86 "/>
   <polygon class="fil4" points="171.34,83.94 350.67,83.94 350.67,73.69 171.34,73.69 "/>
   <polygon class="fil4" points="171.34,140.99 350.67,140.99 350.67,136.28 171.34,136.28 "/>
   <polygon class="fil4" points="171.34,152.06 350.67,152.06 350.67,147.35 171.34,147.35 "/>
   <polygon class="fil4" points="171.34,163.12 350.67,163.12 350.67,158.42 171.34,158.42 "/>
   <polygon class="fil4" points="171.34,174.19 350.67,174.19 350.67,169.49 171.34,169.49 "/>
   <polygon class="fil4" points="171.34,185.26 350.67,185.26 350.67,180.56 171.34,180.56 "/>
   <polygon class="fil4" points="171.34,196.33 350.67,196.33 350.67,191.63 171.34,191.63 "/>
   <path class="fil4" d="M223.85 255.92c0,7.64 -6.19,13.84 -13.84,13.84 -7.64,0 -13.84,-6.19 -13.84,-13.84 0,-7.64 6.2,-13.84 13.84,-13.84 7.64,0 13.84,6.2 13.84,13.84z"/>
   <path class="fil5" d="M268.42 20.52c-3.06,0 -5.54,-2.48 -5.54,-5.53 0,-3.06 2.48,-5.53 5.54,-5.53 3.06,0 5.53,2.48 5.53,5.53 0,3.06 -2.48,5.53 -5.53,5.53zm41.88 -0.23l-27.86 0c0.63,-1.65 0.97,-3.44 0.97,-5.3 0,-8.28 -6.71,-14.99 -14.99,-14.99 -8.28,0 -14.99,6.71 -14.99,14.99 0,1.87 0.34,3.65 0.97,5.3l-27.86 0c-2.24,0 -4.06,1.82 -4.06,4.06l0 11.25c0,2.24 1.82,4.06 4.06,4.06l83.76 0c2.24,0 4.06,-1.82 4.06,-4.06l0 -11.25c0,-2.24 -1.82,-4.06 -4.06,-4.06z"/>
   <path class="fil6" d="M226.54 39.67l83.76 0c2.24,0 4.06,-1.82 4.06,-4.06l0 -11.25 -87.82 15.31z"/>
   <path class="fil7" d="M2.78 356.14c5.58,-5.7 15.42,-9.63 26.78,-10.09l0 -16.81 -19.6 0c-0.43,0 -0.82,-0.38 -1.07,-0.96 -0.17,-0.41 -0.27,-0.92 -0.27,-1.47l0 -0.85c0,-1.34 0.61,-2.44 1.34,-2.44l19.6 0 0 -46.97c0,-1.24 1.01,-2.26 2.26,-2.26l0 0c1.24,0 2.26,1.01 2.26,2.26l0 46.97 19.6 0c0.74,0 1.34,1.09 1.34,2.44l0 0.85c0,0.57 -0.11,1.1 -0.29,1.51 -0.25,0.56 -0.63,0.92 -1.05,0.92l-19.6 0 0 16.81c11.36,0.46 21.2,4.39 26.78,10.09 0.41,0.41 0.79,0.84 1.15,1.27l-60.37 0c0.36,-0.43 0.74,-0.86 1.15,-1.27z"/>
   <path class="fil8" d="M29.56 346.13c7.93,0.73 14.74,4.56 18.69,10.01 0.3,0.42 0.58,0.84 0.85,1.27l5.59 0c-0.27,-0.43 -0.55,-0.85 -0.85,-1.27 -4.4,-6.08 -12.37,-10.14 -21.48,-10.14 -0.94,0 -1.88,0.04 -2.79,0.13z"/>
   <path class="fil9" d="M91.36 346.22c0,0 0.68,11.02 2.81,11.17 0.28,0.02 10.81,0.02 10.81,0.02l13.44 -0.08c0,0 -0.09,-3.24 -4.02,-3.92 -3.93,-0.69 -10.5,-3.45 -12.88,-8.64 -2.5,-5.46 -10.16,1.44 -10.16,1.44z"/>
   <path class="fil10" d="M38.14 265.28c1.92,3.25 4.14,6.3 6.42,9.19 7.07,8.92 14.76,16.28 16.1,23.23 0.27,1.39 0.69,2.88 1.24,4.45 0.56,1.59 1.25,3.27 2.05,5 3,6.52 7.48,13.81 11.96,20.45 7.74,11.47 14.08,19.17 14.08,19.17 0,0 2.03,1.58 7.84,1.58 1.62,0 7.05,-0.88 7.05,-0.88 -0.53,-1.34 -6.95,-16.57 -14.74,-35.92 -3.16,-7.86 -6.53,-16.21 -9.77,-24.28 -0.43,-1.08 -0.86,-2.15 -1.29,-3.21 -0.99,-2.47 -1.97,-4.89 -2.92,-7.26 -7.31,-18.17 -13.14,-32.65 -13.14,-32.65 0,0 -29.23,-11.07 -32.27,-3.9 -2.5,5.92 -0.46,11.71 7.39,25.02z"/>
   <polygon class="fil7" points="87.88,357.41 132.15,357.41 132.15,234.9 87.88,234.9 "/>
   <polygon class="fil11" points="130.31,357.41 161.97,357.41 161.97,234.9 130.31,234.9 "/>
   <polygon class="fil12" points="84.88,234.9 130.62,234.9 130.62,232.43 84.88,232.43 "/>
   <polygon class="fil13" points="130.62,234.9 165.25,234.9 165.25,232.43 130.62,232.43 "/>
   <path class="fil14" d="M84.19 215.94c0,0 6.34,3.61 8.12,3.61 1.78,0 8.75,-1.35 10.69,-0.35 1.94,0.99 5.46,4.99 6.12,6.29 1.19,2.35 -4.78,1.31 -7.6,-0.69 -0.41,-0.29 -0.92,-0.4 -1.41,-0.29 -1.46,0.32 -4.49,0.87 -5.96,0.33 -1.97,-0.73 -12.34,-1.54 -12.34,-1.54l2.38 -7.35z"/>
   <path class="fil15" d="M35.93 166.82c0,0 6.58,46.73 17.46,50.92 5.37,2.06 29.12,6.75 36.14,7.22 0,0 1.72,-1.39 1.3,-7.07 0,0 -24.88,-9.13 -28.41,-14.1 -5.26,-7.39 3.27,-30.2 -3.33,-37.14 -6.6,-6.94 -17.72,-9.93 -23.16,0.18z"/>
   <path class="fil9" d="M60.45 314.75c0,0 -9.28,5.97 -8.38,7.91 0.12,0.26 5.25,9.45 5.25,9.45l6.62 11.69c0,0 2.78,-1.66 1.47,-5.42 -1.32,-3.76 -2.11,-10.85 1.26,-15.46 3.55,-4.85 -6.21,-8.17 -6.21,-8.17z"/>
   <path class="fil16" d="M65.72 326.19c0,0 -6.54,-6.07 -7.56,-9.83 0,0 23.91,-28.65 29.1,-35.07 0.24,-0.29 0.18,-0.62 -0.14,-0.97 -3.92,-4.41 -47.42,-13.39 -53.11,-22.24 -1.96,-3.05 -3.07,-5.94 -3.67,-8.47 -1.29,-5.4 -0.27,-9.13 -0.27,-9.13l43.45 -1.26c0,0 36.17,22.53 40.27,37.88 4.09,15.36 -48.07,49.08 -48.07,49.08z"/>
   <path class="fil10" d="M87.12 280.32c-3.92,-4.41 -47.42,-13.39 -53.11,-22.24 -1.96,-3.05 -3.07,-5.94 -3.67,-8.47l0 -5.5 18.47 -2.91c0,0 5.24,16.11 20.75,22.16 14.53,5.66 17.28,15.7 17.57,16.95z"/>
   <path class="fil17" d="M61.63 163.87c-8.79,2.27 -23.36,-5.87 -23.36,-5.87 0,0 5.66,-3.8 7.75,-12.16 0.11,-0.42 0.2,-0.85 0.29,-1.3 0.92,-0.2 2.66,-0.56 4.51,-0.96l6.71 6.01c0,0 -0.15,2.5 -0.99,6.79 -0.15,0.75 -0.31,1.55 -0.51,2.41 3.6,2.23 5.59,5.06 5.59,5.06z"/>
   <path class="fil18" d="M28.97 200.31c1.26,16.93 -0.4,42.69 1.03,47.14 1.23,3.85 15.28,1.56 20.88,0.28 2.07,-0.47 4.59,-1.15 7.18,-1.96 7.24,-2.24 15.13,-5.44 15.98,-7.82 0.03,-0.09 0.06,-0.18 0.08,-0.27 0.08,-0.34 0.06,-0.67 -0.02,-1 -0.28,-1.21 -1.37,-2.52 -1.5,-5.52 -0.14,-3.35 -0.12,-7.29 -0.25,-11.53 -0.01,-0.48 -0.01,-1 -0.07,-1.48l-0 -0.17c-0,-0.09 -0,-0.18 -0.01,-0.27 -0.12,-4.73 -0.37,-9.7 -0.66,-14.63 -0.18,-3.1 -0.39,-6.16 -0.64,-9.1 -0.63,-7.59 -1.48,-14.33 -2.61,-18.6 -1.84,-6.95 -5.9,-11.49 -9.59,-14.81l-2.67 -2.29c-2.98,0.65 -6.51,0.22 -9.7,-1.29 -3.45,-1.64 -4.64,-2.81 -5.24,-2.37 -7.97,6.15 -13.7,24.99 -12.21,45.69z"/>
   <path class="fil15" d="M58.06 245.77c7.24,-2.24 15.13,-5.44 15.98,-7.82 0.03,-0.09 0.06,-0.18 0.08,-0.27 -0,-0.33 -0.01,-0.67 -0.02,-1 -0.28,-1.21 -1.37,-2.52 -1.5,-5.52 -0.14,-3.35 -0.12,-7.29 -0.25,-11.53 -0.01,-0.48 -0.01,-1 -0.07,-1.48l-0 -0.17c-0,-0.09 -0,-0.18 -0.01,-0.27l-29.27 -37.29c0,0 -19.68,40.97 15.05,65.35z"/>
   <path class="fil14" d="M57.54 149.61c0,0 -0.15,2.5 -0.99,6.79 -6.56,-2.12 -9.53,-8.04 -10.52,-10.55 0.11,-0.42 0.2,-0.85 0.29,-1.3 0.92,-0.2 2.66,-0.56 4.51,-0.96l6.71 6.01z"/>
   <path class="fil17" d="M58.42 153.39c0,0 -14.3,-2.39 -12.67,-11.27 1.62,-8.88 0.87,-15.17 10.07,-14.02 9.2,1.15 10.35,4.86 10.53,7.96 0.18,3.1 -4.16,17.72 -7.92,17.33z"/>
   <polygon class="fil19" points="89.74,230.25 125.44,230.25 135.15,198.88 136.41,199.27 126.16,232.43 89.72,232.43 "/>
   <path class="fil17" d="M80.27 231.16c0,0 11.7,3.09 16.09,2.76 4.39,-0.32 8.04,-2.41 8.59,-3.5 0.55,-1.09 1.71,-3.02 -1.28,-2.66 -2.99,0.36 -7.07,0.99 -7.19,0.42 -0.13,-0.58 2.44,-0.52 2.44,-0.52 0,0 0.77,-1.13 -0.2,-1.17 -0.97,-0.04 -3.82,-0.81 -4.88,-0.28 -1.06,0.53 -2.03,2.48 -2.8,2.4 -0.77,-0.08 -9.79,-4.06 -9.79,-4.06l-0.98 6.62z"/>
   <path class="fil18" d="M38.83 169.14c0,0 1.38,47.18 11.74,52.54 5.11,2.65 28.2,9.92 35.12,11.16 0,0 1.86,-1.2 2.07,-6.89 0,0 -23.72,-11.82 -26.68,-17.15 -4.41,-7.92 6.57,-29.65 0.78,-37.28 -5.79,-7.63 -16.51,-11.82 -23.04,-2.38z"/>
   <path class="fil10" d="M46.03 145.85c0,0 -0.16,-3.05 1.72,-4.79 0,0 -0.65,-3.05 0.55,-3.56 1.21,-0.5 1.46,2.06 2.01,1.66 0.55,-0.4 3.02,-2.32 4.08,-5.14 1.06,-2.82 10.74,0.6 11.86,1.1 1.13,0.51 4.75,-1.36 5.46,-2.87 0,0 -2.01,-1.61 -2.92,-2.82 -0.91,-1.21 -7.25,-9.37 -16.11,-7.05 -8.86,2.32 -10.07,6.55 -9.57,10.17 0.5,3.63 -0.71,12.07 2.92,13.29z"/>
   <path class="fil20" d="M62.49 259.19l0 0c-13.44,0 -26.74,-2.72 -39.1,-8l-8.02 -3.42c-7.28,-3.11 -15.37,2.23 -15.37,10.15l0 15.31c0,1.49 1.22,2.71 2.71,2.71l59.78 0c1.49,0 2.71,-1.22 2.71,-2.71l0 -11.33c0,-1.49 -1.22,-2.71 -2.71,-2.71z"/>
   <path class="fil17" d="M442.82 229.72c0,0 -0.73,7.09 -1.53,8.44 -0.8,1.34 -4.21,5.63 -5.66,6.47 -1.45,0.84 0.89,-5.65 0.59,-6.91 -0.3,-1.27 -1.19,2.3 -1.83,2.39 -0.64,0.08 -0.47,-3.13 -0.5,-4.3 -0.02,-1.17 3.11,-4.05 4.22,-6.54 1.1,-2.49 4.72,0.46 4.72,0.46z"/>
   <path class="fil17" d="M355.65 164.27l-1.63 -3.08c0,0 0.81,-5.48 -6.06,-8.95 0,0 -2.51,-1.02 -3.93,1.03 -1.31,1.89 2.49,1.55 2.28,4.77 -0.2,3.23 1.33,5.12 3.46,6.17l1.76 2.04 4.11 -1.98z"/>
   <path class="fil21" d="M420.57 156.92c0,0 -5.9,28.96 -38.37,38.42 -10.13,2.95 -33.16,-30.41 -33.16,-30.41 0,0 0.81,-3.08 5.88,-2.37 0,0 22.42,14.84 25.24,16.45 2.5,1.43 18.97,-18.39 26.48,-21.59 7.5,-3.2 13.92,-0.5 13.92,-0.5z"/>
   <polygon class="fil22" points="364.33,155.85 363.41,161.85 333.26,157.22 334.18,151.22 "/>
   <polygon class="fil17" points="326.71,153.14 333.26,157.22 334.18,151.22 "/>
   <path class="fil17" d="M367.53 158.38l-0.29 1.9c-0.18,1.17 -1.27,1.97 -2.44,1.79l-1.39 -0.21 0.92 -5.99 1.52 0.23c1.1,0.17 1.85,1.2 1.68,2.29z"/>
   <path class="fil10" d="M459.33 338.95c0,0 4.03,3.67 3.24,6.29 -0.79,2.61 -4.42,4.35 -4.91,7.55 -0.49,3.19 -2.46,4.93 -4.23,4.93 -1.76,0 -8.43,0 -8.43,0 0,0 -1.3,-2.25 1.84,-2.92 3.15,-0.68 4.33,-4.43 4.14,-7.91 -0.2,-3.48 0.29,-8.13 0.29,-8.13l6.68 -1.55 1.38 1.74z"/>
   <path class="fil10" d="M409.92 348.45c0,0 0.73,8.37 -1.04,9.24l-22.63 -0.05c0,0 0,-2.61 3.63,-3.19 3.63,-0.58 10.02,-2.71 11.1,-7.45 1.08,-4.74 8.94,1.45 8.94,1.45z"/>
   <path class="fil16" d="M390.82 230.29c0,0 1.19,14.66 2.6,32.29 1.91,23.94 4.2,53.35 4.43,58.92 0.39,9.67 1.96,25.15 1.96,25.15 0,0 3.73,3.68 11.2,2.13 0,0 6.65,-22.09 8.55,-45.46 0.03,-0.38 0.06,-0.77 0.09,-1.16 1.76,-23.79 4.52,-73.9 4.52,-73.9l-33.35 2.03z"/>
   <path class="fil10" d="M390.82 230.29c0,0 1.19,14.66 2.6,32.29l26.14 40.74c0.03,-0.38 0.06,-0.77 0.09,-1.16 1.76,-23.79 4.52,-73.9 4.52,-73.9l-33.35 2.03z"/>
   <path class="fil16" d="M396.27 232.03c0,0 21.51,53.1 35.66,78.06 14.15,24.95 18.57,31.92 18.57,31.92 0,0 8.1,-3.19 8.84,-5.37 0,0 -5.41,-48.18 -14.88,-59.92 -5.36,-6.64 -11.64,-26.55 -11.94,-33.52 -0.29,-6.96 -1.91,-20.75 -1.91,-20.75l-34.33 9.58z"/>
   <path class="fil17" d="M424.57 150.2c0,0 -14.56,7.02 -22.95,4.42 0,0 2.06,-2.61 5.68,-4.54 -0.29,-1.69 -0.52,-3.15 -0.65,-4.39 -0.35,-2.86 -0.35,-4.48 -0.35,-4.48l5.62 -4.42 5.32 -4.23c-0.41,11.89 7.33,17.64 7.33,17.64z"/>
   <path class="fil23" d="M432.24 225.18c0.03,0.89 -1.88,1.91 -2.72,2.29 -6.23,2.73 -12.04,4.64 -18.62,5.28 -7.78,0.79 -16.98,-0.96 -20.14,-0.89 -0.32,0 -0.62,-0.13 -0.87,-0.35 -0.23,-0.16 -0.39,-9.53 -0.23,-21.32 0,-0.48 0,-0.95 0.03,-1.43l0 -0.16c0.06,-4.61 0.23,-9.44 0.45,-14.27 0.45,-10.62 1.29,-20.85 2.71,-26.51 1.71,-6.67 5.58,-11.09 9.1,-14.3l2.9 -2.54c2.9,0.57 5.97,0.41 9.04,-1.08 3.36,-1.62 6.98,-3.37 7.56,-2.92 4.38,3.21 7.35,10.42 8.94,19.64 0.9,5.31 1.36,11.25 1.32,17.48 0,2.29 -0.06,4.64 -0.19,6.96 -0.77,12.59 0,23.52 0.45,29.84 0.13,1.84 0.23,3.27 0.26,4.29z"/>
   <path class="fil21" d="M431.99 224.6c-50.97,-0.1 -9.4,-55.31 -9.4,-55.31l8.26 -2.68c0.66,5.67 0.98,12.02 0.96,18.67 0,2.45 -0.05,4.96 -0.14,7.44 -0.56,13.44 0,25.13 0.33,31.88z"/>
   <path class="fil24" d="M417.34 137.11c0,0 -3.68,6.71 -10.68,8.58 -0.35,-2.86 -0.35,-4.48 -0.35,-4.48l5.62 -4.42 5.42 0.32z"/>
   <path class="fil17" d="M403.74 141.01c0,0 13.89,2.27 15.19,-6.26 1.3,-8.54 3.97,-13.99 -4.84,-15.8 -8.81,-1.81 -11.04,1.19 -12.18,3.94 -1.14,2.75 -1.75,17.32 1.82,18.13z"/>
   <path class="fil25" d="M423.98 117.92c0.12,-0.14 0.41,-0.26 1.06,-0.3 0,0 -0.52,-0.32 -1.2,-0.34 -0.14,-0.9 -0.62,-2.49 -2.17,-2.88 0,0 0.83,0.44 0.94,1.4 -1.79,-1.84 -5.64,-3.18 -16.28,-2.34 -14.03,1.11 -9.4,10.09 -7.59,11.16 1.82,1.07 6.38,-1.86 9.77,-1.6 3.39,0.27 4.03,5.16 5.18,5.83 1.15,0.67 0.69,-0.52 2.25,-1.22 1.55,-0.7 1.7,1.87 1.25,3.54 -0.45,1.67 1.68,3.88 1.68,3.88 0,0 0,0 2.16,-2.32 2.16,-2.32 4.19,-12.16 3.21,-14.25 -0.09,-0.19 -0.17,-0.37 -0.26,-0.56z"/>
   <path class="fil23" d="M421.45 146.9c0,0 8.79,4.16 13,10.56 6.53,9.92 14.11,46.08 14.25,49.43 0.14,3.35 -5.53,26.99 -5.53,26.99 0,0 -5.75,-0.38 -7.23,-3.28 0,0 1.15,-24.29 0.42,-25.85 -0.73,-1.56 -23.97,-32.58 -21.35,-39.2 2.61,-6.62 6.44,-18.64 6.44,-18.64z"/>
   <path class="fil17" d="M353.99 161.05c0,0 0.48,-1.89 -0.83,-2.74 -1.31,-0.85 -2.51,-3.15 -3.06,-2.84 -1.14,0.65 0.63,2.66 0.3,5.17 -0.11,0.88 1.93,3.18 3.59,0.41z"/>
  </g>
 </g>
</svg>
