<?xml version="1.0" encoding="UTF-8"?>
<!DOCTYPE svg PUBLIC "-//W3C//DTD SVG 1.1//EN" "http://www.w3.org/Graphics/SVG/1.1/DTD/svg11.dtd">
<!-- Creator: CorelDRAW 2019 (64 Bit) -->
<svg xmlns="http://www.w3.org/2000/svg" xml:space="preserve" width="12.7mm" height="12.7mm" version="1.1" style="shape-rendering:geometricPrecision; text-rendering:geometricPrecision; image-rendering:optimizeQuality; fill-rule:evenodd; clip-rule:evenodd"
viewBox="0 0 6.84 6.84"
 xmlns:xlink="http://www.w3.org/1999/xlink">
 <defs>
  <style type="text/css">
   <![CDATA[
    .fil0 {fill:#489B6C;fill-rule:nonzero}
    .fil1 {fill:white;fill-rule:nonzero}
   ]]>
  </style>
 </defs>
 <g id="Camada_x0020_1">
  <metadata id="CorelCorpID_0Corel-Layer"/>
  <g id="_1980226424128">
   <path class="fil0" d="M3.42 0c1.89,0 3.42,1.53 3.42,3.42 0,1.89 -1.53,3.42 -3.42,3.42 -1.89,0 -3.42,-1.53 -3.42,-3.42 0,-1.89 1.53,-3.42 3.42,-3.42z"/>
   <path class="fil1" d="M3.42 1.27c-0.58,0 -0.66,0 -0.89,0.01 -0.23,0.01 -0.39,0.05 -0.52,0.1 -0.14,0.06 -0.26,0.13 -0.38,0.25 -0.12,0.12 -0.19,0.24 -0.25,0.38 -0.05,0.14 -0.09,0.29 -0.1,0.52 -0.01,0.23 -0.01,0.3 -0.01,0.89 0,0.58 0,0.66 0.01,0.89 0.01,0.23 0.05,0.39 0.1,0.52 0.06,0.14 0.13,0.26 0.25,0.38 0.12,0.12 0.24,0.19 0.38,0.25 0.14,0.05 0.29,0.09 0.52,0.1 0.23,0.01 0.3,0.01 0.89,0.01 0.58,0 0.66,-0 0.89,-0.01 0.23,-0.01 0.39,-0.05 0.52,-0.1 0.14,-0.06 0.26,-0.13 0.38,-0.25 0.12,-0.12 0.19,-0.24 0.25,-0.38 0.05,-0.14 0.09,-0.29 0.1,-0.52 0.01,-0.23 0.01,-0.3 0.01,-0.89 0,-0.58 -0,-0.66 -0.01,-0.89 -0.01,-0.23 -0.05,-0.39 -0.1,-0.52 -0.06,-0.14 -0.13,-0.26 -0.25,-0.38 -0.12,-0.12 -0.24,-0.19 -0.38,-0.25 -0.14,-0.05 -0.29,-0.09 -0.52,-0.1 -0.23,-0.01 -0.3,-0.01 -0.89,-0.01l0 0zm0 0.39c0.57,0 0.64,0 0.87,0.01 0.21,0.01 0.32,0.04 0.4,0.07 0.1,0.04 0.17,0.09 0.25,0.16 0.08,0.08 0.12,0.15 0.16,0.25 0.03,0.08 0.06,0.19 0.07,0.4 0.01,0.23 0.01,0.3 0.01,0.87 0,0.57 -0,0.64 -0.01,0.87 -0.01,0.21 -0.04,0.32 -0.07,0.4 -0.04,0.1 -0.09,0.17 -0.16,0.25 -0.08,0.08 -0.15,0.12 -0.25,0.16 -0.08,0.03 -0.19,0.06 -0.4,0.07 -0.23,0.01 -0.29,0.01 -0.87,0.01 -0.57,0 -0.64,-0 -0.87,-0.01 -0.21,-0.01 -0.32,-0.04 -0.4,-0.07 -0.1,-0.04 -0.17,-0.09 -0.25,-0.16 -0.08,-0.08 -0.12,-0.15 -0.16,-0.25 -0.03,-0.08 -0.06,-0.19 -0.07,-0.4 -0.01,-0.23 -0.01,-0.29 -0.01,-0.87 0,-0.57 0,-0.64 0.01,-0.87 0.01,-0.21 0.04,-0.32 0.07,-0.4 0.04,-0.1 0.09,-0.17 0.16,-0.25 0.08,-0.08 0.15,-0.12 0.25,-0.16 0.08,-0.03 0.19,-0.06 0.4,-0.07 0.23,-0.01 0.3,-0.01 0.87,-0.01z"/>
   <path class="fil1" d="M3.42 4.14c-0.4,0 -0.72,-0.32 -0.72,-0.72 0,-0.4 0.32,-0.72 0.72,-0.72 0.4,0 0.72,0.32 0.72,0.72 0,0.4 -0.32,0.72 -0.72,0.72zm0 -1.82c-0.61,0 -1.11,0.49 -1.11,1.11 0,0.61 0.49,1.11 1.11,1.11 0.61,0 1.11,-0.49 1.11,-1.11 0,-0.61 -0.49,-1.11 -1.11,-1.11z"/>
   <path class="fil1" d="M4.82 2.27c0,0.14 -0.12,0.26 -0.26,0.26 -0.14,0 -0.26,-0.12 -0.26,-0.26 0,-0.14 0.12,-0.26 0.26,-0.26 0.14,0 0.26,0.12 0.26,0.26z"/>
  </g>
 </g>
</svg>
