<?xml version="1.0" encoding="UTF-8"?>
<!DOCTYPE svg PUBLIC "-//W3C//DTD SVG 1.1//EN" "http://www.w3.org/Graphics/SVG/1.1/DTD/svg11.dtd">
<!-- Creator: CorelDRAW 2019 (64 Bit) -->
<svg xmlns="http://www.w3.org/2000/svg" xml:space="preserve" width="442.749mm" height="366.021mm" version="1.1" style="shape-rendering:geometricPrecision; text-rendering:geometricPrecision; image-rendering:optimizeQuality; fill-rule:evenodd; clip-rule:evenodd"
viewBox="0 0 35770.86 29571.83"
 xmlns:xlink="http://www.w3.org/1999/xlink">
 <defs>
  <style type="text/css">
   <![CDATA[
    .fil1 {fill:#004DA1}
    .fil9 {fill:#0065B1}
    .fil12 {fill:#006AB5}
    .fil8 {fill:#0075BD}
    .fil6 {fill:#00EF30}
    .fil16 {fill:#00EF58}
    .fil4 {fill:#27F562}
    .fil15 {fill:#27F57D}
    .fil7 {fill:#43FE59}
    .fil10 {fill:#87BEE7}
    .fil17 {fill:#8A6728}
    .fil5 {fill:#C9CACA}
    .fil0 {fill:#DCDDDD}
    .fil11 {fill:#EF7A00}
    .fil14 {fill:#F18B00}
    .fil13 {fill:#F5A627}
    .fil3 {fill:#FBFBFB}
    .fil2 {fill:white}
   ]]>
  </style>
 </defs>
 <g id="Camada_x0020_1">
  <metadata id="CorelCorpID_0Corel-Layer"/>
  <g id="_2074589414192">
   <path class="fil0" d="M33866.87 8485.75l0 -2522.68 -3243.46 0 0 3030.32 2735.84 0.01c280.35,0 507.63,-227.28 507.63,-507.64z"/>
   <path class="fil1" d="M32744.31 8988.43l-2227.59 0c-40.02,0 -77.72,-8.01 -113.17,-21.72l-0.01 -5019.8 -3.39 0 0 -153.18c0,-564.6 445.74,-1022.92 1004.61,-1044.63 13.74,0 27.45,-2.26 41.17,-2.26 578.31,0 1046.93,468.59 1046.93,1046.91l0 3887.17 -1.14 0 0 1044.64c0,70.84 27.4,134.87 73.15,182.85 45.69,46.86 109.71,77.71 179.44,80.02z"/>
   <path class="fil0" d="M22549.6 2747.03c-662.82,0 -1200.09,537.27 -1200.09,1200.09l0 8016.39 9054.19 -0.01 0 -4018.08 -3.55 0 0 -3998.33 0 -153.89c0,-563.78 446.25,-1022.09 1004.61,-1044.11l0 -2.09 -8855.16 -0.01 0 0.02z"/>
   <rect class="fil2" x="30400.15" y="3947.11" width="3.55" height="3998.33"/>
   <path class="fil3" d="M27576.15 5085.51l-4461.37 0c-160.92,0 -291.4,130.46 -291.4,291.38l0 83.11c0,160.92 130.48,291.38 291.4,291.38l4461.37 0.01c160.92,0 291.43,-130.46 291.43,-291.38l0 -83.11c-0.02,-160.92 -130.5,-291.39 -291.43,-291.39z"/>
   <path class="fil3" d="M27576.15 7342.1l-4461.37 0c-160.92,0 -291.4,130.46 -291.4,291.4l0 83.07c0,160.92 130.48,291.43 291.4,291.43l4461.37 0c160.92,0 291.43,-130.48 291.43,-291.43l0 -83.07c-0.02,-160.91 -130.5,-291.4 -291.43,-291.4z"/>
   <path class="fil2" d="M24628.99 9672.73l-1514.22 0c-160.92,0 -291.4,130.46 -291.4,291.38l0 83.07c0,160.96 130.48,291.43 291.4,291.43l1514.22 0c160.92,0 291.4,-130.46 291.4,-291.43l0 -83.07c0,-160.91 -130.46,-291.38 -291.4,-291.38z"/>
   <path class="fil1" d="M31841.32 16546.78c1673.75,-861.4 2597.73,-2833.03 2528.19,-4698.63 -5.9,-158.87 240.89,-180.29 246.96,-20.25 73.51,1977.32 -874.44,4017.07 -2689.84,4951.47 -141.81,72.81 -225.28,-160.64 -85.31,-232.59z"/>
   <path class="fil1" d="M34538.71 11929.7c0,0 39.44,-31.48 88.35,-85.33 49.87,-53.19 108.72,-127.19 161.56,-214.58 104.85,-173.11 158.25,-391.55 129.56,-599.29 -28.58,-207.97 -139.97,-403.41 -288.84,-541.08 -74.93,-68.75 -152.84,-124.05 -216.05,-161.5 -61.63,-37.79 -108.46,-57.25 -108.46,-57.25 0,0 -40.11,32.08 -88.88,85.1 -50.49,53.42 -109.47,127.98 -162.55,214.72 -105.22,173.68 -158.04,392.19 -128.05,599.68 30.12,207.69 142.07,402.92 290.53,540.97 74.24,68.49 151.82,123.73 214.47,161.07 61.76,37.73 108.36,57.48 108.36,57.48z"/>
   <path class="fil1" d="M34350.61 13285.75c0,0 45.28,23.17 113.66,46.15 69.38,23.53 160.79,47.39 261.69,59.9 200.98,25.25 422.57,-14.92 600.46,-125.91 178.47,-110.48 311.82,-292.03 376.72,-484 32.45,-96.79 50.98,-189.99 59.49,-263.13 9.36,-71.66 8.18,-122.21 8.18,-122.21 0,0 -46,-23.43 -113.93,-46.56 -69.6,-24.47 -161.5,-47.86 -262.65,-61.33 -201.2,-25.18 -422.29,15.6 -599.55,127.64 -177.78,111.45 -310.49,293.48 -375.5,485.52 -32.86,95.7 -51.6,188.9 -59.94,261.78 -9.59,71.52 -8.63,122.15 -8.63,122.15z"/>
   <path class="fil1" d="M34183.43 13740.9c0,0 12.31,-49.04 19.16,-121.29 7.63,-72.38 9.77,-167.1 -0.47,-268.27 -20.48,-201.54 -109.79,-408.08 -257.74,-556.7 -147.95,-148.84 -354.68,-237.85 -556.66,-257.8 -101.11,-10.17 -196.55,-7.08 -269.26,0.99 -71.98,7.38 -121.54,19.88 -121.54,19.88 0,0 -12.44,50.08 -19.52,121.7 -7.87,72.92 -10.33,168.04 -0.36,269.3 20.59,202.01 110.56,408.01 259.02,555.53 148.97,147.75 356.01,236.06 557.82,256.58 100.85,10.26 195.55,7.51 268.44,-0.19 72.01,-7.39 121.12,-19.72 121.12,-19.72z"/>
   <path class="fil1" d="M33586.35 15153.85c0,0 12.51,-49.1 18.87,-121.46 7.65,-72.55 10.39,-167.11 -0.13,-268.61 -20.52,-201.3 -109.75,-407.82 -257.87,-556.69 -148.03,-148.31 -354.83,-237.72 -556.49,-257.35 -101.43,-10.05 -196.37,-7.44 -269.49,0.87 -72.08,7.12 -121.23,19.96 -121.23,19.96 0,0 -12.35,49.55 -19.6,121.23 -8.04,73.47 -10.3,168.32 -0.53,269.39 20.59,202.07 110.52,408.33 259.4,555.59 148.52,147.91 355.85,236.42 557.31,256.84 101.01,10.22 195.94,7.29 268.62,-0.53 71.87,-7.05 121.14,-19.24 121.14,-19.24z"/>
   <path class="fil1" d="M33923.92 14819.94c0,0 45.28,23.17 113.66,46.15 69.38,23.53 160.79,47.38 261.69,59.89 200.98,25.25 422.57,-14.92 600.46,-125.9 178.47,-110.48 311.82,-292.03 376.72,-484.03 32.45,-96.77 50.98,-189.98 59.49,-263.13 9.36,-71.66 8.18,-122.23 8.18,-122.23 0,0 -46,-23.41 -113.96,-46.54 -69.58,-24.47 -161.48,-47.86 -262.63,-61.33 -201.2,-25.18 -422.29,15.6 -599.55,127.64 -177.81,111.45 -310.49,293.48 -375.52,485.5 -32.83,95.72 -51.58,188.9 -59.92,261.78 -9.6,71.58 -8.63,122.2 -8.63,122.2z"/>
   <path class="fil1" d="M17444.45 5054.34c0,-201.13 -162.72,-363.85 -363.96,-363.85l-11948.47 0.01c-200.96,0 -363.74,162.85 -363.74,363.85l0 1009.09 12676.17 0 0 -1009.1z"/>
   <path class="fil4" d="M14423.07 5376.84c0,215.51 -174.22,389.7 -389.37,389.7 -215.05,0 -389.67,-174.2 -389.67,-389.7 0,-215.07 174.63,-389.37 389.67,-389.37 215.13,0 389.37,174.3 389.37,389.37z"/>
   <path class="fil4" d="M15592.08 5376.84c0,215.51 -174.37,389.7 -389.41,389.7 -215.47,0 -389.31,-174.2 -389.31,-389.7 0,-215.07 173.83,-389.37 389.31,-389.37 215.05,0 389.24,174.3 389.41,389.37z"/>
   <path class="fil4" d="M16761.31 5376.84c0,215.51 -174.67,389.7 -389.71,389.7 -215.41,0 -389.84,-174.2 -389.84,-389.7 0.17,-215.07 174.39,-389.37 389.84,-389.37 215.02,0 389.71,174.3 389.71,389.37z"/>
   <path class="fil0" d="M4768.28 6063.44l0 5606.77c0,160.47 105.19,292.26 249.89,340.95l9924.42 -5947.71 -10174.32 0 0 -0.02z"/>
   <path class="fil5" d="M5018.17 12011.14c36.17,12.08 73.32,23.09 113.85,23.09l11948.75 0c200.96,0 363.57,-163.02 363.57,-364.04l0.11 -5606.77 -2501.85 0 -9924.42 5947.73z"/>
   <path class="fil3" d="M10331.5 7436.98l5550.06 0c126.66,0 230.24,103.61 230.24,230.24l0 0c0,126.66 -103.61,230.24 -230.24,230.24l-5550.06 0c-126.63,0 -230.24,-103.59 -230.24,-230.24l0 0c-0.01,-126.63 103.61,-230.24 230.24,-230.24z"/>
   <path class="fil3" d="M10331.5 8358.02l5550.06 0c126.66,0 230.24,103.61 230.24,230.24l0 0c0,126.63 -103.61,230.24 -230.24,230.24l-5550.06 0c-126.63,0 -230.24,-103.61 -230.24,-230.24l0 0c-0.01,-126.63 103.61,-230.24 230.24,-230.24z"/>
   <path class="fil3" d="M10331.5 9278.87l3289.98 0c126.63,0 230.24,103.61 230.24,230.24l0 0c0,126.63 -103.61,230.24 -230.24,230.24l-3289.98 0c-126.63,0 -230.24,-103.61 -230.24,-230.24l0 0c-0.01,-126.63 103.61,-230.24 230.24,-230.24z"/>
   <path class="fil3" d="M10331.5 10200.19l3289.98 0c126.63,0 230.24,103.61 230.24,230.24l0 0c0,126.63 -103.61,230.24 -230.24,230.24l-3289.98 0.01c-126.63,0 -230.24,-103.61 -230.24,-230.24l0 0c-0.01,-126.63 103.61,-230.25 230.24,-230.25z"/>
   <path class="fil3" d="M6584.74 7436.98l2357.89 0c228.43,0 415.28,186.87 415.28,415.28l0 2393.02c0,228.41 -186.87,415.28 -415.28,415.28l-2357.89 -0.01c-228.41,0 -415.28,-186.9 -415.28,-415.28l0.01 -2393.02c0,-228.4 186.87,-415.27 415.27,-415.27z"/>
   <path class="fil4" d="M8376.69 8690.55c0,-338 -274.52,-612.86 -613.31,-612.86 -338.73,0 -612.99,274.86 -612.99,612.86 0.13,227 123.86,425.12 307.42,531.27l0.11 492.45c0,169.37 136.81,305.7 305.47,305.7 168.51,0 305.56,-136.34 305.56,-305.7l0.06 -492.45c183.8,-106.15 307.69,-304.27 307.69,-531.27z"/>
   <path class="fil6" d="M5565.28 17230.61c-363.87,604.12 1.78,1017.04 344.95,1459.84 341.83,442.26 626.47,571.84 538.02,1226.24 -175.55,1299.28 929.49,2612.3 611.54,2991.84 -23.26,27.98 -58.38,28.94 -102.01,8.06 -287.09,-135.14 -948.28,-1203.98 -1218.64,-1744.27 -309.98,-622.95 -1090.56,-966.02 -1399.3,-1459.5 -309.12,-494.37 114.64,-921.41 -250.83,-1501.11 -365.88,-580.6 -1294.02,-543.41 -1479.23,-1092.16 -185.23,-548.78 276.34,-1102.4 206.64,-1701.86 -68.72,-599.88 -428.62,-1589.8 323.77,-1901.02 751.95,-312.18 1312.9,1219.59 1545.98,1413.98 233.09,194.42 925.79,463.82 1145.18,794.27 218.07,329.92 98.68,901.2 -266.08,1505.71z"/>
   <path class="fil6" d="M6538.19 20881.44c64.25,652.97 27.53,1075.75 235.7,1466.65 161.2,301.49 342.37,549.78 208.55,601.85 -39.01,14.9 -105.45,12.93 -207.72,-9.99 0,0 -193.13,-100.83 -552.26,-498.86 -360,-397.65 -689.35,118.02 -1401.82,97.28 -713.39,-20.33 -641.12,-615.41 -905.82,-1051.51 -265.19,-434.79 -777.27,507.73 -1567.23,143.18 -789.98,-364.55 -217.72,-691.21 -1119.12,-1367.96 -210.32,-157.74 -241.15,-306.45 -170.65,-439.61l-0.4 -0.92c151.07,-286.31 773.42,-503.8 1089.06,-592.3 461.58,-128.06 885.54,-767.41 1386.88,-298.48 502.64,469.47 591.08,1430.73 1383.24,1379.85 793.08,-51.26 1557.33,-82.13 1621.59,570.81z"/>
   <path class="fil7" d="M6982 22949.01l0.43 0.96c-39.01,14.9 -95.15,54.21 -207.72,-9.99 0,0 -193.13,-100.83 -552.26,-498.86 -360,-397.65 -689.35,118.02 -1401.82,97.28 -713.39,-20.33 -641.12,-615.41 -905.82,-1051.51 -265.19,-434.79 -777.27,507.73 -1567.23,143.18 -789.98,-364.55 -217.72,-691.21 -1119.12,-1367.96 -210.32,-157.74 -241.15,-306.45 -170.65,-439.61 0,0 1192.25,65.84 2306.73,410.19 1113.54,344.79 3196.9,1927.48 3617.46,2716.31z"/>
   <path class="fil7" d="M8326.68 17148.67c30.51,472.18 -581.89,699.75 -575.07,1307.94 4.7,360.19 616.6,432.83 743.47,1018.31 101.84,467.56 -481.69,1181.41 -879.3,1541.39 -398.03,359.1 -308.38,986.44 -299.59,1464.82 7.44,477.89 -218.38,429.2 -218.38,429.2 -91.23,20.03 -129.26,-256.65 -210.73,-685.39 -81.45,-428.74 -265.66,-1069.03 -513.5,-1423.65 -248.35,-353.29 -792.49,-1003.47 -243.7,-1652.06 548.79,-648.58 -298.56,-850.16 -588.32,-1594.17 -194.57,-499.1 451.6,-827.03 159.7,-1365.7 -291.87,-538.6 -9.13,-1033.81 415.9,-1331.4 425,-297.6 457.16,-1237.28 1081.99,-1122.54 624.81,114.77 455.55,1207.97 432.55,1829.2 -23.95,621.69 642.76,791.37 694.98,1584.05z"/>
   <path class="fil6" d="M8326.68 17148.67c30.51,472.18 -581.89,699.75 -575.07,1307.94 4.7,360.19 616.6,432.83 743.47,1018.31 101.84,467.56 -481.69,1181.41 -879.3,1541.39 -398.03,359.1 -308.38,986.44 -299.59,1464.82 7.44,477.89 -218.38,429.2 -218.38,429.2 -68.47,-414.43 -366.03,-3739.26 -350.62,-5435.34 22.17,-2439.82 451.94,-3739.54 451.94,-3739.54 624.81,114.77 455.55,1207.97 432.55,1829.2 -23.93,621.67 642.78,791.35 695,1584.03z"/>
   <path class="fil7" d="M4936.48 18709.9c1128.57,2486.07 2123.3,4198.64 2123.3,4198.64 -74.63,5.9 -150.08,-15.86 -206.05,-65.56 -320.07,-284.18 -873.16,-1188.15 -1114.63,-1670.63 -309.98,-622.95 -1090.56,-966.02 -1399.3,-1459.5 -309.12,-494.37 114.64,-921.41 -250.83,-1501.11 -365.88,-580.6 -1294.02,-543.41 -1479.23,-1092.16 -185.23,-548.78 276.34,-1102.4 206.64,-1701.86 -68.72,-599.88 -428.62,-1589.8 323.77,-1901.02 0.02,-0.02 668.7,2706.73 1796.32,5193.2z"/>
   <path class="fil8" d="M9735.43 17639.95c-1661.01,-693.75 -2691.83,-2502.85 -2767.47,-4286.47 -6.48,-151.88 -243.33,-153.52 -236.93,-0.52 80.37,1890.44 1139.21,3762.67 2940.81,4515.21 140.68,58.61 202.52,-170.27 63.59,-228.22z"/>
   <path class="fil8" d="M6748.77 13612.13c0,0 -49.23,-26.4 -113.19,-75.27 -64.88,-47.97 -143.67,-116.78 -218.62,-201.38 -148.65,-167.52 -250.32,-394.7 -260.49,-626.54 -10.33,-232.1 71.95,-467.05 206.58,-646.58 67.85,-89.78 141.66,-165.52 203.01,-218.88 59.55,-53.44 106.67,-83.94 106.67,-83.94 0,0 50.04,26.94 113.7,74.9 65.63,48.1 144.7,117.5 219.75,201.34 149.17,168.08 250.21,395.42 258.93,627.25 8.6,232.1 -74.37,466.95 -208.42,646.79 -67.16,89.37 -140.57,164.94 -201.37,218.08 -59.76,53.44 -106.55,84.22 -106.55,84.22z"/>
   <path class="fil8" d="M7223.79 15050.82c0,0 -44.65,34.26 -114.53,72.89 -70.84,39.44 -165.6,83.64 -272.93,117.34 -213.76,67.55 -462.95,68 -678.75,-17.38 -216.29,-84.67 -397.65,-255.73 -506.55,-451.78 -54.62,-98.89 -93.37,-196.64 -117.21,-274.56 -24.46,-76.14 -33.29,-131.4 -33.29,-131.4 0,0 45.42,-34.68 114.77,-73.38 70.86,-40.51 166.22,-84.29 273.69,-119.11 214,-67.51 462.82,-67.19 678.1,19.45 215.77,85.89 396.49,257.58 505.55,453.68 54.83,97.65 93.82,195.36 117.4,273.01 24.71,75.92 33.76,131.25 33.76,131.25z"/>
   <path class="fil8" d="M7496.51 15512.95c0,0 -23.2,-50.94 -45.02,-128.22 -22.74,-77.28 -43.93,-179.95 -52.95,-292.13 -17.87,-223.48 38.17,-466.13 169.6,-657.4 131.38,-191.51 338.67,-329.63 554.59,-391.57 108.04,-31.23 212.57,-46.86 293.29,-52.59 79.84,-6.33 136.27,-2.61 136.27,-2.61 0,0 23.53,52.05 45.49,128.6 23.13,77.79 44.76,180.85 54.06,293.07 17.87,224.01 -39.01,466.2 -171.22,656.35 -132.73,190.53 -340.5,327.94 -556.09,390.48 -107.76,31.3 -211.41,47.16 -292.26,53.29 -79.84,6.37 -135.76,2.73 -135.76,2.73z"/>
   <path class="fil8" d="M8428.12 16932.07c0,0 -23.41,-50.96 -44.76,-128.47 -22.78,-77.42 -44.61,-179.84 -53.42,-292.45 -17.77,-223.21 38.2,-465.79 169.73,-657.37 131.6,-190.95 338.88,-329.52 554.5,-391.06 108.4,-31.17 212.24,-47.22 293.54,-52.76 79.88,-6.63 135.93,-2.44 135.93,-2.44 0,0 23.32,51.47 45.51,128.06 23.39,78.39 44.78,181.16 54.29,293.12 17.85,224.09 -38.93,466.52 -171.63,656.51 -132.21,190.61 -340.25,328.28 -555.51,390.66 -107.89,31.27 -211.82,46.99 -292.52,52.97 -79.64,6.67 -135.68,3.23 -135.68,3.23z"/>
   <path class="fil8" d="M7994.07 16635.83c0,0 -44.65,34.29 -114.52,72.89 -70.84,39.46 -165.6,83.64 -272.93,117.36 -213.79,67.55 -462.97,68 -678.75,-17.38 -216.29,-84.7 -397.65,-255.75 -506.55,-451.81 -54.62,-98.89 -93.37,-196.64 -117.21,-274.58 -24.46,-76.14 -33.26,-131.38 -33.26,-131.38 0,0 45.42,-34.68 114.77,-73.41 70.86,-40.51 166.22,-84.29 273.69,-119.11 214,-67.51 462.82,-67.19 678.08,19.45 215.77,85.89 396.49,257.58 505.55,453.68 54.83,97.65 93.82,195.38 117.4,273 24.72,75.99 33.74,131.29 33.74,131.29z"/>
   <path class="fil1" d="M10253.52 17533.54c-840.65,-898.33 -975.64,-2315.04 -522.44,-3447.97 38.59,-96.47 -108.59,-163.94 -147.54,-66.78 -480.2,1200.79 -345.45,2664.73 566.32,3639.13 71.25,76.02 173.98,-49.29 103.66,-124.38z"/>
   <path class="fil1" d="M9574.79 14202.35c0,0 -19.39,-31.34 -39.81,-80.42 -21.22,-48.85 -43.5,-114.19 -58.36,-187.3 -29.56,-144.85 -12.59,-308.22 58.21,-444.05 70.8,-136.01 195.45,-243.07 331.68,-301.17 68.42,-28.88 135.63,-47.76 188.33,-57.95 51.67,-10.86 88.67,-12.72 88.67,-12.72 0,0 19.69,31.91 40.21,80.37 21.59,49.16 43.85,114.94 59.02,187.67 29.67,145.31 12.29,308.61 -59.34,443.95 -71.78,135.47 -196.77,242.22 -332.79,300.68 -67.91,28.86 -134.84,47.77 -187.13,58.06 -51.8,10.78 -88.69,12.89 -88.69,12.89z"/>
   <path class="fil1" d="M9370.8 15181.31c0,0 -36.85,4.81 -89.53,3.81 -53.51,-0.87 -122.26,-6.92 -194.72,-23.15 -144.47,-32.04 -286.98,-114.13 -382.06,-234.2 -95.59,-119.85 -142.69,-277.5 -140.14,-425.54 1.48,-74.54 11.63,-143.2 23.75,-195.59 11.18,-51.58 24.42,-86.08 24.42,-86.08 0,0 37.41,-4.81 89.83,-4 53.87,0.27 122.83,6.75 195.72,22.38 144.59,32.15 286.64,114.56 380.99,235.18 94.92,120.37 141.43,278.19 138.95,426.27 -0.94,73.89 -10.96,142.62 -23.15,194.78 -10.96,51.56 -24.06,86.15 -24.06,86.15z"/>
   <path class="fil1" d="M9373.89 15535.49c0,0 3.57,-36.77 16.63,-88.14 12.55,-51.67 34.38,-117.34 66.31,-184.39 63.64,-133.6 175.85,-253.71 314.13,-319.58 138.35,-66 302.42,-76.41 446.25,-40.46 72.06,17.84 136.94,43.45 184.95,66.86 47.69,22.74 78.73,43.55 78.73,43.55 0,0 -3.76,37.51 -16.51,88.52 -12.51,52.1 -34.2,118.13 -65.94,185.31 -63.81,133.91 -176.35,253.48 -314.73,318.44 -138.79,65.01 -302.92,74.84 -446.74,39.35 -71.91,-17.74 -136.36,-42.93 -184.6,-66.14 -47.71,-22.77 -78.47,-43.33 -78.47,-43.33z"/>
   <path class="fil1" d="M9437.24 16654.15c0,0 3.47,-36.85 16.89,-88.18 12.57,-51.8 33.92,-117.5 66.12,-184.76 63.62,-133.41 175.76,-253.5 314.21,-319.49 138.28,-65.63 302.5,-76.27 446.04,-40.21 72.23,18.02 136.87,43.16 185.16,66.85 47.82,22.61 78.47,43.55 78.47,43.55 0,0 -3.68,37.11 -16.31,88.2 -12.52,52.5 -34.29,118.3 -65.84,185.42 -63.85,133.92 -176.39,253.67 -315,318.4 -138.52,65.22 -302.88,75.14 -446.49,39.63 -71.98,-17.78 -136.56,-43.16 -184.63,-66.4 -47.73,-22.53 -78.62,-43.01 -78.62,-43.01z"/>
   <path class="fil1" d="M9385.95 16248.51c0,0 -35.95,9.36 -88.35,14.92 -53.2,5.79 -122.17,8.36 -196.08,1.3 -147.33,-13.81 -298.95,-77.51 -408.25,-184.82 -109.79,-107.03 -176.14,-257.58 -192.03,-404.76 -7.82,-74.15 -6.29,-143.54 -0.79,-197.05 4.68,-52.56 13.51,-88.45 13.51,-88.45 0,0 36.51,-9.4 88.63,-15.16 53.48,-6.43 122.72,-8.57 196.98,-2.16 147.45,13.87 298.67,77.96 407.32,185.91 109.15,107.61 174.96,258.4 190.94,405.64 8.27,73.45 6.88,142.88 1.3,196.15 -4.48,52.52 -13.19,88.48 -13.19,88.48z"/>
   <path class="fil9" d="M7702.86 20710.01c2006.88,0 3653.57,1541.18 3821.71,3504.47l-11524.57 -0.01c352.43,-1157.49 1485.25,-2004.64 2828.38,-2004.64 569.92,0 1101.87,152.69 1552.55,416.71 663.53,-1145.73 1902.69,-1916.54 3321.94,-1916.54z"/>
   <path class="fil10" d="M7702.82 20710.01c1208.21,0 2285.63,558.7 2988.72,1431.69 -191.98,112.83 -401.36,219.79 -626.97,319.26 -1341.18,591.29 -3254.43,918.18 -5148.47,1057.62 -1839.63,135.4 -3660.97,93.91 -4460.04,-177.25 535.48,-686.1 1398.59,-1131.45 2372.44,-1131.45 569.92,0 1101.72,152.69 1552.35,416.71 663.66,-1145.76 1902.72,-1916.57 3321.96,-1916.57z"/>
   <path class="fil10" d="M6385.31 20679.95c19.75,323.6 -185.23,624.9 -185.23,624.9 0,0 -236.96,-223.29 -256.67,-546.89 -19.79,-323.62 185.21,-624.92 185.21,-624.92 0,0 236.95,223.29 256.69,546.91z"/>
   <path class="fil10" d="M5964.08 20912.55c245.63,185.61 299.68,520.64 299.68,520.64 0,0 -344.23,34.13 -589.79,-151.47 -245.66,-185.59 -299.72,-520.64 -299.72,-520.64 0,0 344.2,-34.14 589.84,151.47z"/>
   <path class="fil9" d="M2840.48 23314.38c-13.13,215.43 123.36,416.05 123.36,416.05 0,0 157.76,-148.65 170.9,-364.1 13.17,-215.45 -123.3,-416.07 -123.3,-416.07 0,0 -157.84,148.69 -170.97,364.12z"/>
   <path class="fil9" d="M3120.96 23469.27c-163.57,123.53 -199.53,346.64 -199.53,346.64 0,0 229.15,22.73 392.71,-100.88 163.51,-123.58 199.49,-346.64 199.49,-346.64 0,0 -229.1,-22.7 -392.67,100.88z"/>
   <path class="fil0" d="M14209.92 17339.22l-6919.26 0c-384.5,0 -696.17,311.69 -696.17,696.17l0 4461.92c0,384.48 311.69,696.19 696.17,696.19l6919.26 0c384.5,0 696.19,-311.71 696.19,-696.19l0 -4461.92c0,-384.48 -311.69,-696.17 -696.19,-696.17z"/>
   <circle class="fil2" cx="7485.69" cy="18125.9" r="269.1"/>
   <circle class="fil2" cx="8440.22" cy="18125.9" r="269.1"/>
   <circle class="fil2" cx="9427.08" cy="18125.9" r="269.1"/>
   <path class="fil2" d="M8997.76 19191.49l-1508.32 0c-145.81,0 -264.02,118.21 -264.02,264.04l0 1508.32c0,145.79 118.21,264.04 264.02,264.04l1508.32 0.01c145.81,0 264.02,-118.23 264.02,-264.04l0 -1508.32c0,-145.83 -118.22,-264.05 -264.02,-264.05z"/>
   <path class="fil2" d="M12649.23 19298.58l-2566.3 0c-100.51,0 -182,81.49 -182,182l0 0.02c0,100.51 81.49,182.02 182,182.02l2566.3 0c100.53,0 182.02,-81.51 182.02,-182.02l0 -0.02c0,-100.54 -81.5,-182 -182.02,-182z"/>
   <path class="fil2" d="M12649.23 20099.39l-2566.3 0c-100.51,0 -182,81.51 -182,182.02 0,100.51 81.49,182 182,182l2566.3 0c100.53,0 182.02,-81.49 182.02,-182 0,-100.51 -81.5,-182.02 -182.02,-182.02z"/>
   <path class="fil2" d="M11393.39 20882.04l-1310.46 0c-100.51,0 -182,81.49 -182,182 0,100.53 81.49,182.02 182,182.02l1310.46 0c100.53,0 182.02,-81.49 182.02,-182.02 0,-100.54 -81.5,-182 -182.02,-182z"/>
   <path class="fil2" d="M13777.67 21810.27l-6345.97 0c-100.53,0 -182,81.51 -182,182.02 0,100.53 81.49,182 182,182l6345.97 0c100.53,0 182,-81.46 182,-182 0,-100.53 -81.47,-182.02 -182,-182.02z"/>
   <path class="fil6" d="M30093.07 13576.94c372.23,617.99 -1.84,1040.43 -352.88,1493.37 -349.68,452.43 -640.86,584.99 -550.38,1254.41 179.56,1329.15 -950.84,2672.33 -625.58,3060.59 23.79,28.6 59.72,29.6 104.36,8.25 293.67,-138.26 970.06,-1231.64 1246.65,-1784.36 317.1,-637.25 1115.59,-988.21 1431.43,-1493.03 316.24,-505.75 -117.25,-942.59 256.61,-1535.59 374.28,-593.94 1323.76,-555.89 1513.22,-1117.26 189.46,-561.39 -282.7,-1127.74 -211.41,-1740.96 70.31,-613.68 438.45,-1626.34 -331.21,-1944.7 -769.21,-319.32 -1343.06,1247.61 -1581.49,1446.48 -238.44,198.89 -947.06,474.5 -1171.49,812.49 -223.11,337.51 -100.98,921.92 272.18,1540.3z"/>
   <path class="fil6" d="M29097.84 17311.65c-65.76,667.95 -28.17,1100.44 -241.13,1500.37 -164.9,308.39 -350.23,562.41 -213.32,615.68 39.89,15.24 107.84,13.23 212.48,-10.22 0,0 197.56,-103.14 564.93,-510.32 368.29,-406.75 705.18,120.71 1434.04,99.5 729.79,-20.8 655.85,-629.54 926.63,-1075.66 271.29,-444.78 795.14,519.38 1603.25,146.47 808.14,-372.91 222.72,-707.07 1144.83,-1399.39 215.13,-161.35 246.66,-313.48 174.56,-449.69l0.43 -0.96c-154.53,-292.86 -791.2,-515.36 -1114.07,-605.9 -472.2,-131.01 -905.89,-785.04 -1418.73,-305.32 -514.23,480.24 -604.68,1463.58 -1415.04,1411.55 -811.34,-52.5 -1593.17,-84.06 -1658.88,583.88z"/>
   <path class="fil7" d="M28643.8 19426.71l-0.43 0.99c39.89,15.24 97.32,55.47 212.48,-10.22 0,0 197.56,-103.14 564.93,-510.32 368.29,-406.75 705.18,120.71 1434.04,99.5 729.79,-20.8 655.85,-629.54 926.63,-1075.66 271.29,-444.78 795.14,519.38 1603.25,146.47 808.14,-372.91 222.72,-707.07 1144.83,-1399.39 215.13,-161.35 246.66,-313.48 174.56,-449.69 0,0 -1219.63,67.33 -2359.72,419.62 -1139.13,352.69 -3270.36,1971.74 -3700.58,2778.7z"/>
   <path class="fil7" d="M27268.23 13493.14c-31.21,483.04 595.25,715.86 588.28,1337.97 -4.81,368.46 -630.77,442.76 -760.53,1041.68 -104.17,478.3 492.75,1208.54 899.47,1576.83 407.18,367.33 315.46,1009.08 306.47,1498.49 -7.61,488.86 223.38,439.03 223.38,439.03 93.33,20.5 132.26,-262.54 215.58,-701.13 83.28,-438.58 271.75,-1093.58 525.31,-1456.35 254.04,-361.39 810.7,-1026.52 249.29,-1690 -561.41,-663.47 305.43,-869.67 601.83,-1630.78 199.06,-510.55 -461.94,-846.05 -163.35,-1397.05 298.59,-550.97 9.34,-1057.55 -425.43,-1361.98 -434.77,-304.43 -467.68,-1265.71 -1106.85,-1148.34 -639.15,117.4 -466.03,1235.72 -442.49,1871.22 24.5,635.92 -657.54,809.51 -710.96,1620.4z"/>
   <path class="fil11" d="M27268.23 13493.14c-31.21,483.04 595.25,715.86 588.28,1337.97 -4.81,368.46 -630.77,442.76 -760.53,1041.68 -104.17,478.3 492.75,1208.54 899.47,1576.83 407.18,367.33 315.46,1009.08 306.47,1498.49 -7.61,488.86 223.38,439.03 223.38,439.03 70.05,-423.94 374.45,-3825.16 358.67,-5560.16 -22.68,-2495.86 -462.3,-3825.45 -462.3,-3825.45 -639.15,117.4 -466.03,1235.72 -442.49,1871.22 24.5,635.91 -657.53,809.5 -710.95,1620.39z"/>
   <path class="fil7" d="M30736.34 15090.21c-1154.52,2543.17 -2172.08,4295.09 -2172.08,4295.09 76.32,6.03 153.52,-16.25 210.77,-67.1 327.4,-290.7 893.21,-1215.42 1140.24,-1709 317.1,-637.25 1115.59,-988.21 1431.43,-1493.03 316.24,-505.75 -117.25,-942.59 256.61,-1535.59 374.28,-593.94 1323.76,-555.89 1513.22,-1117.26 189.46,-561.39 -282.7,-1127.74 -211.41,-1740.96 70.31,-613.68 438.45,-1626.34 -331.21,-1944.7 -0.02,0.02 -684.06,2768.95 -1837.56,5312.54z"/>
   <path class="fil12" d="M13917.51 28807.73c704.25,0 1339.89,293.12 1791.9,764.1 186.51,-194.44 448.95,-315.52 739.71,-315.52 290.83,0 553.28,121.08 739.88,315.52l-1479.57 0 -3583.63 0 -2866.91 0c361.58,-376.76 870.11,-611.26 1433.46,-611.26 563.38,0 1071.88,234.5 1433.46,611.26 451.9,-470.99 1087.57,-764.1 1791.71,-764.1z"/>
   <path class="fil12" d="M2567.73 25432.25c544.11,0 1035.26,226.46 1384.49,590.35 144.1,-150.23 346.88,-243.75 571.52,-243.75 224.68,0 427.48,93.53 571.65,243.75l-1143.17 0 -2768.82 0c349.19,-363.89 840.31,-590.35 1384.33,-590.35z"/>
   <path class="fil12" d="M26943.11 27415.17c-443.6,0 -844,184.65 -1128.74,481.33 -117.49,-122.49 -282.79,-198.76 -465.94,-198.76 -183.2,0 -348.52,76.25 -466.04,198.76l931.98 0 2257.35 0c-284.67,-296.69 -685.07,-481.33 -1128.61,-481.33z"/>
   <path class="fil4" d="M12797.62 27581.83l-963.52 0c-82.98,0 -150.9,-67.89 -150.9,-150.87 0,-82.98 67.89,-150.87 150.9,-150.87l963.52 0c82.98,0 150.9,67.89 150.9,150.87 0,82.98 -67.91,150.87 -150.9,150.87z"/>
   <path class="fil4" d="M7862.9 27080.15l-560.08 0c-85.87,0 -156.12,-70.24 -156.12,-156.12l0 -17.83c0,-85.87 70.24,-156.12 156.12,-156.12l560.08 0.02c85.85,0 156.12,70.24 156.12,156.12l0 17.83c0,85.86 -70.27,156.1 -156.12,156.1z"/>
   <path class="fil4" d="M9086.26 27080.15l-560.06 0c-85.87,0 -156.13,-70.24 -156.13,-156.12l0 -17.83c0,-85.87 70.27,-156.12 156.13,-156.12l560.06 0.02c85.85,0 156.12,70.24 156.12,156.12l0 17.83c0.02,85.86 -70.27,156.1 -156.12,156.1z"/>
   <path class="fil4" d="M10173.69 27080.15l-560.06 0c-85.87,0 -156.12,-70.24 -156.12,-156.12l0 -17.83c0,-85.87 70.24,-156.12 156.12,-156.12l560.06 0.02c85.87,0 156.13,70.24 156.13,156.12l0 17.83c0,85.86 -70.24,156.1 -156.13,156.1z"/>
   <path class="fil4" d="M11266.69 27601.13l-560.06 0c-85.87,0 -156.13,-70.24 -156.13,-156.12l0 -17.81c0,-85.89 70.27,-156.13 156.13,-156.13l560.06 0.01c85.87,0 156.12,70.24 156.12,156.13l0 17.81c0,85.87 -70.27,156.11 -156.12,156.11z"/>
   <path class="fil4" d="M11672.39 27064.76l-942.12 0c-87.01,0 -158.18,-71.19 -158.18,-158.18 0,-86.98 71.19,-158.17 158.18,-158.17l942.12 0.01c87.01,0 158.18,71.19 158.18,158.17 0.01,87 -71.18,158.18 -158.18,158.18z"/>
   <path class="fil4" d="M23714.74 1578.56c401.88,0 402.54,-624.62 0,-624.62 -401.92,-0.01 -402.6,624.62 0,624.62z"/>
   <path class="fil4" d="M24768.19 1578.56c401.9,0 402.56,-624.62 0,-624.62 -401.92,-0.01 -402.58,624.62 0,624.62z"/>
   <path class="fil4" d="M22679.03 1578.56c401.88,0 402.54,-624.62 0,-624.62 -401.92,-0.01 -402.61,624.62 0,624.62z"/>
   <path class="fil8" d="M22648.59 624.62c401.88,0 402.54,-624.62 0,-624.62 -401.92,0.02 -402.6,624.62 0,624.62z"/>
   <path class="fil8" d="M23702.05 624.62c401.9,0 402.56,-624.62 0,-624.62 -401.92,0.02 -402.58,624.62 0,624.62z"/>
   <path class="fil8" d="M21612.87 624.62c401.9,0 402.56,-624.62 0,-624.62 -401.9,0.02 -402.58,624.62 0,624.62z"/>
   <path class="fil8" d="M10039.45 3935.54c401.88,0 402.56,-624.62 0,-624.62 -401.92,0 -402.6,624.62 0,624.62z"/>
   <path class="fil8" d="M11092.9 3935.54c401.88,0 402.56,-624.62 0,-624.62 -401.9,0 -402.58,624.62 0,624.62z"/>
   <path class="fil8" d="M9003.72 3935.54c401.88,0 402.56,-624.62 0,-624.62 -401.9,0 -402.58,624.62 0,624.62z"/>
   <path class="fil5" d="M34472.22 17566.52l-9762.41 0c-667.27,0 -1208.24,540.95 -1208.24,1208.24l0 5104.65c0,667.27 541,1208.21 1208.24,1208.21l9762.41 0c667.28,0 1208.24,-540.97 1208.24,-1208.21l0 -5104.65c0.02,-667.28 -540.95,-1208.24 -1208.24,-1208.24z"/>
   <path class="fil1" d="M33040.58 18912.29l-9762.43 0c-667.27,0 -1208.21,540.97 -1208.21,1208.24l0 5104.62c0,667.33 540.97,1208.24 1208.21,1208.24l9762.43 0c667.27,0 1208.21,-540.93 1208.21,-1208.24l0 -5104.62c0,-667.27 -540.97,-1208.24 -1208.21,-1208.24z"/>
   <path class="fil13" d="M25577.78 20204.76l0 1216.1c0,210.11 -168.68,378.75 -378.75,378.75l-1791.83 0c-208.59,0 -378.75,-168.64 -378.75,-378.75l0 -1216.1c0,-208.59 170.16,-377.23 378.75,-377.23l1791.83 0c210.09,0 378.75,168.64 378.75,377.23z"/>
   <path class="fil14" d="M23815.53 20451.84c0,79.88 -65.11,145 -143.5,145l-643.55 -0.01 0 -288.49 643.55 0c78.39,0 143.5,65.09 143.5,143.5z"/>
   <path class="fil14" d="M23815.53 21173.79c0,79.88 -65.11,145 -143.5,145l-643.55 -0.01 0 -288.49 643.55 0c78.39,0 143.5,65.09 143.5,143.5z"/>
   <path class="fil14" d="M25577.78 20308.34l0 288.49 -642.08 0c-79.9,0 -145,-65.11 -145,-145 0,-78.41 65.09,-143.5 145,-143.5l642.08 0z"/>
   <path class="fil14" d="M25577.78 21030.29l0 288.49 -642.08 0c-79.9,0 -145,-65.11 -145,-145 0,-78.41 65.09,-143.5 145,-143.5l642.08 0z"/>
   <path class="fil4" d="M27298.24 23276.61l-4086.64 0c-84.24,0 -153.16,68.96 -153.16,153.21l0 248.87c0,84.23 68.92,153.14 153.16,153.14l4086.64 -0.01c84.24,0 153.16,-68.92 153.16,-153.14l0 -248.87c0,-84.24 -68.92,-153.2 -153.16,-153.2z"/>
   <path class="fil4" d="M25709.01 24275.95l-2497.41 0c-84.24,0 -153.16,68.98 -153.16,153.16l0 248.91c0,84.23 68.92,153.14 153.16,153.14l2497.41 0.01c84.2,0 153.16,-68.92 153.16,-153.14l0 -248.91c0,-84.18 -68.96,-153.17 -153.16,-153.17z"/>
   <path class="fil4" d="M31040.88 24046.42c0,299.78 111.61,571.31 298.16,777.82 -128.28,71.63 -276.53,113.27 -434.73,113.27 -491.36,0 -891.08,-399.74 -891.08,-891.1 0,-491.36 399.7,-889.41 891.08,-889.41 158.21,0 306.45,41.64 434.73,113.26 -186.57,206.53 -298.16,476.35 -298.16,776.15z"/>
   <circle class="fil3" cx="32208.46" cy="24046.97" r="890.16"/>
   <path class="fil8" d="M27667.84 8786.14c-3358.11,0 -7744.99,-2858.28 -7768.7,-2887.05 -23.69,28.77 -4410.67,2887.05 -7768.78,2887.05 -474.25,0 -939.05,-23.6 -1392.53,-67.23l0 5407.93c0,5006.84 2483.77,9642.91 6535.79,12199.12l2625.5 1656.31 2625.41 -1656.31c4052.01,-2556.21 6535.78,-7192.28 6535.78,-12199.12l0 -5407.93c-453.46,43.63 -918.24,67.23 -1392.48,67.23z"/>
   <path class="fil15" d="M18094.74 25024.47c-3588.68,-2263.89 -5818.06,-6439.56 -5818.06,-10897.52l0.01 -3803.35c1595.24,-30.87 3493.59,-561.65 5646.09,-1578.92 16.72,-7.91 1075.67,-521.63 1976.37,-1040.34 900.72,518.72 1959.66,1032.46 1976.38,1040.34 2152.52,1017.39 4050.87,1548.17 5646.11,1578.92l0 3803.33c0,4457.96 -2229.41,8633.62 -5818.19,10897.52l-1804.3 1138.36 -1804.4 -1138.35z"/>
   <path class="fil16" d="M26635.68 10258.44l0 2843.51c0,4914.77 -2457.8,9518.33 -6414.4,12014.28l-990.58 625 668.46 421.58 1804.3 -1138.36c3588.78,-2263.89 5818.19,-6439.56 5818.19,-10897.52l0 -3803.34c-285.59,-5.52 -581.31,-27.75 -885.96,-65.16z"/>
   <path class="fil17" d="M22909.34 15019.35c0,-1676.93 -1451.76,-3014.71 -3166.87,-2825.18 -1262.81,139.57 -2305.07,1140.99 -2488.04,2398.15 -146.15,1004.21 233.32,1926.88 903.77,2534.21 459.61,416.26 694.6,1026.56 694.6,1646.58l0 1672.09c0,583.32 390.63,1119.53 962.62,1234.06 779.96,156.22 1464.39,-436.14 1464.39,-1188.36l0 -1781.85c0,-594.07 235.37,-1172.71 678.7,-1568.22 583.41,-520.56 950.83,-1278.05 950.83,-2121.48z"/>
   <path class="fil8" d="M22909.34 15019.35c0,-1676.93 -1451.76,-3014.71 -3166.87,-2825.18 -1262.81,139.57 -2305.07,1140.99 -2488.04,2398.15 -146.15,1004.21 233.32,1926.88 903.77,2534.21 459.61,416.26 694.6,1026.56 694.6,1646.58l0 1672.09c0,583.32 390.63,1119.53 962.62,1234.06 779.96,156.22 1464.39,-436.14 1464.39,-1188.36l0 -1781.85c0,-594.07 235.37,-1172.71 678.7,-1568.22 583.41,-520.56 950.83,-1278.05 950.83,-2121.48z"/>
   <path class="fil3" d="M19815.98 21680.32c24.35,4.92 51.17,9.79 75.5,12.18 -131.53,19.47 -270.37,17.1 -411.61,-12.18 -572.39,-114.43 -962.1,-652.75 -962.1,-1234.88l0 -1673.26c0,-618.69 -233.84,-1230.09 -694.22,-1646.54 -669.79,-606.51 -1049.71,-1529.66 -903.63,-2533.12 182.68,-1256.76 1225.15,-2257.84 2486.82,-2399.08 165.67,-17.08 326.44,-21.95 484.71,-12.22 -48.69,2.46 -99.85,7.31 -148.57,12.22 -1264.13,141.23 -2306.59,1142.34 -2489.27,2399.08 -146.09,1003.49 233.84,1926.61 903.63,2533.12 460.36,416.45 696.59,1027.84 696.59,1646.54l0 1673.26c0.06,582.13 389.77,1120.47 962.16,1234.88z"/>
   <path class="fil1" d="M19742.47 12194.19c-17.48,1.92 -34.39,5.73 -51.76,7.97 1199.81,333.3 2082.02,1430 2082.02,2735.98 0,843.49 -367.42,1600.96 -950.87,2121.48 -443.26,395.57 -678.7,974.14 -678.7,1568.28l0 1781.85c0,495.08 -297.3,919.33 -722.48,1108.06 117.89,76.57 250.4,132.57 394.76,161.46 779.96,156.22 1464.39,-436.14 1464.39,-1188.36l0 -1781.85c0,-594.07 235.37,-1172.71 678.7,-1568.22 583.44,-520.58 950.8,-1278.05 950.8,-2121.54 0,-1676.89 -1451.76,-3014.67 -3166.87,-2825.12z"/>
   <path class="fil3" d="M14736.49 19778.29l-2327.06 0c-242.32,0 -438.77,196.43 -438.77,438.77l0 2579.73c0,242.32 196.45,438.77 438.77,438.77l3081.05 0.01c242.32,0 438.77,-196.45 438.77,-438.77l0 -1825.74 -1192.76 -1192.77z"/>
   <path class="fil1" d="M13685.26 22200.09l-221.23 -312.91c-95.53,-135.14 -250.72,-215.47 -416.2,-215.47l-1244.53 0c-281.51,0 -509.7,228.22 -509.7,509.7l0 234.14 0 2859.52c0,281.51 228.19,509.7 509.7,509.7l4207.6 0c281.48,0 509.68,-228.19 509.68,-509.7l0 -2349.8c0,-281.51 -228.19,-509.72 -509.68,-509.72l-1909.46 0c-165.48,0 -320.65,-80.33 -416.18,-215.45z"/>
   <path class="fil8" d="M14736.49 20532.26c0,242.35 196.43,438.77 438.77,438.77l753.99 0.01 -1192.76 -1192.76 0 753.98z"/>
  </g>
 </g>
</svg>
