<?xml version="1.0" encoding="UTF-8"?>
<!DOCTYPE svg PUBLIC "-//W3C//DTD SVG 1.1//EN" "http://www.w3.org/Graphics/SVG/1.1/DTD/svg11.dtd">
<!-- Creator: CorelDRAW 2019 (64 Bit) -->
<svg xmlns="http://www.w3.org/2000/svg" xml:space="preserve" width="12.7mm" height="12.7mm" version="1.1" style="shape-rendering:geometricPrecision; text-rendering:geometricPrecision; image-rendering:optimizeQuality; fill-rule:evenodd; clip-rule:evenodd"
viewBox="0 0 6.69 6.69"
 xmlns:xlink="http://www.w3.org/1999/xlink">
 <defs>
  <style type="text/css">
   <![CDATA[
    .fil0 {fill:#489B6C;fill-rule:nonzero}
    .fil1 {fill:#FEFEFE;fill-rule:nonzero}
   ]]>
  </style>
 </defs>
 <g id="Camada_x0020_1">
  <metadata id="CorelCorpID_0Corel-Layer"/>
  <path class="fil0" d="M6.69 3.34c0,1.85 -1.5,3.34 -3.34,3.34 -1.85,0 -3.34,-1.5 -3.34,-3.34 0,-1.85 1.5,-3.34 3.34,-3.34 1.85,0 3.34,1.5 3.34,3.34z"/>
  <path class="fil1" d="M3.6 2.89c0.05,-0.06 0.1,-0.12 0.16,-0.18 0.17,-0.16 0.38,-0.25 0.62,-0.24 0.13,0 0.26,0.01 0.39,0.05 0.29,0.08 0.46,0.28 0.54,0.57 0.06,0.21 0.07,0.43 0.07,0.65 0,0.46 -0,0.92 -0,1.39 0,0.04 -0.01,0.05 -0.05,0.05 -0.24,-0 -0.48,-0 -0.71,0 -0.04,0 -0.05,-0.01 -0.05,-0.05 0,-0.44 0,-0.88 0,-1.32 -0,-0.11 -0.01,-0.22 -0.04,-0.33 -0.06,-0.2 -0.2,-0.3 -0.4,-0.29 -0.28,0.01 -0.43,0.15 -0.46,0.44 -0.01,0.07 -0.01,0.14 -0.01,0.21 0,0.43 -0,0.85 0,1.28 0,0.04 -0.01,0.06 -0.05,0.05 -0.24,-0 -0.48,-0 -0.72,-0 -0.04,0 -0.05,-0.01 -0.05,-0.05 0,-0.85 0,-1.69 -0,-2.54 -0,-0.04 0.01,-0.05 0.05,-0.05 0.23,0 0.46,0 0.68,-0 0.04,-0 0.05,0.01 0.05,0.05 -0,0.1 -0,0.2 -0,0.3z"/>
  <path class="fil1" d="M2.3 3.85c0,0.42 -0,0.84 0,1.26 0,0.05 -0.01,0.06 -0.06,0.06 -0.24,-0 -0.48,-0 -0.71,-0 -0.04,0 -0.05,-0.01 -0.05,-0.05 0,-0.85 0,-1.69 0,-2.54 -0,-0.04 0.01,-0.05 0.05,-0.05 0.24,0 0.48,0 0.72,-0 0.05,-0 0.05,0.02 0.05,0.06 -0,0.42 -0,0.84 -0,1.27z"/>
  <path class="fil1" d="M2.36 1.69c0,0.26 -0.21,0.48 -0.48,0.48 -0.26,0 -0.47,-0.21 -0.47,-0.47 -0,-0.26 0.21,-0.48 0.48,-0.48 0.26,0 0.47,0.21 0.47,0.47z"/>
 </g>
</svg>
