<?xml version="1.0" encoding="UTF-8"?>
<!DOCTYPE svg PUBLIC "-//W3C//DTD SVG 1.1//EN" "http://www.w3.org/Graphics/SVG/1.1/DTD/svg11.dtd">
<!-- Creator: CorelDRAW 2019 (64 Bit) -->
<svg xmlns="http://www.w3.org/2000/svg" xml:space="preserve" width="20.9261mm" height="30.4888mm" version="1.1" style="shape-rendering:geometricPrecision; text-rendering:geometricPrecision; image-rendering:optimizeQuality; fill-rule:evenodd; clip-rule:evenodd"
viewBox="0 0 49.37 71.93"
 xmlns:xlink="http://www.w3.org/1999/xlink">
 <defs>
  <style type="text/css">
   <![CDATA[
    .fil2 {fill:#FEFEFE;fill-rule:nonzero}
    .fil1 {fill:#52A078;fill-rule:nonzero}
    .fil0 {fill:#4F8F6D;fill-rule:nonzero}
   ]]>
  </style>
 </defs>
 <g id="Camada_x0020_1">
  <metadata id="CorelCorpID_0Corel-Layer"/>
  <path class="fil0" d="M46.78 71.93l-44.19 0c-1.43,0 -2.59,-1.16 -2.59,-2.59l0 -66.75c0,-1.43 1.16,-2.59 2.59,-2.59l44.19 0c1.43,0 2.59,1.16 2.59,2.59l0 66.75c0,1.43 -1.16,2.59 -2.59,2.59z"/>
  <path class="fil1" d="M49.37 3.14c0,-1.73 -1.4,-3.14 -3.14,-3.14l-43.1 0c-1.73,0 -3.14,1.4 -3.14,3.14l0 32.83 49.37 0 0 -32.83z"/>
  <path class="fil2" d="M34.56 27.23c-0.3,-0.26 -0.69,-0.41 -1.12,-0.41l-6.36 0 -0.45 0 -2.04 0c-0.75,0 -1.36,0.61 -1.36,1.35l0 17.33c0,0.75 0.61,1.35 1.36,1.35l2.49 0 0 -15.57 2.4 0 0 26.22c-0.12,0.12 -0.37,0.32 -0.9,0.62 -0.49,0.28 -1.23,0.42 -2.2,0.42 -0.91,0 -1.74,-0.14 -2.47,-0.43 -0.68,-0.26 -1.28,-0.87 -1.75,-1.8 -0.51,-0.98 -0.9,-2.42 -1.18,-4.27 -0.28,-1.87 -0.42,-4.42 -0.42,-7.58 0,-0.75 -0.02,-2.73 -0.04,-5.3 -0.03,-4.09 0.04,-10.76 0.04,-11.7 0,-3.16 0.14,-5.71 0.42,-7.58 0.28,-1.85 0.67,-3.29 1.18,-4.27 0.48,-0.93 1.07,-1.53 1.75,-1.8 0.73,-0.28 1.56,-0.43 2.47,-0.43 0.96,0 1.7,0.14 2.2,0.42 0.53,0.3 0.78,0.5 0.9,0.62l0 7.01c0,0.86 0.69,1.57 1.55,1.58 1.32,0.03 2.64,0.06 3.96,0.09l-0.04 -12.16 -0.15 -0.11c-0.72,-0.56 -1.79,-1.12 -3.18,-1.65 -1.4,-0.54 -3.21,-0.81 -5.36,-0.81 -2.07,0 -3.88,0.26 -5.38,0.78 -1.54,0.53 -2.81,1.52 -3.77,2.95 -0.93,1.4 -1.63,3.34 -2.06,5.78 -0.43,2.41 -0.64,5.53 -0.64,9.3 -0.11,4.66 -0.06,8.25 -0.03,13.47 0,2.83 0.01,5.16 0.03,6.19 0.01,0 0.02,-0.01 0.03,-0.01 0.07,2.83 0.27,5.25 0.62,7.19 0.43,2.44 1.13,4.38 2.06,5.78 0.96,1.43 2.22,2.42 3.77,2.95 1.5,0.52 3.31,0.78 5.38,0.78 2.15,0 3.96,-0.27 5.36,-0.81 1.39,-0.53 2.46,-1.09 3.18,-1.65l0.15 -0.11 0.06 -32.76c0,-0.37 -0.16,-0.72 -0.46,-0.99z"/>
 </g>
</svg>
