<?xml version="1.0" encoding="UTF-8"?>
<!DOCTYPE svg PUBLIC "-//W3C//DTD SVG 1.1//EN" "http://www.w3.org/Graphics/SVG/1.1/DTD/svg11.dtd">
<!-- Creator: CorelDRAW 2019 (64 Bit) -->
<svg xmlns="http://www.w3.org/2000/svg" xml:space="preserve" width="786.871mm" height="461.294mm" version="1.1" style="shape-rendering:geometricPrecision; text-rendering:geometricPrecision; image-rendering:optimizeQuality; fill-rule:evenodd; clip-rule:evenodd"
viewBox="0 0 63970.82 37502.12"
 xmlns:xlink="http://www.w3.org/1999/xlink">
 <defs>
  <style type="text/css">
   <![CDATA[
    .str3 {stroke:#09005D;stroke-width:13.76;stroke-miterlimit:22.9256}
    .str1 {stroke:#09005D;stroke-width:20.65;stroke-miterlimit:22.9256}
    .str0 {stroke:#1A0F91;stroke-width:20.65;stroke-miterlimit:22.9256}
    .str2 {stroke:#E1473D;stroke-width:20.65;stroke-miterlimit:22.9256}
    .fil3 {fill:#7D97F4;fill-rule:nonzero}
    .fil87 {fill:#91B3FA;fill-rule:nonzero}
    .fil4 {fill:#91FACB;fill-rule:nonzero}
    .fil7 {fill:#91FACE;fill-rule:nonzero}
    .fil6 {fill:#91FAD4;fill-rule:nonzero}
    .fil1 {fill:#91FAE2;fill-rule:nonzero}
    .fil100 {fill:#BDD0FB;fill-rule:nonzero}
    .fil8 {fill:#BEFBEA;fill-rule:nonzero}
    .fil2 {fill:#BEFBEF;fill-rule:nonzero}
    .fil99 {fill:#D3E1FD;fill-rule:nonzero}
    .fil98 {fill:white;fill-rule:nonzero}
    .fil40 {fill:url(#id0)}
    .fil48 {fill:url(#id1)}
    .fil30 {fill:url(#id2)}
    .fil70 {fill:url(#id3)}
    .fil92 {fill:url(#id4)}
    .fil52 {fill:url(#id5)}
    .fil88 {fill:url(#id6)}
    .fil91 {fill:url(#id7)}
    .fil22 {fill:url(#id8)}
    .fil37 {fill:url(#id9)}
    .fil75 {fill:url(#id10)}
    .fil58 {fill:url(#id11)}
    .fil20 {fill:url(#id12)}
    .fil80 {fill:url(#id13)}
    .fil29 {fill:url(#id14)}
    .fil93 {fill:url(#id15)}
    .fil44 {fill:url(#id16)}
    .fil90 {fill:url(#id17)}
    .fil56 {fill:url(#id18)}
    .fil69 {fill:url(#id19)}
    .fil94 {fill:url(#id20)}
    .fil76 {fill:url(#id21)}
    .fil53 {fill:url(#id22)}
    .fil95 {fill:url(#id23)}
    .fil61 {fill:url(#id24)}
    .fil11 {fill:url(#id25)}
    .fil97 {fill:url(#id26)}
    .fil62 {fill:url(#id27)}
    .fil85 {fill:url(#id28)}
    .fil96 {fill:url(#id29)}
    .fil33 {fill:url(#id30)}
    .fil26 {fill:url(#id31)}
    .fil73 {fill:url(#id32)}
    .fil51 {fill:url(#id33)}
    .fil77 {fill:url(#id34)}
    .fil78 {fill:url(#id35)}
    .fil43 {fill:url(#id36)}
    .fil15 {fill:url(#id37)}
    .fil68 {fill:url(#id38)}
    .fil18 {fill:url(#id39)}
    .fil59 {fill:url(#id40)}
    .fil12 {fill:url(#id41)}
    .fil10 {fill:url(#id42)}
    .fil72 {fill:url(#id43)}
    .fil45 {fill:url(#id44)}
    .fil50 {fill:url(#id45)}
    .fil42 {fill:url(#id46)}
    .fil5 {fill:url(#id47)}
    .fil16 {fill:url(#id48)}
    .fil38 {fill:url(#id49)}
    .fil28 {fill:url(#id50)}
    .fil66 {fill:url(#id51)}
    .fil13 {fill:url(#id52)}
    .fil74 {fill:url(#id53)}
    .fil23 {fill:url(#id54)}
    .fil82 {fill:url(#id55)}
    .fil39 {fill:url(#id56)}
    .fil46 {fill:url(#id57)}
    .fil36 {fill:url(#id58)}
    .fil81 {fill:url(#id59)}
    .fil79 {fill:url(#id60)}
    .fil34 {fill:url(#id61)}
    .fil17 {fill:url(#id62)}
    .fil83 {fill:url(#id63)}
    .fil54 {fill:url(#id64)}
    .fil65 {fill:url(#id65)}
    .fil25 {fill:url(#id66)}
    .fil60 {fill:url(#id67)}
    .fil57 {fill:url(#id68)}
    .fil89 {fill:url(#id69)}
    .fil49 {fill:url(#id70)}
    .fil47 {fill:url(#id71)}
    .fil31 {fill:url(#id72)}
    .fil67 {fill:url(#id73)}
    .fil9 {fill:url(#id74)}
    .fil0 {fill:url(#id75)}
    .fil14 {fill:url(#id76)}
    .fil86 {fill:url(#id77)}
    .fil71 {fill:url(#id78)}
    .fil64 {fill:url(#id79)}
    .fil55 {fill:url(#id80)}
    .fil24 {fill:url(#id81)}
    .fil19 {fill:url(#id82)}
    .fil32 {fill:url(#id83)}
    .fil21 {fill:url(#id84)}
    .fil27 {fill:url(#id85)}
    .fil35 {fill:url(#id86)}
    .fil63 {fill:url(#id87)}
    .fil84 {fill:url(#id88)}
    .fil41 {fill:url(#id89)}
   ]]>
  </style>
  <linearGradient id="id0" gradientUnits="userSpaceOnUse" x1="19312.9" y1="35744.21" x2="20138.07" y2="35744.21">
   <stop offset="0" style="stop-opacity:1; stop-color:#FF928E"/>
   <stop offset="1" style="stop-opacity:1; stop-color:#FEB3B1"/>
  </linearGradient>
  <linearGradient id="id1" gradientUnits="userSpaceOnUse" x1="17357.55" y1="24224.28" x2="18030.28" y2="24224.28">
   <stop offset="0" style="stop-opacity:1; stop-color:#3EE17A"/>
   <stop offset="1" style="stop-opacity:1; stop-color:#5AE9A2"/>
  </linearGradient>
  <linearGradient id="id2" gradientUnits="userSpaceOnUse" x1="24222.03" y1="26472.55" x2="22360.88" y2="26472.55">
   <stop offset="0" style="stop-opacity:1; stop-color:#09005D"/>
   <stop offset="1" style="stop-opacity:1; stop-color:#1A0F91"/>
  </linearGradient>
  <linearGradient id="id3" gradientUnits="userSpaceOnUse" xlink:href="#id0" x1="50281.36" y1="36575.88" x2="50505.06" y2="34877.67">
  </linearGradient>
  <linearGradient id="id4" gradientUnits="userSpaceOnUse" x1="28199.62" y1="26472.55" x2="30060.12" y2="26472.55">
   <stop offset="0" style="stop-opacity:1; stop-color:#4042E2"/>
   <stop offset="1" style="stop-opacity:1; stop-color:#4F52FF"/>
  </linearGradient>
  <linearGradient id="id5" gradientUnits="userSpaceOnUse" x1="18999.21" y1="18041.43" x2="19443.77" y2="18041.43">
   <stop offset="0" style="stop-opacity:1; stop-color:#E1473D"/>
   <stop offset="1" style="stop-opacity:1; stop-color:#E1473D"/>
  </linearGradient>
  <linearGradient id="id6" gradientUnits="userSpaceOnUse" x1="45320.65" y1="29987.91" x2="45343.21" y2="28652.16">
   <stop offset="0" style="stop-opacity:1; stop-color:#FE7062"/>
   <stop offset="1" style="stop-opacity:1; stop-color:#FF928E"/>
  </linearGradient>
  <linearGradient id="id7" gradientUnits="userSpaceOnUse" xlink:href="#id4" x1="27461.27" y1="26478.95" x2="28402.72" y2="26478.95">
  </linearGradient>
  <linearGradient id="id8" gradientUnits="userSpaceOnUse" xlink:href="#id2" x1="21052.26" y1="35869.09" x2="22686.43" y2="35854.3">
  </linearGradient>
  <linearGradient id="id9" gradientUnits="userSpaceOnUse" xlink:href="#id0" x1="21972.15" y1="27156.23" x2="24247.18" y2="27156.23">
  </linearGradient>
  <linearGradient id="id10" gradientUnits="userSpaceOnUse" xlink:href="#id0" x1="48591.04" y1="25120.68" x2="45456.03" y2="25120.68">
  </linearGradient>
  <linearGradient id="id11" gradientUnits="userSpaceOnUse" xlink:href="#id0" x1="29806.78" y1="32555.19" x2="36999.31" y2="32555.19">
  </linearGradient>
  <linearGradient id="id12" gradientUnits="userSpaceOnUse" xlink:href="#id0" x1="23654.83" y1="14947" x2="22276.36" y2="16315.95">
  </linearGradient>
  <linearGradient id="id13" gradientUnits="userSpaceOnUse" xlink:href="#id0" x1="47209.13" y1="17326.03" x2="46873" y2="15501.26">
  </linearGradient>
  <linearGradient id="id14" gradientUnits="userSpaceOnUse" xlink:href="#id2" x1="22564.61" y1="26478.95" x2="21622.55" y2="26478.95">
  </linearGradient>
  <linearGradient id="id15" gradientUnits="userSpaceOnUse" xlink:href="#id2" x1="44402.03" y1="26478.95" x2="45344.13" y2="26478.95">
  </linearGradient>
  <linearGradient id="id16" gradientUnits="userSpaceOnUse" xlink:href="#id0" x1="23219.57" y1="35888.53" x2="24204.63" y2="35888.53">
  </linearGradient>
  <linearGradient id="id17" gradientUnits="userSpaceOnUse" xlink:href="#id4" x1="34166.64" y1="26472.55" x2="36007.12" y2="26472.55">
  </linearGradient>
  <linearGradient id="id18" gradientUnits="userSpaceOnUse" xlink:href="#id0" x1="33840" y1="32400.89" x2="37217.2" y2="32400.89">
  </linearGradient>
  <linearGradient id="id19" gradientUnits="userSpaceOnUse" xlink:href="#id2" x1="50194.21" y1="40986.55" x2="50155.83" y2="45410.25">
  </linearGradient>
  <linearGradient id="id20" gradientUnits="userSpaceOnUse" xlink:href="#id2" x1="42699.44" y1="26472.55" x2="44539.85" y2="26472.55">
  </linearGradient>
  <linearGradient id="id21" gradientUnits="userSpaceOnUse" xlink:href="#id0" x1="45701.65" y1="21044.07" x2="39848.08" y2="21044.07">
  </linearGradient>
  <linearGradient id="id22" gradientUnits="userSpaceOnUse" xlink:href="#id0" x1="18995.08" y1="18039.03" x2="19443.77" y2="18039.03">
  </linearGradient>
  <linearGradient id="id23" gradientUnits="userSpaceOnUse" x1="37752.41" y1="16681.38" x2="41549.54" y2="9367.64">
   <stop offset="0" style="stop-opacity:1; stop-color:#09005D"/>
   <stop offset="1" style="stop-opacity:1; stop-color:#09005D"/>
  </linearGradient>
  <linearGradient id="id24" gradientUnits="userSpaceOnUse" x1="39661.64" y1="26129.06" x2="43381.79" y2="34418.44">
   <stop offset="0" style="stop-opacity:1; stop-color:#63FEA3"/>
   <stop offset="1" style="stop-opacity:1; stop-color:#8EFFB4"/>
  </linearGradient>
  <linearGradient id="id25" gradientUnits="userSpaceOnUse" xlink:href="#id2" x1="37765.17" y1="16681.38" x2="41582.88" y2="9367.64">
  </linearGradient>
  <linearGradient id="id26" gradientUnits="userSpaceOnUse" xlink:href="#id2" x1="37044.04" y1="16681.38" x2="40239.93" y2="9367.64">
  </linearGradient>
  <linearGradient id="id27" gradientUnits="userSpaceOnUse" xlink:href="#id0" x1="37956.63" y1="23049.56" x2="37471.2" y2="20079.65">
  </linearGradient>
  <linearGradient id="id28" gradientUnits="userSpaceOnUse" x1="48724.84" y1="22517.91" x2="49870.93" y2="25958.27">
   <stop offset="0" style="stop-opacity:1; stop-color:#E1473D"/>
   <stop offset="1" style="stop-opacity:1; stop-color:#E9605A"/>
  </linearGradient>
  <linearGradient id="id29" gradientUnits="userSpaceOnUse" xlink:href="#id23" x1="-62654.48" y1="-185650.82" x2="-66259.07" y2="-193063.17">
  </linearGradient>
  <linearGradient id="id30" gradientUnits="userSpaceOnUse" xlink:href="#id2" x1="24136.13" y1="26549.52" x2="22288.77" y2="26549.52">
  </linearGradient>
  <linearGradient id="id31" gradientUnits="userSpaceOnUse" xlink:href="#id0" x1="20798.25" y1="23363.85" x2="26720.24" y2="12238.41">
  </linearGradient>
  <linearGradient id="id32" gradientUnits="userSpaceOnUse" x1="45173.24" y1="24601.89" x2="38722.68" y2="30944.81">
   <stop offset="0" style="stop-opacity:1; stop-color:#63FE96"/>
   <stop offset="1" style="stop-opacity:1; stop-color:#8EFFAA"/>
  </linearGradient>
  <linearGradient id="id33" gradientUnits="userSpaceOnUse" xlink:href="#id0" x1="11533.85" y1="2401.99" x2="12269.68" y2="4462.64">
  </linearGradient>
  <linearGradient id="id34" gradientUnits="userSpaceOnUse" xlink:href="#id0" x1="47809.7" y1="17652.83" x2="45771.92" y2="16039.05">
  </linearGradient>
  <linearGradient id="id35" gradientUnits="userSpaceOnUse" xlink:href="#id0" x1="45870.55" y1="14575.22" x2="46022.05" y2="18118.48">
  </linearGradient>
  <linearGradient id="id36" gradientUnits="userSpaceOnUse" xlink:href="#id2" x1="18922.82" y1="28168.33" x2="16070.24" y2="34693.61">
  </linearGradient>
  <linearGradient id="id37" gradientUnits="userSpaceOnUse" xlink:href="#id0" x1="28558.21" y1="13862.01" x2="25003.94" y2="19150.84">
  </linearGradient>
  <linearGradient id="id38" gradientUnits="userSpaceOnUse" xlink:href="#id0" x1="45301.17" y1="35971.12" x2="45514.52" y2="34205.58">
  </linearGradient>
  <linearGradient id="id39" gradientUnits="userSpaceOnUse" xlink:href="#id0" x1="24018.67" y1="14802.68" x2="22657.78" y2="16971.19">
  </linearGradient>
  <linearGradient id="id40" gradientUnits="userSpaceOnUse" xlink:href="#id4" x1="34244.65" y1="28881.37" x2="42153.77" y2="28881.37">
  </linearGradient>
  <linearGradient id="id41" gradientUnits="userSpaceOnUse" xlink:href="#id2" x1="37765.17" y1="16681.38" x2="41582.88" y2="9367.64">
  </linearGradient>
  <linearGradient id="id42" gradientUnits="userSpaceOnUse" xlink:href="#id2" x1="37203.67" y1="16681.36" x2="40065.24" y2="9367.62">
  </linearGradient>
  <linearGradient id="id43" gradientUnits="userSpaceOnUse" x1="50377.65" y1="28899.88" x2="50137.74" y2="28401.13">
   <stop offset="0" style="stop-opacity:1; stop-color:#53D8FF"/>
   <stop offset="1" style="stop-opacity:1; stop-color:#3840F7"/>
  </linearGradient>
  <linearGradient id="id44" gradientUnits="userSpaceOnUse" xlink:href="#id2" x1="19523.86" y1="25659.56" x2="19009.65" y2="28524.13">
  </linearGradient>
  <linearGradient id="id45" gradientUnits="userSpaceOnUse" xlink:href="#id28" x1="18190.68" y1="18305.7" x2="19758.51" y2="21163.76">
  </linearGradient>
  <linearGradient id="id46" gradientUnits="userSpaceOnUse" xlink:href="#id4" x1="25635.14" y1="31890.54" x2="24802.24" y2="37213.33">
  </linearGradient>
  <linearGradient id="id47" gradientUnits="userSpaceOnUse" xlink:href="#id4" x1="55686.08" y1="40887.27" x2="57244.14" y2="32968.84">
  </linearGradient>
  <linearGradient id="id48" gradientUnits="userSpaceOnUse" x1="-49316.54" y1="94424.18" x2="-59185.76" y2="104553.02">
   <stop offset="0" style="stop-opacity:1; stop-color:#64F2B2"/>
   <stop offset="1" style="stop-opacity:1; stop-color:#8EFFAE"/>
  </linearGradient>
  <linearGradient id="id49" gradientUnits="userSpaceOnUse" xlink:href="#id0" x1="21941.38" y1="27142.35" x2="24191.13" y2="27142.35">
  </linearGradient>
  <linearGradient id="id50" gradientUnits="userSpaceOnUse" xlink:href="#id23" x1="20398.41" y1="23358.84" x2="28577.69" y2="11181.11">
  </linearGradient>
  <linearGradient id="id51" gradientUnits="userSpaceOnUse" xlink:href="#id0" x1="39901.47" y1="26699.73" x2="46578.1" y2="26699.73">
  </linearGradient>
  <linearGradient id="id52" gradientUnits="userSpaceOnUse" xlink:href="#id2" x1="37765.17" y1="16681.38" x2="41582.88" y2="9367.64">
  </linearGradient>
  <linearGradient id="id53" gradientUnits="userSpaceOnUse" x1="45339.32" y1="21217.62" x2="43858.14" y2="22839.37">
   <stop offset="0" style="stop-opacity:1; stop-color:#3EE198"/>
   <stop offset="1" style="stop-opacity:1; stop-color:#5AE996"/>
  </linearGradient>
  <linearGradient id="id54" gradientUnits="userSpaceOnUse" xlink:href="#id0" x1="28116.28" y1="27956.46" x2="23874.01" y2="32620.93">
  </linearGradient>
  <linearGradient id="id55" gradientUnits="userSpaceOnUse" x1="48812.28" y1="22440.75" x2="49983.51" y2="25892.63">
   <stop offset="0" style="stop-opacity:1; stop-color:#3EE18F"/>
   <stop offset="1" style="stop-opacity:1; stop-color:#5AE9A9"/>
  </linearGradient>
  <linearGradient id="id56" gradientUnits="userSpaceOnUse" xlink:href="#id4" x1="21511.32" y1="30991.8" x2="20679.96" y2="36633.01">
  </linearGradient>
  <linearGradient id="id57" gradientUnits="userSpaceOnUse" xlink:href="#id0" x1="18890" y1="20428.8" x2="15921.96" y2="23784.28">
  </linearGradient>
  <linearGradient id="id58" gradientUnits="userSpaceOnUse" xlink:href="#id2" x1="24397.34" y1="26549.52" x2="22549.84" y2="26549.52">
  </linearGradient>
  <linearGradient id="id59" gradientUnits="userSpaceOnUse" xlink:href="#id2" x1="47334.38" y1="18687.34" x2="46878.31" y2="15603.92">
  </linearGradient>
  <linearGradient id="id60" gradientUnits="userSpaceOnUse" xlink:href="#id2" x1="46862.1" y1="16010.93" x2="44437.17" y2="14272.75">
  </linearGradient>
  <linearGradient id="id61" gradientUnits="userSpaceOnUse" xlink:href="#id2" x1="24422.78" y1="26472.55" x2="22576.72" y2="26472.55">
  </linearGradient>
  <linearGradient id="id62" gradientUnits="userSpaceOnUse" xlink:href="#id0" x1="24148.54" y1="17669.82" x2="23374.94" y2="16208.59">
  </linearGradient>
  <linearGradient id="id63" gradientUnits="userSpaceOnUse" xlink:href="#id28" x1="48156.02" y1="22517.91" x2="49302.79" y2="25958.27">
  </linearGradient>
  <linearGradient id="id64" gradientUnits="userSpaceOnUse" xlink:href="#id0" x1="18995.08" y1="18039.03" x2="19443.77" y2="18039.03">
  </linearGradient>
  <linearGradient id="id65" gradientUnits="userSpaceOnUse" xlink:href="#id0" x1="-18240.07" y1="-111782.83" x2="-20220.14" y2="-116540.83">
  </linearGradient>
  <linearGradient id="id66" gradientUnits="userSpaceOnUse" x1="-44556.14" y1="91148.54" x2="-55854.6" y2="101911.11">
   <stop offset="0" style="stop-opacity:1; stop-color:#63FEB0"/>
   <stop offset="1" style="stop-opacity:1; stop-color:#8EFFB7"/>
  </linearGradient>
  <linearGradient id="id67" gradientUnits="userSpaceOnUse" xlink:href="#id4" x1="30916.57" y1="34807.37" x2="30455.37" y2="40536.83">
  </linearGradient>
  <linearGradient id="id68" gradientUnits="userSpaceOnUse" xlink:href="#id4" x1="35976.49" y1="34672.55" x2="35510.52" y2="41445.07">
  </linearGradient>
  <linearGradient id="id69" gradientUnits="userSpaceOnUse" xlink:href="#id4" x1="35868.58" y1="26478.95" x2="36810.65" y2="26478.95">
  </linearGradient>
  <linearGradient id="id70" gradientUnits="userSpaceOnUse" xlink:href="#id0" x1="9027.78" y1="-5327.8" x2="10115.03" y2="-2438.44">
  </linearGradient>
  <linearGradient id="id71" gradientUnits="userSpaceOnUse" x1="16794.84" y1="26268.28" x2="22142.34" y2="34555.16">
   <stop offset="0" style="stop-opacity:1; stop-color:#63FE9C"/>
   <stop offset="1" style="stop-opacity:1; stop-color:#8EFFAE"/>
  </linearGradient>
  <linearGradient id="id72" gradientUnits="userSpaceOnUse" xlink:href="#id2" x1="24132.38" y1="26472.55" x2="22286.25" y2="26472.55">
  </linearGradient>
  <linearGradient id="id73" gradientUnits="userSpaceOnUse" xlink:href="#id2" x1="44227.69" y1="40456.4" x2="44187.09" y2="44493.5">
  </linearGradient>
  <linearGradient id="id74" gradientUnits="userSpaceOnUse" xlink:href="#id4" x1="5834.85" y1="40887.27" x2="7393.51" y2="32968.84">
  </linearGradient>
  <linearGradient id="id75" gradientUnits="userSpaceOnUse" x1="59643.66" y1="17043.03" x2="3268.25" y2="17043.03">
   <stop offset="0" style="stop-opacity:1; stop-color:#DAFEF4"/>
   <stop offset="1" style="stop-opacity:1; stop-color:#E9FDF7"/>
  </linearGradient>
  <linearGradient id="id76" gradientUnits="userSpaceOnUse" xlink:href="#id2" x1="25005.42" y1="14049.51" x2="22603.99" y2="18255.62">
  </linearGradient>
  <linearGradient id="id77" gradientUnits="userSpaceOnUse" xlink:href="#id28" x1="48735.25" y1="22517.91" x2="49881.35" y2="25958.27">
  </linearGradient>
  <linearGradient id="id78" gradientUnits="userSpaceOnUse" xlink:href="#id2" x1="50461.53" y1="29960.83" x2="44959.68" y2="29960.83">
  </linearGradient>
  <linearGradient id="id79" gradientUnits="userSpaceOnUse" xlink:href="#id2" x1="-42118.3" y1="-185650.82" x2="-44968.63" y2="-193063.17">
  </linearGradient>
  <linearGradient id="id80" gradientUnits="userSpaceOnUse" xlink:href="#id0" x1="18995.08" y1="18039.03" x2="19443.77" y2="18039.03">
  </linearGradient>
  <linearGradient id="id81" gradientUnits="userSpaceOnUse" xlink:href="#id2" x1="22964.95" y1="36074.84" x2="24622.14" y2="36055.5">
  </linearGradient>
  <linearGradient id="id82" gradientUnits="userSpaceOnUse" xlink:href="#id2" x1="24471.53" y1="13521.69" x2="22295.86" y2="17015.51">
  </linearGradient>
  <linearGradient id="id83" gradientUnits="userSpaceOnUse" xlink:href="#id2" x1="24155.15" y1="26472.55" x2="22309.02" y2="26472.55">
  </linearGradient>
  <linearGradient id="id84" gradientUnits="userSpaceOnUse" xlink:href="#id0" x1="23146.68" y1="32671.65" x2="13490.59" y2="37317.76">
  </linearGradient>
  <linearGradient id="id85" gradientUnits="userSpaceOnUse" x1="20339.45" y1="23408" x2="27996.56" y2="11174.73">
   <stop offset="0" style="stop-opacity:1; stop-color:#1A0F91"/>
   <stop offset="1" style="stop-opacity:1; stop-color:#1A0F91"/>
  </linearGradient>
  <linearGradient id="id86" gradientUnits="userSpaceOnUse" xlink:href="#id2" x1="24445.18" y1="26472.55" x2="22599.78" y2="26472.55">
  </linearGradient>
  <linearGradient id="id87" gradientUnits="userSpaceOnUse" xlink:href="#id0" x1="-26001.11" y1="-143004.79" x2="-28292.77" y2="-148881.29">
  </linearGradient>
  <linearGradient id="id88" gradientUnits="userSpaceOnUse" xlink:href="#id28" x1="48167.15" y1="22517.91" x2="49313.28" y2="25958.27">
  </linearGradient>
  <linearGradient id="id89" gradientUnits="userSpaceOnUse" xlink:href="#id0" x1="19392.14" y1="35803.39" x2="20202.59" y2="35803.39">
  </linearGradient>
 </defs>
 <g id="Camada_x0020_1">
  <metadata id="CorelCorpID_0Corel-Layer"/>
  <g id="_2522789132960">
   <path class="fil0" d="M25881.73 34087.18c-3987.01,0 -8897.61,-157.16 -12829.93,-773.47 -8029.32,-1258.24 -6447.75,-10067.61 -4684.02,-12746.28 1763.75,-2678.88 2270.25,-2492.98 -2449.04,-5219.07 -4719.34,-2726.15 -5653.74,-7300.47 -3502.61,-10696.78 1257.03,-1984.62 3176.72,-2910.21 5554.05,-2910.21 1691.02,0 3613.66,468.48 5693.42,1357.4 799.73,341.8 1458.57,484.25 2021.5,484.2 1411.29,-0.15 2218.36,-895.83 3119.51,-1791.47 901.15,-895.78 1896.66,-1791.52 3685.61,-1791.52 173.32,0 354.09,8.42 542.95,26.03 4156.35,388.02 3786.98,4102.32 7365.94,4102.02 609.72,-0.05 1334.49,-107.91 2215.52,-358.4 1498.58,-426.24 2514.42,-593.99 3264.12,-593.99 2278.04,0 2103.94,1548.13 5565.62,2104.77 293.13,47.13 591.09,68.66 893.99,68.61 1601.21,0 3332.53,-601.88 5117.5,-1203.76 1784.5,-601.88 3623.19,-1203.77 5438.65,-1203.77 1417.25,0 2820.45,366.73 4173.82,1386.23 5147.84,3879.01 2047.23,7738.95 -393.87,9619.4 -2441.59,1880.4 -1667.4,3274.46 2869.32,4614.95 4537.21,1340.5 6767.83,6072.42 841.93,10819 -5441.55,4359.05 -23827.87,4536.87 -26792.52,4536.87 -263.56,0 -405.53,-1.4 -405.53,-1.4 0,0 -3151.66,170.61 -7305.94,170.61l0.01 0zm11420.69 -17125.55c-96.09,0 -202.21,7.16 -319.5,22.5 -1660.87,217.54 -1378.39,1195.87 -1509.46,1685.78 -131.32,489.92 -827.99,1045.16 -2766.75,1801.04 -1938.75,755.95 -1364.01,2816.78 -493.3,3500.76 871.01,684.05 1345.97,229.45 1548.47,1409.94 143.08,833.99 588.19,1557.32 1192.78,1557.32 251.23,0 529.74,-125.08 825.72,-418.74 1008.08,-1000.64 2153.83,-2184.27 1833.52,-3735.92 -320.37,-1551.81 42.43,-1258.3 667.93,-1970.16 625.55,-711.87 -700.35,-1400.94 -199.89,-2617.38 0,0 484.98,-1235.16 -779.51,-1235.16l-0.01 0.02zm3579.84 -11072.36c-21.24,0 -32.42,0.15 -32.42,0.15 -1968.61,162.63 -4142,1306.78 -4449.67,3427.75 -261.58,1803.61 1606.63,2856.65 2774.19,3366.64 325.83,142.21 587.65,398.76 737.36,721.06 316.93,681.91 1016.99,1818.22 2160.46,1818.32 150,0 307.16,-19.45 472.4,-62.03 103.79,-26.76 100.65,-176.28 -4.06,-199.84 -332.95,-75.09 -787.54,-247.59 -1022.99,-642.33 -320.66,-537.62 32.13,-1227.18 653.32,-1305.13 1175.31,-147.53 3489.39,-786.34 3942.78,-3516.31 585.96,-3531.39 -4764.73,-3608.28 -5231.36,-3608.28z"/>
   <path class="fil1" d="M57103.66 21695.47c0,0 3031.42,-5319.67 2091.26,-6111.99 -940.64,-792.33 -957.09,1509.02 -1337.89,1183.05 -380.81,-325.98 240,-2247.65 71.13,-3582.93 -169.35,-1335.27 -536.61,-3121.66 -1010.8,-1326.57 -474.19,1795.1 -415.15,3564.93 -620.32,2650.42 -205.64,-914.46 -914.02,-5681.4 -1825.14,-4258.94 -911.61,1422.43 -1102.25,3274.22 -183.87,4353.14 918.38,1078.93 2151.28,2283.71 635.32,1488.37 -1515.95,-795.33 -2549,-440.51 -927.57,1000.34 0,0 2438.2,2017.87 1379.5,1923.28 -1058.22,-94.55 -2743.52,1022.6 -1006.93,1829.93 0,0 2467.23,358.4 2735.3,851.9l0.01 0z"/>
   <path class="fil2" d="M55844.15 26546.89c0,0 -5908.96,-280.2 -5647.68,-1648.53 261.78,-1368.03 2189.97,-451.98 3048.35,-365.08 857.89,86.9 354.67,-499.88 -1393.53,-1730.3 -1747.71,-1230.47 -2708.67,-3032.63 -857.89,-2192.3 1850.78,840.33 2590.62,2418.31 2465.29,1305.28 -125.32,-1112.99 -2504.49,-4246.46 -492.09,-2963.44 2012.4,1282.96 1874.5,2470.33 1935.46,3407.05 60.49,936.71 328.55,-1812.85 957.57,-1403.26 629.02,409.64 271.93,830.42 46.94,1919.21 -225.49,1088.75 405.47,211.15 613.54,-146.23 208.54,-357.34 720.48,499.93 218.71,1682.41 -501.28,1182.47 -894.66,2135.19 -894.66,2135.19l-0.01 0z"/>
   <path class="fil3" d="M57020.91 32775.95c-3.87,3.44 -6.29,7.45 -7.74,11.76 -0.49,0.28 -0.49,8.32 0,2.27l0.48 -16.89 3.39 -67.16 5.32 -137.37 9.19 -277.31 14.52 -556.98 19.36 -1115.65c9.19,-744 12.58,-1488.23 10.64,-2232.46 -4.84,-1488.52 -31.45,-2976.69 -88.06,-4463.76 -29.52,-743.42 -67.26,-1486.15 -114.19,-2228.3 -49.36,-741.91 -109.35,-1482.85 -184.84,-2221.76 -76.45,-738.77 -172.25,-1475.11 -300.48,-2204.4 -130.65,-727.34 -288.87,-1454.11 -550.16,-2134.8l-1.45 -3.63c-25.65,-66.92 7.74,-142.01 74.52,-167.66 66.29,-25.45 140.8,7.26 167.42,73.02 283.06,708.91 451.93,1444.43 595.16,2180.53 139.83,737.17 246.77,1478.59 333.87,2221.48 86.13,742.98 156.77,1487.21 216.29,2232.07 57.58,744.91 105.48,1490.26 144.67,2236.24 77.42,1491.37 124.84,2983.9 150,4476.67 12.1,746.56 18.87,1493.11 19.84,2239.62l-4.35 1120.54 -6.29 560.7 -5.8 281.31 -3.39 142.26 -2.9 72.29 -0.49 18.33c0,5.47 -1.45,24.97 -2.9,37.02 -2.9,27.23 -7.74,54.77 -13.54,81.43 -44.03,131.95 -186.77,203.37 -318.87,159.2 -131.6,-43.88 -203.22,-186.72 -159.19,-318.63l0 0.01z"/>
   <path class="fil3" d="M56988.49 33062.72c-2.41,6.63 -3.38,13.8 -3.38,20.67 0,1.69 1.45,10.31 0.97,6.29l-1.93 -10.6 -5.8 -42.14 -13.06 -86.66 -28.06 -175.79 -58.55 -353.04 -121.94 -706.1c-83.7,-470.95 -170.32,-941.31 -260.8,-1410.81 -179.99,-939.52 -372.57,-1876.53 -582.09,-2809.18 -210.48,-932.41 -437.41,-1861.34 -699.18,-2778.55 -131.13,-458.56 -273.39,-913.44 -432.09,-1360.83 -160.64,-446.03 -336.29,-888.91 -565.64,-1292.36l-1.45 -3.29c-35.81,-62.32 -14.03,-141.53 48.38,-176.95 61.45,-34.88 139.84,-13.98 175.64,46.4 253.55,425.71 441.29,874.15 615,1325.49 171.77,452.28 325.16,909.72 467.41,1369.78 284.51,920.31 531.77,1849.87 763.54,2782.53 230.32,932.99 443.71,1869.66 644.51,2808.94 100.64,469.79 197.9,939.81 291.77,1411.05l137.91 707.84 66.77 354.78 32.42 178.64 15.48 90.62 7.75 46.45 1.93 11.76 3.38 28.7c1.93,21.82 2.9,43.88 2.42,65.42 -13.55,138.48 -136.94,239.76 -275.32,226.25 -138.38,-13.74 -240,-137.08 -225.97,-275.32l0 0.01z"/>
   <path class="fil4" d="M58254.78 22769.5c0,0 5990.74,-954.66 5418.81,-2224.91 -570.96,-1270.28 -2234.98,67.89 -3049.8,351.29 -814.35,283.4 -931.44,142.07 483.87,-1460.07 1414.82,-1602.13 1546.92,-3264.44 -58.55,-2017.96 -1605.47,1246.39 -1049.99,2402.49 -1185.95,1290.71 -135.97,-1111.78 2009.98,-5356.67 349.83,-3642.2 -1659.66,1714.48 -1862.88,3173.76 -1704.66,4099.07 158.22,925.3 -740.31,-1687.29 -1257.08,-1142.99 -517.26,544.3 -72.1,870.86 399.19,1877.77 471.77,1006.88 -344.99,299.32 -630.96,0 -285.48,-299.36 -584.51,653.13 177.58,1687.29 761.6,1034.12 1057.73,1181.99 1057.73,1181.99l0 -0.01z"/>
   <path class="fil3" d="M57803.32 32935.38c-5.32,-23.8 -9.67,-48.19 -12.58,-72.82 -0.97,-10.36 -2.42,-28.69 -2.42,-32.42l-0.48 -13.79 -1.93 -55.01 -2.42 -106.74 -3.87 -211.06 -3.87 -419.85 -1.46 -838.35c1.93,-558.67 8.72,-1117.05 19.36,-1675.48 20.8,-1116.81 59.03,-2233.56 119.52,-3349.56 61.93,-1115.66 145.16,-2231.3 277.74,-3343.42 66.78,-556.01 148.07,-1111.1 254.03,-1663.33 108.39,-551.52 236.13,-1102.69 450.48,-1636.34 27.1,-66.49 102.58,-98.75 169.35,-72 65.32,26.42 97.74,100.6 72.58,166.5l-1.45 3.77c-192.58,505.5 -309.19,1047.81 -405.97,1590.66 -93.87,544.35 -164.51,1094.32 -220.15,1646.21 -111.3,1104.19 -174.2,2214.36 -215.8,3325.47 -39.68,1111.35 -57.1,2223.85 -57.58,3336.36 -0.49,556.1 2.9,1112.5 11.13,1668.32l16.45 833.7 12.1 415.89 6.78 207.1 4.84 102.09 2.41 49.31 0.49 12.63c0.48,4.6 0,-4.89 -0.49,-6.63 -1.45,-7.16 -4.35,-14.32 -8.71,-20.62 44.52,131.91 -27.1,274.75 -159.19,318.63 -132.1,44.18 -274.36,-27.24 -318.87,-159.2l0 -0.01z"/>
   <path class="fil5" d="M54935.93 31780.44l4960.1 0c325.16,0 565.64,302.32 492.57,619.2 -317.41,1374.96 -697.73,2769.94 -1476.27,4185.87 -143.7,261.55 -417.09,425.59 -715.64,425.59l-1618.53 0c-293.7,0 -563.7,-161.47 -703.05,-420.41 -623.22,-1158.43 -1223.21,-2539.66 -1519.33,-4107.01 -68.71,-364.83 209.03,-703.25 580.16,-703.25l-0.01 0.01z"/>
   <path class="fil6" d="M7752.69 21754.55c0,0 3405.69,-5088.33 2524.52,-5946.13 -881.22,-857.85 -1063.11,1436.43 -1419.38,1083.95 -356.27,-352.45 400.88,-2224.63 328.06,-3568.6 -72.82,-1343.99 -310.88,-3152.05 -912.76,-1395.62 -601.94,1756.33 -669.92,3525.88 -809.22,2599.04 -139.25,-926.9 -503.66,-5732.41 -1514.6,-4379.04 -1010.89,1353.36 -1334.55,3186.65 -495.92,4328.76 838.64,1142.07 1981.92,2432.2 527.03,1530.13 -1454.89,-902.07 -2510.88,-622.4 -997.1,931.2 0,0 2287.04,2187.59 1238.07,2017.28 -1048.98,-170.27 -2810.05,823.06 -1135.78,1752.95 0,0 2435.25,534.57 2667.07,1046.07l0.01 0.02z"/>
   <path class="fil3" d="M6874.77 32800.63c-4.21,2.85 -7.11,6.87 -8.47,11.18 -0.48,0.28 -1.3,8.27 -0.53,1.98l1.98 -16.6 8.13 -66.87 15.39 -136.5 29.08 -275.9 54.14 -554.66 99.39 -1111.1c62.85,-741.39 119.61,-1483.63 170.66,-2226.12 102.48,-1485.08 182.46,-2971.57 232.64,-4458.63 24,-743.37 39.77,-1487.16 46.4,-2230.72 4.11,-743.56 -2.32,-1486.88 -24.82,-2229.32 -23.13,-742.35 -66.24,-1483.68 -141.53,-2220.26 -78.29,-734.83 -183.82,-1471.09 -395.61,-2168.82l-1.11 -3.68c-20.86,-68.56 17.9,-141.09 86.46,-161.9 67.99,-20.67 139.89,17.32 161.38,84.82 231.53,727.35 347.22,1473.18 437.27,2217.6 86.47,745.35 140.03,1492.54 173.56,2239.76 32.9,747.29 49.6,1494.61 55.65,2241.85 3.53,747.14 -2.13,1494.19 -16.02,2240.74 -29.95,1493.36 -89.85,2985.31 -172.35,4476.09 -40.98,745.4 -87.77,1490.5 -140.66,2235.32l-84.53 1117.1 -46.89 558.96 -25.64 280.21 -13.98 141.38 -7.79 72.29 -1.93 17.76c-0.54,5.76 -3.49,24.97 -5.72,36.72 -4.93,27.24 -11.41,54.19 -19.21,80.32 -53.36,128.47 -200.76,189.53 -329.27,136.21 -128.56,-53.32 -189.48,-200.76 -136.06,-329.22z"/>
   <path class="fil7" d="M9163.11 26546.89c0,0 5908.93,-280.2 5647.39,-1648.53 -261.48,-1368.03 -2190.02,-451.98 -3048.15,-365.08 -858.14,86.9 -354.68,-499.88 1393.29,-1730.3 1747.92,-1230.47 2708.93,-3032.63 858.09,-2192.3 -1850.83,840.33 -2590.51,2418.31 -2465.14,1305.28 125.27,-1112.99 2504.34,-4246.46 492.09,-2963.44 -2012.25,1282.96 -1874.59,2470.33 -1935.32,3407.05 -60.68,936.71 -328.74,-1812.85 -957.91,-1403.26 -629.12,409.64 -271.98,830.42 -46.74,1919.21 225.28,1088.75 -405.33,211.15 -613.69,-146.23 -208.4,-357.34 -720.38,499.93 -218.8,1682.41 501.53,1182.47 894.91,2135.19 894.91,2135.19l-0.02 0z"/>
   <path class="fil3" d="M8018.91 33062.72c2.18,6.63 3.19,13.8 2.9,20.67 0.15,1.69 -1.16,10.31 -0.63,6.29l1.54 -10.6 6.05 -42.14 13.16 -86.66 27.87 -175.79 58.4 -353.04 122.27 -706.1c83.47,-470.95 170.47,-941.31 260.61,-1410.81 180.1,-939.52 372.92,-1876.53 582.29,-2809.18 210.58,-932.41 437.08,-1861.34 699.1,-2778.55 131.37,-458.56 273.14,-913.44 432.28,-1360.83 160.5,-446.03 336.29,-888.91 565.35,-1292.36l1.84 -3.29c35.36,-62.32 13.54,-141.53 -48.78,-176.95 -61.49,-34.88 -139.55,-13.98 -175.59,46.4 -253.69,425.71 -441.24,874.15 -614.99,1325.49 -171.77,452.28 -324.91,909.72 -467.41,1369.78 -284.18,920.31 -531.72,1849.87 -763.3,2782.53 -230.32,932.99 -443.89,1869.66 -644.75,2808.94 -100.55,469.79 -197.9,939.81 -291.77,1411.05l-138.05 707.84 -66.53 354.78 -32.23 178.64 -15.73 90.62 -7.69 46.45 -1.93 11.76 -3.44 28.7c-1.98,21.82 -2.76,43.88 -2.32,65.42 13.54,138.48 136.83,239.76 275.27,226.25 138.53,-13.74 239.8,-137.08 226.21,-275.32l0 0.01z"/>
   <path class="fil8" d="M5646.32 24107.98c0,0 -6057.71,-314.32 -5624.1,-1637.94 433.64,-1323.71 2229.78,-169.4 3069.83,26.08 840.14,195.43 941.46,42.48 -635.5,-1400.65 -1577.02,-1443.07 -1884.55,-3081.97 -155.86,-2012.78 1728.75,1069.2 1298.65,2277.65 1316.11,1157.7 17.42,-1119.92 -2566.62,-5113.39 -734.17,-3584.53 1832.45,1528.82 2188.91,2958.4 2129.78,3895.27 -59.08,936.81 556.98,-1756.24 1128.86,-1269.81 571.83,486.39 163.99,858.28 -198.15,1909.53 -362.08,1051.25 375.19,261.05 627.38,-66.87 252.19,-327.96 650.85,587.47 2.76,1696.54 -648.04,1109.06 -926.94,1287.47 -926.94,1287.47z"/>
   <path class="fil3" d="M7172.77 34168.65c3.15,-24.1 4.79,-48.77 4.93,-73.44 0.15,-10.6 -0.38,-28.93 -0.82,-33l-0.92 -13.45 -4.02 -54.77 -8.71 -106.7 -18.78 -209.95 -40.49 -418.15 -87.78 -833.71c-61.01,-555.23 -126.58,-1109.93 -196.4,-1664.01 -139.35,-1108.49 -295.5,-2214.7 -473.9,-3318.02 -180,-1102.73 -381.14,-2203.19 -630.86,-3295.04 -125.08,-545.8 -264.87,-1089.28 -428.85,-1627.14 -166.5,-536.85 -351.91,-1071.43 -621.76,-1579.3 -33.58,-63.29 -112.22,-87.34 -175.46,-53.71 -62.56,33.24 -86.8,110.37 -54.87,173.32l1.79 3.54c245.18,482.27 418.89,1009.15 572.17,1538.69 151.4,531.34 279.87,1070.8 393.77,1613.69 227.66,1085.84 407.7,2183.4 566.75,3283.86 157.4,1100.75 292.74,2204.93 411.38,3311.15 59.47,553.21 114.68,1106.75 165.29,1660.58l72.1 830.55 32.56 414.72 14.66 206.76 6.49 101.86 2.71 49.59 0.68 12.34c0.24,4.59 -0.44,-4.89 0,-6.63 0.53,-7.16 2.61,-14.62 6.15,-21.49 -29.81,135.96 56.27,270.43 192.19,300 135.97,29.8 270.24,-56.23 300,-192.15z"/>
   <path class="fil9" d="M5084.46 31780.44l4960.06 0c325.12,0 565.64,302.32 492.58,619.2 -317.37,1374.96 -697.74,2769.94 -1475.94,4185.87 -143.7,261.55 -417.43,425.59 -715.87,425.59l-1618.53 0c-293.91,0 -563.61,-161.47 -702.92,-420.41 -623.46,-1158.43 -1223.31,-2539.66 -1519.44,-4107.01 -68.95,-364.83 208.79,-703.25 580.06,-703.25l0 0.01z"/>
   <path class="fil10" d="M34954.65 26938.98c-604.59,0 -1049.7,-723.34 -1192.78,-1557.32 -202.5,-1180.48 -677.46,-725.89 -1548.47,-1409.94 -870.71,-683.99 -1445.46,-2744.82 493.3,-3500.76 1938.75,-755.9 2635.43,-1311.14 2766.75,-1801.04 131.08,-489.91 -151.4,-1468.24 1509.46,-1685.78 117.29,-15.33 223.41,-22.5 319.5,-22.5 1264.49,0 779.51,1235.16 779.51,1235.16 -500.46,1216.44 825.43,1905.51 199.89,2617.38 -625.5,711.86 -988.3,418.35 -667.93,1970.16 320.31,1551.66 -825.43,2735.29 -1833.52,3735.92 -295.98,293.66 -574.5,418.74 -825.72,418.74l0.01 -0.02zm-2701.95 -5791.3c-4.6,0 -9.15,2.03 -12.05,5.91 -4.84,6.53 -491.56,659.32 -323.52,1458.56 128.81,612.19 597.73,1146.76 1394.17,1589.02l7.45 2.03c5.13,0 10.31,-2.9 12.93,-7.8 3.97,-7.4 1.4,-16.3 -5.76,-20.61 -788.12,-437.66 -1252.15,-965.36 -1379.21,-1568.6 -165.48,-785.51 312.87,-1428.03 317.75,-1434.42 5.18,-6.63 3.72,-16.02 -2.85,-21.1 -2.57,-2.03 -5.76,-3 -8.9,-3l0 -0.01zm3168.59 -1672.33c19.5,312.34 131.04,573.67 365.08,798.28 160.3,154.07 293.13,206.85 399.52,206.85 232.31,0 340.17,-250.93 340.17,-250.93 0,0 -272.76,-452.71 -150.58,-687.76 34.98,-67.07 80.85,-91.02 129.04,-91.02 120.19,0 252.97,150.43 252.97,150.43l77.7 -37.54c0,0 -451.4,-1379.94 748.55,-1379.94 7.15,0 14.08,0.05 21.23,0.15l283.06 209.32c0,0 470.37,-754.78 -258.38,-1140.37 -209.37,-110.81 -430.5,-166.74 -647.61,-166.74 -538.35,0 -1051.15,343.88 -1293.76,1046.85 -178.11,515.17 -282.48,942.42 -269.03,1302.95 -160.3,149.9 -377.99,274.45 -649.3,368.81 -7.74,2.8 -11.76,11.37 -9.19,19.16 2.32,6.24 8.03,10.06 14.37,10.06l4.84 -0.83c265.01,-92.18 479.85,-212.85 641.32,-357.72z"/>
   <polygon class="fil11" points="27040.11,36788.85 27519.34,36788.85 27519.34,31605.2 27040.11,31605.2 "/>
   <path class="fil12" d="M29378.69 36888.65l-4198.16 0c0,-172.07 139.65,-312.04 312,-312.04l3574.42 0c172.12,0 311.76,139.96 311.76,312.04l-0.01 0z"/>
   <path class="fil13" d="M30001.91 31425.09c0,283.65 -232.02,515.7 -515.37,515.7l-4247.8 0c-283.4,0 -515.36,-232.06 -515.36,-515.7l0 -466.01c0,-283.4 231.96,-515.42 515.36,-515.42l4247.8 0c283.35,0 515.37,232.02 515.37,515.42l0 466.01z"/>
   <path class="fil14" d="M24585.11 14601.28c0,0 463.45,-1154.7 -967.59,-1345.25 -1430.99,-190.55 -1981.77,1013.51 -2547.46,2593.58 -463.06,1293.51 -2023.96,2007.6 -3035.97,2803.32 -1274.4,1002.09 -1867.42,2533.58 -1400.11,4148.62 382.25,1321.06 1830.12,1765.88 3069.88,1715.7 3793.9,-153.43 4738.98,-72.58 4967.85,-2472.51 228.58,-2400.03 -86.61,-7443.45 -86.61,-7443.45l0.01 -0.01z"/>
   <path class="fil15" d="M28759.47 15205.14c-32.13,-61.21 -122.76,-51.58 -141.1,14.95 -68.56,246.29 -234.05,676.01 -581.65,828.57 -17.18,7.75 -33.82,15.49 -49.88,23.32 -15.78,-47.27 -16.06,-102.09 21.77,-159.82 107.85,-165.09 -87.19,-390.52 -87.19,-390.52 0,0 -12.87,198.53 -163.74,323.61 -129.92,107.71 -192.43,347.37 -103.55,543.96 188.18,730.48 469.49,1696.62 -627.24,2402.44 -1097.02,705.82 -2641.85,-1332.04 -2641.85,-1332.04l766.78 2430.65c0,0 1183.34,873.28 2559.99,-354.72 1376.6,-1228.05 464.02,-3014.97 464.02,-3014.97 0,0 1049.99,-423.58 583.64,-1315.44l-0.01 0z"/>
   <path class="fil16" d="M24282.61 17192.57c-328.11,-98.37 -1283.55,-280.01 -2192.31,558.67 -154.11,142.21 -217.11,358.35 -162.14,560.75 244.06,898.59 888.09,3553.56 323.42,4702.4 0,0 995.12,1096.73 2080.72,212.8 0,0 487.11,-2123.01 1124.99,-3054.94 440.51,-643.39 -702.14,-2416.13 -991.49,-2844.4 -43.59,-64.84 -108.24,-112.84 -183.19,-135.29l0 0.01z"/>
   <path class="fil17" d="M23376.62 15407.25c0,0 -485.27,1372.68 -521.8,1978.22 0,0 536.37,243.87 1041.72,-167.75 0,0 53.04,-1371.03 129.68,-1616.6l-649.59 -193.88 0 0.01z"/>
   <path class="fil18" d="M24482.98 14330.99c0,0 848.65,2011.63 -4.84,2348.45 -853.45,336.91 -1457.98,-1093.01 -1457.98,-1093.01 0,0 -73.94,-1013.12 298.83,-1267.34 372.86,-254.18 1163.99,11.9 1163.99,11.9z"/>
   <path class="fil19" d="M24003.07 13787.94c0,0 538.74,262.74 560.52,538.11 21.77,275.37 -918.48,314.65 -1169.46,270.43l-433.79 993.67c0,0 -371.85,-1110.17 -10.54,-1621.78 361.3,-511.64 1053.28,-180.43 1053.28,-180.43z"/>
   <path class="fil20" d="M23288.94 15512.93c0,0 -356.42,-666.62 -630.04,-345.82 -273.58,320.8 290.56,734.7 547.3,604.73l82.74 -258.92z"/>
   <path class="fil21" d="M25599.49 27684.37c-3.72,96.34 165.49,860.7 257.86,1268.5 37.01,164.08 11.17,335.85 -72.58,481.84l-3189.06 5367.47c-38.57,65.08 -66.68,135.39 -83.71,208.79 -58.45,252.1 -179.71,869.32 -116.37,1430.84l165 342.73 -713.56 -162.06 -155.23 -1916.11 201.97 -123.29c174.48,-106.45 310.4,-265.31 388.2,-454.36 288.39,-700.64 1004.51,-2483.69 1189.1,-3352.66 209.8,-987.47 1306.44,-1789.63 1306.44,-1789.63l-192.72 -455.46 1014.66 -846.62 0 0.01z"/>
   <path class="fil22" d="M21054.06 35963.12c0,0 385.3,-610.88 430.69,-848.6 45.29,-237.77 171.53,-657.67 409.06,-531.43 0,0 111.92,1155.22 73.35,1606.63 -38.62,451.45 510.24,436.78 510.24,436.78 0,0 151.25,21.24 262.01,131.94 76.5,76.59 21.83,209.37 -86.13,216.25 -179.56,11.47 -464.85,14.63 -764.41,-43.3 -104.71,-20.36 -182.27,-109.27 -188.66,-215.69l-79.06 -1329.59 -486.05 613.74 -81.05 -36.73z"/>
   <path class="fil23" d="M23694.43 28539.31c0,0 -112.45,4801.35 -127.69,5483.36 -15.24,681.72 107.66,2192.83 791.27,2644.57l-297.48 220.27c0,0 -371.71,-316.08 -734.85,-924.05 -407.99,-683.17 -531.38,-807.96 -531.38,-807.96l135.39 -277.01c59.27,-121.65 76.69,-258.72 49.4,-390.91 -147.53,-715.01 -640.35,-3093.17 -774.77,-3605.38 -158.66,-604.59 -169.99,-1411.92 382.06,-2087.64 552.09,-675.67 1108.06,-255.24 1108.06,-255.24l0 0.01z"/>
   <path class="fil24" d="M23063.17 37104.04c-21.19,0 -39.24,-15.19 -42.19,-36.14 -22.79,-160.03 -117.43,-801.88 -195,-967.95 -88.74,-190.45 -378.67,-991.2 0.2,-1059.19 0,0 941.99,1376.07 1122.81,1561.68 180.77,185.53 409.02,64.79 409.02,64.79 0,0 176.03,52.2 309.14,221.98 63.1,80.59 4.25,199.33 -98.37,200.2l-634.45 6.32c-184.31,1.72 -350.03,-110.43 -418.54,-281.36 -111.68,-279.08 -303.48,-688.04 -527.13,-869.58l116.17 1112.49c2.62,24.67 -16.69,46.49 -41.66,46.76z"/>
   <path class="fil25" d="M24482.45 22709.45c0,0 -142.99,455.8 76.83,1206.38l1362.32 4758c21.49,74.85 -18.92,153.14 -92.08,179.51 -407.56,146.27 -1747.33,559.59 -3576.29,433.64 -92.13,-6.59 -169.3,-71.66 -189.33,-161.76 -120.53,-542.32 -531.73,-2393.3 -616.35,-2773.62 -322.6,-1448.93 -682.79,-3011.68 901.78,-3956.47 730.25,312.78 1411.39,497.08 2133.13,314.32l-0.01 -0.01z"/>
   <path class="fil26" d="M21960.3 17930.56c0,0 -1550.31,1288.34 -1935.08,3048.89 -384.73,1760.55 2265.42,1947.75 2265.42,1947.75 0,0 359.8,-401.85 786.86,-258.58 427.15,143.27 33.1,-701.12 -466.64,-698.95 -499.74,2.28 -268.26,397.4 -975.18,77.22 -688.64,-312 -1114.29,-1276.72 642.77,-2739.11 101.8,-84.78 183.09,-192.87 232.02,-316.01 341.36,-859.25 70.64,-1422.52 -550.16,-1061.22l-0.01 0z"/>
   <path class="fil27 str0" d="M18694.73 23934.17l-1.02 0c-338.03,-20.37 -736.49,-158.9 -991.59,-345.04 -277.31,-202.46 -530.27,-673.69 -674.6,-1047.38 -303.52,-785.99 -224.37,-1570.29 235.4,-2331.12 342.67,-567.14 898.92,-1131.62 1700.5,-1725.75 348.96,-258.72 723.77,-516.34 1113.91,-765.62 7.45,-4.79 17.32,-2.62 22.11,4.84 4.79,7.5 2.61,17.37 -4.84,22.16 -389.51,248.95 -763.73,506.13 -1112.07,764.36 -798.19,591.68 -1351.68,1153.1 -1692.12,1716.62 -454.34,751.87 -532.73,1526.68 -232.89,2302.96 142.64,369.48 391.84,834.67 663.53,1032.86 250.49,182.99 642.19,319.21 974.56,339 8.85,0.58 15.58,8.32 15.1,16.93 -0.54,8.61 -7.6,15.19 -15.97,15.19l-0.01 0z"/>
   <path class="fil28 str1" d="M24443.39 14116.54c-7.45,0 -14.03,-5.28 -15.72,-12.87 -0.63,-4.02 -85.93,-402 -572.41,-511.4 -8.62,-1.98 -14.08,-10.5 -12.15,-19.16 1.98,-8.61 10.74,-13.98 19.21,-12.15 507.48,114.1 596.03,532.21 596.9,536.42 1.69,8.66 -4.06,17.13 -12.63,18.87l-3.19 0.29z"/>
   <path class="fil29" d="M22410.43 27170.12c21.63,0 43.55,-0.82 65.66,-2.27l-16.89 -275.62c-199.79,12.05 -365.37,-48.19 -478.36,-174.68 -126.29,-141.38 -178.11,-359.08 -138.77,-581.9 12.24,-69.14 42.43,-188.46 107.51,-209.13 99,-30.92 307.94,106.99 420.87,218.85l194.37 -196.45c-64.79,-63.97 -403.25,-379.45 -698.84,-285.38 -155.32,49.35 -254.85,191.85 -295.83,423.91 -54.78,310.31 19.84,606.86 204.63,813.91 155.71,174.38 379.59,268.45 635.65,268.74z"/>
   <path class="fil30" d="M22420.54 25542.54l1765.39 0c31.02,0 36.19,32.71 36.19,63.68l0 1340.21c0,265.88 -195.58,456.87 -461.56,456.87l-914.7 0c-265.98,0 -484.35,-190.98 -484.35,-456.87l0 -1340.21c0,-30.97 27.97,-63.68 59.03,-63.68z"/>
   <path class="fil31" d="M12282.98 30978c-125.13,184.98 -622.45,4377.15 -700.25,5925.28 -5.28,104.68 78.48,191.86 183.29,191.86 90.44,0 167.37,-65.96 181.3,-155.16l909.57 -5828.63 -573.91 -133.35z"/>
   <path class="fil32" d="M16281.12 30978c125.13,184.98 622.4,4377.15 700.2,5925.28 5.28,104.68 -78.44,191.86 -183.29,191.86 -90.44,0 -167.32,-65.96 -181.26,-155.16l-909.57 -5828.63 573.91 -133.35z"/>
   <path class="fil33" d="M11530.76 30650.76l-0.43 45.58c-3.05,328.98 280.31,598.83 635.02,604.88l4204.21 71.42c349.64,6 641.07,-246.68 658.06,-570.48l2.18 -41.85c17.71,-337.6 -269.03,-622.06 -633.67,-628.69l-4205.95 -75.44c-359.99,-6.28 -656.41,260.71 -659.41,594.58z"/>
   <path class="fil34" d="M49011.97 30978c-124.84,184.98 -622.25,4377.15 -700.16,5925.28 -5.32,104.68 78.39,191.86 183.39,191.86 90.48,0 167.42,-65.96 181.45,-155.16l909.18 -5828.63 -573.86 -133.35z"/>
   <path class="fil35" d="M53010.15 30978c125.32,184.98 622.73,4377.15 700.15,5925.28 5.32,104.68 -78.39,191.86 -182.9,191.86 -90.48,0 -167.42,-65.96 -181.45,-155.16l-909.66 -5828.63 573.86 -133.35z"/>
   <path class="fil36" d="M48260.04 30650.76l-0.49 45.58c-2.9,328.98 280.16,598.83 634.84,604.88l4204.29 71.42c349.84,6 641.13,-246.68 658.06,-570.48l2.41 -41.85c17.42,-337.6 -269.03,-622.06 -633.86,-628.69l-4206.25 -75.44c-359.51,-6.28 -656.12,260.71 -659.02,594.58l0.01 0z"/>
   <path class="fil37" d="M21972.58 27165.24l294.92 -78.53 895.3 -207.38c107.75,-24.97 221.02,-5.76 314.65,53.08l769.78 484.4 -2125.87 -3.72 -148.78 -247.84z"/>
   <path class="fil38" d="M20387.01 36750.99c-747.39,0 -1078.06,-64.25 -1225.88,-122.74 28.74,122.74 138.05,219.69 276.19,219.69l2643.88 0c89.04,0 145.26,-85.19 123.97,-162.36 -301.4,24.11 -941.51,65.41 -1818.17,65.41l0.01 0z"/>
   <path class="fil39" d="M22205.18 36685.59c-4.26,-15.48 -10.6,-30.97 -21.63,-45 -201.43,-256.98 -606.04,-660.81 -1156.34,-653.07 -806.22,11.23 -1087.3,98.66 -1713.81,4.89l-147.77 489.87c-15.1,49.88 -15.39,99.78 -4.5,145.99 147.82,58.49 478.49,122.74 1225.88,122.74 876.67,0 1516.77,-41.3 1818.17,-65.41z"/>
   <path class="fil40" d="M19494.85 35464.4l-181.46 616.94c0,0 401.9,182.94 755.42,36.1l69.43 -534.58 -643.39 -118.45z"/>
   <path class="fil41" d="M24974.58 36362.37c-582.52,468.07 -880.25,625.51 -1031.94,672.84 98.91,77.15 244.5,83.75 352.21,-2.59l2060.93 -1656.29c69.44,-55.64 60.24,-156.87 -4.55,-203.61 -219.72,207.63 -693.23,640.4 -1376.65,1189.64z"/>
   <path class="fil42" d="M26351.23 35172.72c-12.92,-9.19 -27.53,-17.23 -45.05,-21.24 -317.17,-73.4 -884.22,-133.35 -1308.37,217.4 -621.48,513.96 -786.09,757.74 -1333,1077.24l190.16 472.64c19.45,48.2 50.32,87.19 87.67,116.45 151.69,-47.33 449.42,-204.77 1031.94,-672.84 683.41,-549.24 1156.92,-982.01 1376.65,-1189.64l-0.01 0z"/>
   <path class="fil43" d="M15613.82 28434.37c0,0 4474.45,365.36 5392.34,797.6 917.89,431.89 -749.08,6487.96 -749.08,6487.96 0,0 -249.87,120.48 -805.88,-52.5 0,0 570.14,-4469.18 145.84,-5438.26l-4844.6 -792.42 861.38 -1002.38z"/>
   <path class="fil44" d="M23220.27 35595.49c41.52,37.84 444.53,850.63 444.53,850.63 0,0 448.69,-96.91 540.19,-380.85l-403.74 -733.64 -580.98 263.85z"/>
   <path class="fil45" d="M12918.93 28397.06c0,0 -145.83,350.75 -139.83,817.1 8.22,644.76 526.59,1167.87 1170.66,1199.99l5289.47 241.15c111.73,5.18 206.23,82.6 234.19,190.74 124.3,480.97 731.85,1957.44 3701.72,4903.45 79.02,78.29 202.11,91.74 296.22,32.08l422.76 -267c44.42,-28.11 58.54,-86.03 32.03,-131.32l-3079.81 -5259.38c-161.81,-267 -421.79,-459.72 -724.21,-537.14l-4508.31 -1152.36 -2694.9 -37.31 -0.01 -0.02z"/>
   <path class="fil46" d="M18131.7 20181.55c0,0 -566.65,1001.9 -1144.39,1487.21l1194.12 666.28c0,0 269.08,-1060.63 883.79,-1371.18l-933.53 -782.32z"/>
   <path class="fil47" d="M12822.88 28434.37c0,0 1427.94,348.14 2790.94,0 0,0 1907.24,-2564.01 2645.14,-3261.79 0,0 1176.91,1857.31 3796.66,2120.59l146.08 -326.66c0,0 -2085.56,-961.35 -2727.6,-2438.39 -642.04,-1477.29 -899.94,-2107.33 -1484.02,-2492.73 -363.82,-240.05 -581.65,-404.03 -694.2,-493.54 -61.6,-49.06 -146.66,-54.58 -213.92,-13.6 -619.92,377.71 -3536.71,2375.54 -4259.07,6906.13l-0.01 0.01z"/>
   <path class="fil48" d="M17951.27 24771.94c-31.5,0 -62.66,-14.37 -83.32,-41.32 -334.79,-436.5 -521.37,-917.75 -529.11,-938.12 -20.8,-53.9 6.24,-114.73 60.29,-135.39 54.05,-20.95 114.77,6.34 135.53,60.24 1.79,4.59 184.06,474.09 499.74,885.62 35.28,46.16 26.56,111.87 -19.41,147.15 -19.06,14.61 -41.47,21.82 -63.72,21.82z"/>
   <path class="fil49" d="M19031.35 18679.29c0,0 550.69,915.43 646.25,1421.36 95.52,505.93 248.95,822.18 -326.9,1002.47 -575.85,180.29 -1111.01,-47.9 -1446.86,-520.11 0,0 -524.46,-726.82 -472.16,-1059.72 52.31,-332.85 1599.66,-844.01 1599.66,-844.01z"/>
   <path class="fil50" d="M18103.59 19382.93c0,0 1741.48,-578.27 1587.27,-1394.84 -154.16,-816.62 -926.65,-862.64 -1327.63,-172.21 -400.98,690.43 -1539.61,796.64 -1323.85,1442.16 87.53,388.89 -683.65,757.11 987.51,1503.52 -194.89,-598.64 -46.74,-608.32 29.03,-608.32 75.78,0 96.24,0 96.24,0 0,0 -506.22,-710.84 -48.58,-770.31z"/>
   <path class="fil51" d="M18087.72 20282.14c0,0 -242.95,-599.03 -498.19,-388.5 -255.19,210.58 235.89,676.06 462.58,669.82l35.62 -281.32z"/>
   <path class="fil52 str2" d="M19219.82 18557.98c-6.34,0 -12.29,-3.72 -14.81,-9.92 -3.43,-8.18 0.49,-17.52 8.62,-20.9 8.13,-3.39 198.63,-87.1 198.63,-434.32 0,-349.25 -403.64,-539.61 -407.71,-541.49 -8.03,-3.67 -11.56,-13.21 -7.89,-21.24 3.82,-8.08 13.26,-11.61 21.34,-7.89 4.25,1.98 426.33,201.05 426.33,570.62 0,370.07 -209.56,460.26 -218.46,463.98l-6.05 1.16z"/>
   <polygon class="fil53" points="38800.66,36788.85 39279.9,36788.85 39279.9,31605.2 38800.66,31605.2 "/>
   <path class="fil54" d="M41139.52 36888.65l-4198.2 0c0,-172.07 139.69,-312.04 311.75,-312.04l3574.42 0c172.36,0 312.04,139.96 312.04,312.04l-0.01 0z"/>
   <path class="fil55" d="M41762.46 31425.09c0,283.65 -231.77,515.7 -515.42,515.7l-4247.52 0c-283.65,0 -515.37,-232.06 -515.37,-515.7l0 -466.01c0,-283.4 231.72,-515.42 515.37,-515.42l4247.52 0c283.65,0 515.42,232.02 515.42,515.42l0 466.01z"/>
   <path class="fil56" d="M35501.57 28148.69c0,0 -712.1,110.42 -1512.85,645.87 -126.19,84.34 -195.29,231.19 -176.37,381.47 96.05,759.72 490.1,3218.14 1790.49,5619.24 68.52,126.78 88.02,274.21 57.92,414.77l-226.02 1051.39 -418.69 392.61 1078.93 0 718.44 -1943.93 -307.44 -97.21c-238.06,-75.44 -401.51,-294.53 -405.82,-544.06l-36.14 -2085.61c30.97,-928.97 -569.6,-1570.24 -569.6,-1570.24l1723.1 -83.76 -1715.94 -2180.53 0 -0.01z"/>
   <path class="fil57" d="M34594.71 36843.63c-98.37,128.77 1057.44,298.27 1641.37,17.2 0,0 809.66,-1408.48 809.66,-2133.8 0,0 -64.26,-147.68 -539.75,-114.14 0,0 -271.65,1667.45 -558.73,1854.47 -287.08,186.68 -803.03,18.92 -803.03,18.92 0,0 -404.7,167.76 -549.52,357.35z"/>
   <path class="fil58" d="M36999.52 30443.66c-9.15,-15.77 -1855.29,-221.95 -1855.29,-221.95 0,0 60.53,561.24 -128.17,1333.88 -189.04,772.64 -2899.28,4120.17 -2899.28,4120.17l284.22 900.86c-878.8,306.31 -1742.88,355.05 -2593.58,156.31l1761.27 -1057.17c0,0 1648.2,-5616.96 2657.78,-6619.05l1850.45 -640.15 922.59 2027.11 -0.01 0z"/>
   <path class="fil59" d="M41139.52 27175.3c0,0 1063.45,1582 1150.93,2303.59 87.19,721.59 -291.39,1014.67 -1407.33,1063.15 -1115.94,48.19 -4095.25,47.62 -4095.25,47.62l-2542.77 -2173.1c0,0 1853.02,-661.35 2334.85,-848.36 481.84,-186.68 4559.57,-392.9 4559.57,-392.9z"/>
   <path class="fil60" d="M32293.73 36273.47c0,0 305.7,296.27 99.24,626.08 0,0 -2423.79,429.63 -3081.99,234.6 0,0 136.79,-312.04 877.64,-666.8l-54.53 41.85c-69.39,53.03 -28.65,163.79 58.55,158.9 488.12,-27.82 1498.81,-117.34 2101.09,-394.64z"/>
   <path class="fil61" d="M38263.19 26965.93c0,0 -1238.7,-1179.33 -1848.13,-1960.58 -329.56,-422.17 -433.11,-977.99 -280.79,-1491.65 278.46,-937.64 772.93,-1908.9 818.27,-2060.06 69.09,-231.73 1457.79,-222.05 1457.79,-222.05 0,0 2732.63,1773.61 3806.43,4777.88l-1205.75 375.38c0,0 -713.56,-1197.08 -1418.5,-1958.26 0,0 1219.77,1611.52 1262.8,2271.46l-2592.12 267.87 0 0.01z"/>
   <path class="fil62" d="M36784.44 20158.71c14.66,48.14 377.12,1249.78 405.24,1274.7 28.41,24.97 795.04,66.19 1155.82,-180.43l-895.11 -1750.63 -665.94 656.37z"/>
   <path class="fil63" d="M37340.84 17977.4c0,0 646.73,293.56 1066.29,1250.59 419.9,957.09 76.01,1384.69 -342.72,1433.51 -418.98,48.82 -1042.5,23.18 -1686.37,-604.98 -643.59,-628.11 121.06,-2429.16 962.8,-2079.12l0 -0.01z"/>
   <path class="fil64 str3" d="M36185.9 20480.48c-106.39,0 -239.22,-52.79 -399.52,-206.85 -234.05,-224.61 -345.58,-485.94 -365.08,-798.28 271.01,-243.19 390.87,-554.52 344.42,-913.49 -72.24,-558.19 259.88,-646.73 274.21,-650.17 8.03,-2.03 12.87,-10.16 10.89,-18.19 -1.69,-6.82 -7.74,-11.51 -14.61,-11.51 -1.16,0 -2.33,0.14 -3.44,0.48 -3.72,0.92 -372.58,97.26 -296.85,683.27 44.18,339.73 -66.24,635.9 -316.65,870.14 -13.45,-360.53 90.92,-787.78 269.03,-1302.95 242.62,-702.96 755.42,-1046.85 1293.76,-1046.85 217.11,0 438.24,55.93 647.61,166.74 728.75,385.59 258.38,1140.37 258.38,1140.37l-283.06 -209.32c-7.15,-0.1 -14.08,-0.15 -21.23,-0.15 -1199.95,0 -748.55,1379.94 -748.55,1379.94l-77.7 37.54c0,0 -132.78,-150.43 -252.97,-150.43 -48.19,0 -94.06,23.95 -129.04,91.02 -122.18,235.06 150.58,687.76 150.58,687.76 0,0 -107.86,250.93 -340.17,250.93z"/>
   <path class="fil65" d="M36693.52 19714.03c0,0 -230.57,-719.03 -571.01,-444.14 -340.45,274.83 253.25,665.22 486.14,792.77l84.87 -348.63z"/>
   <path class="fil66" d="M35739.92 27053.42l910.01 -877.06 1258.78 531.72c0,0 1253.02,194.17 1970.3,0 717.05,-194.18 717.05,-194.18 717.05,-194.18l1620.71 -504.43 254.36 719.27c64.84,182.71 -0.28,385.45 -158.03,497.61 -140.27,99.53 -304.6,209.08 -409.25,254.95 -213.67,93.53 -5261.08,-64.5 -5261.08,-64.5l-902.84 -363.38z"/>
   <path class="fil67" d="M45540.72 35713.64c0,0 51.77,288.24 72.57,630.09 8.72,145.69 -99.67,272.47 -244.84,286.55 -506.12,49.01 -1657.77,139.64 -2393.15,33.53 -102.96,-14.9 -143.99,-141.38 -67.69,-212.22 303.18,-282.53 1035.67,-832.3 2241.16,-952.21l391.94 214.26 0.01 0z"/>
   <path class="fil68" d="M45792.33 35064.29l-255.97 626.99c-34.84,86.04 -121.93,139.35 -214.35,129.87 -62.42,-6.59 -136.94,-18.63 -209.03,-40.7 -144.19,-43.59 -225.97,-196.74 -182.42,-341.27l193.06 -645.91 668.71 271.01z"/>
   <path class="fil69" d="M50166.48 36213.23c0,0 -512.41,428.46 -712.25,978.29 -54.67,151.43 61.45,310.61 222.1,310.61l1053.86 0c154.83,0 272.9,-138.82 245.8,-290.82 -66.78,-379.44 -260.32,-996.62 -809.51,-998.08z"/>
   <path class="fil70" d="M50800.82 35655.43c0,0 -103.55,457.98 -182.9,760.59 -14.51,55.06 -73.06,85.16 -126.77,65.95 -159.2,-57.1 -289.35,-82.31 -383.71,-69.72 -43.54,6.05 -81.77,-30.39 -82.26,-74.27l-9.67 -760.88 785.31 78.34z"/>
   <path class="fil71" d="M48076.18 25349.23l-3116.1 9506.03c0,0 598.06,391.45 882.58,375.1l3701.09 -7639.76c0,0 647.89,4707.53 333.87,8086.9l1060.15 80.85c0,0 1723.52,-8636.43 418.05,-11594.44l-3279.63 1185.33 -0.01 0z"/>
   <path class="fil72" d="M49523.91 27508.54l3.87 -0.29c15.97,-1.98 28.06,-17.18 26.13,-33.53l-121.45 -959.95c-1.93,-16.3 -16.93,-28.06 -33.39,-26.08 -16.45,1.98 -28.55,17.23 -26.13,33.58l120.97 959.89c1.93,15.19 14.51,26.37 30,26.37z"/>
   <path class="fil73" d="M47492.15 16984.12c0,0 2524.33,224.22 2167.23,2022.99 0,0 1395.47,2626.22 2048.2,5719.79 21.28,100.93 -46.45,199.02 -147.58,216.24l-4204.3 719.9c-116.13,20.03 -227.9,-52.5 -257.41,-166.35l-1004.51 -3882.36 -391.45 1805.02 -1244.03 -324.04 1047.08 -5303.99c0,0 146.12,-773.89 1986.75,-807.18l0.01 -0.01z"/>
   <path class="fil74" d="M46072.49 21440.71l6.77 -0.72c16.93,-3.67 27.58,-20.32 23.71,-37.21l-350.31 -1609.19c-3.88,-16.89 -20.32,-27.54 -37.75,-23.95 -16.45,3.67 -27.1,20.37 -23.71,37.25l350.8 1609.15c2.9,14.66 15.97,24.67 30.49,24.67z"/>
   <path class="fil75" d="M46326.03 26229.15c132.58,-72.87 287.42,-92.9 434.03,-56.52l292.74 72.88c62.42,15.48 123.87,-27.24 131.13,-90.92l302.42 -2694.51c378.86,179.85 924.67,158.32 1104.66,145.12l-696.76 3176.63 -2437.71 0 869.5 -552.67z"/>
   <path class="fil76" d="M39848.33 20384.96l73.7 -244.93c42.48,-140.91 146.56,-254.9 283.1,-309.83l1332.76 -536.03c0,0 20.08,-170.9 -281.66,-287.08 -301.69,-116.13 -231.15,-454.06 -231.15,-454.06 0,0 412.4,188.07 1015.83,486.28 345.04,170.56 538.64,471.72 641.27,698.36l3020.15 3681.64 -354.68 243.82c-466.45,320.32 -1107.57,162.87 -1372.53,-337.01l-1635.95 -3137.24c-821.37,246.77 -1652.5,293.95 -2490.85,196.06l-0.01 0z"/>
   <path class="fil77" d="M46674.41 15266.64l776.12 2173.18c0,0 -687.58,537.53 -1189.34,355.79l-390.97 -1245.71c0,0 298.55,-1522.54 804.19,-1283.26z"/>
   <path class="fil78" d="M45442.5 13747.49c-21.29,29.42 -654.19,2323.28 -654.19,2323.28l1317.58 333.63 923.22 -2084.97c0,0 -1239.67,-1064.46 -1586.6,-571.94z"/>
   <path class="fil79" d="M46533.13 14636.5l-399.68 1135.58c-5.32,14.57 -12.1,28.06 -21.29,40.65 -54.19,77.36 -260.32,329.7 -505.64,102.72 -222.58,-205.94 -428.71,-390.58 -619.35,-423.96 -85.64,-15 -167.9,37.21 -191.12,120.87 -57.58,208.41 -178.07,680.46 -220.64,1106.65 -8.72,86.47 51.29,164.52 136.45,180.68 257.41,48.68 803.21,136.12 1258.05,103.7 61.93,-4.41 116.13,-41.52 141.78,-97.74 125.32,-274.3 509.03,-1106.65 652.25,-1322.01 134.03,-202.16 463.06,-196.79 600.96,-184.64 45,3.97 89.52,-10.65 123.87,-40.6 120.48,-105.96 350.31,-376.25 27.1,-699.48 -67.75,-67.64 -66.29,-176.85 3.38,-242.41 138.87,-130.65 286.93,-362.22 55.65,-649.11 -235.16,-291.58 -545.8,-244.93 -735.96,-175.41 -76.93,28.11 -160.64,-4.35 -202.25,-74.61 -23.71,-40.06 -65.32,-70.36 -137.42,-64.11 -96.78,8.41 -178.55,-72.44 -176.61,-169.69 2.9,-186.97 -63.88,-423.1 -388.55,-523.74 -575.32,-178.64 -933.87,377.51 -969.19,792.33 -34.84,414.82 600,573.04 973.53,544.78 283.55,-21.48 494.52,259.69 579.19,395.71 27.1,43.11 32.42,95.95 15.49,143.86l0.01 -0.01z"/>
   <path class="fil80" d="M46613.94 15995.63c0,0 92.42,-720.18 391.94,-755.7 299.51,-35.51 591.77,210.44 293.7,614.9 -369.68,503.02 -685.64,140.8 -685.64,140.8z"/>
   <path class="fil81 str0" d="M45535.39 13832.57l-0.97 0c-120.48,-8.72 -225.48,-65.62 -288.87,-156.1 -61.45,-87.44 -78.88,-199.98 -47.9,-308.75 54.19,-188.76 194.99,-374.12 377.41,-495.77 6.78,-4.93 16.94,-2.95 21.78,4.45 4.84,7.36 3.38,17.32 -4.36,22.26 -176.12,117.53 -312.09,296.18 -363.86,477.82 -28.55,100.99 -13.55,200.95 43.06,281.62 58.54,83.75 152.9,134.32 265.16,142.45 8.71,0.67 15.48,8.32 15,17.18 -0.97,8.41 -7.75,14.85 -16.45,14.85z"/>
   <path class="fil82" d="M48346.17 23645.64c172.26,0 295.16,-12.92 308.22,-14.32l22.74 -2.62 919.35 -4286.04c3.39,-16.84 -7.25,-33.54 -24.19,-37.11 -17.41,-3.77 -33.38,7.16 -37.25,24l-909.67 4241.52c-136.94,12.05 -867.58,60.53 -1253.21,-212.8l796.44 -3723.59 -166.45 -313.21c-7.74,-15.29 -26.61,-21.1 -42.1,-13.02 -15,8.13 -21.29,27.05 -12.58,42.34l155.33 293.13 -799.83 3740.71 15.48 12.05c279.19,209.37 727.74,248.95 1027.73,248.95l0 0.01z"/>
   <path class="fil83" d="M18770.17 37302.79c-22.5,0 -45.44,-5.16 -67.5,-15.48 -86.76,-40.74 -126.82,-150.59 -89.52,-245.22l3586.9 -9101.03c37.26,-94.65 137.81,-138.24 224.66,-97.55 86.76,40.75 126.87,150.3 89.57,245.23l-3586.9 9101.07c-27.82,70.53 -90.92,112.99 -157.21,112.99z"/>
   <path class="fil84" d="M22810.92 37302.79c-66.24,0 -129.34,-42.45 -157.16,-112.99l-3586.9 -9101.07c-37.31,-94.93 2.76,-204.48 89.57,-245.23 86.7,-40.69 187.3,2.9 224.66,97.55l3586.9 9101.03c37.3,94.63 -2.81,204.48 -89.57,245.22 -22.02,10.32 -44.9,15.48 -67.5,15.48z"/>
   <path class="fil85" d="M43113.27 37302.79c-22.36,0 -45.29,-5.16 -67.4,-15.48 -86.91,-40.74 -127.02,-150.59 -89.47,-245.22l3586.9 -9101.03c37.26,-94.65 137.9,-138.24 224.51,-97.55 86.61,40.75 126.78,150.3 89.52,245.23l-3586.9 9101.07c-27.82,70.53 -90.92,112.99 -157.16,112.99z"/>
   <path class="fil86" d="M47153.92 37302.79c-66.29,0 -129.19,-42.45 -157.25,-112.99l-3586.56 -9101.07c-37.6,-94.93 2.56,-204.48 89.47,-245.23 86.61,-40.69 187.3,2.9 224.56,97.55l3587.04 9101.03c37.25,94.63 -2.91,204.48 -90,245.22 -21.77,10.32 -44.51,15.48 -67.26,15.48l0.01 0z"/>
   <path class="fil87" d="M42592.72 27298.35l5195.08 0 0 -536.03 -5195.08 0c111.29,0 111.29,536.03 0,536.03z"/>
   <path class="fil88" d="M47759.25 27298.35c15.49,0 28.55,-12.93 28.55,-28.7l0 -478.69c0,-15.77 -13.06,-28.64 -28.55,-28.64l-5296.15 0c-15.77,0 -28.69,-12.92 -28.69,-28.7l0 -63.97c0,-15.77 12.92,-28.64 28.69,-28.64l5622.28 0c123.87,0 224.51,100.35 224.51,224.22l0 342.78c0,116.7 -94.83,211.64 -211.93,211.64l-5634.87 0c-15.77,0 -28.69,-12.92 -28.69,-28.7l0 -63.97c0,-15.72 12.92,-28.64 28.69,-28.64l5296.15 0 0.01 0z"/>
   <path class="fil3" d="M48541.17 27659.7c17.42,-59.95 -6.29,-121.59 -64.84,-168.63 -58.54,-47.03 -145.64,-74.27 -237.58,-74.27l-31128.34 0c-120.87,0 -233.37,40.7 -298.44,108.39 -65.13,67.4 -73.88,152.33 -23.18,225.15l337.34 484.11c77.22,111 244.59,182.12 428.76,182.12l30469.99 0c171.77,0 318.87,-80.56 351.29,-192.14l165 -564.73z"/>
   <path class="fil89" d="M36023.56 27170.12c-21.53,0 -43.59,-0.82 -65.66,-2.27l16.89 -275.62c199.94,12.05 365.42,-48.19 478.4,-174.68 126.19,-141.38 178.12,-359.08 138.82,-581.9 -12.34,-69.14 -42.49,-188.46 -107.56,-209.13 -98.95,-30.92 -308.03,106.99 -421.01,218.85l-194.18 -196.45c64.83,-63.97 403.25,-379.45 698.95,-285.38 155.17,49.35 254.66,191.85 295.69,423.91 54.77,310.31 -19.79,606.86 -204.77,813.91 -155.47,174.38 -379.45,268.45 -635.56,268.74z"/>
   <path class="fil90" d="M36013.5 25542.54l-1765.52 0c-30.97,0 -81.15,32.71 -81.15,63.68l0 1340.21c0,265.88 240.63,456.87 506.47,456.87l914.94 0c265.84,0 439.06,-190.98 439.06,-456.87l0 -1340.21c0,-30.97 17.22,-63.68 -13.8,-63.68l-0.01 0z"/>
   <path class="fil91" d="M28249 27170.12c21.49,0 43.55,-0.82 65.66,-2.27l-16.93 -275.62c-199.89,12.05 -365.37,-48.19 -478.4,-174.68 -126.19,-141.38 -178.11,-359.08 -138.77,-581.9 12.33,-69.14 42.43,-188.46 107.52,-209.13 98.95,-30.92 308.03,106.99 420.76,218.85l194.42 -196.45c-64.79,-63.97 -403.21,-379.45 -698.9,-285.38 -155.17,49.35 -254.71,191.85 -295.74,423.91 -54.78,310.31 19.79,606.86 204.53,813.91 155.71,174.38 379.69,268.45 635.85,268.74z"/>
   <path class="fil92" d="M28259.01 25542.54l1765.24 0c31.31,0 36.44,32.71 36.44,63.68l0 1340.21c0,265.88 -195.58,456.87 -461.75,456.87l-914.6 0c-265.89,0 -484.4,-190.98 -484.4,-456.87l0 -1340.21c0,-30.97 28.11,-63.68 59.08,-63.68z"/>
   <path class="fil93" d="M44556.54 27170.12c-21.77,0 -43.54,-0.82 -65.31,-2.27l16.93 -275.62c199.35,12.05 365.32,-48.19 478.05,-174.68 126.29,-141.38 178.07,-359.08 138.87,-581.9 -12.1,-69.14 -42.58,-188.46 -107.42,-209.13 -99.19,-30.92 -308.22,106.99 -420.97,218.85l-194.03 -196.45c64.36,-63.97 403.06,-379.45 698.22,-285.38 155.81,49.35 255,191.85 296.13,423.91 54.67,310.31 -19.84,606.86 -204.68,813.91 -155.81,174.38 -379.35,268.45 -635.8,268.74z"/>
   <path class="fil94" d="M44546.85 25542.54l-1765.72 0c-30.97,0 -81.15,32.71 -81.15,63.68l0 1340.21c0,265.88 240.63,456.87 506.52,456.87l914.84 0c265.84,0 439.06,-190.98 439.06,-456.87l0 -1340.21c0,-30.97 17.41,-63.68 -13.55,-63.68z"/>
   <path class="fil95 str1" d="M34775.14 19833.89c-6.33,0 -12.05,-3.83 -14.37,-10.06 -2.57,-7.8 1.45,-16.36 9.19,-19.16 271.31,-94.35 489,-218.9 649.3,-368.81 0.59,13.21 1.16,26.42 2.03,39.49 -161.47,144.87 -376.3,265.54 -641.32,357.72l-4.84 0.83z"/>
   <path class="fil96 str1" d="M35421.28 19475.35c-0.87,-13.06 -1.45,-26.28 -2.03,-39.49 250.41,-234.23 360.82,-530.41 316.65,-870.14 -75.73,-586.01 293.13,-682.35 296.85,-683.27 1.11,-0.34 2.28,-0.48 3.44,-0.48 6.87,0 12.92,4.69 14.61,11.51 1.98,8.03 -2.85,16.16 -10.89,18.19 -14.32,3.44 -346.45,91.98 -274.21,650.17 46.45,358.98 -73.4,670.3 -344.42,913.49z"/>
   <path class="fil97 str1" d="M33322.5 24203.2l-7.45 -2.03c-796.44,-442.26 -1265.36,-976.83 -1394.17,-1589.02 -168.04,-799.25 318.68,-1452.03 323.52,-1458.56 2.9,-3.88 7.45,-5.91 12.05,-5.91 3.15,0 6.33,0.97 8.9,3 6.58,5.08 8.03,14.47 2.85,21.1 -4.89,6.39 -483.23,648.92 -317.75,1434.42 127.06,603.24 591.09,1130.94 1379.21,1568.6 7.16,4.31 9.73,13.21 5.76,20.61 -2.62,4.89 -7.8,7.8 -12.93,7.8l0 0.01z"/>
   <path class="fil98" d="M28692.08 25396.27c-6.87,0 -13.74,-2.28 -19.79,-6.87 -11.18,-8.62 -273.92,-215.71 -297.97,-455.18 -9.19,-93.19 18.63,-178.64 83.18,-253.79 41.56,-48.77 87.72,-88.93 132.77,-127.93 123.05,-107.27 212.23,-184.69 135.39,-359.37 -28.4,-65.08 -62.51,-124.45 -95.51,-181.84 -111.58,-194.18 -216.82,-377.71 40.16,-616.59 12.87,-12.33 33.23,-11.46 45.28,1.41 12.05,12.92 11.18,33.29 -1.74,45.34 -219.38,204.48 -139.35,344.42 -28.06,537.72 33.82,59.08 68.81,119.9 98.66,188.17 95.75,217.93 -30.15,327.53 -152.32,433.64 -43.02,37.26 -87.44,75.97 -126.2,121.02 -52.45,61.4 -75.14,130.5 -67.69,205.64 21.24,212.22 271.06,409.25 273.62,411.24 13.79,10.93 16.36,31.02 5.47,45.05 -6.34,8.03 -15.78,12.34 -25.26,12.34z"/>
   <path class="fil98" d="M29141.2 25396.27c-6.87,0 -13.74,-2.28 -19.79,-6.87 -11.18,-8.62 -273.87,-215.71 -297.96,-455.18 -9.19,-93.19 18.63,-178.64 83.18,-253.79 41.57,-48.77 87.73,-88.93 132.78,-127.93 123.04,-107.27 212.22,-184.69 135.39,-359.37 -28.41,-65.08 -62.52,-124.45 -95.52,-181.84 -111.58,-194.18 -216.82,-377.71 40.16,-616.59 12.87,-12.33 33.24,-11.46 45.29,1.41 12.05,12.92 11.18,33.29 -1.69,45.34 -219.73,204.48 -139.41,344.42 -28.11,537.72 33.82,59.08 68.8,119.9 98.65,188.17 95.76,217.93 -30.15,327.53 -152.32,433.64 -43.01,37.26 -87.44,75.97 -126.14,121.02 -52.5,61.4 -75.19,130.5 -67.7,205.64 21.19,212.22 271.01,409.25 273.58,411.24 13.79,10.93 16.35,31.02 5.46,45.05 -6.34,8.03 -15.77,12.34 -25.26,12.34z"/>
   <path class="fil98" d="M29590.32 25396.27c-6.87,0 -13.75,-2.28 -19.8,-6.87 -11.17,-8.62 -273.87,-215.71 -297.96,-455.18 -9.48,-93.19 18.63,-178.64 83.18,-253.79 41.57,-48.77 87.78,-88.93 132.78,-127.93 123.05,-107.27 212.28,-184.69 135.39,-359.37 -28.4,-65.08 -62.51,-124.45 -95.52,-181.84 -111.57,-194.18 -216.81,-377.71 40.16,-616.59 12.88,-12.33 33.29,-11.46 45.29,1.41 12.05,12.92 11.23,33.29 -1.69,45.34 -219.67,204.48 -139.4,344.42 -28.11,537.72 33.82,59.08 68.8,119.9 98.66,188.17 95.8,217.93 -30.39,327.53 -152.33,433.64 -43.01,37.26 -87.43,75.97 -126.14,121.02 -52.5,61.4 -75.19,130.5 -67.69,205.64 21.19,212.22 271.01,409.25 273.57,411.24 13.79,10.93 16.36,31.02 5.47,45.05 -6.34,8.03 -15.78,12.34 -25.26,12.34z"/>
   <path class="fil87" d="M40849.83 5889.42c-1968.61,162.63 -4142,1306.78 -4449.67,3427.75 -261.58,1803.61 1606.63,2856.65 2774.19,3366.64 325.83,142.21 587.65,398.76 737.36,721.06 358.5,771.23 1206.57,2123.79 2632.86,1756.29 103.79,-26.76 100.65,-176.28 -4.06,-199.84 -332.95,-75.09 -787.54,-247.59 -1022.99,-642.33 -320.66,-537.62 32.13,-1227.18 653.32,-1305.13 1175.31,-147.53 3489.39,-786.34 3942.78,-3516.31 612.57,-3692.04 -5263.79,-3608.14 -5263.79,-3608.14l0.01 0.01z"/>
   <path class="fil99" d="M37516.92 8026.55c-27.53,0 -55.36,-8.9 -78.87,-27.24 -55.65,-43.64 -65.66,-124.26 -22.06,-180.14 1058.85,-1355.07 2774.19,-1651.1 4068.82,-1651.1 37.84,0 75.14,0.24 112.45,0.72 70.84,0.92 127.6,59.13 126.73,129.97 -1.11,69.77 -59.03,126.68 -126.73,126.68 -1.16,0 -2.32,0 -3.15,0 -35.85,-0.49 -72.29,-0.73 -108.72,-0.73 -1236.96,0 -2871.46,278.03 -3867.2,1552.49 -25.26,32.42 -63.1,49.36 -101.27,49.36z"/>
   <path class="fil99" d="M36824.9 9559.01c-5.18,0 -10.36,-0.29 -15.49,-0.87 -70.31,-8.37 -120.48,-72 -112.16,-142.3 1.16,-9.77 29.56,-244.02 154.6,-583.93 19.21,-51.83 68.27,-84.05 120.48,-84.05 14.61,0 29.51,2.52 44.13,7.94 66.53,24.43 100.7,98.18 76.31,164.7 -113.56,309 -140.56,523.35 -140.86,525.48 -7.69,65.13 -63.05,113.03 -127.01,113.03z"/>
   <path class="fil100" d="M45009.44 8067.93c0,83.8 -67.74,151.74 -151.45,151.74l-6112.38 0c-84.05,0 -152.03,-67.94 -152.03,-151.74l0 -17.32c0,-83.75 67.99,-151.74 152.03,-151.74l6112.38 0c83.71,0 151.45,67.99 151.45,151.74l0 17.32z"/>
   <path class="fil100" d="M44560.41 11228.06c0,79.6 -13.06,135.43 -91.94,135.43l-5714.84 0c-78.29,0 -160.07,-55.84 -160.07,-135.43l0 -16.45c0,-79.64 81.78,-168.91 160.07,-168.91l5714.84 0c78.88,0 91.94,89.27 91.94,168.91l0 16.45z"/>
   <path class="fil100" d="M45073.78 9198.72c0,90.92 -58.06,111.68 -150,111.68l-6722.54 0c-92.08,0 -184.98,-20.76 -184.98,-111.68l0 -18.77c0,-90.96 92.9,-190.35 184.98,-190.35l6722.54 0c91.94,0 150,99.39 150,190.35l0 18.77z"/>
   <path class="fil100" d="M45073.78 10161.08c0,90.92 -58.06,111.68 -150,111.68l-6722.54 0c-92.08,0 -184.98,-20.76 -184.98,-111.68l0 -18.77c0,-90.96 92.9,-190.35 184.98,-190.35l6722.54 0c91.94,0 150,99.39 150,190.35l0 18.77z"/>
   <path class="fil98" d="M54025.3 30653.61l109.84 -301.45c7.25,-20.37 29.51,-30.67 49.84,-23.51 20.32,7.45 30.97,29.85 23.23,50.23l0 0.29 -112.74 300.23c-7.26,19.5 -29.03,29.28 -48.39,22.11 -18.87,-7.45 -29.03,-28.69 -21.77,-47.9z"/>
   <path class="fil98" d="M54279.33 29864.91l68.71 -313.5c4.84,-23.51 28.06,-38.41 51.77,-33.23 23.23,5.12 38.23,28.4 33.39,51.92l0 0.58 -72.09 312.58c-4.85,22.4 -27.58,36.72 -49.84,31.54 -22.74,-5.18 -36.77,-27.53 -31.93,-49.88z"/>
   <path class="fil98" d="M54410.46 29051.25l4.36 -320.61c0,-26.41 21.77,-47.9 48.39,-47.37 26.61,0 47.9,21.83 47.9,48.49l0 0.59 -8.23 320.65c-0.48,25.5 -21.77,45.87 -47.42,45.29 -25.15,-0.54 -45.48,-21.49 -45,-47.03z"/>
   <path class="fil98" d="M54353.36 28234.71c0,0 -19.35,-77.7 -39.19,-155.42 -24.19,-73.74 -48.39,-147.43 -48.39,-147.43l-0.97 -3.43c-9.19,-27.54 6.29,-57.34 33.88,-66.24 27.1,-8.9 57.1,6 65.8,33.82l0.49 0.58c0,0 24.67,78.88 49.35,157.74 18.88,78 37.75,155.71 37.75,155.71 6.77,27.29 -9.67,54.82 -37.26,61.4 -27.1,6.87 -54.19,-9.72 -61.45,-36.73z"/>
   <path class="fil98" d="M54045.14 27484.78c0,0 -45.48,-65.71 -90.96,-131.66 -48.39,-60.53 -96.29,-121.01 -96.29,-121.01l-2.9 -2.91c-19.36,-24.63 -15.49,-60.48 9.19,-80.27 24.67,-19.5 60.48,-15.48 80.32,9.15l0.48 0.59c0,0 50.81,65.42 102.09,130.78 44.52,66.53 89.52,133.07 89.52,133.07 16.93,25.26 10.65,59.66 -15,76.88 -25.16,16.89 -59.03,10.31 -76.45,-14.61z"/>
   <path class="fil98" d="M53498.37 26886.48l-260.32 -186.72c-27.58,-19.74 -33.88,-58.21 -14.03,-85.74 19.84,-27.82 58.06,-34.11 85.64,-14.32l0.97 0.58 258.39 189.29c26.61,19.5 32.41,57.05 12.58,83.7 -18.87,26.42 -56.13,32.13 -83.22,13.21z"/>
   <path class="fil98" d="M52800.63 26459.46l-295.15 -126.77c-33.39,-14.37 -48.88,-53.37 -34.36,-86.91 14.51,-33.58 53.23,-49.06 86.61,-34.74l0.97 0.58 293.22 129.68c32.42,14.32 47.42,52.45 32.91,84.87 -14.03,32.41 -51.78,47.03 -84.2,33.28z"/>
   <path class="fil98" d="M52029.36 26170.94l-310.16 -83.18c-37.26,-10.06 -60,-48.78 -49.84,-86.61 10.16,-37.59 48.87,-59.95 86.61,-49.93l0.97 0.29 308.71 86.61c36.77,10.36 58.06,48.19 47.9,84.92 -10.16,36.43 -47.9,57.62 -84.19,47.9z"/>
   <path class="fil98" d="M51224.2 25982.81l-316.44 -52.21c-40.65,-6.92 -68.71,-45.62 -61.94,-86.32 6.78,-41.03 45.49,-68.85 86.61,-61.98l0.97 0 315.48 55.65c39.67,7.16 66.77,45.29 59.51,85.16 -6.77,39.58 -44.51,66.29 -84.19,59.71z"/>
   <path class="fil98" d="M50404.54 25867.22l-319.83 -29.57c-43.55,-4.02 -75.96,-43.01 -72.09,-86.61 4.35,-43.88 43.06,-76.01 87.09,-72l0.97 0 318.87 33c42.58,4.31 74.03,42.73 69.19,85.45 -3.87,42.49 -42.1,73.45 -84.19,69.73z"/>
   <path class="fil98" d="M49577.13 25805.23l-320.81 -12.63c-45.48,-1.69 -81.77,-40.7 -79.83,-86.86 1.93,-46.2 40.64,-82.06 87.09,-80.31l0.49 0.28 320.31 14.9c45.49,2.33 80.32,40.75 78.39,86.32 -1.93,45.34 -40.64,80.32 -85.64,78.29z"/>
   <path class="fil98" d="M48747.29 25783.46l-320.8 0.58c-47.42,0 -86.13,-38.41 -86.13,-86.03 0,-47.37 38.23,-86.08 85.65,-86.08l0.97 0 320.31 1.16c47.42,0.29 85.17,38.42 85.17,85.45 -0.49,47.08 -38.23,84.62 -85.17,84.92z"/>
   <path class="fil98" d="M47916.5 25794.05l-320.31 11.76c-49.36,1.74 -90.48,-36.68 -92.42,-85.45 -1.46,-49.06 36.77,-90.05 85.64,-91.79l0.49 0 320.8 -9.72c48.39,-1.45 89.03,36.68 90,85.16 1.46,48.19 -36.28,88.35 -84.19,90.05z"/>
   <path class="fil98" d="M47085.7 25831.65l-320.32 20.32c-50.32,3.19 -93.87,-34.98 -96.77,-85.16 -3.39,-50.18 34.84,-93.48 85.16,-96.92l0.48 0 320.81 -18.38c49.36,-2.86 91.93,34.98 94.83,84.92 2.9,49.31 -34.84,92.03 -84.19,95.22z"/>
   <path class="fil98" d="M46255.88 25890.73l-319.83 27.82c-51.29,4.55 -97.26,-33.58 -101.61,-85.21 -4.36,-51.62 33.87,-96.91 85.65,-101.52l0.48 0 319.84 -25.79c50.8,-4.31 95.8,33.82 99.67,84.87 3.87,50.75 -33.39,95.51 -84.19,99.82z"/>
   <path class="fil98" d="M45427.01 25967.86l-318.87 33.88c-53.23,5.71 -100.65,-32.71 -105.97,-85.5 -5.8,-53.03 32.42,-100.35 85.65,-105.83l0.49 -0.29 318.87 -31.84c52.74,-5.13 99.67,33 104.52,85.5 5.32,52.16 -32.42,98.61 -84.68,104.08z"/>
   <path class="fil98" d="M44599.11 26059.65l-318.39 38.71c-54.19,6.34 -103.55,-32.13 -109.83,-86.32 -6.29,-54.19 31.93,-103.55 86.13,-110.13l0.48 0 318.87 -36.44c53.71,-6.28 102.09,32.42 108.39,86.04 6.28,53.36 -32.42,101.8 -85.65,108.14z"/>
   <path class="fil98" d="M43772.34 26162.61l-318.04 41.57c-55.36,7.16 -106.45,-31.84 -113.61,-87.48 -7.16,-55.36 31.84,-106.4 87.48,-113.56l0.58 0 318.39 -39.58c55.06,-6.88 105.24,32.13 111.82,87.19 6.87,54.77 -31.84,104.65 -86.61,111.87z"/>
   <path class="fil98" d="M42945.51 26271.59l-318.09 41.9c-57.05,7.41 -108.97,-32.71 -116.71,-89.52 -7.45,-56.8 32.71,-108.96 89.47,-116.42l0.87 -0.29 318.34 -39.58c56.23,-7.16 107.85,32.71 114.72,89.18 7.21,56.23 -32.66,107.56 -88.59,114.73z"/>
   <path class="fil98" d="M42116.65 26376.82l-318.63 37.01c-58.5,6.87 -111.29,-34.98 -118.16,-93.48 -6.63,-58.21 34.98,-111 93.48,-117.87l0.58 0 318.91 -35.32c57.92,-6.29 109.84,35.61 116.47,93.52 6.29,57.63 -35.32,109.55 -92.65,116.13z"/>
   <path class="fil98" d="M41286.08 26469.48l-319.26 32.13c-59.9,6 -113.27,-37.59 -119.27,-97.26 -6.05,-59.9 37.55,-113.27 97.5,-119.27l0.59 -0.29 319.49 -30.14c59.37,-5.72 111.82,37.88 117.58,97.26 5.76,59.08 -37.55,111.57 -96.63,117.57z"/>
   <path class="fil98" d="M40454.32 26549.51l-319.78 27.53c-61.36,5.42 -115.26,-40.16 -120.43,-101.57 -5.42,-61.35 40.16,-115.26 101.52,-120.43l0.58 0 319.78 -25.79c60.83,-4.89 114.15,40.7 119.04,101.52 4.89,60.53 -40.16,113.56 -100.7,118.74z"/>
   <path class="fil98" d="M39621.5 26617.45l-320.08 22.98c-62.8,4.31 -117.29,-43.06 -121.89,-105.87 -4.59,-62.81 42.73,-117.3 105.53,-121.89l0.87 0 320.08 -20.61c62.23,-4.31 116.13,43.01 120.15,105.24 4.02,62.23 -43.01,115.88 -104.66,120.14z"/>
   <path class="fil98" d="M38787.45 26672.22l-320.32 17.52c-63.43,3.44 -117.62,-45 -121.06,-108.43 -3.44,-63.34 45,-117.58 108.43,-121.01l0.24 0 320.36 -16.89c63.1,-3.43 117.05,45.01 120.48,108.39 3.44,63.1 -45.05,117 -108.14,120.43z"/>
   <path class="fil98" d="M37952.89 26714.13l-320.37 12.92c-63.97,2.56 -117.87,-47.03 -120.43,-111 -2.61,-63.97 47.27,-117.87 110.95,-120.48l0.29 0 320.37 -12.05c63.67,-2.56 117.29,47.09 119.9,110.71 2.28,63.68 -47.08,117.29 -110.7,119.91z"/>
   <path class="fil98" d="M37118.02 26743.93l-320.96 8.61c-64.54,1.75 -117.87,-49.3 -119.61,-113.56 -1.7,-64.26 49.06,-117.87 113.56,-119.61l0 0 320.96 -7.75c64.26,-1.4 117.58,49.36 119.03,113.33 1.69,64.21 -49.06,117.57 -112.98,118.98z"/>
   <path class="fil98" d="M36282.24 26762.32l-320.9 3.97c-64.83,0.63 -117.87,-51.29 -118.74,-116.13 -0.88,-64.79 51.05,-118.16 115.83,-118.74l0.29 0 320.95 -3.44c64.55,-0.58 117.58,51.34 118.16,116.13 0.59,64.55 -51.05,117.63 -115.6,118.21z"/>
   <path class="fil98" d="M35446.5 26768.9l-320.9 -0.58c-65.13,-0.29 -118.16,-53.32 -117.87,-118.45 0,-65.37 53.04,-118.17 118.45,-118.17l0.29 0 320.61 1.16c65.13,0.29 117.87,53.32 117.58,118.45 -0.29,65.08 -53.04,117.87 -118.17,117.58z"/>
   <path class="fil98" d="M34610.77 26763.71l-320.61 -5.13c-66.01,-0.87 -118.45,-55.06 -117.35,-120.77 1.16,-65.96 55.07,-118.45 121.07,-117.29l0.24 0 320.65 5.76c65.71,1.11 117.87,55.01 116.76,120.73 -1.16,65.66 -55.06,117.87 -120.78,116.7z"/>
   <path class="fil98" d="M33775.33 26747.12l-320.61 -9.49c-66.29,-1.98 -118.5,-57.05 -116.47,-123.34 1.98,-66.24 57.34,-118.45 123.34,-116.42l0.29 0 320.61 10.02c66.24,2.03 117.87,57.39 115.89,123.34 -2.03,65.96 -57.1,117.87 -123.04,115.89z"/>
   <path class="fil98" d="M32940.18 26719.02l-320.66 -13.79c-66.53,-2.86 -118.45,-59.09 -115.26,-125.91 2.85,-66.53 59.03,-118.45 125.61,-115.3l0.29 0 320.61 14.37c66.24,2.85 117.87,59.36 114.73,125.6 -2.85,66.53 -59.08,118.17 -125.32,115.02z"/>
   <path class="fil98" d="M32105.31 26679.73l-320.37 -18.39c-67.11,-3.72 -118.16,-61.06 -114.43,-128.17 3.72,-67.11 61.06,-118.45 128.17,-114.73l0.29 0.29 320.37 18.63c66.82,4.02 117.87,61.36 113.85,128.23 -3.72,66.82 -61.06,117.87 -127.88,114.14z"/>
   <path class="fil98" d="M31270.98 26628.68l-319.78 -22.41c-67.7,-4.54 -118.45,-63.39 -113.56,-130.79 4.59,-67.4 63.1,-118.11 130.79,-113.56l0 0 320.08 23.22c67.4,4.89 117.87,63.39 112.98,130.5 -4.89,67.4 -63.1,117.87 -130.5,113.04z"/>
   <path class="fil98" d="M30437.82 26566.7l-319.78 -26.96c-67.93,-5.41 -118.11,-65.08 -112.4,-133.06 5.42,-67.98 65.13,-118.16 133.06,-112.45l0.29 0 319.5 27.29c67.69,6 117.87,65.37 112.16,133.06 -6.05,67.7 -65.13,117.87 -132.82,112.12z"/>
   <path class="fil98" d="M29605.27 26493.29l-319.26 -30.97c-68.23,-6.93 -118.11,-67.4 -111.53,-135.68 6.59,-68.23 67.4,-118.16 135.63,-111.58l0.29 0 319.21 31.88c67.98,6.59 117.62,67.36 110.7,135.34 -6.58,68.27 -67.11,117.87 -135.04,111z"/>
   <path class="fil98" d="M28773.8 26408.66l-318.91 -35.28c-68.52,-7.74 -117.87,-69.67 -110.42,-138.19 7.74,-68.57 69.44,-117.92 137.95,-110.42l0.28 0 318.92 36.1c68.27,7.74 117.62,69.72 109.83,137.95 -7.74,68.56 -69.39,117.57 -137.66,109.83z"/>
   <path class="fil98" d="M27943.54 26312.9l-318.34 -39.87c-68.85,-8.61 -117.92,-71.42 -109.3,-140.22 8.61,-69.14 71.42,-117.92 140.56,-109.3l0.28 0 318.05 40.45c68.8,8.61 117.57,71.41 108.67,140.22 -8.56,68.85 -71.13,117.34 -139.93,108.72z"/>
   <path class="fil98" d="M27114.68 26205.92l-317.76 -44.18c-69.44,-9.77 -117.63,-73.69 -108.14,-142.84 9.77,-69.38 73.75,-117.87 142.84,-108.09l0.28 0 317.76 44.71c69.14,9.77 117.34,73.74 107.56,142.83 -9.73,69.14 -73.4,117.29 -142.55,107.56z"/>
   <path class="fil98" d="M26287.26 26087.47l-317.17 -48.49c-69.44,-10.59 -117.34,-75.72 -106.74,-145.11 10.64,-69.68 75.72,-117.58 145.16,-106.98l0.29 0 317.17 49.06c69.38,10.89 117,75.67 106.11,145.11 -10.6,69.39 -75.44,117 -144.82,106.4z"/>
   <path class="fil98" d="M25461.54 25957.84l-316.3 -52.79c-70.01,-11.76 -117.34,-77.71 -105.58,-147.68 11.76,-69.72 77.76,-117.04 147.73,-105.29l0.29 0 316.35 53.37c69.67,11.76 116.7,77.7 104.95,147.38 -11.76,69.72 -77.71,116.76 -147.43,105z"/>
   <path class="fil98" d="M24637.86 25815.88l-315.53 -57.68c-69.29,-12.58 -115.11,-79.16 -102.48,-148.25 12.68,-69.39 78.88,-115.3 148.07,-102.68l315.57 57.05c69.68,12.63 115.55,79.17 103.21,148.6 -12.58,69.39 -79.16,115.55 -148.55,102.97l-0.28 0z"/>
   <path class="fil98" d="M23816.35 25662.15l-314.75 -62.27c-68.62,-13.45 -113.27,-79.98 -99.73,-148.84 13.5,-68.51 79.89,-113.27 148.5,-99.53l314.86 61.4c68.85,13.45 113.75,80.04 100.31,148.84 -13.45,68.85 -80.13,113.86 -148.94,100.4l-0.24 0z"/>
   <path class="fil98" d="M22996.98 25496.67l-313.79 -66.24c-68.03,-14.37 -111.43,-81.19 -97.01,-149.18 14.37,-68.23 80.91,-111.52 148.94,-97.21l313.93 65.96c68.18,14.32 111.91,81.19 97.6,149.12 -14.32,68.27 -81.19,111.87 -149.37,97.84l-0.29 -0.29z"/>
   <path class="fil98" d="M22180.06 25319.96l-313.01 -70.84c-67.36,-15.19 -109.6,-82.3 -94.31,-149.42 15.24,-67.36 81.96,-109.83 149.27,-94.35l313.21 70.26c67.55,15.24 109.98,82.07 94.78,149.76 -15.1,67.36 -82.16,109.84 -149.65,94.6l-0.29 0z"/>
   <path class="fil98" d="M21365.96 25132.13l-312.09 -74.27c-66.72,-15.77 -107.95,-82.6 -92.13,-149.42 15.87,-66.82 82.6,-108.14 149.37,-92.08l312.19 73.4c66.92,15.82 108.43,82.88 92.61,149.75 -15.73,66.78 -82.79,108.39 -149.71,92.61l-0.24 0z"/>
   <path class="fil98" d="M20554.08 24937.36l-311.56 -76.26c-66.2,-16.06 -106.7,-82.88 -90.48,-149.17 16.21,-66.24 82.74,-106.65 148.93,-90.63l311.76 75.73c66.34,16.06 107.08,83.18 90.96,149.47 -16.11,66.53 -82.98,107.22 -149.37,90.87l-0.24 0z"/>
   <path class="fil98" d="M19743.41 24736.61l-310.88 -78.82c-65.57,-16.65 -105.24,-83.47 -88.6,-149.18 16.69,-65.36 83.18,-105.24 148.74,-88.59l311.08 78.57c65.8,16.6 105.67,83.14 89.08,149.13 -16.55,65.66 -83.37,105.53 -149.17,89.18l-0.24 -0.29z"/>
   <path class="fil98" d="M18934.63 24528.41l-310.26 -82.6c-65.03,-17.18 -103.7,-83.76 -86.42,-148.84 17.28,-64.83 83.71,-103.55 148.69,-86.32l310.4 81.73c65.23,17.18 104.13,84.05 86.9,149.12 -17.18,65.13 -83.9,104.13 -149.12,86.91l-0.2 0z"/>
   <path class="fil98" d="M18127.64 24310.72l-309 -86.32c-64.36,-18.05 -101.91,-84.58 -83.96,-148.84 18.01,-64.5 84.48,-102.09 148.79,-84.05l309.14 85.49c64.55,18.05 102.34,84.87 84.44,149.43 -17.85,64.49 -84.68,102.39 -149.17,84.29l-0.24 0z"/>
   <path class="fil98" d="M17323.6 24082.43l-307.68 -90.92c-63.63,-18.63 -99.97,-85.45 -81.19,-149.13 18.77,-63.67 85.31,-100.06 148.97,-81.14l307.83 90.05c63.83,18.63 100.4,85.74 81.73,149.43 -18.72,63.97 -85.65,100.35 -149.42,81.72l-0.24 0z"/>
   <path class="fil98" d="M16522.91 23841.8l-306.14 -95.76c-62.85,-19.79 -97.83,-86.61 -78.14,-149.76 19.69,-62.8 86.42,-97.78 149.27,-78l306.29 95.22c63.1,19.5 98.32,86.61 78.68,149.71 -19.6,63.1 -86.66,98.37 -149.71,78.58l-0.24 0z"/>
   <path class="fil98" d="M15726.32 23587.43l-304.31 -101.56c-62.08,-20.91 -95.61,-88.02 -74.9,-150 20.76,-61.93 87.62,-95.47 149.7,-74.8l304.45 100.93c62.27,20.66 96.05,87.77 75.39,149.99 -20.66,62.23 -87.87,96.05 -150.14,75.44l-0.2 0z"/>
   <path class="fil98" d="M14934.47 23317.53l-302.13 -107.8c-61.21,-21.83 -93.09,-89.22 -71.22,-150.3 21.82,-61.11 88.93,-93.24 150.14,-71.41l302.32 107.27c61.4,21.77 93.53,89.18 71.71,150.53 -21.78,61.4 -89.18,93.53 -150.58,72l-0.24 -0.29z"/>
   <path class="fil98" d="M14148.38 23031.04l-299.56 -114.73c-60.24,-23.23 -90.39,-90.73 -67.36,-151.01 23.08,-60.19 90.44,-90.44 150.68,-67.36l299.8 114.09c60.49,23.03 90.82,90.78 67.79,151.01 -22.98,60.53 -90.67,90.92 -151.11,67.99l-0.24 0z"/>
   <path class="fil98" d="M13369.02 22725.71l-296.61 -122.13c-59.23,-24.39 -87.48,-92.18 -63.1,-151.45 24.44,-59.23 92.03,-87.53 151.25,-63.19l296.86 121.64c59.46,24.29 87.92,92.22 63.57,151.69 -24.38,59.47 -92.27,87.92 -151.74,63.58l-0.24 -0.15z"/>
   <path class="fil98" d="M12597.53 22400.6l-293.17 -130.21c-58.11,-25.8 -84.34,-93.87 -58.55,-151.99 25.84,-58.16 93.73,-84.44 151.84,-58.64l293.46 129.57c58.31,25.84 84.73,94.02 58.98,152.38 -25.79,58.31 -93.96,84.72 -152.32,58.93l-0.24 -0.05z"/>
   <path class="fil98" d="M11835.25 22053.96l-289.4 -138.82c-57,-27.34 -81,-95.66 -53.71,-152.61 27.34,-56.95 95.47,-81.05 152.37,-53.76l289.74 138.34c57.14,27.24 81.39,95.71 54.1,152.86 -27.29,57.19 -95.76,81.39 -152.86,54.1l-0.24 -0.1z"/>
   <path class="fil98" d="M11083.38 21683.85l-284.41 -148.45c-55.06,-28.74 -76.4,-96.63 -47.66,-151.69 28.6,-54.87 96.14,-76.21 151.12,-47.95l285.28 146.76c55.7,28.59 77.61,96.96 49.01,152.66 -28.64,55.64 -97.01,77.61 -152.7,48.97l-0.63 -0.29z"/>
   <path class="fil98" d="M10344.56 21288.59l-279.14 -157.94c-52.89,-29.95 -71.52,-97.01 -41.57,-149.85 29.75,-52.65 96.48,-71.32 149.27,-41.86l280.11 156.29c53.47,29.85 72.68,97.35 42.83,150.86 -29.81,53.47 -97.4,72.68 -150.87,42.83l-0.63 -0.34z"/>
   <path class="fil98" d="M9618.78 20862.44l-267.58 -177c-49.49,-32.75 -63.1,-99.44 -30.33,-148.99 32.66,-49.3 99.04,-62.9 148.5,-30.62l268.59 175.45c50.13,32.71 64.26,99.97 31.5,150.05 -32.76,50.13 -99.92,64.26 -150.1,31.49l-0.58 -0.38z"/>
   <path class="fil98" d="M8928.77 20373.59l-246.67 -205.16c-44.57,-37.11 -50.66,-103.3 -13.54,-147.91 36.97,-44.42 102.87,-50.52 147.43,-13.89l247.88 203.71c45.19,37.16 51.72,103.94 14.56,149.18 -37.16,45.14 -103.93,51.67 -149.12,14.51l-0.54 -0.43z"/>
   <path class="fil98" d="M8299.71 19804.13l-214.84 -238.2c-37.93,-42.05 -34.54,-106.94 7.5,-144.82 41.85,-37.79 106.45,-34.5 144.48,7.11l216.24 236.95c38.47,42.24 35.52,107.65 -6.72,146.17 -42.19,38.52 -107.66,35.57 -146.17,-6.67l-0.49 -0.54z"/>
   <path class="fil98" d="M7764.35 19141.23l-167.52 -273.53c-28.89,-47.13 -14.07,-108.72 33.06,-137.61 46.93,-28.69 108.34,-14.03 137.27,32.67l169.2 272.56c29.42,47.37 14.8,109.65 -32.56,139.07 -47.42,29.46 -109.65,14.85 -139.07,-32.52l-0.38 -0.63z"/>
   <path class="fil98" d="M7368.07 18384.13l-103.06 -303.72c-17.32,-51.05 10.02,-106.4 61.01,-123.73 50.86,-17.28 106.07,9.82 123.58,60.49l104.91 303.14c17.8,51.39 -9.49,107.52 -60.92,125.32 -51.43,17.8 -107.51,-9.49 -125.27,-60.92l-0.24 -0.59z"/>
   <path class="fil98" d="M7154 17556.48l-29.03 -319.3c-4.84,-52.31 33.72,-98.61 86.03,-103.4 52.11,-4.74 98.22,33.54 103.3,85.5l30.97 319.21c5.13,52.79 -33.48,99.77 -86.27,104.9 -52.79,5.18 -99.77,-33.48 -104.9,-86.27l-0.1 -0.63z"/>
   <path class="fil98" d="M7136.21 16704.16l40.15 -318.14c6.34,-50.71 52.6,-86.75 103.36,-80.42 50.56,6.39 86.51,52.45 80.51,102.97l-38.27 318.39c-6.14,51.33 -52.69,87.96 -103.98,81.87 -51.34,-6.15 -87.96,-52.7 -81.87,-103.98l0.1 -0.68z"/>
   <path class="fil98" d="M7291.03 15869.39l95.47 -306.19c14.8,-47.56 65.27,-74.13 112.84,-59.37 47.36,14.71 73.83,65.04 59.46,112.4l-93.67 306.83c-14.67,48.1 -65.47,75.24 -113.66,60.62 -48.1,-14.66 -75.29,-65.52 -60.58,-113.66l0.15 -0.63z"/>
   <path class="fil98" d="M7578.84 15074.11l136.41 -290.22c20.61,-43.8 72.77,-62.66 116.61,-42.1 43.7,20.41 62.52,72.44 42.34,116.17l-134.71 291c-20.51,44.47 -73.16,63.82 -117.57,43.31 -44.42,-20.47 -63.83,-73.11 -43.31,-117.58l0.24 -0.58z"/>
   <path class="fil98" d="M7963.56 14324.26l166.21 -274.01c24.39,-40.26 76.75,-53.13 117,-28.75 40.06,24.29 52.93,76.45 28.93,116.61l-164.56 275.03c-24.39,40.8 -77.27,54.14 -118.16,29.71 -40.8,-24.39 -54.14,-77.32 -29.71,-118.12l0.29 -0.48z"/>
   <path class="fil98" d="M8418.73 13617.62l188.61 -259.5c26.85,-36.87 78.53,-45.1 115.45,-18.28 36.72,26.71 45,78.14 18.53,115.06l-186.92 260.66c-26.9,37.55 -79.16,46.21 -116.75,19.26 -37.55,-26.9 -46.16,-79.16 -19.26,-116.76l0.34 -0.43z"/>
   <path class="fil98" d="M8927.61 12950.23l206.03 -245.85c27.72,-33.1 77.03,-37.5 110.17,-9.72 32.91,27.53 37.41,76.44 10.26,109.54l-203.41 248.03c-27.97,34.11 -78.34,39.1 -112.45,11.13 -34.11,-27.97 -39.14,-78.34 -11.18,-112.45l0.58 -0.67z"/>
   <path class="fil98" d="M9477.14 12317.52l219.28 -234.14c27.88,-29.71 74.57,-31.26 104.32,-3.44 29.57,27.68 31.26,74.03 3.97,103.79l-216.77 236.41c-28.16,30.77 -75.92,32.8 -106.69,4.64 -30.78,-28.15 -32.81,-75.92 -4.65,-106.69l0.54 -0.59z"/>
   <path class="fil98" d="M10058.51 11715.07l229.93 -223.69c27.49,-26.71 71.42,-26.13 98.18,1.35 26.56,27.34 26.08,70.89 -0.83,97.65l-227.56 226.06c-27.92,27.67 -72.92,27.53 -100.6,-0.29 -27.67,-27.87 -27.53,-72.92 0.29,-100.6l0.59 -0.48z"/>
   <path class="fil98" d="M10665.75 11139.41l238.84 -214.2c26.76,-23.95 67.84,-21.73 91.84,4.98 23.8,26.56 21.72,67.36 -4.5,91.35l-236.56 216.72c-27.19,24.92 -69.39,23.03 -94.26,-4.11 -24.92,-27.19 -23.03,-69.39 4.11,-94.26l0.53 -0.49z"/>
   <path class="fil98" d="M11294.79 10588.04l246.48 -205.5c25.69,-21.49 63.92,-18.01 85.35,7.74 21.29,25.49 18,63.39 -7.26,84.96l-244.2 208.07c-26.23,22.31 -65.57,19.16 -87.87,-7.02 -22.31,-26.18 -19.21,-65.52 7.02,-87.83l0.49 -0.43z"/>
   <path class="fil98" d="M11942.63 10059.04l253.11 -197.37c24.48,-19.11 59.75,-14.76 78.87,9.72 18.97,24.34 14.76,59.32 -9.28,78.53l-250.98 200.02c-25.02,19.93 -61.45,15.83 -81.39,-9.19 -19.93,-25.02 -15.83,-61.4 9.19,-81.38l0.48 -0.34z"/>
   <path class="fil98" d="M12606.69 9551.32l259.11 -189.58c23.08,-16.89 55.5,-11.85 72.39,11.23 16.79,22.93 11.9,55.11 -10.79,72.09l-257.13 192.29c-23.61,17.71 -57.14,12.82 -74.85,-10.84 -17.71,-23.67 -12.88,-57.14 10.79,-74.86l0.48 -0.33z"/>
   <path class="fil98" d="M13285.75 9064.01l264.72 -181.74c21.58,-14.85 51.1,-9.38 65.9,12.24 14.71,21.39 9.39,50.66 -11.8,65.62l-262.79 184.55c-22.21,15.58 -52.84,10.21 -68.42,-11.95 -15.53,-22.21 -10.21,-52.84 12,-68.37l0.39 -0.34z"/>
   <path class="fil98" d="M13979.08 8597.27l270.1 -173.65c19.98,-12.83 46.59,-7.06 59.41,12.92 12.78,19.84 7.16,46.21 -12.53,59.18l-268.26 176.51c-20.61,13.54 -48.34,7.84 -61.93,-12.77 -13.55,-20.67 -7.84,-48.34 12.82,-61.89l0.39 -0.29z"/>
   <path class="fil98" d="M14686.49 8152.26l275.61 -164.51c18.29,-10.89 41.95,-4.93 52.94,13.36 10.84,18.19 4.98,41.71 -13.06,52.74l-273.83 167.37c-18.97,11.67 -43.79,5.67 -55.35,-13.35 -11.62,-18.97 -5.67,-43.8 13.35,-55.36l0.34 -0.24z"/>
   <polygon class="fil3" points="16110.6,6416.36 16246.47,7414.85 16864.32,6893.53 "/>
   <path class="fil87" d="M20522.77 5232.08l-2374.67 2732.34c-45.44,52.31 -110.28,83.86 -179.47,87.34 -69.24,3.59 -136.88,-21.19 -187.45,-68.62l-2653.52 -2487.56c-30.38,-28.49 -40.45,-72.53 -25.45,-111.39 15,-38.85 52.06,-64.74 93.67,-65.42l5326.88 -86.7z"/>
   <polygon class="fil3" points="16110.94,6416.45 20522.77,5232.08 16537.9,6819.21 16563.84,7097.73 "/>
   <polygon class="fil3" points="16792.85,7056.11 16246.47,7414.85 16537.9,6819.21 "/>
  </g>
 </g>
</svg>
