<?xml version="1.0" encoding="UTF-8"?>
<!DOCTYPE svg PUBLIC "-//W3C//DTD SVG 1.1//EN" "http://www.w3.org/Graphics/SVG/1.1/DTD/svg11.dtd">
<!-- Creator: CorelDRAW 2019 (64 Bit) -->
<svg xmlns="http://www.w3.org/2000/svg" xml:space="preserve" width="12.7mm" height="12.7mm" version="1.1" style="shape-rendering:geometricPrecision; text-rendering:geometricPrecision; image-rendering:optimizeQuality; fill-rule:evenodd; clip-rule:evenodd"
viewBox="0 0 6.74 6.74"
 xmlns:xlink="http://www.w3.org/1999/xlink">
 <defs>
  <style type="text/css">
   <![CDATA[
    .fil1 {fill:white}
    .fil0 {fill:#489B6C;fill-rule:nonzero}
   ]]>
  </style>
 </defs>
 <g id="Camada_x0020_1">
  <metadata id="CorelCorpID_0Corel-Layer"/>
  <g id="_1980217877792">
   <path class="fil0" d="M6.74 3.37c0,1.86 -1.51,3.37 -3.37,3.37 -1.86,0 -3.37,-1.51 -3.37,-3.37 0,-1.86 1.51,-3.37 3.37,-3.37 1.86,0 3.37,1.51 3.37,3.37z"/>
   <path class="fil1" d="M4.45 3.75c-0.05,-0.03 -0.32,-0.16 -0.37,-0.17 -0.05,-0.02 -0.08,-0.03 -0.12,0.03 -0.04,0.05 -0.14,0.17 -0.17,0.21 -0.03,0.04 -0.06,0.04 -0.12,0.01 -0.05,-0.03 -0.23,-0.08 -0.43,-0.27 -0.16,-0.14 -0.27,-0.32 -0.3,-0.37 -0.03,-0.05 -0,-0.08 0.02,-0.11 0.02,-0.02 0.05,-0.06 0.08,-0.09 0.03,-0.03 0.04,-0.05 0.05,-0.09 0.02,-0.04 0.01,-0.07 -0,-0.09 -0.01,-0.03 -0.12,-0.29 -0.16,-0.4 -0.04,-0.1 -0.09,-0.09 -0.12,-0.09 -0.03,-0 -0.07,-0 -0.1,-0 -0.04,0 -0.09,0.01 -0.14,0.07 -0.05,0.05 -0.19,0.18 -0.19,0.45 0,0.26 0.19,0.52 0.22,0.55 0.03,0.04 0.38,0.58 0.91,0.81 0.13,0.06 0.23,0.09 0.3,0.11 0.13,0.04 0.24,0.03 0.34,0.02 0.1,-0.02 0.32,-0.13 0.36,-0.25 0.04,-0.12 0.04,-0.23 0.03,-0.25 -0.01,-0.02 -0.05,-0.04 -0.1,-0.06zm-0.97 1.33l-0 0c-0.32,-0 -0.63,-0.09 -0.9,-0.25l-0.06 -0.04 -0.67 0.18 0.18 -0.66 -0.04 -0.07c-0.18,-0.28 -0.27,-0.61 -0.27,-0.95 0,-0.98 0.8,-1.78 1.78,-1.78 0.47,0 0.92,0.19 1.26,0.52 0.34,0.34 0.52,0.78 0.52,1.26 -0,0.98 -0.8,1.78 -1.78,1.78zm1.51 -3.29c-0.4,-0.4 -0.94,-0.63 -1.51,-0.63 -1.18,0 -2.14,0.96 -2.14,2.14 -0,0.38 0.1,0.74 0.29,1.07l-0.3 1.11 1.13 -0.3c0.31,0.17 0.66,0.26 1.02,0.26l0 0c0,0 -0,0 0,0 1.18,0 2.14,-0.96 2.14,-2.14 0,-0.57 -0.22,-1.11 -0.63,-1.51z"/>
  </g>
 </g>
</svg>
