<?xml version="1.0" encoding="UTF-8"?>
<!DOCTYPE svg PUBLIC "-//W3C//DTD SVG 1.1//EN" "http://www.w3.org/Graphics/SVG/1.1/DTD/svg11.dtd">
<!-- Creator: CorelDRAW 2019 (64 Bit) -->
<svg xmlns="http://www.w3.org/2000/svg" xml:space="preserve" width="5317.07mm" height="2858.94mm" version="1.1" style="shape-rendering:geometricPrecision; text-rendering:geometricPrecision; image-rendering:optimizeQuality; fill-rule:evenodd; clip-rule:evenodd"
viewBox="0 0 477262.26 256620.01"
 xmlns:xlink="http://www.w3.org/1999/xlink">
 <defs>
  <style type="text/css">
   <![CDATA[
    .fil7 {fill:#13D83B;fill-rule:nonzero}
    .fil22 {fill:#1E3D70;fill-rule:nonzero}
    .fil23 {fill:#233862;fill-rule:nonzero}
    .fil24 {fill:#2A4E96;fill-rule:nonzero}
    .fil4 {fill:#2B478B;fill-rule:nonzero}
    .fil11 {fill:#2C3A64;fill-rule:nonzero}
    .fil15 {fill:#2FD33A;fill-rule:nonzero}
    .fil18 {fill:#2FD350;fill-rule:nonzero}
    .fil12 {fill:#35488B;fill-rule:nonzero}
    .fil3 {fill:#365DA4;fill-rule:nonzero}
    .fil20 {fill:#44E649;fill-rule:nonzero}
    .fil16 {fill:#44E664;fill-rule:nonzero}
    .fil17 {fill:#4A75CB;fill-rule:nonzero}
    .fil8 {fill:#4FF17D;fill-rule:nonzero}
    .fil10 {fill:#5F9AA8;fill-rule:nonzero}
    .fil19 {fill:#699DEE;fill-rule:nonzero}
    .fil9 {fill:#80BDCC;fill-rule:nonzero}
    .fil25 {fill:#82B378;fill-rule:nonzero}
    .fil13 {fill:#935C2F;fill-rule:nonzero}
    .fil14 {fill:#A16D3C;fill-rule:nonzero}
    .fil1 {fill:#ACD29A;fill-rule:nonzero}
    .fil21 {fill:#C3E0F4;fill-rule:nonzero}
    .fil5 {fill:#C65447;fill-rule:nonzero}
    .fil6 {fill:#EA8E50;fill-rule:nonzero}
    .fil0 {fill:#EBF9F3;fill-rule:nonzero}
    .fil2 {fill:#FFB07B;fill-rule:nonzero}
   ]]>
  </style>
 </defs>
 <g id="Camada_x0020_1">
  <metadata id="CorelCorpID_0Corel-Layer"/>
  <g id="_2035175814208">
   <path class="fil0" d="M56249.73 255194.46c0,0 -96604.91,-96688.97 -36611.89,-154499.26 59992.19,-57811.45 107409.28,17238.66 140201.27,11709.03 41508.21,-6999 59458.91,-112303.95 121508.54,-112403.97 70601.19,-113.84 122423.43,41622.39 94818.76,141018.51 -20357.88,73310.43 119579.54,13276.5 99028.65,115601.25l-418945.34 -1425.56z"/>
   <path class="fil1" d="M266952.99 242630.97c-13132.38,-2114.96 -23046.7,2485.95 -32580.54,1163.39 -7603.19,-1054.67 -11565.29,-8744.96 -21782.44,-10924.05 2429.64,-1433.21 5261.04,-3226.01 6614.64,-4528.85 2629.75,-2532.8 6405.12,-7597.69 0,-7797.74 -4608.35,-143.8 -8199.46,7533.44 -9850.06,11852.77 -1513.14,-126.4 -3150.37,-136.25 -4934.91,-3.9 2109.07,-6797.42 6222.4,-19953.03 7228.3,-22479.94 1367.42,-3439.5 -4381.15,-14905.54 -11157.31,-2037.4 -4754.06,9025.01 -1526.52,19455.97 825.55,24880.46 -1856.61,298.93 -3608.45,730.15 -5282.67,1254.39 -5598.94,-12776.75 -23413.77,-49200.81 -42724.02,-44673.55 -21053.01,4932.93 24050.99,29420.26 35425.64,47574.98 -9292.77,4307.94 -17457.6,9539.74 -31572.65,5719.45 -37508.67,-10154.94 -40484.21,12693.63 -40484.21,12693.63l167623.17 56.37c0,0 -4216.1,-10636.63 -17348.49,-12750z"/>
   <path class="fil2" d="M221354.69 160414.83c170.93,1612.02 2454.85,1553.77 5033.73,1166.98 2579.32,-386.36 1912.92,291.43 5540.64,221.36 3626.12,-69.7 4838.02,-1308.73 4995.13,-1833.38 141.81,-463.92 -1617.52,-794.39 -3501.26,-1186.63 -237.11,-48.44 -474.21,-100.85 -712.86,-151.23 -2122.83,-466.33 -3571.79,-1996.05 -5418.54,-3312.65 -1751.85,-1247.3 -2930.6,-6963.22 -2930.6,-6963.22l-5156.28 -30.29c0,0 1619.89,5169.21 2464.71,6966.69 495.07,1057.48 -33.09,2415.1 -200.06,3432.39 -89.4,553.76 -176.82,1120.9 -114.62,1689.96z"/>
   <path class="fil3" d="M226388.42 161581.81c2579.32,-386.36 1912.92,291.43 5540.64,221.36 3626.12,-69.7 4838.02,-1308.73 4995.13,-1833.38 141.81,-463.92 -1617.52,-794.39 -3501.26,-1186.63l-21.7 35.02c0,0 -2291.4,1330.42 -5288.17,1130.37 -2441.04,-163.07 -4958.09,-1097.29 -6643.76,-1223.69 -89.4,553.76 -176.82,1120.9 -114.62,1689.96 170.93,1612.02 2454.85,1553.77 5033.73,1166.98z"/>
   <path class="fil2" d="M181038.66 160158.45c112.64,1617.52 2394.58,1646.7 4987.27,1357.56 2592.69,-289.46 1901.48,363.18 5529.19,428.91 3626.12,68.16 4882.5,-1126.4 5061.31,-1642.73 157.17,-460.4 -1586.8,-854.62 -3455.19,-1318.98 -234.73,-56.32 -469.86,-118.53 -704.99,-178.43 -2105.11,-545.83 -3495.81,-2128.72 -5292.13,-3513.87 -1701.42,-1312.32 -300.91,-6756.06 -300.91,-6756.06l-3913.6 -1847.91c0,0 -537.63,5610.33 -829.07,8448.4 -118.53,1161.86 -697.12,2329.22 -901.14,3341.01 -110.65,549.8 -219.32,1111.05 -180.73,1682.09z"/>
   <path class="fil3" d="M186025.93 161516.02c2592.69,-289.46 1901.48,363.18 5529.19,428.91 3626.12,68.16 4882.5,-1126.4 5061.31,-1642.73 157.17,-460.4 -1586.8,-854.62 -3455.19,-1318.98l-21.3 35.07c0,0 -2342.22,1242.95 -5329.13,928.28 -2433.55,-254.39 -4913.23,-1281.55 -6591.41,-1470.2 -110.65,549.8 -219.32,1111.05 -180.73,1682.09 112.64,1617.52 2394.58,1646.7 4987.27,1357.56z"/>
   <path class="fil4" d="M189828.49 79367.65c0,0 -1083.46,5248.04 -2168.91,31861.78 0,0 -2014.11,4927.76 -3474.51,10953.23 -1460.79,6025.42 -2489.87,31166.98 -2489.87,31166.98 0,0 582.5,839.7 2350.04,945.62 1442.67,86.65 2567.09,-546.27 2567.09,-546.27 0,0 10151.41,-32929.83 15092.21,-45713.69 4942.34,-12784.63 7838.32,-31038.98 7838.32,-31038.98l-19714.38 2371.34z"/>
   <path class="fil4" d="M202038.5 81614.57c0,0 800.33,5298.8 8995.83,30642.39 0,0 -182.72,5319.67 534.05,11478.21 716.83,6158.2 9013.17,30404.52 9013.17,30404.52 0,0 1101.19,382.83 2754.16,-53.18 1536.04,-405.62 2742,-1329.98 2742,-1329.98 0,0 -3181.15,-34655.7 -2971.62,-48359.96 209.97,-13704.26 -3394.52,-31832.61 -3394.52,-31832.61l-17673.07 9050.61z"/>
   <path class="fil5" d="M216553.71 8214.68c-1285.5,-817.62 -2864.43,-979.09 -3977.46,-968.85 301.29,-280.43 868.05,-359.6 868.05,-359.6 -683.36,-136.63 -2250.82,468.27 -2250.82,468.27 -9374.37,-4161.33 -11582.64,9839.1 -11543.66,13119.45 35.07,3279.9 -128.38,7045.08 -5047.49,9739.4 -9677.59,5301.17 -2258.7,15771.55 -2258.7,15771.55 -1741.99,4998.27 4707.6,11122.57 4707.6,11122.57 -110.65,-2654.51 12076.12,-19567.01 18645.83,-23425.55 1662.44,-2202.39 2414.28,-6202.25 2470.59,-6516.92 -427.3,3179.87 -1062.15,4943.56 -1600.18,5927.76 5633.96,-4688.34 3391,-22711.92 -13.76,-24878.09z"/>
   <path class="fil2" d="M214510.43 31870.62c33.09,14.97 -3071.98,1627.81 -5410.28,988.94 -2198.42,-599.02 -3635.59,-3450.45 -3604.48,-3456.78 929.87,-185.09 1200.06,-1464.32 1178.81,-6961.19l421.42 82.3 6822.57 1352.06 254.44 49.66c0,0 -161.46,2226.78 -167.41,4325.22 -1.53,443.43 5.95,880.98 21.7,1290.62 46.46,1218.17 182.33,2187.02 483.24,2329.17z"/>
   <path class="fil6" d="M214005.5 28250.84c-1.53,443.43 5.95,880.98 21.7,1290.62 -3967.61,-160.31 -6255.49,-4698.19 -7119.96,-6689.07l7011.23 1023.57 254.44 49.66c0,0 -161.46,2226.78 -167.41,4325.22z"/>
   <path class="fil5" d="M206365.7 21753.51c0,0 -2076.37,-3278.74 -2573.38,-6082.51 -357.23,-2001.95 662.05,-9421.98 8119.91,-8353.11 0,0 2165.39,213.06 4200.74,1588.01 1619.5,1093.7 3955.82,3454.03 1341.82,9928.83l-677.79 2187.41 -10411.31 731.36z"/>
   <path class="fil2" d="M214590.37 27222.09c0,0 -9290.8,-1228.03 -8436.57,-7001.43 854.67,-5773.79 229.24,-9820.49 6197.19,-9280.56 5967.95,539.94 6791.46,2912.88 6976.16,4909.26 182.38,1996.83 -2299.66,11543.27 -4736.78,11372.73z"/>
   <path class="fil5" d="M216592.69 11427.7c0,0 -3546.18,6394.04 -7589.81,6815.08 -4043.2,421.42 -5575.66,-873.56 -5575.66,-873.56 0,0 3340.18,-1927.84 4577.24,-5977.36 0,0 7155.02,-3472.97 8588.23,35.84z"/>
   <path class="fil5" d="M215881.81 11883.74c0,0 1670.32,1794.39 1912.87,3333.14 243.05,1538.74 0,4595.79 897.23,4624.53 0,0 2596.61,-4318.5 837.28,-7242.45 -1866.41,-3100.71 -3647.37,-715.22 -3647.37,-715.22z"/>
   <path class="fil7" d="M277576.2 90325.67c-1949.92,-4128.3 -7368.08,-7544.12 -11932.38,-7545.72 -3371.29,-0.77 -6344.45,1149.26 -8646.09,3023.54 -1316.61,1071.68 -3299.61,365.1 -3656.84,-1293.76l-3996.78 -18564.3c-582.88,-2706.93 -3249.18,-4429.6 -5956.49,-3846.71l-64654.16 13915.37c-2645.05,569.13 -4326.76,3174.37 -3758.07,5819.48l13899.63 64583.64c398.19,1847.52 1753.78,3240.93 3431.95,3776.57l-849.11 240.63 2511.55 0 19.26 -3.97c306.86,-8.64 617.57,-44.09 930.31,-111.03l1406.02 -302.9 0 0 16595.06 -3571.4c2328.46,-501.35 3272.48,-3318.5 1708.9,-5114.43 -1512.75,-1734.89 -2600.13,-3883.32 -3062.5,-6317.69 -1307.2,-6859.23 2934.51,-13653.89 9673.62,-15480.1 7496.45,-2030.68 15066.56,2648.57 16680.55,10144.25 606.12,2819.56 281.59,5622.94 -769.18,8088.81 -407.66,958.22 -71.67,1953.11 629.35,2520.25l-967.25 472.23 2243.34 -1.6 0 0c166.97,3.97 339.89,-10.24 516.33,-48.44l19813.19 -4264.17c2709.3,-582.88 4431.97,-3250.78 3849.47,-5958.86l-3971.57 -18449.74c-367.03,-1707.31 1190.59,-3203.94 2881.77,-2769.14 1955.87,502.56 4055.47,570.28 6162.5,116.6 8290.89,-1784.55 13138.34,-10858.33 9267.62,-19057.4z"/>
   <path class="fil8" d="M263360.34 82779.95c-3371.73,-0.77 -6345.27,1149.26 -8646.53,3023.54 -1314.63,1071.68 -3299.61,365.1 -3656.84,-1293.76l-3994.8 -18564.3c-582.89,-2706.93 -3249.25,-4429.6 -5956.5,-3846.71l-64654.15 13915.37c-2645.05,569.13 -4328.74,3174.37 -3758.08,5819.48l13899.63 64583.64c590.37,2746.23 3295.71,4492.96 6042,3902.2l18001.13 -3874.29c2328.39,-501.35 3274.4,-3318.5 1708.85,-5114.43 -1510.78,-1734.89 -2598.21,-3883.32 -3062.51,-6317.69 -1304.83,-6859.23 2934.51,-13653.89 9675.6,-15480.1 7496.45,-2030.68 15066.56,2648.57 16678.58,10144.25 607.71,2819.56 281.59,5622.94 -769.18,8088.81 -681.36,1602.6 720.73,3308.7 2423.75,2942.44l19813.2 -4264.17c2707.31,-582.88 4429.97,-3250.78 3847.48,-5958.86l-3969.59 -18449.74c-369.01,-1707.31 1188.23,-3203.94 2880.18,-2769.14 1955.48,502.56 4055.08,570.28 6164.09,116.6 8290.85,-1784.55 13136.35,-10858.33 9265.64,-19057.4 -1949.92,-4128.3 -7366.47,-7544.12 -11931.94,-7545.72z"/>
   <path class="fil2" d="M239703.57 58227.22c0,0 4033.78,660.84 5090.05,3283.48 1056.71,2622.59 -419.43,4398.06 -986.58,4392.17 -567.13,-6.27 -1656.49,-425.33 -2165.34,-1785.7 -510.82,-1359.93 -1938.13,-5889.95 -1938.13,-5889.95z"/>
   <path class="fil2" d="M184185.07 69929.54c0,0 4526.87,-5.89 6156.22,2669.88 1627.37,2675.82 335.93,4883.33 -285.55,4979.01 -621.47,95.73 -1887.72,-166.2 -2689.59,-1560.82 -802.26,-1394.62 -3181.08,-6088.07 -3181.08,-6088.07z"/>
   <path class="fil9" d="M239816.21 61270.84c-400.17,-85.43 -2155.92,-291.82 -4387.43,-643.16 -4111.41,-645.09 -9840.64,-1780.14 -11762.99,-3553.68 -520.67,-481.25 -1734.49,-3130.66 -2994.84,-6168.01 -1274.06,6724.13 -1345.73,11881.57 -1007.83,15807.83l-27779.51 5978.96c2380.75,-4815.56 6068.75,-10786.65 5377.53,-15618.78 -256.37,-1791.2 -1239.04,-4249.57 -1606.07,-7011.22 -29.57,-237.49 -56.32,-474.99 -78.01,-716 -3895.54,3207.46 -8395.61,6745.78 -8504.33,7453.52 -178.37,1186.3 2855.01,14319.46 2855.01,14319.46 -753.43,1733.73 -4025.9,1369.01 -4025.9,1369.01 -3064.87,-2188.62 -7574.46,-14594.76 -7212.88,-17342.98 361.13,-2748.27 11539.69,-18410.33 14245.03,-22153.87 2672.24,-3699.01 12429.38,-3606.41 12664.5,-3604.87l1.93 0c1.98,0 1.98,0 3.97,0 7758.38,4658.83 8457.43,786.9 8457.43,786.9 0,0 7001.42,1331.58 8203.41,3398.54 1204.41,2068.83 6480.76,17751.03 6853.73,18303.2 781.01,1155.14 13534.53,5776.15 13763.71,7113.62 231.21,1337.91 -1922.72,2524.15 -3066.47,2281.54z"/>
   <path class="fil10" d="M201568.63 70617.18l-9685.02 2075.6c2411.92,-4802.18 5581.16,-10783.13 4888.01,-15585.31 -258.36,-1792.35 -840.86,-3914.42 -1120.52,-6688.24 -27.14,-267.44 -74.04,-1072.46 -74.04,-1072.46 0,0 6859.62,5398.44 6980.12,11240.77 64.19,3030.63 -466.29,6995.48 -988.56,10029.63z"/>
   <path class="fil10" d="M235685.16 60663.91c-4159.8,-646.25 -9960.77,-1781.36 -11906.72,-3555.61 -526.62,-482.08 -1755.81,-3134.24 -3031.85,-6175.11 0,0 -446.63,-4888.44 831.39,-4705.67 1278.07,182.33 3157.85,8852.86 4499.74,9400.29 1200.39,491.17 7838.31,3039.32 9607.45,5036.1z"/>
   <path class="fil11" d="M440627.18 246893.98c-586.79,1977.05 -3296.47,3293.71 -3658.82,5709.98 -181.17,1178.76 -618.33,2093.44 -1177.6,2722.68l-8428.3 0c86.65,-464.14 452.96,-963.4 1547.82,-1202.16 2343.38,-512.69 3225.62,-3350.36 3079.91,-5985.57 -59.07,-1103.16 -31.55,-2363.46 23.62,-3452.87 74.82,-1509.18 196.92,-2693.88 196.92,-2693.88l4974.27 -1170.89 523.82 671.9 500.2 646.69c0,0 3001.07,2778.99 2418.18,4754.13z"/>
   <path class="fil11" d="M401376.52 255326.64l-17053.52 0c385.96,-452.64 1039.75,-889.53 2150.41,-1070.14 2622.98,-425.33 7167.96,-1947.94 8180.19,-5303.93 35.39,-106.69 62.98,-217.39 90.56,-330.03 803.47,-3585.16 6655.98,1099.22 6655.98,1099.22 0,0 19.71,143.79 47.29,386.4 102.4,1009.81 330.8,3748.23 -70.9,5218.48z"/>
   <path class="fil12" d="M387170.52 160325.43c0,0 886.11,11093.06 1933.79,24427.54 1421.75,18113.76 3127.14,40364.47 3296.47,44578.59 291.44,7320.06 1465.09,19026.73 1465.09,19026.73 0,0 2776.62,2780.92 8341.65,1610.03 0,0 4958.53,-16713.64 6372.46,-34396.13 23.62,-291.44 43.33,-582.89 66.94,-874.32 1319.36,-18003.11 3363.41,-55908.82 3363.41,-55908.82l-24839.82 1536.38z"/>
   <path class="fil11" d="M387170.52 160325.43c0,0 886.11,11093.06 1933.79,24427.54l19475.67 30819.22c23.62,-291.44 43.33,-582.89 66.94,-874.32 1319.36,-18003.11 3363.41,-55908.82 3363.41,-55908.82l-24839.82 1536.38z"/>
   <path class="fil12" d="M391231.05 161642.09c0,0 16025.61,40175.81 26560.95,59055.22 10539.36,18880.96 13831.87,24149.81 13831.87,24149.81 0,0 6037.7,-2415.81 6585.13,-4062.9 0,0 -4029.04,-36449.27 -11082.83,-45334 -3989.68,-5020.36 -8676.42,-20087.36 -8893.04,-25356.2 -220.53,-5268.86 -1425.72,-15696.73 -1425.72,-15696.73l-25576.36 7244.81z"/>
   <path class="fil13" d="M399450.6 99627.91c-712.86,-4207.07 -736.48,-6700.9 -736.48,-6700.9l8132.9 -6553.2c-303.22,9010.8 5470.56,13343.9 5470.56,13343.9 0,0 -10834.71,5333.42 -17100.81,3357.91 0,0 1543.85,-1970.4 4233.83,-3447.71z"/>
   <path class="fil14" d="M396800.04 92778.54c0,0 10346.29,1718.31 11315.19,-4739.98 972.76,-6458.29 2961.71,-10586.15 -3603.71,-11956.76 -6561.46,-1369.79 -8219.55,901.13 -9066.35,2977.89 -850.7,2076.76 -1311.49,13105.19 1354.87,13718.85z"/>
   <path class="fil14" d="M360467.76 106092.1l-2201.62 -1363.52c0,0 -2745.08,-4053.48 -7435.78,-1535.22 0,0 -1858.97,1184.33 -610.46,2176.4 1248.45,991.69 909.78,431.27 2638.71,1868 1729,1436.78 3962.1,1949.91 5403.57,1157.89l1847.14 -174.46 358.44 -2129.11z"/>
   <path class="fil15" d="M357852.6 106517.04c567.14,-1775.08 838.93,-1931.43 838.93,-1931.43 0,0 17809.66,2104.34 19487.46,2228.37 1677.79,124.47 24997.43,-4680.08 24997.43,-4680.08l11011.92 13369.94c0,0 -32464.71,1224.06 -36710.38,825.88 -7022.29,-657.76 -19755.33,-7193.99 -19755.33,-7193.99 0,0 -315.06,-1224.84 129.97,-2618.68z"/>
   <path class="fil16" d="M418028.34 156450.41c31.49,690.02 -1390.27,1447.36 -2008.61,1725.03 -4647.38,2083.86 -8979.7,3532.81 -13871.28,4002.68 -5801.37,596.26 -12658.18,-708.95 -15009.47,-677.85 -255.99,0 -472.62,-92.92 -661.66,-250.48 -157.5,-126.01 -283.57,-7214.48 -157.5,-16151.24 0,-345 0,-722.65 31.49,-1067.66l0 -124.08c11.84,-931.02 23.62,-1876.7 47.23,-2831.34 55.17,-2612.02 153.65,-5293.69 267.83,-7958.44 169.4,-3928.25 401.77,-7789.11 728.6,-11209.67 334.82,-3572.17 764.11,-6665.84 1307.58,-8860.34 1256.39,-5048.7 4143.28,-8374.74 6774.18,-10820.89l2166.16 -1910.94c2162.19,438.32 4454.37,311.92 6742.63,-816.08 2477.25,-1222.91 5175.1,-2540.68 5612.32,-2226.77 3343.71,2498.94 5596.52,8172.26 6746.54,15382.38 622.3,3880.57 925.58,8205.02 909.78,12720.88 -7.87,1732.13 -62.98,3490.25 -161.47,5264.5 -559.26,9522.4 15.74,17779 342.64,22577.6 94.52,1379.65 173.3,2477.32 193.01,3232.72z"/>
   <path class="fil17" d="M363035.63 68417.16l-65417.01 -10389.61c-2783.34,-441.51 -5395.3,1454.84 -5837.97,4236.59l-2895.59 18233.5c-133.89,844.76 81.53,3218.46 81.53,3218.46l2357.58 350.57c133.88,29.13 270.19,49.99 408.03,61.06l0 0c427.31,34.24 871.96,-18.94 1316.62,-179.64 2169.29,-784.92 4571.73,-1024.01 7014.81,-575.39 6886.75,1262.66 11705.07,7687.87 10970.95,14650.7 -815.64,7744.57 -7931.68,13128.43 -15523.42,11922.85 -2856.56,-453.68 -5359.86,-1773.48 -7284.56,-3648.58 -372.59,-363.89 -823.57,-556.07 -1275.7,-602.59l0 0 -2468.61 -370.23 -3072.42 22242.06c-434.79,2743.15 1435.19,5319.66 4179.5,5755.67l18686.85 2968.04c1730.15,274.49 2565.11,2272.08 1545.84,3696.25 -1176.83,1646.64 -2000.35,3585.17 -2340.23,5720.6 -1334.39,8397.97 5394.87,16214.22 14462.81,15563.62 4565.84,-326.13 9722.07,-4155.5 11376.63,-8423.18 1221.7,-3151.97 1221.7,-6348.79 302.83,-9178.6 -526.18,-1618.29 854.67,-3217.7 2534.4,-2950.7l18801.79 2986.15c2745.13,435.56 5320.87,-1433.98 5758.04,-4175.98l10397.55 -65490.66c425.32,-2678.91 -1398.14,-5195.2 -4080.24,-5620.97z"/>
   <path class="fil18" d="M410238.07 112461.38c0,0 -5013.69,23400.72 -23839.54,28614.09 55.17,-2612.02 153.65,-5293.69 267.83,-7958.44 169.4,-3928.25 401.77,-7789.11 728.6,-11209.67 334.82,-173.3 649.88,-308.39 937.36,-403.3 6388.22,-2106.65 21905.75,-9042.67 21905.75,-9042.67z"/>
   <path class="fil19" d="M326901.42 152482.81c1221.76,-3151.97 1223.29,-6348.41 304.87,-9178.6 -526.18,-1618.29 852.69,-3217.31 2534.4,-2950.7l18805.32 2986.54c2741.18,435.62 5316.97,-1434.75 5750.17,-4176.37l10401.45 -65490.66c425.38,-2678.91 -1402.04,-5195.2 -4080.24,-5620.97l-65418.55 -10389.61c-2781.35,-441.51 -5393.32,1455.22 -5836.04,4236.59l-2895.92 18233.88c-374.57,2358.73 1917.22,4263 4164.14,3450.06 2167.32,-785.31 4571.74,-1023.57 7014.75,-575.78 6886.82,1262.66 11703.15,7688.25 10970.58,14651.09 -815.26,7744.18 -7931.24,13128.43 -15524.59,11922.47 -2855.01,-453.68 -5358.25,-1772.71 -7284.99,-3648.58 -1250.82,-1218.56 -3353.94,-524.97 -3627.72,1200.06l-3186.97 20069.57c-435.19,2743.15 1435.19,5320.1 4177.13,5755.67l18688.77 2968.04c1728.62,274.49 2565.51,2272.08 1546.23,3696.25 -1179.15,1647.02 -2002.28,3585.17 -2340.23,5720.99 -1334.33,8397.58 5394.92,16213.83 14462.43,15563.23 4565.84,-326.13 9722.5,-4155.5 11375.04,-8423.18z"/>
   <path class="fil14" d="M360542.58 121179.14l-2689.98 -444.65c0,0 -3064.1,-4437.47 -8408.6,-1947.94 0,0 -2118.87,1185.48 -716.83,2294.92 1398.2,1110.22 1027.98,498.22 2969.63,2102.74 1937.7,1604.14 4466.21,2244.5 6108.56,1460.79l2099.16 -109.11 638.05 -3356.75z"/>
   <path class="fil20" d="M358486.68 122546.17c86.65,-1979.09 1142.16,-2190.15 1142.16,-2190.15 0,0 20373.67,-1347.77 22134.15,-1688.43 1756.59,-341.1 17983.02,-13786.56 17983.02,-13786.56 0,0 6277.88,-5640.29 10673.18,-3737.21 3820.35,1654.12 5017.6,4917.19 5210.61,7917.87 228.4,3576.13 -1788.07,6918.68 -5037.31,8435.01 -7286.15,3403.99 -21862.37,10085.96 -25178.55,10662.56 -7388.55,1283.14 -26379.77,-2829.36 -26379.77,-2829.36 0,0 -614.43,-1229.19 -547.49,-2783.73z"/>
   <path class="fil11" d="M395445.17 79059.69c0,0 -4202.29,-3113.75 -1461.12,-7950.95 0,0 3300.38,1095.25 7991.09,0 4694.66,-1094.92 8893.04,456.43 9440.53,2099.16 0,0 1823.47,730.2 2008.61,3468.23 181.17,2738.03 -5309.04,11362.43 -5309.04,11362.43 0,0 -1173.69,-1459.96 -854.67,-2463.49 322.99,-1004.3 1323.33,-3240.15 90.61,-3240.15 -1228.79,0 -1638.43,1825.45 -2142.54,1094.86 -500.2,-729.76 409.58,-3787.59 -1047.63,-4289.38 -1461.17,-502.12 -7073.49,842.46 -8715.84,-80.7z"/>
   <path class="fil21" d="M252742.65 252996.2l-18492.68 -83962.43 5090.49 0c1207.93,0 2194.51,-986.58 2194.51,-2194.52l0 -2835.69c0,-1205.95 -986.58,-2192.52 -2194.51,-2192.52l-64572.62 0c-1205.96,0 -2192.53,986.58 -2192.53,2192.52l0 2835.69c0,1207.94 986.58,2194.52 2192.53,2194.52l6554.41 0 -18492.68 83962.43c-248.5,1128.27 468.33,2256.6 1592.75,2505.16 1126.41,250.49 2250.83,-469.97 2499.33,-1598.14l18692.74 -84869.45 44343.46 0 18692.74 84869.45c248.5,1128.17 1373.31,1848.63 2497.35,1598.14l0 0c1126.79,-248.56 1843.23,-1376.89 1594.73,-2505.16z"/>
   <path class="fil1" d="M375374.84 201577.26c-6845.09,-6570.16 -31486.01,34889.61 -31486.01,34889.61 0,0 38331.03,-28317.53 31486.01,-34889.61z"/>
   <path class="fil1" d="M374551.65 220743.77c-6057.36,-2423.74 -25422.71,17991.66 -29784.98,22704.82 -3336.27,-442.66 -6997.46,-730.2 -11009.55,-801.87 -30663.65,-547.82 -44573.14,13340.26 -44573.14,13340.26l85540.96 291.16c0,0 -7577.59,-9620.88 -29073.71,-12707.06 5253.94,-2480.06 20787.23,-9706.7 26434.94,-11095.05 6848.99,-1683.69 9310.56,-8995.83 2465.48,-11732.26z"/>
   <path class="fil7" d="M350424.69 179132.39l-18462.35 0c-2388.68,0 -3909.3,2561.98 -2753.78,4651.67 1114.63,2019.66 -2810.03,19515.86 -11079.63,19972.35 -7776.11,429.29 -14210.34,-5775.76 -14210.34,-13462.86 0,-2891.57 910.93,-5571.69 2460.74,-7766.21 1007.82,-1427.31 -7.87,-3394.96 -1753.83,-3394.96l-20322.03 0c-2777.01,0 -5027.83,2251.21 -5027.83,5028.22 0,0 -1843.18,21811.56 -3408.34,21029.01 -1614,-806.23 -3412.31,-1297.33 -5315.76,-1394.62l1.98 -1.59 -19.33 0c-227.2,-11.79 -454.45,-17.67 -685.66,-17.67 -229.24,0 -3575.31,-58.3 -3575.31,-58.3l-506.91 26954.4 2905.38 31.1c2761.65,-83.9 5160.18,-341.87 7292.49,-1427.7 1514.73,-772.69 3311.45,337.97 3311.45,2039.38l0 19040.05c0,2775.47 2250.82,5026.3 5025.85,5026.3l66312.25 0c2713.59,0 4911.24,-2198.48 4911.24,-4911.68l0 -66238.59c0,-2815.98 -2284.3,-5098.3 -5100.29,-5098.3z"/>
   <path class="fil8" d="M263274.46 230357.16c3305.56,712.86 6461.43,211.51 9112.43,-1140.16 1516.66,-772.76 3313.44,339.89 3313.44,2041.3l0 19038.51c0,2776.95 2250.82,5027.79 5025.86,5027.79l66311.42 0c2713.59,0 4911.24,-2198.42 4911.24,-4911.63l0 -66238.59c0,-2815.99 -2280.34,-5099.9 -5096.32,-5099.9l-18465.48 0c-2388.68,0 -3909.31,2561.59 -2753.78,4653.27 1114.56,2019.66 1728.17,4355.93 1668.33,6837.98 -167.36,6999.45 -5756.45,12765.3 -12748.02,13134.37 -7776.06,407.6 -14210.34,-5775.77 -14210.34,-13462.86 0,-2891.58 910.99,-5571.69 2460.74,-7766.21 1007.88,-1427.32 -7.87,-3396.55 -1753.77,-3396.55l-20322.03 0c-2777.02,0 -5027.84,2252.81 -5027.84,5029.82l0 18921.92c0,1751.85 -1843.23,2889.65 -3408.39,2107.09 -1812.07,-905.05 -3855.35,-1415.86 -6018.71,-1415.86 -8502.35,0 -15165.82,7873.33 -13101.28,16727.4 1038.92,4457.18 5628.06,8948.98 10102.52,9912.33z"/>
   <path class="fil1" d="M71278.14 255695.53l11917.79 87.42c0,0 -414.77,-2884.03 -8437.01,-3627.99l0 0c-3110.18,-8638.21 -12247.44,-31879.07 -20181.82,-30781.85 -7834.02,1085.46 10719.26,22407.49 18267.36,30698.72 -1067.72,1.6 -2063.38,87.48 -2982.18,234.74 -1818.02,-3619.85 -5423.66,-8737.47 -11209.66,-8504.34 -6157.77,248.56 2231.5,5872.66 8007.27,9325.92 -2925.48,1048.78 -4505.57,2501.36 -4505.57,2501.36l8988.73 66.01c105.53,56.32 163.06,87.42 163.06,87.42 0,0 -9.46,-31.1 -27.96,-87.42z"/>
   <path class="fil6" d="M113859.19 159391.26l1763.25 1431.22c0,0 4824.2,-1730.54 5912.4,4002.67 0,0 290.29,2443.41 -1257.54,2446.92 -1547.05,5.95 -909,-265.84 -3099.99,-202.03 -2191.31,64.24 -4007.73,-1091.34 -4328.74,-2870.32l-1048.39 -1506.86 2059.02 -3301.6z"/>
   <path class="fil22" d="M113659.9 162463.62c1406.79,-1468.22 1293.38,-2553.67 1293.38,-2553.67 0,0 -16291.06,-13338.38 -17943.2,-14424.99 -1125.64,-740.44 -13122.98,-11376.63 -18731.33,-17860.52 -2781.75,-3216.54 -6227.52,-1968.47 -10169.91,-837.33l-3246.43 931.47c-3919.99,1124.42 -4940.04,6607.54 -1723.11,9271.9 9058.87,7503.17 24129,15943.25 26948.51,17716.74 6999.83,4404.37 20701.34,9636.23 20701.34,9636.23 0,0 1662.44,-617.56 2870.75,-1879.84z"/>
   <path class="fil23" d="M132725.17 244270.18c0,0 3953.4,2961.71 10011.2,1398.52 0,0 4884.87,-1114.95 5954.9,1322.56 0,0 -7490.11,3804.54 -9385.69,4845.45 -1428.47,784.54 -2919.21,2021.66 -3973.55,2979.16 -834.14,757.4 -2133.02,654.45 -2843.95,-219.55 -330.04,-403.85 -706.92,-887.64 -1120.08,-1446.91 -1154.76,-1565.16 -3846.32,-6620.52 -3846.32,-6620.52l5203.5 -2258.7z"/>
   <path class="fil4" d="M134571.16 242903.14c0,0 -2407.23,5550.45 -7964,4530.78 0,0 -11339.58,-9364.89 -19117.67,-19092.46 -2526.09,-3160.22 -4676.89,-6358.65 -5940.76,-9285.34 -5157.81,-11941.79 -19079.47,-29752.66 -27930.73,-38779.59l22145.17 -8011.24c0,0 7093.53,14268.64 16530.87,31795.94 6801.71,12627.51 14818.83,26948.51 22277.13,38841.91z"/>
   <path class="fil23" d="M112294.03 204061.23l-4804.54 24280.23c-2526.09,-3160.22 -4676.89,-6358.65 -5940.76,-9285.34 -5157.81,-11941.79 -19079.47,-29752.66 -27930.73,-38779.59l22145.17 -8011.24c0,0 7093.53,14268.64 16530.87,31795.94z"/>
   <path class="fil23" d="M94134.96 247420.16c0,0 -241.4,4428 5128.31,5020.36 0,0 3068.01,15.74 3077.1,2833.66l-15606.12 50.43c0,0 -453.35,-1137.97 -563.23,-3573.33 -84.29,-1870.37 1812.89,-6760.36 1812.89,-6760.36l6151.05 2429.25z"/>
   <path class="fil4" d="M88499.41 172265.29c0,0 9865.86,10840.6 16128,30370.61 3407.57,10625.19 -6245.19,37342.15 -8126.62,46623.47 0,0 -6475.19,549.85 -10902.42,-1161.03 0,0 -336.75,-19172.39 2252.81,-33949.88 1448.95,-8269.59 -12989.85,-17686.84 -19298.85,-32628.98 -4291.75,-10164.79 929.49,-9992.26 7346.38,-10236.85l12600.7 982.66z"/>
   <path class="fil2" d="M77110.99 123901.81c-5489.06,3099.55 -16725.85,241.02 -16725.85,241.02 0,0 4563.48,-5216.89 2489.91,-13619.21l4309.87 2188.62 4629.26 2351.25c0,0 299.32,1484.02 507.25,4148.77 53.18,686.5 100.42,1453.3 133.11,2291.02 2818.35,854.23 4656.46,2398.53 4656.46,2398.53z"/>
   <path class="fil24" d="M97238.09 171706.03c0,963.34 -1111.43,1425.33 -1347.77,1472.18 -2213.39,405.67 -8394.77,2810.09 -13963.38,3361.88 -4688.73,491.11 -9042.3,23.23 -13824.77,-936.16 -633.31,-128.43 -2120.08,-528.55 -2225.62,-1134.28 -131.96,-664.03 -18447.37,-37338.18 -4209.06,-53092 334,-369.83 3144.87,295.74 5715.1,905.82 2373.31,563.23 4550.87,249.33 6494.9,-530.92l2410.37 1268.6c2960.11,1649.45 8561.03,7509.44 9216.36,12107.61 332.79,2338.25 1670.32,4070 2057.05,6127.05 143.8,760.92 290.67,1504.12 439.92,2228.42 291.5,1420.99 592.35,2772.66 901.52,4058.55 837.33,3477.64 1721.52,6471.67 2589.56,9058.09 923.54,2745.47 1829.79,5029.39 2638.78,6940.71 1049.99,2478.08 1936.92,4330.73 2491.07,5748.57 391.47,998.03 615.97,1780.96 615.97,2415.88z"/>
   <path class="fil22" d="M96622.12 169290.15c-25854.42,-12182.04 -34808.52,-35572.14 -34808.52,-35572.14 0,0 21006.16,7748.91 26187.59,9766.21 291.5,1420.99 592.35,2772.66 901.52,4058.55 837.33,3477.64 1721.52,6471.67 2589.56,9058.09 923.54,2745.47 1829.79,5029.39 2638.78,6940.71 1049.99,2478.08 1936.92,4330.73 2491.07,5748.57z"/>
   <path class="fil17" d="M169652.18 143382.99l-5538.66 -17560.38c-538.02,-1705.76 -2301.65,-2513.15 -3843.58,-2079.12l0 0 -3.9 1.16c-81.54,23.23 -163.07,51.2 -242.61,81.14l-1942.05 648.67c0,0 -3041.31,3131.04 -5222.39,3762.43 -6708,1940.45 -13074.91,-1634.47 -15521.89,-8173.91 -2722.24,-7273.94 436,-15261.49 7747.76,-17567.48 2501.31,-788.5 7424.38,681.75 7424.38,681.75l1977.12 -656.92c1073.99,-326.51 1810.08,-1484.79 1427.7,-2700.6l-6096.39 -19328.8c-833.37,-2641.52 -3649.35,-4108.2 -6291.65,-3274.84l-17998.38 5676.13c-1665.58,524.96 -3300.82,-885.77 -3025.95,-2610.04 317.48,-1994.02 189.04,-4090.48 -459.18,-6147.53 -2550.97,-8088.04 -12037.92,-12065.44 -19840.01,-7446.02 -3928.24,2325.65 -6823.39,8039.14 -6398.39,12584.13 313.85,3356.75 1736.81,6209.79 3817.54,8325.91 1189.82,1209.92 671.52,3251.61 -946.83,3762.04l-18110.18 5711.14c-2640.38,832.98 -4106.28,3648.58 -3273.29,6289.34l19891.2 63074.02c813.27,2578.88 3564.68,4010.55 6144.78,3196.45l63003.94 -19868.36c2678.14,-844.76 4165.68,-3701.38 3320.92,-6380.29z"/>
   <path class="fil19" d="M93887.62 79911.94c313.52,3356.75 1736.49,6209.4 3817.59,8325.52 1189.77,1209.92 671.08,3251.61 -946.83,3762.04l-18110.18 5711.14c-2640.38,832.59 -4106.28,3648.58 -3273.68,6289.72l19891.2 63073.63c813.66,2579.32 3564.68,4010.55 6144.78,3196.84l63003.94 -19868.74c2680.12,-844.76 4165.68,-3701.33 3320.92,-6380.29l-5538.66 -17560.38c-716.83,-2272.13 -3608.45,-2949.92 -5251.57,-1224.5 -1584.82,1666.79 -3623.75,2950.31 -6003.02,3639.17 -6707.95,1940.45 -13868.86,-1647.08 -16316.22,-8186.91 -2721.85,-7273.93 1230.4,-15248.89 8542.54,-17554.87 2749.81,-867.23 5571.31,-804.63 8125.41,11 1658.48,530.53 3227.54,-1025.55 2703.35,-2686.78l-6096.33 -19328.8c-832.99,-2641.91 -3649.79,-4107.82 -6291.26,-3274.84l-17998.76 5676.13c-1665.19,525.4 -3300.44,-885.4 -3025.95,-2610.05 317.87,-1994.4 189.04,-4090.47 -459.62,-6147.52 -2550.53,-8088.04 -12036.71,-12065.44 -19839.19,-7446.02 -3928.24,2326.03 -6823.39,8039.14 -6398.45,12584.51z"/>
   <path class="fil2" d="M111748.97 162230.48l2234.25 819.6c0,0 4474.08,-3163.74 7259.4,1981.03 0,0 1007.82,2246.92 -587.23,2734.51 -1595.11,489.13 -1014.98,29.12 -3256.72,776.66 -2241.75,745.95 -4450.08,207.93 -5296.83,-1392.25l-1518.25 -1115.01 1165.38 -3804.54z"/>
   <path class="fil24" d="M113587.4 165390.31c826.33,-2155.92 1203.59,-3132.64 1203.59,-3132.64 0,0 -16881.77,-13760.19 -18601.74,-14940.16 -1172.48,-804.24 -12841.71,-9527.13 -18530.83,-16324.92 -2822.31,-3371.73 -7271.95,-4913.23 -11575.53,-4010.94l-3543.81 743.2c-4279.14,897.55 -5669.4,6313.72 -2350.09,9159.27 9349.15,8014.76 25116.73,17310.72 28056.8,19244.13 7298.76,4799.37 23441.74,11524.72 23441.74,11524.72 0,0 1251.65,-571.1 1899.88,-2262.66z"/>
   <path class="fil6" d="M72321.42 119212.26c-5397.67,303.28 -8907.58,-4153.51 -8907.58,-4153.51 0,0 2440.26,-1351.68 3771.08,-2346.51l4629.26 2351.25c0,0 299.32,1484.02 507.25,4148.77z"/>
   <path class="fil2" d="M74621.08 113670.85c0,0 -8178.21,5869.08 -11754.73,719.57 -3576.9,-5149.56 -7041.18,-7860.01 -1970.39,-11824.86 5070.39,-3964.8 7460.61,-2712 9072.24,-1283.91 1612.01,1428.47 6687.91,10729.56 4652.89,12389.19z"/>
   <path class="fil23" d="M70832.29 96631.53c-293.43,-1979.86 -953.1,-3372.5 -953.1,-3372.5 0,0 -513.2,2126.35 -4398.44,1832.54 -3885.3,-293.03 -10043.07,382.44 -12096.21,4809.67 -130.75,281.97 -246.96,571.82 -350.13,868.39 -371.81,-981.46 -461.22,-2452.43 -461.22,-2452.43 -738.46,1906.21 0,4290.53 0,4290.53l0 0c-10.63,69.31 -20.04,139 -30.29,208.76 -857.03,725.02 -1577.38,2978.22 -1577.38,2978.22 258.73,-628.2 889.68,-1038.55 1452.52,-1291.02 -17.33,3444.95 1379.65,6813.16 3831.69,7815.48 3586.38,1466.29 3557.64,347.76 7164.1,2739.57 0,0 967.26,-1200.01 307.57,-2006.62 -660.06,-806.22 -3152.35,-1979.09 -1759.33,-3151.97 1392.63,-1172.86 1905.82,146.55 2419.02,-659.68 513.19,-806.61 -2052.32,-3152.35 1246.14,-5351.6 3298.84,-2199.18 5498.09,-5278.32 5205.06,-7257.36z"/>
   <path class="fil25" d="M281367.35 255355.7c0,0 -4137,-6113.62 -10607.84,-5620.52 -1967.26,149.63 -5164.15,629.35 -8877.31,1140.16 -2800.62,-9772.88 -10518.43,-32999.97 -20929.74,-34309.09 -10631.07,-1333.95 10174.58,24497.63 18682.87,34611.99 -1552.16,203.96 -3163.8,404.07 -4789.19,580.52 -4506.01,-4810.44 -12355.72,-11935.9 -18910.52,-11388.47 -6570.16,549.8 5731.22,7343.25 14612.49,11786.66 -5449.64,407.99 -10615.32,363.5 -13771.25,-856.27 -7731.57,-2988.84 -14837.71,4055.03 -14837.71,4055.03l59428.18 0z"/>
  </g>
 </g>
</svg>
